<svg width="36" height="36" viewBox="0 0 36 36" fill="none" xmlns="http://www.w3.org/2000/svg">
<path d="M18 36C8.05888 36 0 27.9411 0 18C0 8.05887 8.05888 0 18 0C27.9411 0 36 8.05887 36 18C36 27.9411 27.9411 36 18 36Z" fill="black"/>
<path d="M12.121 26.8457C11.941 26.4231 11.9729 25.8464 12.1425 25.4277C12.3113 25.1253 12.5101 24.8689 12.7587 24.627C12.7874 24.5986 12.8161 24.5693 12.8456 24.54C12.9408 24.4459 13.0371 24.3525 13.1328 24.2588C13.2014 24.1911 13.2702 24.1234 13.3388 24.0557C13.5245 23.8723 13.7103 23.6887 13.8964 23.5059C14.0911 23.3145 14.2861 23.1234 14.4804 22.9316C14.8066 22.61 15.1324 22.288 15.4589 21.9668C15.7951 21.6361 16.1318 21.3057 16.4677 20.9746C16.4884 20.9542 16.5089 20.9332 16.5302 20.9121C16.6342 20.8096 16.7387 20.707 16.8427 20.6045C17.7044 19.7552 18.5662 18.9061 19.4286 18.0576C19.3739 17.9393 19.318 17.8522 19.2245 17.7607C19.2004 17.7369 19.1762 17.713 19.1513 17.6885C19.1247 17.6626 19.0977 17.637 19.0703 17.6104C19.0278 17.5687 19.0276 17.5689 18.9843 17.5264C18.8892 17.4331 18.7936 17.3401 18.6982 17.2471C18.63 17.1803 18.5622 17.1127 18.4941 17.0459C18.3473 16.902 18.2006 16.758 18.0536 16.6143C17.8208 16.3865 17.5877 16.1589 17.3554 15.9307C17.0294 15.6104 16.7031 15.2898 16.3769 14.9697C16.3563 14.9495 16.3356 14.929 16.3144 14.9082C15.9797 14.5798 15.6448 14.2517 15.3095 13.9238C14.9648 13.5867 14.62 13.2494 14.2763 12.9111C14.0835 12.7215 13.8909 12.5315 13.6972 12.3428C13.5147 12.165 13.3326 11.9866 13.1513 11.8076C13.0849 11.7423 13.018 11.6771 12.9511 11.6123C12.4718 11.1479 12.0387 10.6864 12.0214 9.9873C12.0167 9.43351 12.1107 9.00688 12.5068 8.59277C13.0851 8.01619 14.1074 7.7692 14.8281 8.26953C15.0672 8.45191 15.2837 8.64831 15.497 8.85938C15.5319 8.89359 15.5675 8.92764 15.6035 8.96289C15.7194 9.07666 15.8354 9.19061 15.9511 9.30469C16.0345 9.38666 16.1177 9.46886 16.2011 9.55078C16.4272 9.77283 16.6531 9.99534 16.8788 10.2178C17.02 10.3569 17.1614 10.4967 17.3027 10.6357C17.6944 11.0214 18.0862 11.407 18.4775 11.793C18.5024 11.8176 18.528 11.8418 18.5536 11.8672L18.8583 12.168C19.2663 12.5704 19.6751 12.9724 20.0839 13.374C20.5044 13.7871 20.9242 14.2012 21.3437 14.6152C21.5789 14.8474 21.8147 15.0791 22.0507 15.3105C22.2516 15.5075 22.4524 15.7053 22.6523 15.9033C22.754 16.0041 22.8555 16.105 22.9579 16.2051C23.0694 16.314 23.1805 16.4233 23.291 16.5332C23.3231 16.5642 23.3555 16.595 23.3886 16.627C23.7676 17.0081 23.9784 17.4743 23.9999 18.0068C23.983 18.6418 23.6916 19.0964 23.246 19.5322C23.2112 19.567 23.1765 19.6019 23.1406 19.6377C23.0245 19.7533 22.9076 19.8684 22.791 19.9834C22.7071 20.0665 22.6227 20.1502 22.539 20.2334C22.3356 20.4355 22.1318 20.6375 21.9277 20.8389C21.7617 21.0027 21.5953 21.166 21.4296 21.3301C20.9075 21.8469 20.3853 22.364 19.8622 22.8799C19.4506 23.286 19.0393 23.6924 18.6288 24.0996C18.2064 24.5186 17.7838 24.9376 17.3603 25.3555C17.1228 25.5898 16.885 25.8245 16.6484 26.0596C16.447 26.2596 16.2454 26.4594 16.0429 26.6582C15.9398 26.7595 15.8366 26.8608 15.7343 26.9629C15.1805 27.5151 14.704 27.9897 13.8749 28C13.3446 27.9991 12.9049 27.8263 12.5146 27.4668C12.3616 27.3051 12.2575 27.1285 12.163 26.9287C12.1492 26.9015 12.1353 26.8737 12.121 26.8457Z" fill="#F7F7F7"/>
</svg>
