<svg width="36" height="36" viewBox="0 0 36 36" fill="none" xmlns="http://www.w3.org/2000/svg">
<path d="M18 36C8.05888 36 0 27.9411 0 18C0 8.05887 8.05888 0 18 0C27.9411 0 36 8.05887 36 18C36 27.9411 27.9411 36 18 36Z" fill="#242424"/>
<path d="M15.4621 10.2158C15.6535 10.3617 15.8272 10.5184 15.9979 10.6873C16.0258 10.7146 16.0538 10.742 16.0826 10.7702C16.1754 10.8613 16.268 10.9526 16.3606 11.0439C16.4274 11.1095 16.4942 11.1751 16.561 11.2407C16.742 11.4184 16.9227 11.5964 17.1034 11.7745C17.2163 11.8858 17.3293 11.9971 17.4423 12.1083C17.7558 12.4169 18.0691 12.7255 18.3822 13.0343C18.4022 13.0541 18.4222 13.0738 18.4428 13.0941C18.4728 13.1238 18.4728 13.1238 18.5035 13.154C18.5441 13.1941 18.5847 13.2341 18.6253 13.2742C18.6454 13.294 18.6656 13.3139 18.6863 13.3343C19.0128 13.6563 19.3397 13.9778 19.6668 14.2991C20.0032 14.6297 20.3393 14.9606 20.675 15.2919C20.8632 15.4776 21.0516 15.6632 21.2404 15.8484C21.4011 16.006 21.5615 16.164 21.7214 16.3224C21.8029 16.4031 21.8846 16.4835 21.9666 16.5637C22.0558 16.6509 22.1443 16.7387 22.2327 16.8266C22.2584 16.8514 22.2841 16.8763 22.3106 16.9018C22.6138 17.2068 22.7828 17.5796 22.8 18.0057C22.7864 18.5137 22.5534 18.8773 22.1969 19.2259C22.169 19.2538 22.141 19.2816 22.1123 19.3103C22.0193 19.4029 21.9258 19.495 21.8323 19.5871C21.7653 19.6536 21.6983 19.7202 21.6313 19.7868C21.4685 19.9484 21.3054 20.1097 21.1421 20.2708C21.0093 20.4019 20.8766 20.5331 20.744 20.6644C20.3263 21.0779 19.9082 21.4909 19.4898 21.9036C19.1604 22.2286 18.8317 22.5541 18.5032 22.88C18.1653 23.2152 17.8269 23.55 17.488 23.8843C17.298 24.0718 17.1083 24.2594 16.919 24.4475C16.7578 24.6076 16.5962 24.7673 16.434 24.9265C16.3515 25.0076 16.2692 25.0889 16.1873 25.1707C15.7441 25.6125 15.363 25.9919 14.6996 26C14.2753 25.9993 13.9241 25.861 13.6118 25.5734C13.4893 25.4439 13.4058 25.3026 13.3302 25.1426C13.3191 25.1209 13.3081 25.0991 13.2967 25.0767C13.1526 24.7386 13.1786 24.2774 13.3143 23.9424C13.4494 23.7003 13.6083 23.4949 13.8073 23.3012C13.8302 23.2785 13.8532 23.2557 13.8768 23.2323C13.9529 23.157 14.0294 23.0821 14.1059 23.0071C14.1608 22.9529 14.2158 22.8987 14.2707 22.8444C14.4192 22.6977 14.5681 22.5513 14.7171 22.405C14.8729 22.2519 15.0284 22.0984 15.1839 21.945C15.4449 21.6877 15.706 21.4305 15.9672 21.1735C16.2362 20.909 16.5051 20.6443 16.7738 20.3794C16.7904 20.3631 16.807 20.3467 16.8241 20.3299C16.9073 20.2478 16.9905 20.1658 17.0738 20.0838C17.7632 19.4042 18.4531 18.725 19.1432 18.0461C19.0994 17.9514 19.0544 17.8821 18.9796 17.8089C18.9602 17.7898 18.9408 17.7707 18.9208 17.7509C18.8995 17.7303 18.8782 17.7096 18.8562 17.6883C18.8222 17.6549 18.8222 17.6549 18.7876 17.6209C18.7115 17.5462 18.6352 17.4718 18.5589 17.3974C18.5043 17.344 18.4498 17.2905 18.3953 17.2371C18.2778 17.1219 18.1602 17.0068 18.0425 16.8917C17.8562 16.7095 17.6703 16.527 17.4844 16.3444C17.2236 16.0882 16.9627 15.832 16.7017 15.576C16.6851 15.5597 16.6686 15.5435 16.6515 15.5267C16.3837 15.264 16.1155 15.0016 15.8473 14.7392C15.5715 14.4695 15.2961 14.1992 15.0211 13.9286C14.8669 13.7769 14.7124 13.6253 14.5575 13.4744C14.4115 13.3321 14.266 13.1893 14.121 13.0461C14.0679 12.9939 14.0146 12.9418 13.9611 12.89C13.5775 12.5184 13.2307 12.1492 13.2169 11.5898C13.2131 11.1467 13.2885 10.8054 13.6053 10.4741C14.068 10.0128 14.8855 9.81552 15.4621 10.2158Z" fill="white"/>
</svg>
