<svg width="88" height="64" viewBox="0 0 88 64" fill="none" xmlns="http://www.w3.org/2000/svg">
<g clip-path="url(#clip0_630_2095)">
<path d="M36.3689 63.524C37.3433 62.8394 38.362 62.2501 39.383 61.6648C41.467 60.472 43.5306 59.2308 45.6577 58.1373C46.3801 57.7662 47.0819 57.3429 47.7849 56.9249C47.9519 56.8256 48.0972 56.7851 48.2381 56.8007C48.263 56.7994 48.288 56.8034 48.3141 56.8164C48.4368 56.8478 48.5595 56.9222 48.6923 57.0437C49.1443 57.4553 49.4964 58.0027 50.0131 58.3202C50.1937 58.4103 50.3766 58.409 50.5606 58.3359C50.9558 58.2248 51.2738 57.9505 51.5952 57.6865C51.8893 57.4448 51.9552 57.1378 51.7496 56.7785C51.3919 56.1488 50.9569 55.5844 50.5719 54.9782C50.2323 54.4425 49.8598 53.933 49.5839 53.3464C49.5396 53.1621 49.443 53.025 49.3022 52.9244C49.0217 52.6095 48.8002 52.2411 48.5856 51.8674C48.5322 51.6963 48.4482 51.5525 48.3073 51.4611C48.1903 51.3696 48.0915 51.2612 48.0325 51.111C47.9814 50.9398 47.8894 50.8065 47.7508 50.7164C47.5998 50.5962 47.4669 50.4577 47.3874 50.2617C47.334 50.0788 47.2205 49.9547 47.0842 49.8528C46.5663 49.1865 46.1257 48.4522 45.71 47.701C45.3909 47.1261 45.0558 46.567 44.7072 46.0156C44.5811 45.817 44.4346 45.6328 44.4846 45.3571C44.4846 45.3558 44.4846 45.3532 44.4857 45.3519C44.2302 45.0723 44.0485 44.7274 43.8588 44.3916C43.609 43.9487 43.3716 43.4954 43.1297 43.0446C43.1195 43.0407 43.1081 43.0381 43.0979 43.0329C42.7322 42.8029 42.6118 42.3457 42.3745 41.9955C42.3188 41.8218 42.2348 41.6715 42.1007 41.5631C42.0553 41.5174 42.019 41.4625 41.9906 41.4024C41.9349 41.2534 41.8486 41.1359 41.7294 41.047C41.6453 40.9778 41.5783 40.8928 41.5329 40.7857C41.4761 40.6054 41.3637 40.48 41.224 40.3833C40.5914 39.5994 40.0247 38.7528 39.5295 37.85C39.0094 36.9015 38.4722 35.966 37.8987 35.062C37.4535 34.3617 37.1366 33.5856 36.8323 32.8069C36.4961 31.9486 36.027 31.2078 35.5205 30.4801C34.5858 29.1357 33.8817 27.6175 33.131 26.1373C32.4644 24.8229 31.9033 23.4407 31.2844 22.0963C30.8642 21.183 30.1419 20.5024 29.741 19.5656C29.5241 19.0587 29.2401 18.6053 28.8506 18.2526C28.6893 18.0997 28.5235 18.1311 28.3554 18.2382C27.967 18.4407 27.5752 18.6275 27.1663 18.7752C26.7121 18.9398 26.6564 19.2037 26.9426 19.6283C27.5945 20.5977 27.6036 20.7715 26.6791 21.4012C25.054 22.5078 23.4401 23.6353 21.7945 24.7041C19.5265 26.1778 17.2744 27.6842 14.9258 28.9841C13.3892 29.8347 11.8095 30.582 10.3501 31.6102C10.1707 31.7369 9.99122 31.7369 9.78566 31.6455C9.34501 31.4482 9.23484 31.5279 9.18374 32.0413C9.16784 32.2046 9.13604 32.3248 9.02247 32.4477C8.8135 32.6724 8.86915 32.8919 9.14399 32.8723C9.56987 32.8409 9.73341 33.1492 9.91967 33.4746C10.2308 34.0181 10.5023 34.5864 10.7476 35.1704C11.3506 36.6049 12.249 37.803 13.0837 39.0494C13.6243 39.8568 14.0956 40.7073 14.5624 41.5722C16.0979 44.4139 17.6447 47.2437 19.4061 49.9181C20.5452 51.6479 21.6355 53.4261 22.6406 55.2695C23.3061 56.4898 23.2641 56.6505 22.2386 57.407C20.2874 58.8467 18.3068 60.2211 16.2035 61.3487C14.6578 62.1783 13.0985 62.9739 11.5289 63.7435C11.2882 63.861 11.0247 63.8676 10.793 64.0008H13.0792C13.9605 63.4626 14.9111 63.1111 15.8298 62.6761C17.8037 61.7419 19.7048 60.6562 21.4867 59.2961C22.1193 58.8127 22.7951 58.4038 23.4492 57.9583C24.1499 57.4801 24.6746 56.8412 24.979 55.9437C25.2754 55.0683 25.7433 54.3275 26.4225 53.7592C27.2708 53.0485 28.1555 52.3913 28.9471 51.5904C29.0209 51.5147 29.1073 51.4114 29.2503 51.5316C29.097 51.9131 28.837 52.2006 28.5882 52.4945C28.1839 52.9714 27.7649 53.4326 27.3628 53.9108C27.0198 54.3184 26.9494 54.8005 27.1641 55.1337C27.4151 55.5243 27.8921 55.6719 28.3134 55.3963C29.0016 54.9468 29.7978 54.76 30.4372 54.1982C30.5235 54.1224 30.6473 53.967 30.7483 54.1211C30.8471 54.2714 30.6802 54.3667 30.603 54.4517C30.1055 54.9991 29.5729 55.4903 28.9335 55.8104C28.4065 56.073 28.2714 56.3552 28.4258 56.8478C28.5474 57.2345 28.9233 57.403 29.3946 57.2149C29.9249 57.0032 30.4383 56.7354 30.9596 56.4924C31.0436 56.4532 31.1288 56.4075 31.248 56.4611C31.0402 56.8151 30.7177 56.9641 30.4076 57.1169C29.9749 57.3299 29.5252 57.4971 29.0914 57.7101C28.6893 57.9086 28.4928 58.328 28.6325 58.7213C28.787 59.1524 29.0902 59.3236 29.4854 59.1707C30.2043 58.8924 30.9187 58.5972 31.6353 58.3097C31.7262 58.2052 31.8397 58.1334 31.9272 58.2719C31.9533 58.3137 31.817 58.4051 31.7239 58.4169C31.0516 58.8663 30.3383 59.206 29.6047 59.496C26.9392 60.5491 24.552 62.2214 22.1784 63.9211C22.1557 63.9368 22.1466 63.976 22.1318 64.0048H24.51C25.1505 63.4456 25.8898 63.0837 26.5792 62.6212C26.7143 62.531 26.795 62.5663 26.8802 62.7009C27.1539 63.1386 27.4923 63.5201 27.7115 64.0048H28.6257C28.3486 63.4181 27.9897 62.8969 27.6297 62.3795C27.4832 62.1691 27.4912 62.0725 27.7172 61.9732C28.0999 61.8046 28.4713 61.6021 28.8494 61.4231C28.9505 61.3748 29.1061 61.2585 29.1163 61.5107C29.1368 62.0163 29.4627 62.3089 29.691 62.6695C29.9738 63.1163 30.3565 63.4782 30.5462 64.0048H31.2776C31.2015 63.716 31.2446 63.6011 31.5513 63.5187C32.6597 63.2209 33.6046 62.484 34.6063 61.9013C34.8596 61.755 35.0833 61.5198 35.4047 61.5734C35.4671 61.5838 35.5614 61.5303 35.6046 61.4715C36.3042 60.519 37.2865 60.0435 38.2258 59.5574C39.7533 58.767 41.1911 57.7767 42.7197 56.9941C43.2614 56.7171 43.8191 56.482 44.3562 56.1958C44.9479 55.881 45.1172 55.165 44.7674 54.517C44.4937 54.0114 44.2018 53.5188 43.9235 53.0158C43.7611 52.7219 43.5113 52.4736 43.6975 52.0386C43.7782 51.8491 43.6203 51.5774 43.4159 51.597C43.0672 51.6309 42.9798 51.3461 42.8446 51.107C38.554 43.4941 34.2656 35.8798 29.9772 28.2643C29.3401 27.1341 28.7007 26.0053 28.0783 24.8647C27.8648 24.4728 27.6502 24.4062 27.2924 24.6361C26.2578 25.3011 25.1993 25.9191 24.1636 26.5854C23.8978 26.7566 23.8024 26.6769 23.6332 26.426C23.397 26.0746 23.4163 25.4605 22.8825 25.4004C22.7882 25.471 22.6951 25.5428 22.6008 25.6134C22.3885 26.2928 22.8428 26.7095 23.0994 27.2308C21.3084 28.3335 19.5277 29.4283 17.7469 30.5258C16.0456 31.5749 14.3455 32.628 12.6419 33.6745C12.383 33.8338 12.1956 34.0403 12.3569 34.3787C12.5204 34.721 12.7964 34.6726 13.0213 34.4662C13.4017 34.1174 13.6493 34.2833 13.8798 34.6831C14.459 35.6878 15.0439 36.6768 15.5016 37.7782C16.0774 39.1644 16.7838 40.4787 17.4505 41.8139C19.3028 45.5218 21.38 49.0598 23.5696 52.5115C23.8478 52.9492 24.3237 53.3072 24.4259 53.7827C24.5293 54.2635 24.0307 54.7038 23.8637 55.2016C23.7774 55.4577 23.7593 55.749 23.5889 55.975C22.4634 53.3006 20.9405 50.9254 19.4061 48.5855C17.8684 46.2403 16.5737 43.7306 15.2711 41.2273C14.4057 39.5641 13.3529 38.076 12.3637 36.5265C11.5948 35.3219 11.0701 33.958 10.4182 32.6763C10.2763 32.398 10.5159 32.398 10.6227 32.334C11.9844 31.5174 13.3869 30.8002 14.7827 30.0659C17.0927 28.8509 19.3266 27.4608 21.5526 26.055C21.8672 25.8564 22.1943 25.6826 22.5157 25.4971C22.5554 25.3468 22.6758 25.3377 22.778 25.2959C24.2124 24.414 25.5559 23.3466 27.0187 22.5209C27.2742 22.3772 27.5059 22.1629 27.7274 21.9513C27.9522 21.737 28.0533 21.7919 28.2044 22.0741C31.398 28.0578 34.5438 34.0769 37.8249 39.9966C40.0349 43.984 42.5153 47.7663 44.781 51.7172C45.509 52.9858 46.3891 54.1407 47.2205 55.327C47.4578 55.6654 47.4669 55.8104 47.1001 56.0221C44.9513 57.2606 42.8117 58.5201 40.6777 59.79C38.5426 61.0599 36.42 62.356 34.3655 63.7944C34.2769 63.8571 34.1952 63.9329 34.1111 64.0021H35.9396C35.9441 63.9773 35.9419 63.9407 35.9498 63.9238C35.9975 63.6807 36.219 63.6324 36.3689 63.5279V63.524ZM31.9317 53.0367C31.7443 52.6931 31.4536 52.5808 31.1163 52.5585C30.6518 52.5285 30.3758 52.0333 30.5201 51.5107C30.8187 50.4263 30.4769 49.8267 29.5502 49.8097C29.4366 49.8763 29.3015 49.99 29.2231 49.7979C29.1811 49.6973 29.2992 49.696 29.3707 49.7078C29.8137 49.5601 30.2111 49.2962 30.595 49.0192C30.9016 48.7985 31.072 48.8089 31.2776 49.1865C31.8977 50.3271 32.5507 51.4441 33.2071 52.5977C32.8937 52.7741 32.5802 52.9427 32.2747 53.1256C32.1293 53.2131 32.0271 53.2079 31.934 53.0367H31.9317ZM26.7848 45.5962C26.7848 45.5871 26.7848 45.5779 26.7848 45.5701C26.1056 44.6177 25.5775 43.5411 24.954 42.5443C24.8529 42.3836 24.8984 42.313 25.0256 42.2307C25.4492 41.9589 25.8728 41.6846 26.2896 41.3985C26.4554 41.2848 26.5542 41.324 26.6587 41.5017C27.1368 42.3117 27.6184 43.1191 28.1101 43.9174C28.2316 44.1147 28.1953 44.214 28.0249 44.3133C27.6626 44.5262 27.3878 44.9064 26.9733 45.0253C26.7121 45.1011 26.7836 45.3571 26.7848 45.5688C26.7882 45.574 26.7916 45.5792 26.795 45.5845C26.7984 45.591 26.8018 45.5975 26.8052 45.6054C27.356 45.8601 27.7978 45.5205 28.2089 45.1925C28.5712 44.9038 28.7427 44.9717 28.971 45.3963C29.4105 46.2129 29.8966 46.9994 30.3951 47.7702C30.5996 48.0864 30.545 48.2262 30.2691 48.3869C29.8307 48.6404 29.4457 49.031 28.904 49.0075C28.8006 49.0036 28.7404 49.0036 28.6859 48.9056C28.0658 47.8003 27.3583 46.7603 26.8052 45.6054C26.7984 45.6028 26.7916 45.6002 26.7848 45.5962ZM31.3775 47.6017C31.2185 47.701 31.1152 47.7271 30.9993 47.5338C30.4122 46.5552 29.8171 45.5832 29.1924 44.5576C30.0044 44.1748 30.7767 43.8168 31.5445 43.4431C31.6932 43.3713 31.7602 43.4196 31.8409 43.5568C32.3315 44.4008 32.8312 45.2383 33.2753 46.1175C33.3934 46.3514 33.3491 46.4272 33.1571 46.5369C32.5575 46.8779 31.9658 47.2359 31.3775 47.6017ZM33.968 47.4763C34.5904 48.5724 35.2252 49.6607 35.7397 50.8353C35.8499 51.0874 35.8283 51.188 35.6091 51.3004C35.1117 51.5578 34.6165 51.8269 34.135 52.1222C33.8908 52.2724 33.7602 52.2071 33.6182 51.9563C32.9857 50.8457 32.3394 49.7457 31.6989 48.6417C31.641 48.5424 31.541 48.4248 31.6807 48.3346C32.3292 47.9153 33.0129 47.5782 33.6671 47.2659C33.8647 47.2098 33.9033 47.3639 33.968 47.4763ZM28.9698 43.6848C28.7836 43.788 28.7132 43.7188 28.6132 43.5503C28.1419 42.7533 27.6604 41.9655 27.18 41.1764C27.0959 41.0379 27.0142 40.9412 27.2163 40.8171C27.9681 40.352 28.7518 39.9731 29.5479 39.6269C29.5763 39.6151 29.6058 39.6059 29.6342 39.5955C29.7784 39.5707 29.8091 39.7105 29.8614 39.8098C30.2793 40.6041 30.6881 41.405 31.114 42.1928C31.2333 42.4136 31.206 42.5077 31.0005 42.6109C30.3179 42.9558 29.641 43.3125 28.9698 43.6848ZM26.6973 40.0214C26.5315 40.1403 26.4611 40.0645 26.3702 39.9234C25.8387 39.0951 25.3049 38.2681 24.8745 37.3614C24.812 37.2307 24.6962 37.1027 24.8972 36.9825C25.7581 36.469 26.6326 35.9883 27.5423 35.5976C27.5707 35.5859 27.6013 35.5806 27.6308 35.5715C27.7898 35.5493 27.8273 35.7021 27.8943 35.8132C28.3622 36.5892 28.7393 37.4254 29.1141 38.2642C29.2072 38.4732 29.1822 38.5594 28.9982 38.6522C28.2066 39.052 27.4332 39.4949 26.6984 40.0227L26.6973 40.0214ZM24.4009 35.8837C24.2874 35.9634 24.2101 35.9608 24.1443 35.821C23.7138 34.9169 23.0722 34.1696 22.6985 33.2211C22.602 32.9768 22.5815 32.8487 22.8428 32.7233C23.5969 32.3588 24.3373 31.9577 25.0823 31.5658C25.2391 31.4835 25.3799 31.3763 25.4957 31.6376C25.8853 32.5091 26.3373 33.3361 26.8427 34.1252C26.8699 34.167 26.8926 34.2114 26.9324 34.2807C26.8756 34.329 26.8245 34.3878 26.762 34.4205C25.9489 34.8529 25.1664 35.3494 24.4009 35.8837ZM22.1182 33.6209C22.4441 34.5211 23.0449 35.2161 23.5083 36.0144C23.6639 36.2835 23.6729 36.4272 23.4095 36.6102C23.0335 36.8715 22.6781 37.1772 22.3362 37.496C22.1522 37.6684 22.0682 37.6266 21.9512 37.4228C21.33 36.3462 20.7008 35.2749 20.0489 34.1592C20.6463 34.0651 21.0892 33.6705 21.5776 33.4053C21.8592 33.2525 21.9933 33.276 22.1182 33.6209ZM23.9535 37.573C24.0193 37.5312 24.0875 37.496 24.1431 37.4646C24.2737 37.4685 24.301 37.577 24.343 37.6658C24.7655 38.5777 25.2868 39.4152 25.8364 40.2291C25.992 40.4604 25.9523 40.5571 25.7581 40.6995C25.4003 40.9608 25.0437 41.2338 24.7178 41.5435C24.5065 41.7447 24.4316 41.6545 24.3101 41.4442C23.7831 40.527 23.2482 39.6164 22.7053 38.711C22.5838 38.5072 22.5781 38.4092 22.7928 38.2903C23.1891 38.0734 23.5673 37.8147 23.9535 37.573ZM34.5427 52.8643C35.0549 52.603 35.5671 52.3417 36.0725 52.066C36.2269 51.9824 36.3121 52.0059 36.412 52.1666C36.9061 52.9609 37.4115 53.7475 37.9123 54.5366C37.9475 54.5928 37.9827 54.6502 38.0134 54.6986C38.0259 54.8279 37.9373 54.8449 37.8771 54.8841C37.3433 55.2147 36.8061 55.5374 36.2769 55.8744C36.0918 55.992 36.0134 55.8993 35.9271 55.7242C35.4921 54.8436 35.0242 53.9865 34.4677 53.2C34.3405 53.0197 34.3871 52.9453 34.5438 52.8656L34.5427 52.8643ZM33.5149 57.0477C33.3741 56.8425 33.2219 56.6466 33.0856 56.4362C32.7517 55.9202 32.5257 55.3257 32.1555 54.8292C31.8522 54.4216 31.959 54.1146 32.3826 53.9251C32.7358 53.7671 33.0867 53.6011 33.4331 53.4234C33.6057 53.3346 33.7307 53.3163 33.8658 53.5162C34.428 54.3458 34.922 55.2264 35.3831 56.1331C35.4319 56.2285 35.5353 56.3369 35.3729 56.4297C34.8584 56.721 34.3701 57.0882 33.7409 57.1927C33.658 57.2332 33.5864 57.1509 33.516 57.0477H33.5149ZM31.7432 62.8132C31.5024 62.97 31.2037 62.8459 30.9834 63.0981C30.9198 63.1712 30.8426 62.9583 30.7869 62.8668C30.4133 62.2488 30.0101 61.6622 29.4525 61.1618C29.766 61.0207 30.0692 60.8862 30.3713 60.7477C31.4048 60.2747 32.4155 59.7482 33.2628 58.8937C33.4308 58.7252 33.499 58.7709 33.6035 58.9538C33.9703 59.5966 34.3474 60.2329 34.7471 60.9162C33.7125 61.5668 32.721 62.177 31.7432 62.8145V62.8132ZM35.6057 60.3217C35.4365 60.438 35.3717 60.3479 35.2877 60.2016C34.8936 59.5169 34.495 58.8363 34.0918 58.1569C33.9907 57.987 33.9169 57.8577 34.1793 57.8054C34.7085 57.7009 35.1889 57.4357 35.6602 57.1535C35.8203 57.0581 35.9192 57.0568 36.0407 57.2345C36.4825 57.8734 36.9549 58.4822 37.5205 59.044C36.8595 59.4843 36.2292 59.8958 35.6068 60.3231L35.6057 60.3217ZM43.074 53.1752C43.3886 53.7749 43.7191 54.3641 44.07 54.9364C44.2324 55.2016 44.1779 55.3153 43.9474 55.4315C43.4602 55.6758 42.9786 55.9358 42.4948 56.188C41.1377 56.8948 39.8793 57.8237 38.5199 58.5305C38.1542 58.7213 37.8828 58.6494 37.642 58.3293C37.2922 57.8668 36.9663 57.3821 36.6142 56.9222C36.4529 56.7119 36.5074 56.6257 36.6982 56.5107C37.2104 56.205 37.7181 55.8862 38.2178 55.5543C38.4177 55.4211 38.5551 55.4355 38.6664 55.6693C38.8345 56.0208 39.1956 56.252 39.1241 56.755C39.0968 56.9497 39.2547 57.0673 39.433 57.0411C39.6635 57.0085 39.7817 56.8478 39.7714 56.5016C39.7124 56.1057 39.4591 55.7464 39.2343 55.378C39.0889 55.1402 39.0753 55.0213 39.3308 54.8763C40.4063 54.2648 41.4773 53.6416 42.538 52.9962C42.8049 52.8342 42.9264 52.8982 43.0718 53.1752H43.074ZM40.9378 49.4073C41.3932 50.2134 41.8418 51.0247 42.3074 51.823C42.4312 52.0359 42.4187 52.13 42.2155 52.2502C41.1104 52.9061 40.0088 53.5711 38.9129 54.2478C38.73 54.3602 38.6221 54.3602 38.4995 54.1564C38.0338 53.379 37.5659 52.6056 37.0832 51.8413C36.9356 51.6087 37.014 51.5329 37.1968 51.4271C38.3223 50.7765 39.4432 50.118 40.504 49.3328C40.5801 49.2766 40.6641 49.2374 40.7379 49.1943C40.8515 49.2165 40.8878 49.3211 40.9367 49.4073H40.9378ZM38.4393 44.9103C39.0412 46.0431 39.6874 47.1444 40.3222 48.268C39.1582 49.1643 37.9452 49.9233 36.7175 50.655C36.5347 50.7647 36.4529 50.7177 36.3632 50.5269C35.8181 49.3733 35.1662 48.2955 34.5245 47.2124C34.4121 47.0216 34.3678 46.9145 34.6086 46.7956C35.742 46.2338 36.7846 45.4786 37.8362 44.7457C38.102 44.5602 38.2507 44.5576 38.4393 44.9103ZM36.3132 41.1646C36.7346 41.9145 37.1582 42.6618 37.5807 43.4105C37.5977 43.4392 37.6113 43.4706 37.6295 43.5085C37.625 43.626 37.533 43.6639 37.4637 43.7188C36.4234 44.5419 35.3638 45.3271 34.2213 45.9568C33.9873 46.0862 33.8908 46.0352 33.7636 45.7974C33.3332 44.9926 32.8857 44.1996 32.4371 43.4092C32.3224 43.2066 32.2645 43.0943 32.5268 42.9663C33.7136 42.3901 34.9572 41.9511 36.0452 41.1241C36.1486 41.0457 36.2337 41.0235 36.3132 41.1646ZM34.1804 37.3875C34.6211 38.1649 35.0583 38.9449 35.4989 39.7222C35.5682 39.845 35.5784 39.913 35.4478 40.0097C34.3655 40.8092 33.2105 41.4455 32.043 42.0595C31.8522 42.1601 31.75 42.1432 31.6399 41.9289C31.2355 41.1463 30.8187 40.3742 30.4019 39.5994C30.3179 39.4426 30.2634 39.3342 30.4837 39.2623C31.7125 38.8626 32.8005 38.1335 33.8601 37.3366C33.9101 37.2987 33.9635 37.266 34.0044 37.2373C34.1191 37.2216 34.1441 37.3209 34.1815 37.3875H34.1804ZM31.8136 33.2525C32.0249 33.3674 32.1271 33.7489 32.277 34.0128C32.6415 34.6582 33.0038 35.3037 33.365 35.9425C32.3633 36.5331 31.6069 37.5443 30.5144 37.9571C29.7228 38.2563 29.7432 38.2995 29.3457 37.4698C29.0459 36.8427 28.7438 36.213 28.4008 35.6172C28.2225 35.3063 28.3066 35.2436 28.5542 35.1286C29.44 34.7157 30.3156 34.2767 31.1424 33.7123C31.3741 33.5543 31.5297 33.0983 31.8136 33.2525ZM29.5672 29.2049C30.009 30.0032 30.4599 30.7936 30.9073 31.5867C30.9323 31.6311 30.9505 31.6781 30.9687 31.716C30.8471 31.8754 30.7154 32.172 30.6155 32.1576C30.1521 32.0962 29.967 32.5652 29.6478 32.7599C29.0028 33.1519 28.3577 33.5425 27.7035 33.9135C27.5218 34.0168 27.4173 34.0128 27.289 33.8103C26.812 33.0604 26.3884 32.2726 25.9909 31.4652C25.883 31.2457 25.8978 31.1399 26.1147 31.0549C27.2447 30.6107 28.3066 30.0163 29.2447 29.154C29.3787 29.0312 29.4661 29.0168 29.5695 29.2036L29.5672 29.2049ZM29.2447 28.7372C29.0823 28.9018 28.9914 28.8548 28.8585 28.7908C29.0084 28.6235 29.0925 28.7555 29.2447 28.7372ZM24.527 27.3784C25.4378 26.8245 26.3452 26.2614 27.2538 25.7009C27.3901 25.6173 27.5059 25.5232 27.6286 25.7532C27.9477 26.3476 28.2805 26.9316 28.6212 27.5091C28.7086 27.658 28.6598 27.7652 28.6064 27.888C28.6087 28.0199 28.6541 28.1637 28.4917 28.2799C28.3952 28.1284 28.4417 27.9598 28.4349 27.8044C28.3293 27.7678 28.2646 27.8409 28.1976 27.9154C27.4548 28.7503 26.5326 29.2389 25.5991 29.7105C25.406 29.8085 25.3163 29.8164 25.2266 29.5655C25.0006 28.9371 24.7496 28.3191 24.4146 27.756C24.2839 27.5365 24.3714 27.4738 24.527 27.3784ZM20.9813 29.5642C21.8013 29.0704 22.6145 28.5621 23.4299 28.0604C23.456 28.0435 23.4844 28.0304 23.5117 28.016C23.6275 27.9834 23.6718 28.084 23.7229 28.1702C24.0557 28.7346 24.3805 29.3042 24.7212 29.8608C24.8609 30.0881 24.7882 30.1822 24.6054 30.2919C23.8399 30.7557 23.0801 31.23 22.3215 31.7082C22.1852 31.7944 22.0921 31.8271 21.9739 31.6625C21.5765 31.1098 21.1767 30.5637 20.9234 29.8961C20.87 29.755 20.8167 29.6635 20.9813 29.5642ZM18.5419 31.0615C19.0007 30.7897 19.4595 30.514 19.907 30.2175C20.1069 30.0855 20.1977 30.1548 20.292 30.3638C20.56 30.9556 20.8598 31.5253 21.2857 31.9878C21.4629 32.1798 21.4527 32.3013 21.2244 32.4346C20.9677 32.5835 20.7258 32.7704 20.4862 32.9559C20.2238 33.1571 19.9342 33.3295 19.8263 33.7803C19.3448 32.9572 18.911 32.1968 18.459 31.4534C18.3363 31.2522 18.367 31.1647 18.5419 31.0615ZM24.7916 52.9975C24.4486 52.4619 24.1045 51.9262 23.7797 51.3762C23.1392 50.2879 22.4998 49.2009 21.7877 48.1713C21.4072 47.6213 21.1415 46.9876 20.8258 46.3906C19.4425 43.7763 18.1183 41.1215 16.7747 38.4797C16.5022 37.9441 16.3398 37.3679 16.1262 36.8113C15.7299 35.7792 15.1189 34.8973 14.5465 33.9972C14.3364 33.6679 14.4113 33.6078 14.6612 33.4602C15.5255 32.9454 16.3897 32.4307 17.2301 31.8689C17.547 31.6572 17.6787 31.7317 17.8673 32.0544C20.0694 35.838 22.2851 39.6099 24.4952 43.3869C25.7535 45.5361 27.0108 47.6879 28.2691 49.8384C28.3361 49.9534 28.402 50.0697 28.4485 50.152C28.4713 50.2866 28.4031 50.3075 28.3588 50.3506C27.3151 51.3461 26.1136 52.0974 25.0982 53.1373C24.9188 53.3215 24.8609 53.1073 24.7916 52.9988V52.9975ZM49.0626 56.1083C49.2965 55.9149 49.3374 55.5988 49.1795 55.3087C49.0285 55.0317 48.807 54.9703 48.5538 55.1493C48.4709 55.4015 48.3357 55.3819 48.179 55.246C47.0138 53.6299 45.8406 52.0203 44.8071 50.2852C40.4926 43.0459 36.144 35.8328 32.3099 28.2316C31.4479 26.5227 30.4633 24.8909 29.4832 23.2643C28.8006 22.1316 28.5292 20.7702 27.8648 19.6375C27.7649 19.4663 27.8273 19.4154 27.9693 19.3448C28.7654 18.9437 28.5757 18.7112 29.0959 19.6884C29.4945 20.4357 29.8932 21.1791 30.4054 21.8363C30.6915 22.2034 30.8699 22.6568 31.0595 23.0958C32.3644 26.1098 33.7432 29.073 35.5909 31.7095C35.7329 31.912 35.859 32.1393 35.9555 32.3745C37.332 35.7466 39.2354 38.7201 41.2535 41.601C42.7504 43.7358 43.9088 46.1371 45.308 48.3477C45.936 49.3393 46.5379 50.3532 47.267 51.256C48.6719 52.9962 49.7485 55.0304 51.0614 56.853C51.0989 56.9053 51.1681 56.9967 51.1557 57.0163C50.9864 57.3011 50.7105 57.4226 50.4629 57.5873C50.3277 57.6774 50.196 57.7453 50.0631 57.5507C49.7962 57.16 49.4351 56.8896 49.0887 56.6035C48.9047 56.4519 48.7945 56.3304 49.0614 56.1096L49.0626 56.1083Z" fill="white"/>
<path d="M44.4835 45.3565C44.4347 45.6322 44.5812 45.8151 44.7061 46.015C45.0536 46.5664 45.3898 47.1255 45.7089 47.7004C46.1246 48.4516 46.5652 49.1846 47.0831 49.8522C47.2194 49.9541 47.333 50.0782 47.3863 50.2611C47.4658 50.4571 47.5987 50.5969 47.7498 50.7158C47.8883 50.8059 47.9803 50.9379 48.0314 51.1104C48.0905 51.2606 48.1904 51.369 48.3063 51.4605C48.4471 51.5533 48.5311 51.6957 48.5845 51.8668C48.798 52.2418 49.0206 52.6089 49.3011 52.9238C49.442 53.0231 49.5374 53.1616 49.5828 53.3458C49.8588 53.9324 50.2313 54.4419 50.5708 54.9776C50.9558 55.5851 51.3908 56.1482 51.7486 56.7779C51.953 57.1385 51.8871 57.4456 51.5941 57.6859C51.2727 57.9499 50.9547 58.2242 50.5595 58.3353C50.3755 58.4084 50.1926 58.4097 50.0121 58.3196C49.4953 58.0021 49.1433 57.4547 48.6913 57.0432C48.5584 56.9216 48.4357 56.8485 48.3131 56.8158C48.3392 56.8289 48.3653 56.8498 48.3903 56.8825C48.7503 57.3436 49.2659 57.6076 49.5748 58.1328C49.6804 58.3118 49.8247 58.432 50.0234 58.4346C50.2063 58.432 50.388 58.428 50.5708 58.4254C50.9161 58.3915 51.1739 58.1432 51.4385 57.9316C52.2494 57.2849 52.0541 57.0432 51.5827 56.3115C50.9354 55.3094 50.2313 54.3544 49.6464 53.3C49.5476 53.1524 49.4499 53.0035 49.3511 52.8558C49.116 52.507 48.8809 52.1582 48.6447 51.8093C48.5436 51.6669 48.4414 51.5258 48.3403 51.3834C48.2358 51.3024 48.137 51.2149 48.0984 51.0659C47.9939 50.9261 47.8895 50.7876 47.785 50.6479C47.6521 50.5316 47.5238 50.4101 47.4579 50.2245C47.3557 50.0848 47.2546 49.9437 47.1524 49.8039C46.4301 48.854 45.8656 47.7723 45.2637 46.7284C45.0093 46.2881 44.605 45.9432 44.5142 45.3801C44.5039 45.3696 44.4949 45.3579 44.4846 45.3474C44.4846 45.35 44.4846 45.3513 44.4835 45.3526V45.3565Z" fill="white"/>
<path d="M16.2021 61.3475C18.3054 60.2187 20.2861 58.8442 22.2372 57.4058C23.2628 56.6493 23.3048 56.4886 22.6393 55.2684C21.6342 53.4262 20.5439 51.6468 19.4048 49.917C17.6445 47.2426 16.0965 44.4127 14.5611 41.5711C14.0943 40.7062 13.6218 39.8556 13.0824 39.0482C12.2476 37.8018 11.3493 36.6038 10.7463 35.1692C10.5009 34.5865 10.2295 34.0169 9.91834 33.4734C9.73208 33.1481 9.56968 32.8398 9.14266 32.8711C8.86782 32.8907 8.81217 32.6712 9.02114 32.4465C9.13584 32.3237 9.1665 32.2048 9.1824 32.0402C9.23351 31.5267 9.34367 31.447 9.78432 31.6443C9.98988 31.7371 10.1693 31.7358 10.3488 31.609C11.8081 30.5808 13.389 29.8335 14.9245 28.983C17.2731 27.683 19.5252 26.1753 21.7932 24.7029C23.4377 23.6342 25.0526 22.5067 26.6778 21.4001C27.6022 20.7703 27.5932 20.5966 26.9413 19.6272C26.6551 19.2012 26.7107 18.9386 27.165 18.774C27.5739 18.6264 27.9657 18.4396 28.3541 18.237C28.5222 18.1312 28.688 18.0999 28.8492 18.2514C29.2399 18.6042 29.5227 19.0575 29.7396 19.5644C30.1417 20.5012 30.864 21.1819 31.283 22.0951C31.902 23.4408 32.463 24.8218 33.1297 26.1361C33.8804 27.6164 34.5845 29.1345 35.5192 30.4789C36.0246 31.2066 36.4936 31.9474 36.8309 32.8058C37.1364 33.5845 37.4533 34.3605 37.8973 35.0608C38.472 35.9649 39.008 36.9003 39.5282 37.8489C40.0233 38.7516 40.5901 39.5983 41.2226 40.3821C41.3623 40.4788 41.4748 40.6029 41.5316 40.7845C41.5758 40.8917 41.644 40.9766 41.728 41.0458C41.8473 41.1334 41.9336 41.2523 41.9892 41.4012C42.0176 41.4626 42.054 41.5162 42.0994 41.5619C42.2334 41.6704 42.3175 41.8219 42.3731 41.9944C42.6093 42.3445 42.7297 42.8018 43.0965 43.0317C43.1068 43.0356 43.117 43.0396 43.1283 43.0435C43.1124 43.0134 43.0965 42.9834 43.0806 42.9533C42.7854 42.6764 42.6797 42.2374 42.4231 41.9277C42.3231 41.7827 42.2232 41.6377 42.1233 41.4927C42.0721 41.4874 42.0506 41.4561 42.0585 41.3973C41.9563 41.2536 41.8541 41.1112 41.7519 40.9675C41.6781 40.9217 41.6145 40.8669 41.6031 40.7623C41.5009 40.6199 41.3987 40.4775 41.2976 40.3364C40.9705 39.8778 40.6173 39.4402 40.322 38.9568C39.5589 37.7064 38.8093 36.4431 38.0779 35.1666C37.7327 34.5643 37.367 33.9764 37.1455 33.2787C36.9717 32.73 36.7196 32.1996 36.4311 31.7175C35.6407 30.3953 34.7605 29.1489 34.0575 27.7483C33.3898 26.4183 32.7129 25.0935 32.1064 23.7269C31.6737 22.7536 31.3069 21.7515 30.6618 20.9206C30.4812 20.688 30.3063 20.428 30.1576 20.1458C29.7862 19.4403 29.5023 18.6499 28.8901 18.143C28.7141 18.0515 28.5301 18.1103 28.3507 18.1064C27.9293 18.3729 27.4671 18.514 27.0174 18.6969C26.5449 18.889 26.4813 19.3045 26.8425 19.6938C27.0162 19.8806 27.09 20.1315 27.2297 20.3353C27.3831 20.5587 27.3422 20.6763 27.14 20.867C26.3916 21.5778 25.5035 22.0115 24.6869 22.5824C21.984 24.4729 19.2265 26.2537 16.4338 27.9652C14.3691 29.2299 12.1613 30.1693 10.1693 31.5999C10.0103 31.7136 9.93991 31.6482 9.83089 31.5254C9.67984 31.3556 9.48109 31.2955 9.28348 31.4078C9.05975 31.5346 9.03022 31.7763 9.04726 32.0376C9.05407 32.1329 9.20398 32.3067 8.95072 32.3015C8.77355 32.2976 8.65317 32.4256 8.68838 32.6399C8.72586 32.862 8.88712 33.0906 9.05861 33.0227C9.54696 32.8267 9.65145 33.2565 9.82407 33.5714C10.0342 33.9555 10.2148 34.3618 10.418 34.7512C10.8803 35.6317 11.2437 36.575 11.8218 37.3837C12.5656 38.4224 13.3459 39.4571 13.9285 40.6147C16.025 44.772 18.4588 48.6601 20.896 52.5508C21.6398 53.7385 22.4076 54.913 22.9379 56.2652C23.0754 56.6141 22.98 56.6977 22.7721 56.8558C20.0147 58.954 17.1573 60.8366 14.1045 62.3156C12.9915 62.8552 11.8956 63.4379 10.7917 64.001C11.0245 63.8677 11.2868 63.8612 11.5276 63.7436C13.0971 62.9741 14.6553 62.1784 16.2021 61.3488V61.3475Z" fill="white"/>
<path d="M47.7837 56.9262C47.0818 57.3442 46.38 57.7675 45.6565 58.1386C43.5294 59.2308 41.467 60.4733 39.3818 61.6661C38.3608 62.2501 37.3421 62.8407 36.3677 63.5253C36.2178 63.6311 35.9963 63.6781 35.9486 63.9211C35.9497 63.9172 35.9509 63.9146 35.9543 63.912C37.1252 63.1229 38.3154 62.3769 39.5317 61.6844C41.2091 60.7294 42.8877 59.7769 44.5719 58.8363C45.6963 58.2078 46.8445 57.6395 47.9484 56.9627C48.0347 56.9092 48.1358 56.8086 48.238 56.802C48.0971 56.7864 47.9518 56.8269 47.7848 56.9262H47.7837Z" fill="white"/>
<path d="M4.75458 15.8082C5.33492 15.9728 5.92889 16.0029 6.524 15.9728C7.08389 15.9454 7.46208 15.6122 7.52114 15.1014C7.57906 14.5984 7.32125 14.2104 6.7818 14.0105C6.38885 13.8654 6.00158 13.7152 5.6586 13.4395C5.02034 12.9248 4.88632 12.2088 5.46326 11.6313C6.27187 10.8213 7.13046 10.0322 8.31726 10.0805C8.98618 10.108 9.65738 10.0753 10.3274 10.0897C10.8158 10.1001 10.9021 10.2138 10.9135 10.7834C10.9191 11.0669 10.8726 11.3387 10.8147 11.613C10.6818 12.2349 10.9271 12.5864 11.4915 12.606C11.5676 12.6086 11.6437 12.606 11.7198 12.5994C12.0344 12.5707 12.2138 12.7419 12.1355 13.0933C11.8868 14.2117 12.2047 15.3196 12.1502 16.4366C12.1207 17.0546 12.4024 17.6268 12.6976 18.1403C14.3433 21.0002 16.6294 22.5157 19.6401 22.6242C21.0564 22.6751 22.3919 22.3733 23.7116 21.8534C24.0046 21.7384 24.276 21.5725 24.4964 21.3295C25.7184 19.9746 26.7133 18.4434 27.2209 16.549C27.4151 15.8265 27.4935 15.0779 27.5321 14.324C27.6252 13.9647 27.5741 13.595 27.5832 13.2305C27.5787 13.1743 27.5775 13.1194 27.5798 13.0633C27.5866 12.7915 27.6093 12.5184 27.5389 12.2519C27.314 10.7168 26.6054 9.46517 25.7922 8.26972C25.0983 7.25066 24.1341 6.65228 23.2017 5.99381C22.4885 5.4895 21.731 5.17986 20.9008 5.05836C20.208 4.95645 19.5209 4.79445 18.8349 4.63767C18.6759 4.57495 18.5124 4.57757 18.3477 4.5854C18.1308 4.5854 17.9139 4.5854 17.6981 4.5854C17.5368 4.57887 17.3756 4.56973 17.2188 4.62982C16.4488 4.76439 15.8197 5.23865 15.203 5.74035C15.044 5.86969 14.8963 6.02124 14.7078 6.09833C14.5352 6.16365 14.3614 6.22637 14.2547 6.41711C14.1343 6.62093 13.9594 6.74766 13.7765 6.86263C13.7391 6.88223 13.7073 6.90966 13.6789 6.93971C13.5369 7.28463 13.6107 7.35518 13.9901 7.38261C14.2808 6.84826 14.8373 6.7163 15.2155 6.32043C16.4625 5.02177 17.9014 4.83233 19.4721 5.27131C20.0161 5.42287 20.5873 5.45553 21.1245 5.6293C23.891 6.52294 25.9319 8.36902 26.8904 11.5843C26.9824 11.8926 27.0335 12.2297 27.0483 12.5563C27.1687 15.1563 26.6088 17.4923 25.2573 19.6415C24.1216 21.447 22.5362 21.9265 20.8031 22.1055C19.5754 22.2322 18.3398 22.1552 17.153 21.69C15.1757 20.9153 13.7311 19.4141 12.7283 17.329C12.6227 17.1095 12.5591 16.9017 12.709 16.6104C12.8862 16.2668 12.6238 15.8879 12.575 15.5234C12.4512 14.5984 12.3512 13.6812 12.5614 12.768C12.6102 12.5563 12.4455 12.3943 12.5784 12.1761C12.801 11.8103 12.9872 11.5438 13.4358 11.7685C13.705 11.9031 14.1218 11.7855 14.3001 11.9854C14.4988 12.2075 14.2956 12.6491 14.2445 12.9809C13.8027 15.8709 16.1502 18.8432 18.4545 19.5905C19.9763 20.0844 21.4005 20.0269 22.794 19.0326C23.8786 18.2592 24.5304 17.2297 24.6179 15.7808C24.6815 14.7369 24.7122 13.6812 24.5691 12.6386C24.3646 11.161 23.5799 10.0857 22.6145 9.19864C21.5629 8.23314 20.3386 7.64652 18.9962 7.46492C18.0786 7.3408 17.2495 7.64914 16.5295 8.3259C15.8276 8.98568 14.7726 9.07844 14.0309 8.45524C13.8436 8.29716 13.8186 7.883 13.7198 7.58642C13.6221 7.46623 13.5244 7.34603 13.4279 7.22583C13.4245 7.22322 13.4222 7.22191 13.4188 7.2193C13.4109 7.22322 13.4029 7.22975 13.395 7.23367C12.8782 7.04684 12.374 6.81821 11.8686 6.59218C11.8504 6.57128 11.8334 6.55037 11.8186 6.52816C11.7573 6.52816 11.696 6.52686 11.6346 6.52555C11.5165 6.56605 11.4007 6.58042 11.2894 6.4759C11.3541 6.26686 11.4949 6.32435 11.6244 6.34395C11.6778 6.34656 11.7312 6.34787 11.7834 6.35048C11.7879 6.33611 11.7936 6.32174 11.8004 6.30737C12.2229 6.10356 12.684 6.08918 13.1201 5.94808C13.4563 5.83964 13.7913 5.73251 14.1048 5.55482C14.651 5.24649 14.8168 4.93032 14.7794 4.27968C14.7408 3.61337 14.5113 3.27499 13.9617 3.04635C13.7175 2.94445 13.4631 2.90133 13.2098 2.85691C13.0395 2.79028 12.868 2.77983 12.6942 2.83862C12.5341 2.84254 12.4353 2.80334 12.4273 2.70797C12.4262 2.70797 12.4251 2.70667 12.4228 2.70536C12.4239 2.70405 12.4251 2.70275 12.4273 2.70144C12.4251 2.64526 12.4523 2.57079 12.5137 2.47411C12.5852 2.36305 12.6874 2.28205 12.7681 2.17884C13.211 1.60268 13.1167 0.860586 12.5455 0.450346C12.3263 0.292261 12.0753 0.219097 11.8356 0.115885C11.4972 0.0205097 11.1576 0.0322685 10.8181 0.111965C10.2513 0.253067 9.70167 0.454266 9.1713 0.723404C8.88511 0.869732 8.63525 0.893251 8.38654 0.595369C8.07081 0.216486 7.65174 0.230856 7.23267 0.294874C6.40929 0.420298 5.69494 0.840988 5.03396 1.38449C4.63874 1.70981 4.25488 2.05342 3.8835 2.41793C2.84775 3.43569 1.69502 4.23918 0.463926 4.90027C0.319693 4.97735 0.170917 5.11323 -0.00170898 4.96821L-0.00170898 6.54646C1.91875 5.67764 3.60412 4.38551 5.12596 2.79551C5.56774 2.33431 6.04928 1.93583 6.58873 1.64187C6.80338 1.52559 7.00894 1.36097 7.29627 1.39364C7.23835 1.51383 7.18951 1.61182 7.14295 1.71111C7.00212 2.01161 7.04528 2.28467 7.24743 2.52637C7.43937 2.75631 7.67559 2.79812 7.91522 2.66094C8.41834 2.37351 8.9135 2.0691 9.4098 1.76599C10.1798 1.29434 10.993 1.05264 11.8697 1.16239C11.9685 1.17415 12.1059 1.12842 12.1502 1.27213C12.2025 1.43937 12.0696 1.52168 11.9787 1.60398C11.378 2.14879 10.6909 2.53159 10.0253 2.95228C9.78571 3.10384 9.54495 3.25539 9.32008 3.43177C9.08953 3.61207 9.01231 3.87728 9.15313 4.16471C9.29169 4.44953 9.51996 4.51094 9.78231 4.39205C10.9702 3.85508 12.2195 3.83548 13.4676 3.81065C13.7005 3.80543 13.948 3.77799 14.0185 4.18823C14.0889 4.60109 13.8492 4.66249 13.63 4.7657C12.5477 5.27785 11.3836 5.36669 10.2491 5.60186C9.59037 5.73904 8.93508 5.88929 8.3025 6.1532C7.9845 6.28646 7.75963 6.51771 7.84367 6.93448C7.91863 7.30292 8.20369 7.38 8.49102 7.38392C9.66306 7.3996 10.8374 7.33427 11.9992 7.58904C12.3013 7.65567 12.5886 7.76019 12.8192 8.01104C12.8759 8.07244 12.927 8.14169 12.9043 8.23575C12.8782 8.3455 12.7874 8.32982 12.7158 8.33244C12.2627 8.34942 11.8481 8.4265 11.5608 8.91905C11.4472 9.11372 11.1928 9.04317 10.9986 9.05231C9.94812 9.10065 8.89646 8.93081 7.84708 9.06015C6.42519 9.23522 5.34742 10.1223 4.50473 11.3727C3.94937 12.1957 4.19809 13.4866 4.93743 14.1359C5.24066 14.4024 5.57455 14.6101 5.93003 14.7708C6.00839 14.8061 6.08789 14.8414 6.16625 14.8767C5.95501 14.9734 5.75967 14.993 5.56888 14.8728C4.72392 14.7539 3.92666 14.3763 3.06808 14.2992C1.99711 14.2038 0.972718 14.3097 -0.000573289 14.8597L-0.000573289 16.4379C0.530932 15.8918 1.18396 15.6906 1.86424 15.5639C2.84548 15.381 3.80287 15.5417 4.75458 15.8121V15.8082ZM11.4586 11.8352C11.4802 11.5164 11.4983 11.2355 11.5188 10.9219C11.7584 10.9402 11.9356 11.0852 12.1298 11.2172C11.9572 11.4981 11.7743 11.7189 11.4575 11.8365L11.4586 11.8352ZM19.2529 10.9206C19.8082 11.0434 20.3204 11.3125 20.8508 11.5177C21.907 11.924 22.3669 12.7797 22.3533 14.034C22.292 15.0008 22.0739 15.9101 21.5209 16.6862C21.3732 16.8939 21.1836 16.988 20.9723 17.0219C20.0808 17.1657 19.2074 16.9631 18.4772 16.4249C17.2166 15.4959 16.8327 13.7047 17.4165 12.0638C17.8094 10.9598 18.2376 10.6972 19.2517 10.9219L19.2529 10.9206Z" fill="white"/>
<path d="M4.7387 15.9531C5.37582 16.1517 6.03452 16.17 6.68982 16.1151C7.22019 16.0707 7.61087 15.6579 7.66311 15.1209C7.7233 14.5042 7.45869 14.0718 6.88516 13.8902C6.44224 13.7491 6.01862 13.5662 5.64157 13.2578C5.17253 12.8737 5.10098 12.47 5.40762 11.9069C5.53141 11.6796 5.71085 11.5176 5.89597 11.3608C6.83746 10.5612 7.84596 10.0112 9.06456 10.1771C9.41095 10.2242 9.76528 10.1941 10.1151 10.1993C10.8465 10.2098 10.926 10.3261 10.7863 11.1844C10.7749 11.2524 10.759 11.3203 10.7431 11.3882C10.4933 12.4034 10.8272 12.8855 11.7255 12.7444C12.081 12.6882 12.0583 12.8306 12.0151 13.1363C11.9129 13.8445 11.8765 14.5591 11.9856 15.2738C12.0196 15.4972 12.1116 15.7402 12.0662 15.9401C11.9117 16.6064 12.098 17.1943 12.3603 17.7417C13.3336 19.7733 14.7464 21.2876 16.6362 22.0989C18.9213 23.0801 21.2369 23.0004 23.5367 22.0702C24.0478 21.8637 24.5259 21.5946 24.8871 21.136C26.4134 19.1985 27.6093 17.0754 27.6286 14.3305C27.6275 13.9999 27.6252 13.6694 27.6673 13.3428C27.6741 13.2683 27.6832 13.1951 27.7025 13.122C27.6502 12.9626 27.6593 12.7953 27.6638 12.6294C27.6536 12.4962 27.6423 12.3616 27.632 12.2283C27.5946 11.6704 27.3992 11.1753 27.2152 10.6644C26.2499 7.9796 24.4158 6.36608 22.175 5.29345C21.12 4.78914 19.9491 4.79306 18.8384 4.52784C18.6896 4.5409 18.5431 4.53176 18.4011 4.47558C18.3795 4.46905 18.358 4.46121 18.3375 4.44945C18.124 4.44945 17.9094 4.44945 17.6958 4.44945C17.5357 4.53437 17.3665 4.54744 17.1939 4.52784C16.768 4.62191 16.3694 4.77607 15.9821 5.02169C15.5108 5.31957 15.1235 5.75595 14.6363 6.01986C14.5182 6.1897 14.3569 6.289 14.1877 6.37523C14.0707 6.54507 13.9197 6.66657 13.7573 6.77109C13.7266 6.83511 13.7016 6.89129 13.6812 6.94224C13.7107 6.91219 13.7414 6.88476 13.7788 6.86516C13.9617 6.75019 14.1366 6.62346 14.257 6.41965C14.3637 6.2289 14.5375 6.16619 14.7101 6.10086C14.8986 6.02508 15.0451 5.87353 15.2053 5.74288C15.8219 5.23988 16.4511 4.76693 17.2211 4.63236C17.3779 4.57226 17.5391 4.58271 17.7004 4.58794C17.9173 4.58794 18.1331 4.58794 18.35 4.58794C18.5147 4.5801 18.6794 4.57749 18.8372 4.6402C19.5232 4.79698 20.2091 4.95898 20.9031 5.06089C21.7332 5.18239 22.4908 5.49203 23.204 5.99634C24.1364 6.65482 25.1006 7.25449 25.7945 8.27225C26.6076 9.46639 27.3175 10.718 27.5412 12.2545C27.6116 12.521 27.5889 12.794 27.5821 13.0658C27.5798 13.122 27.5798 13.1768 27.5855 13.233C27.5764 13.5975 27.6275 13.9673 27.5344 14.3266C27.4969 15.0804 27.4174 15.829 27.2232 16.5515C26.7155 18.4446 25.7195 19.9758 24.4987 21.332C24.2783 21.5763 24.008 21.7409 23.7139 21.8559C22.3942 22.3746 21.0586 22.6764 19.6424 22.6267C16.6317 22.5196 14.3455 21.0027 12.6999 18.1428C12.4046 17.6294 12.1219 17.0571 12.1525 16.4392C12.207 15.3221 11.889 14.2129 12.1378 13.0958C12.2161 12.7444 12.0367 12.5732 11.7221 12.602C11.646 12.6085 11.5699 12.6111 11.4938 12.6085C10.9294 12.5876 10.6841 12.2375 10.8169 11.6156C10.8749 11.3412 10.9214 11.0695 10.9157 10.786C10.9044 10.2163 10.8181 10.104 10.3297 10.0922C9.65966 10.0778 8.9896 10.1105 8.31954 10.0831C7.13274 10.036 6.27416 10.8251 5.46554 11.6339C4.88861 12.2113 5.02376 12.9273 5.66088 13.4421C6.00272 13.719 6.39113 13.868 6.78408 14.013C7.32354 14.2129 7.58248 14.6009 7.52342 15.1039C7.46436 15.6161 7.08618 15.9479 6.52628 15.9754C5.93004 16.0054 5.33721 15.9754 4.75687 15.8107C3.80515 15.5403 2.84776 15.3796 1.86652 15.5625C1.18624 15.6892 0.533215 15.8917 0.00170898 16.4365C1.52241 15.505 3.10557 15.4436 4.73983 15.9558L4.7387 15.9531Z" fill="white"/>
<path d="M11.8193 6.52618C11.8341 6.54839 11.8511 6.5693 11.8693 6.5902C12.3736 6.81753 12.8778 7.04486 13.3957 7.23169C13.4048 7.22777 13.4116 7.22255 13.4195 7.21732C12.9505 6.86326 12.4213 6.68949 11.8875 6.52618C11.8648 6.52618 11.842 6.52618 11.8193 6.52618Z" fill="white"/>
<path d="M0.465635 4.89629C1.69673 4.2352 2.84946 3.4317 3.88521 2.41394C4.25545 2.04943 4.64045 1.70582 5.03567 1.38051C5.69665 0.837004 6.41213 0.416313 7.23438 0.29089C7.65345 0.226871 8.07252 0.212502 8.38824 0.591386C8.63696 0.890574 8.88568 0.865747 9.17301 0.71942C9.70338 0.448976 10.2531 0.249083 10.8198 0.107981C11.1593 0.028285 11.4978 0.0178328 11.8373 0.1119C12.077 0.215114 12.328 0.288277 12.5472 0.446363C13.1184 0.857909 13.2127 1.59869 12.7698 2.17486C12.6903 2.27938 12.5869 2.35907 12.5154 2.47012C12.4529 2.5668 12.4268 2.64128 12.429 2.69746C12.5301 2.59294 12.6233 2.48842 12.7243 2.39566C13.4977 1.68623 13.1729 0.587463 12.4711 0.245162C12.2803 0.1524 12.0827 0.0818501 11.8873 0.00084734C11.5228 0.00084734 11.1571 -0.000457764 10.7925 -0.00176382C10.1667 0.11974 9.58299 0.390182 9.00152 0.665853C8.79482 0.76384 8.66308 0.850071 8.49841 0.545658C8.32578 0.228179 7.99984 0.121045 7.66253 0.127578C6.5257 0.151094 5.56831 0.711581 4.71427 1.50724C3.57971 2.56419 2.43039 3.58979 1.14024 4.38937C0.772273 4.6167 0.407714 4.84403 0 4.96292C0.173761 5.10925 0.321402 4.97337 0.465635 4.89498V4.89629Z" fill="white"/>
<path d="M12.6951 2.83616C12.8689 2.77737 13.0404 2.78651 13.2107 2.85445C13.4651 2.90018 13.7184 2.94329 13.9626 3.04389C14.5122 3.27122 14.7417 3.61091 14.7803 4.27723C14.8177 4.92786 14.6519 5.24534 14.1057 5.55237C13.7911 5.72874 13.456 5.83587 13.121 5.94562C12.6849 6.08672 12.2238 6.09979 11.8013 6.30491C11.7934 6.31928 11.7877 6.33365 11.7843 6.34802C11.7888 6.34802 11.7934 6.34802 11.7979 6.34802C12.6031 6.24612 13.3868 6.04361 14.1329 5.67909C14.4589 5.5197 14.8155 5.3172 14.8688 4.87038C14.9881 3.86699 14.7973 3.09093 13.7899 2.84923C13.5821 2.79958 13.3743 2.77475 13.1664 2.73556C13.0143 2.73556 12.8632 2.73556 12.711 2.73556C12.6236 2.75646 12.535 2.77998 12.4271 2.7042C12.4351 2.80088 12.5339 2.83877 12.694 2.83485L12.6951 2.83616Z" fill="white"/>
<path d="M81.1609 23.9646C80.8917 23.7425 80.6998 23.4106 80.3829 23.2591C80.2909 23.2251 80.2001 23.1912 80.1081 23.1572C79.8037 23.344 79.5618 23.5975 79.3733 23.9372C79.2472 24.1645 79.0712 24.3578 78.8349 24.4519C78.5919 24.4454 78.551 24.1776 78.4216 24.0247C78.2489 23.8183 78.0763 23.6131 77.9037 23.4067C77.806 23.2957 77.7083 23.1846 77.6118 23.0736C77.5051 23.0095 77.421 22.9194 77.3551 22.807C77.3006 22.7927 77.2518 22.7626 77.2098 22.7182C77.1144 22.5928 77.0133 22.4739 76.9134 22.3524C76.7328 22.1616 76.5738 21.9474 76.475 21.6717C76.4557 21.6247 76.4364 21.5763 76.4205 21.5254C76.4159 21.511 76.4102 21.4979 76.4046 21.4849C76.3864 21.4522 76.3637 21.4222 76.3387 21.3934C76.2842 21.3425 76.2115 21.315 76.132 21.3111C75.8015 21.2667 75.538 21.447 75.2916 21.6573C74.1173 22.6607 72.9884 23.7242 71.8924 24.8413C70.6807 26.0759 69.5949 27.4477 68.4842 28.7934C67.7301 29.7066 67.0101 30.6604 66.3116 31.6311C65.6654 32.5274 64.9147 33.293 64.1504 34.0416C63.519 34.6596 62.9523 35.3389 62.4957 36.132C62.063 36.8832 61.5644 37.5561 60.9466 38.1179C60.456 38.5634 60.0642 39.1317 59.6133 39.6295C59.343 39.9274 59.5031 40.2958 59.6485 40.6015C59.8314 40.9895 60.0937 41.3175 60.4003 41.5814C60.8421 41.9616 61.1806 42.4685 61.6235 42.8461C61.7984 42.995 61.8449 43.2197 61.837 43.4562C61.8234 43.8325 61.9108 44.1826 62.013 44.5341C62.6751 46.793 63.3202 49.0585 64.0879 51.2743C64.4162 52.2215 64.7944 53.1217 65.5462 53.7658C66.0947 54.2361 66.4377 54.9547 66.8988 55.5387C67.5348 56.3448 68.1992 57.1156 68.8726 57.8747C69.7653 58.8807 70.5251 60.0278 71.4177 61.0351C71.9072 61.5877 72.433 62.0934 72.9271 62.6395C73.102 62.8328 73.2984 63.0131 73.5721 62.9543C73.6721 62.8603 73.7232 62.7832 73.7402 62.7179C73.7323 62.6316 73.6959 62.5546 73.6448 62.484C73.5721 62.42 73.4756 62.3638 73.4052 62.2998C73.3507 62.2606 73.3064 62.2083 73.2723 62.1456C73.2428 62.0816 73.2099 62.0215 73.1746 61.964C73.0338 61.8085 72.8998 61.6452 72.7749 61.4728C72.7033 61.3996 72.6306 61.3264 72.5602 61.252C72.5125 61.2036 72.4739 61.1461 72.4421 61.0821C72.4183 61.0286 72.3922 60.9789 72.3638 60.9306C72.2161 60.7673 72.0764 60.5948 71.9458 60.4132C71.8765 60.3427 71.8061 60.2721 71.738 60.1989C71.6903 60.1506 71.6517 60.0944 71.621 60.0317C71.6006 59.9808 71.5767 59.9337 71.5517 59.888C71.4473 59.773 71.3507 59.6489 71.2621 59.5196C71.2088 59.4647 71.1531 59.4111 71.0986 59.3576C71.0509 59.3105 71.0134 59.2543 70.9828 59.1916C70.9646 59.142 70.943 59.0976 70.9192 59.0545C70.8408 58.9643 70.7681 58.8689 70.7011 58.767C70.6511 58.7161 70.6 58.6664 70.5478 58.6168C70.5001 58.5697 70.4626 58.5136 70.4319 58.4508C70.4126 58.4012 70.3899 58.3542 70.3649 58.3097C70.29 58.2248 70.2218 58.1334 70.1582 58.038C70.1049 57.9844 70.0492 57.9348 69.9902 57.8864C69.9038 57.8146 69.8346 57.7257 69.788 57.6147C69.6778 57.3207 69.4723 57.1248 69.2554 56.9418C69.1304 56.8426 69.0248 56.7224 68.9601 56.5604C68.8829 56.4336 68.7999 56.3121 68.7148 56.1945C68.3888 55.83 68.0652 55.4629 67.7585 55.0762C67.6188 54.9285 67.4791 54.7809 67.3406 54.632C67.2531 54.5575 67.1816 54.4673 67.1327 54.355C67.0578 54.2243 66.9817 54.0937 66.9022 53.967C66.6819 53.69 66.4616 53.413 66.2412 53.136C66.1685 53.0707 66.0936 53.008 66.0118 52.9518C65.9164 52.8982 65.8392 52.8212 65.7779 52.7232C65.7427 52.6631 65.704 52.6069 65.6643 52.5507C65.6359 52.5207 65.6098 52.488 65.5893 52.4501C65.5768 52.4331 65.5644 52.4161 65.5519 52.3992C65.5257 52.3626 65.503 52.3234 65.4826 52.2829C65.4758 52.2672 65.4678 52.2528 65.461 52.2372C65.3418 52.0699 65.2543 51.8831 65.1816 51.6858C65.1362 51.5957 65.0919 51.5055 65.0544 51.4101C65.034 51.3644 65.0169 51.3174 65.001 51.269C64.9091 51.0064 64.8205 50.7438 64.7342 50.4799C64.4854 49.7836 64.2753 49.0702 64.0675 48.3556C63.9505 47.9688 63.8358 47.5808 63.7211 47.1928C63.6973 47.117 63.6746 47.0412 63.6507 46.9654C63.511 46.5252 63.3827 46.0796 63.2532 45.6263C63.2464 45.6054 63.2407 45.5845 63.235 45.5636C63.1987 45.4434 63.1351 45.318 63.1294 45.1899C63.0795 45.0149 63.0295 44.8398 62.9784 44.6621C63.1862 44.683 63.2543 44.7875 63.2793 44.9417C63.4883 44.9743 63.6019 45.1769 63.7188 45.3402C64.4139 46.307 65.2225 47.1471 65.9936 48.0263C66.1299 48.1818 66.2299 48.3386 66.2333 48.5633C66.2401 48.7723 66.2333 48.984 66.2969 49.1865C66.323 49.3198 66.3332 49.4556 66.3355 49.5928C66.3389 49.8606 66.3116 50.1298 66.3798 50.3924C66.4366 50.7491 66.4161 51.1188 66.5104 51.4716C66.5808 51.7329 66.7023 51.8635 66.9442 51.7106C67.0442 51.5486 67.1009 51.3775 67.1316 51.1998C67.1339 51.1541 67.135 51.1083 67.1373 51.0626C67.1452 50.7817 67.1418 50.5021 67.1316 50.2225C67.0896 49.6333 67.0464 49.0441 67.0226 48.4549C67.0169 48.3647 67.0101 48.2746 67.0055 48.1844C67.001 48.1073 67.0033 48.0289 67.009 47.9505C67.009 47.8983 67.0055 47.846 67.0044 47.7951C67.0033 47.6749 66.9965 47.5481 67.0294 47.4358C67.0203 47.326 66.9942 47.2176 66.9385 47.1092C67.085 47.0961 67.1838 47.1261 67.2509 47.2267C67.4576 47.2372 67.5609 47.4423 67.679 47.603C67.9243 47.9388 68.1481 48.2942 68.3411 48.6717C68.8272 49.6216 69.5223 50.3101 70.3502 50.8288C71.2519 51.3932 72.0628 52.1209 72.8135 52.8996C74.3819 54.5274 76.0593 56.0364 77.4767 57.8355C78.9656 59.7273 80.7883 61.1853 82.3 63.0327C82.5316 63.3162 82.8371 63.554 82.8553 64.0048H84.5929C84.5838 63.9773 84.5782 63.9525 84.5713 63.9264C84.5009 63.7644 84.3079 63.7213 84.2761 63.554C85.0279 62.8237 85.7627 62.0725 86.4998 61.3212C88.2703 59.5169 89.9897 57.6343 91.9965 56.1619C92.0828 56.0979 92.1567 55.9959 92.2759 56.0077V54.6398C92.1714 54.7665 92.0794 54.9102 91.9466 55.0017C90.5565 55.9698 89.381 57.2463 88.1545 58.4535C86.7519 59.8331 85.4526 61.333 84.1375 62.8172C83.8683 63.1216 83.6696 63.051 83.4379 62.7989C82.9939 62.3181 82.5691 61.8177 82.1251 61.3356C81.1279 60.2525 79.9105 59.4542 79.0235 58.2366C77.5175 56.1697 75.6539 54.5392 73.9753 52.6827C72.8907 51.4833 71.696 50.4159 70.3172 49.6542C69.6142 49.2649 69.1407 48.5581 68.7148 47.8212C68.4093 47.2934 68.0845 46.7891 67.6131 46.4337C67.2599 46.1672 66.9033 46.0326 66.5058 46.3161C66.2208 46.5186 66.0175 46.3331 65.8244 46.111C65.2418 45.4421 64.641 44.7927 64.0823 44.0977C63.0306 42.7899 61.7791 41.7538 60.5889 40.6342C60.1369 40.2083 60.138 40.0724 60.6104 39.6399C60.8603 39.4113 61.1113 39.184 61.3725 38.9697C61.971 38.4785 62.5343 37.931 62.9159 37.1981C63.578 35.9256 64.5138 34.9496 65.4871 34.0194C66.3241 33.2185 67.0305 32.2778 67.7426 31.3424C70.0844 28.263 72.5523 25.3377 75.4165 22.8854C75.7266 22.6202 75.948 22.6842 76.2115 22.9717C77.3983 24.2638 78.4602 25.6852 79.5073 27.1224C80.1626 28.0213 80.8644 28.8744 81.5481 29.7445C82.6497 31.1477 83.6957 32.6097 84.8132 33.9972C85.6514 35.0385 86.4623 36.1072 87.2754 37.1733C88.209 38.3988 89.1255 39.6399 90.0215 40.902C90.6473 41.7839 91.314 42.6266 91.9534 43.4954C92.0942 43.6861 92.2032 43.8847 92.2748 44.116V42.117C91.8 41.7003 91.465 41.1346 91.0925 40.6133C87.8649 36.1059 84.3726 31.8676 80.9939 27.5143C80.4465 26.8088 79.9241 26.0759 79.3778 25.3691C79.2211 25.1666 79.229 25.0372 79.4051 24.87C79.58 24.7028 79.781 24.5368 79.8855 24.316C80.1024 23.8588 80.2784 24.0743 80.4897 24.2964C80.6577 24.4728 80.8281 24.6531 81.0178 24.7955C83.8172 26.8898 86.0898 29.7119 88.6644 32.1171C89.8682 33.2407 91.0357 34.4153 92.2748 35.4879V34.5407C89.9932 32.5796 87.8092 30.4775 85.7139 28.2656C84.2624 26.7344 82.7633 25.2868 81.1643 23.9711L81.1609 23.9646Z" fill="white"/>
<path d="M65.0855 51.388C65.0877 51.3906 65.0889 51.3932 65.0911 51.3958C64.9605 51.0953 64.8447 50.7883 64.7334 50.4787C64.8208 50.7426 64.9094 51.0052 65.0003 51.2678C65.0162 51.3161 65.0332 51.3632 65.0537 51.4089C65.0911 51.5043 65.1354 51.5944 65.1809 51.6846C65.1457 51.5879 65.1139 51.4899 65.0855 51.3893V51.388Z" fill="white"/>
<path d="M64.067 48.3549C63.9534 47.9655 63.8398 47.5775 63.7206 47.1921C63.8353 47.5801 63.9511 47.9681 64.067 48.3549Z" fill="white"/>
<path d="M63.2338 45.5613C63.2406 45.5822 63.2463 45.6031 63.252 45.624C63.2111 45.479 63.1691 45.334 63.1282 45.1877C63.1339 45.3157 63.1975 45.4424 63.2338 45.5613Z" fill="white"/>
<path d="M66.9416 51.7086C66.7009 51.8602 66.5793 51.7308 66.5078 51.4695C66.4135 51.1181 66.434 50.7484 66.3772 50.3904C66.309 50.1278 66.3363 49.8586 66.3329 49.5908C66.3306 49.4549 66.3204 49.3191 66.2943 49.1845C66.2307 48.982 66.2375 48.7703 66.2307 48.5613C66.2273 48.3366 66.1262 48.1785 65.991 48.0243C65.2199 47.1437 64.4113 46.305 63.7163 45.3382C63.5993 45.1749 63.4857 44.9723 63.2767 44.9397C63.2767 44.9436 63.279 44.9488 63.279 44.9527C64.158 46.0907 65.0371 47.23 66.0603 48.2046C66.1478 48.2882 66.1569 48.3653 66.1239 48.4711C66.2216 48.6906 66.2114 48.9258 66.1989 49.161C66.2046 49.2916 66.2114 49.421 66.2171 49.5516C66.3068 49.8351 66.3079 50.1291 66.2897 50.4244C66.3272 50.8045 66.3511 51.186 66.4044 51.5636C66.451 51.8942 66.5952 52.081 66.9098 51.8863C67.0813 51.693 67.1165 51.4499 67.129 51.1991C67.0984 51.3768 67.0416 51.5479 66.9416 51.7099V51.7086Z" fill="white"/>
<path d="M65.5411 52.3397C65.5127 52.3057 65.4855 52.2704 65.4594 52.2352C65.4662 52.2508 65.4741 52.2652 65.4809 52.2809C65.5014 52.3214 65.5241 52.3619 65.5502 52.3972C65.5627 52.4142 65.5752 52.4311 65.5877 52.4481C65.5695 52.4155 65.5536 52.3802 65.5411 52.3397Z" fill="white"/>
<path d="M82.2973 63.028C80.7857 61.1806 78.9629 59.7225 77.474 57.8307C76.0578 56.0304 74.3803 54.5214 72.8108 52.8948C72.0601 52.1161 71.2504 51.3884 70.3475 50.824C69.5196 50.3053 68.8245 49.6155 68.3384 48.667C68.1454 48.2907 67.9216 47.934 67.6763 47.5983C67.5594 47.4376 67.4549 47.2324 67.2482 47.222C67.2573 47.2364 67.2663 47.2507 67.2743 47.2677C67.5639 47.5878 67.8035 47.9497 68.0239 48.3377C68.5236 49.2209 69.0585 50.0636 69.8796 50.6136C71.5331 51.7202 72.9868 53.1221 74.3531 54.6573C75.0833 55.4777 75.9044 56.1911 76.637 57.0102C78.0952 58.6394 79.4705 60.3614 81.0764 61.8208C81.7419 62.4257 82.4154 63.1077 82.8526 64C82.8345 63.5506 82.5289 63.3115 82.2973 63.028Z" fill="white"/>
<path d="M67.0258 47.4324C66.9929 47.5434 66.9997 47.6702 67.0009 47.7917C67.0009 47.8439 67.0043 47.8962 67.0054 47.9471C67.0168 47.7747 67.0406 47.6035 67.0258 47.4324Z" fill="white"/>
<path d="M67.1286 50.2202C67.1081 49.6297 67.0581 49.0418 67.0195 48.4525C67.0434 49.0431 67.0865 49.631 67.1286 50.2202Z" fill="white"/>
<path d="M65.7777 52.7228C65.839 52.8208 65.9162 52.8978 66.0116 52.9514C66.0934 53.0076 66.1684 53.0703 66.241 53.1356C66.1649 53.0402 66.09 52.9462 66.0139 52.8508C65.9526 52.7946 65.8912 52.7371 65.8299 52.681C65.7686 52.6444 65.7118 52.6013 65.663 52.5503C65.7027 52.6065 65.7413 52.6627 65.7765 52.7228H65.7777Z" fill="white"/>
<path d="M72.4412 61.0815C72.4718 61.1455 72.5116 61.2017 72.5593 61.2514C72.6297 61.3258 72.7024 61.3977 72.7739 61.4722C72.7035 61.3755 72.6354 61.2775 72.5706 61.1743C72.5502 61.1455 72.5297 61.1168 72.5082 61.0881C72.4582 61.0371 72.4105 60.9835 72.3628 60.93C72.3912 60.9783 72.4173 61.028 72.4412 61.0815Z" fill="white"/>
<path d="M67.1321 54.3538C67.181 54.4661 67.2525 54.5576 67.3399 54.6307C67.4774 54.781 67.6182 54.9273 67.7579 55.075C67.6205 54.9025 67.4853 54.7248 67.3559 54.5432C67.3059 54.4766 67.2559 54.4113 67.2059 54.3446C67.1049 54.2179 67.0038 54.0899 66.9027 53.9631C66.9811 54.0899 67.0572 54.2205 67.1333 54.3512L67.1321 54.3538Z" fill="white"/>
<path d="M73.7399 62.7174C73.7228 62.7828 73.6717 62.8598 73.5718 62.9539C73.2981 63.0127 73.1016 62.8324 72.9267 62.639C72.4327 62.0929 71.9068 61.5873 71.4174 61.0347C70.5247 60.0274 69.7661 58.8803 68.8723 57.8743C68.1988 57.1152 67.5333 56.3443 66.8984 55.5382C66.4373 54.9542 66.0955 54.2357 65.5458 53.7653C64.794 53.1199 64.4158 52.221 64.0876 51.2738C63.321 49.058 62.6759 46.7926 62.0127 44.5336C61.9093 44.1822 61.823 43.832 61.8366 43.4558C61.8457 43.2193 61.798 42.9946 61.6231 42.8456C61.1813 42.468 60.8418 41.9611 60.4 41.5809C60.0933 41.3183 59.831 40.9891 59.6481 40.6011C59.5039 40.2953 59.3426 39.9269 59.6129 39.629C60.0638 39.1313 60.4556 38.5629 60.9462 38.1174C61.5641 37.5556 62.0626 36.8828 62.4953 36.1315C62.953 35.3385 63.5197 34.6591 64.15 34.0411C64.9144 33.2925 65.6651 32.5269 66.3113 31.6307C67.0109 30.6599 67.7298 29.7075 68.4839 28.7929C69.5946 27.4473 70.6803 26.0767 71.8921 24.8408C72.988 23.7237 74.118 22.6603 75.2912 21.6569C75.5377 21.4465 75.8011 21.2662 76.1316 21.3106C76.2111 21.3146 76.2838 21.342 76.3383 21.393C76.2759 21.3211 76.1986 21.2545 76.1384 21.1826C75.6524 21.1199 75.3173 21.47 74.9766 21.7731C73.7773 22.8379 72.6019 23.9289 71.4923 25.1217C70.0125 26.7117 68.6519 28.4232 67.3027 30.1543C66.4226 31.2831 65.6162 32.493 64.5759 33.4558C63.9979 33.9915 63.3596 34.5036 62.9723 35.2314C62.1194 36.8318 60.8463 37.9789 59.7776 39.3429C59.3029 39.9478 59.2756 40.1804 59.6992 40.8689C60.1013 41.5195 60.6703 41.9585 61.1643 42.489C61.5209 42.8705 61.8389 43.2023 61.7639 43.832C61.7401 44.0345 61.848 44.2619 61.9105 44.4722C62.4579 46.3013 63.0143 48.1278 63.5572 49.9595C63.8775 51.0426 64.1887 52.1374 64.786 53.0624C65.0881 53.5288 65.5606 53.8476 65.8718 54.3075C66.5679 55.3357 67.3448 56.2738 68.15 57.1857C68.6599 57.7632 69.2209 58.2962 69.6548 58.943C70.5951 60.3435 71.724 61.522 72.8472 62.7083C73.0403 62.9121 73.2595 63.2897 73.6342 63.0519C73.6683 62.9853 73.6967 62.9278 73.7183 62.8768C73.7364 62.8193 73.7421 62.7658 73.7376 62.7161L73.7399 62.7174Z" fill="white"/>
<path d="M77.2118 22.7199C77.2538 22.7643 77.3015 22.7943 77.3572 22.8087C77.3481 22.7943 77.339 22.78 77.331 22.7643C77.3083 22.7408 77.2845 22.7173 77.2618 22.6937C77.1448 22.5814 77.0267 22.4716 76.9165 22.3541C77.0164 22.4756 77.1175 22.5945 77.2129 22.7199H77.2118Z" fill="white"/>
<path d="M73.2719 62.1433C73.306 62.206 73.3503 62.2583 73.4048 62.2975C73.4752 62.3615 73.5718 62.4177 73.6445 62.4817C73.5786 62.3902 73.4877 62.3079 73.4071 62.2217C73.3832 62.1916 73.3583 62.1616 73.3344 62.1315C73.2799 62.0754 73.2277 62.0179 73.1754 61.9604C73.2106 62.0179 73.2447 62.078 73.2731 62.142L73.2719 62.1433Z" fill="white"/>
<path d="M76.4059 21.4863C76.4116 21.4993 76.4172 21.5124 76.4218 21.5268C76.4377 21.5777 76.457 21.6248 76.4763 21.6731C76.4627 21.6352 76.449 21.5999 76.4377 21.5594C76.4309 21.5333 76.4195 21.5098 76.4059 21.4863Z" fill="white"/>
<path d="M68.9586 56.5598C69.0233 56.7205 69.1278 56.842 69.2538 56.9413C69.4708 57.1255 69.6763 57.3202 69.7865 57.6142C69.8331 57.7252 69.9023 57.8141 69.9886 57.8859C70.0477 57.9343 70.1034 57.9839 70.1567 58.0375C70.1068 57.963 70.0579 57.8859 70.0136 57.8062C69.9625 57.7383 69.9114 57.6704 69.8603 57.6011C69.6672 57.3542 69.4753 57.1059 69.2822 56.859C69.1755 56.7832 69.0869 56.6892 69.0358 56.5533C68.9279 56.4331 68.8211 56.3142 68.7133 56.194C68.7984 56.3129 68.8813 56.4331 68.9586 56.5598Z" fill="white"/>
<path d="M70.9812 59.1894C71.0119 59.2521 71.0493 59.3083 71.097 59.3553C71.1516 59.4089 71.2061 59.4625 71.2606 59.5173C71.2072 59.4403 71.1561 59.3606 71.1095 59.2782C71.0891 59.2482 71.0675 59.2181 71.0471 59.1881C71.0016 59.145 70.9596 59.0993 70.9176 59.0522C70.9415 59.0953 70.963 59.1411 70.9812 59.1894Z" fill="white"/>
<path d="M70.4307 58.4502C70.4602 58.5129 70.4988 58.5691 70.5465 58.6161C70.5987 58.6645 70.6498 58.7141 70.6998 58.7664C70.6521 58.6945 70.6056 58.62 70.5624 58.5429C70.5408 58.5116 70.5204 58.4815 70.4988 58.4502C70.4522 58.4058 70.4068 58.3587 70.3636 58.3091C70.3886 58.3535 70.4113 58.4005 70.4307 58.4502Z" fill="white"/>
<path d="M71.6189 60.031C71.6495 60.0937 71.6882 60.1499 71.7359 60.1982C71.804 60.2701 71.8744 60.3406 71.9437 60.4125C71.8767 60.3184 71.8108 60.2217 71.7483 60.1211C71.7268 60.0911 71.7063 60.0623 71.6847 60.0323C71.6382 59.9853 71.5928 59.9369 71.5485 59.8873C71.5746 59.933 71.5984 59.98 71.6177 60.031H71.6189Z" fill="white"/>
<path d="M90.0184 40.8969C89.1223 39.6349 88.2058 38.3937 87.2723 37.1682C86.4591 36.1008 85.6482 35.0321 84.8101 33.9921C83.6925 32.6046 82.6466 31.1439 81.5449 29.7394C80.8613 28.8693 80.1594 28.0162 79.5041 27.1173C78.4559 25.6802 77.3951 24.2587 76.2083 22.9666C75.9437 22.6791 75.7234 22.6151 75.4133 22.8803C72.5491 25.3313 70.0812 28.2566 67.7394 31.3373C67.0285 32.2727 66.3221 33.2134 65.4839 34.0143C64.5107 34.9445 63.5748 35.9205 62.9127 37.193C62.5311 37.926 61.9678 38.4734 61.3693 38.9646C61.1081 39.1789 60.8571 39.4062 60.6073 39.6349C60.1348 40.066 60.1337 40.2032 60.5857 40.6291C61.7759 41.7501 63.0274 42.7848 64.0791 44.0926C64.6379 44.7877 65.2386 45.437 65.8212 46.1059C66.0143 46.328 66.2176 46.5136 66.5027 46.311C66.9002 46.0275 67.2568 46.1621 67.61 46.4286C68.0813 46.784 68.4061 47.2883 68.7116 47.8161C69.1375 48.553 69.6099 49.2611 70.3141 49.6491C71.6928 50.4121 72.8875 51.4795 73.9721 52.6776C75.6507 54.5341 77.5155 56.1646 79.0203 58.2315C79.9073 59.4492 81.1247 60.2461 82.1219 61.3305C82.5648 61.8113 82.9907 62.313 83.4347 62.7938C83.6676 63.046 83.8652 63.1152 84.1343 62.8121C85.4495 61.3292 86.7487 59.8281 88.1513 58.4484C89.3778 57.2412 90.5533 55.9634 91.9434 54.9966C92.0762 54.9039 92.1682 54.7615 92.2727 54.6347C92.1512 54.6243 92.0865 54.7379 92.0002 54.802C90.7077 55.74 89.5561 56.8754 88.4057 58.029C86.8895 59.5498 85.4336 61.1346 84.0287 62.7873C83.8311 63.0185 83.6789 62.9584 83.4938 62.7428C82.9384 62.0935 82.3876 61.435 81.7948 60.8327C81.0645 60.092 80.198 59.5027 79.5586 58.6744C77.8517 56.4638 75.879 54.5825 74.0176 52.5652C73.1226 51.5958 72.2061 50.6146 71.0807 50.0084C69.9893 49.4192 69.1977 48.5203 68.5764 47.3628C68.3118 46.8689 67.9518 46.4574 67.4873 46.1908C67.1898 46.0197 66.8479 45.8904 66.5765 46.1347C66.2676 46.413 66.1097 46.2601 65.9007 46.0171C64.2494 44.1005 62.6175 42.159 60.7049 40.5703C60.5607 40.4501 60.4301 40.309 60.2904 40.1731C60.5789 39.8204 60.881 39.5277 61.2058 39.2638C61.969 38.6432 62.6754 37.9534 63.1626 37.0127C63.6453 36.0812 64.3006 35.3286 65.0206 34.6427C65.8792 33.8249 66.6764 32.9364 67.4067 31.967C69.8666 28.7047 72.4458 25.5835 75.4644 22.9809C75.7586 22.7275 75.8846 22.7471 76.1515 23.041C77.9357 25.0139 79.445 27.2689 81.102 29.3723C84.9077 34.2024 88.6271 39.1201 92.2727 44.1109C92.2012 43.8797 92.0921 43.6811 91.9513 43.4903C91.3119 42.6215 90.6453 41.7788 90.0195 40.8969H90.0184Z" fill="white"/>
<path d="M91.8842 16.3073C89.5265 15.6815 87.1347 15.2138 84.8463 14.2796C84.2285 14.0275 83.6583 13.6486 83.1166 13.2213C83.0201 13.1103 82.9417 12.981 82.8497 12.8647C82.8213 12.8268 82.7952 12.7863 82.7714 12.7445C82.71 12.653 82.6464 12.5629 82.5828 12.474C82.4011 12.2624 82.2194 12.0494 82.0377 11.8378C81.9423 11.7476 81.8412 11.664 81.7345 11.5882C81.6391 11.536 81.563 11.4576 81.5005 11.3596C81.4142 11.1976 81.2915 11.0957 81.1257 11.0643C80.4114 10.6084 79.7186 10.1054 78.9793 9.70296C78.7862 9.59582 78.5954 9.57623 78.4091 9.71994C78.2104 9.8924 78.1366 10.1328 78.1184 10.4059C78.1071 10.5809 78.0673 10.6841 78.0048 10.7299C78.0048 10.739 78.0048 10.7468 78.0048 10.756C77.998 10.7508 77.9924 10.7468 77.9855 10.7416C77.9083 10.7795 77.7993 10.7442 77.6653 10.6528C77.3632 10.449 77.035 10.3026 76.7192 10.1328C76.5512 10.023 76.3819 10.0074 76.2104 10.125C75.805 10.5391 75.7618 10.82 75.972 11.37C76.1264 11.7751 76.4262 12.069 76.5716 12.4766C76.5716 12.4793 76.5693 12.4819 76.5682 12.4858C76.65 12.5328 76.7158 12.5942 76.7022 12.7366C76.6034 12.7183 76.5159 12.6805 76.4387 12.623C76.4137 12.6321 76.3876 12.6387 76.3592 12.6426C75.9049 12.5746 75.487 12.3499 75.0452 12.2336C74.8964 12.1722 74.7477 12.1082 74.5932 12.2101C74.4637 12.3068 74.3513 12.4257 74.2514 12.5603C74.1412 12.7967 74.1821 13.0332 74.2514 13.2697C74.6012 14.3828 75.3303 15.1484 76.0605 15.9206C76.5194 16.4066 77.0827 16.7384 77.5165 17.2571C77.5279 17.265 77.5381 17.2728 77.5494 17.2806C77.621 17.3251 77.6914 17.3708 77.814 17.4479C77.663 17.4858 77.5392 17.4962 77.4268 17.4818C77.3666 17.504 77.2973 17.5067 77.2326 17.5184C76.5318 17.4949 76.2763 18.3167 76.6965 18.9425C76.8578 19.1829 77.0622 19.3593 77.2541 19.5565C77.4007 19.7068 77.5608 19.8505 77.5971 20.0961C77.5971 20.104 77.5971 20.1105 77.596 20.1183C78.2013 20.5573 78.7487 21.093 79.3688 21.5111C80.1434 22.0324 80.8861 22.5994 81.7583 22.9208C84.141 23.7974 86.5033 24.7499 88.8882 25.6187C90.0001 26.0237 91.1448 26.3059 92.2749 26.6443V25.3809C92.1363 25.4645 92.0068 25.3914 91.8774 25.3496C90.0886 24.7655 88.3158 24.1332 86.5668 23.4029C85.1495 22.8123 83.6935 22.3459 82.266 21.7867C80.7521 21.1949 79.412 20.2216 78.1582 19.0914C78.0514 18.9948 77.9242 18.8733 77.9924 18.6982C78.0684 18.5035 78.2433 18.527 78.3944 18.5519C78.6511 18.595 78.8986 18.6877 79.1508 18.7557C79.345 18.8079 79.5403 18.8341 79.7402 18.8236C79.9651 18.8118 80.1729 18.7609 80.2342 18.4617C80.2921 18.1743 80.1604 17.9914 79.9537 17.8672C79.4404 17.5576 78.9384 17.2258 78.4444 16.8795C77.4131 16.157 76.4444 15.3405 75.604 14.3345C75.4018 14.0928 75.219 13.8367 75.0588 13.5584C74.9759 13.4147 74.8805 13.2501 74.9952 13.0802C74.993 13.0711 74.9884 13.062 74.9862 13.0515C74.9953 13.0515 75.0043 13.0554 75.0146 13.0567C75.1122 12.9418 75.2519 12.9679 75.3803 12.9966C76.0208 13.1403 76.5864 13.4853 77.1258 13.8851C77.8822 14.4442 78.6238 15.0295 79.3722 15.6031C79.588 15.7677 79.8083 15.9284 80.0559 16.0225C80.2183 16.0839 80.4 16.1283 80.5204 15.9467C80.6567 15.7416 80.5102 15.5822 80.3989 15.4437C80.14 15.1223 79.881 14.7983 79.5835 14.5239C78.8714 13.8655 78.1911 13.1612 77.4915 12.4858C77.1417 12.1474 76.8249 11.7646 76.5705 11.3217C76.4887 11.1793 76.3547 11.016 76.4796 10.8527C76.5943 10.7011 76.7692 10.7834 76.9078 10.8501C77.4029 11.0878 77.8413 11.4406 78.2944 11.762C79.4358 12.5707 80.601 13.3402 81.5471 14.4625C81.6618 14.5984 81.8231 14.7473 81.9775 14.5409C82.1138 14.3593 82.0161 14.1659 81.8957 14.0248C81.5868 13.6603 81.2336 13.3546 80.8872 13.0384C80.2671 12.4727 79.6141 11.9501 79.0781 11.2708C78.9236 11.0761 78.6601 10.837 78.8464 10.5783C78.8396 10.5417 78.8339 10.5051 78.8305 10.4646C78.8566 10.4816 78.8816 10.4973 78.9077 10.5143C79.0792 10.3876 79.2905 10.6214 79.4619 10.7312C80.5874 11.451 81.5698 12.3395 82.417 13.4944C83.0246 14.3227 83.9388 14.8179 84.8326 15.2464C85.823 15.7207 86.8644 15.9885 87.9024 16.2681C89.1926 16.6156 90.4623 17.0598 91.757 17.3891C91.9512 17.4387 92.1408 17.5106 92.2749 17.6987V16.225C92.1613 16.3452 92.0239 16.3452 91.8876 16.3086L91.8842 16.3073Z" fill="white"/>
<path d="M92.0041 16.2219C90.4913 15.8221 88.9831 15.3988 87.4659 15.0199C85.927 14.6358 84.4381 14.121 83.1218 13.085C82.9696 13.0458 82.8822 12.9295 82.8334 12.7649C82.7504 12.6682 82.6664 12.5702 82.5835 12.4735C82.6482 12.5624 82.7107 12.6525 82.772 12.744C82.7959 12.7858 82.822 12.8263 82.8504 12.8642C82.9424 12.9805 83.0207 13.1098 83.1173 13.2209C83.659 13.6481 84.228 14.027 84.8469 14.2791C87.1365 15.2133 89.5283 15.681 91.8848 16.3068C92.0223 16.3434 92.1585 16.3421 92.2721 16.2232C92.1824 16.2232 92.0893 16.2428 92.0041 16.2206V16.2219Z" fill="white"/>
<path d="M77.5943 20.0948C77.558 19.8491 77.3979 19.7054 77.2514 19.5552C77.0594 19.3579 76.855 19.1815 76.6937 18.9411C76.2735 18.314 76.5291 17.4935 77.2298 17.5171C77.2945 17.5066 77.3638 17.5027 77.424 17.4805C77.3343 17.4687 77.2514 17.4426 77.1696 17.3995C76.3542 17.5824 76.1418 18.2239 76.6188 18.9856C76.8913 19.4193 77.3116 19.6728 77.5762 20.1052C77.5819 20.1091 77.5875 20.1131 77.5932 20.1183C77.5932 20.1104 77.5943 20.1039 77.5943 20.0961V20.0948Z" fill="white"/>
<path d="M78.1171 10.4076C78.1341 10.1358 78.2079 9.8941 78.4078 9.72165C78.5952 9.57662 78.786 9.59623 78.9779 9.70466C79.7173 10.1071 80.41 10.6101 81.1244 11.066C81.2902 11.0974 81.4128 11.1993 81.4992 11.3613C81.5616 11.4593 81.6377 11.5364 81.7331 11.5899C81.841 11.6657 81.9409 11.7493 82.0363 11.8395C81.9375 11.7245 81.8399 11.6095 81.7411 11.4959C81.6797 11.4384 81.6184 11.3809 81.5571 11.3221C81.4276 11.2071 81.2993 11.0935 81.1698 10.9785C80.4498 10.5186 79.7298 10.0574 79.0097 9.59622C78.7962 9.59492 78.5827 9.5923 78.3703 9.591C78.0024 9.84446 78.0114 10.2808 78.0012 10.7316C78.0648 10.6871 78.1046 10.5839 78.1148 10.4076H78.1171Z" fill="white"/>
<path d="M76.0575 15.9192C75.3272 15.1471 74.5981 14.3814 74.2483 13.2683C74.1801 13.0318 74.1393 12.7954 74.2483 12.5589C74.3482 12.4243 74.4595 12.3054 74.5901 12.2087C74.7457 12.1068 74.8945 12.1709 75.0421 12.2323C75.4851 12.3498 75.9019 12.5733 76.3561 12.6412C76.3834 12.6373 76.4107 12.6307 76.4356 12.6216C76.405 12.5994 76.3766 12.5733 76.3493 12.5445C75.895 12.3969 75.4408 12.2479 74.9865 12.1003C74.8343 12.1029 74.6833 12.1055 74.5311 12.1094C74.4164 12.2205 74.3005 12.3329 74.1858 12.4439C74.1143 12.7183 74.1631 12.9992 74.1586 13.2762C74.2188 13.463 74.254 13.6668 74.3437 13.834C75.1296 15.3051 76.2494 16.3699 77.5134 17.2557C77.0796 16.7371 76.5174 16.4039 76.0575 15.9192Z" fill="white"/>
<path d="M76.5704 12.4768C76.4251 12.0692 76.1252 11.7752 75.9708 11.3702C75.7607 10.8201 75.805 10.5406 76.2093 10.1251C76.3808 10.0088 76.55 10.0245 76.7181 10.1329C77.0349 10.3028 77.362 10.4478 77.6641 10.6529C77.7981 10.7444 77.9071 10.7796 77.9844 10.7418C77.5619 10.4125 77.136 10.2257 76.7249 10.0049C76.5432 10.001 76.3603 9.99836 76.1786 9.99444C75.7277 10.3629 75.6108 10.7548 75.8322 11.3166C76.0015 11.7478 76.2161 12.1554 76.5386 12.4689C76.5477 12.4742 76.5568 12.4794 76.5659 12.4846C76.5659 12.482 76.5682 12.4794 76.5693 12.4755L76.5704 12.4768Z" fill="white"/>
<path d="M83.5175 22.1241C81.5664 21.4617 79.7913 20.4361 78.2093 18.9663C78.1275 18.8905 77.9697 18.8487 78.056 18.6044C78.4614 18.7115 78.8714 18.8291 79.2837 18.9258C79.9015 19.0708 80.3115 18.9363 80.3944 18.5378C80.5216 17.9211 80.0741 17.7918 79.7357 17.5788C78.2468 16.6473 76.8113 15.6282 75.646 14.1819C75.3916 13.8657 75.1236 13.5509 74.9919 13.0792C74.8772 13.2491 74.9737 13.4137 75.0555 13.5574C75.2156 13.8357 75.3985 14.0918 75.6006 14.3335C76.441 15.3395 77.4098 16.156 78.441 16.8785C78.935 17.2247 79.437 17.5566 79.9503 17.8662C80.157 17.9904 80.2888 18.1733 80.2308 18.4607C80.1706 18.7599 79.9617 18.8108 79.7368 18.8226C79.5369 18.833 79.3416 18.8069 79.1474 18.7547C78.8953 18.6867 78.6477 18.594 78.391 18.5508C78.24 18.526 78.0651 18.5012 77.989 18.6972C77.9208 18.8722 78.048 18.9937 78.1548 19.0904C79.4086 20.2205 80.7487 21.1939 82.2626 21.7857C83.6902 22.3436 85.1461 22.81 86.5635 23.4019C88.3124 24.1322 90.0864 24.7645 91.874 25.3485C92.0035 25.3903 92.1329 25.4635 92.2715 25.3799C92.1715 25.3381 92.0739 25.2871 91.9717 25.2558C89.1063 24.3778 86.3568 23.0883 83.5164 22.1241H83.5175Z" fill="white"/>
<path d="M79.5133 15.849C79.7155 15.9992 79.9392 16.122 80.1664 16.2109C80.3572 16.2866 80.5593 16.2749 80.6842 16.0267C80.7978 15.8019 80.7217 15.6099 80.5922 15.4544C80.3299 15.1382 80.0619 14.826 79.7757 14.5372C78.9398 13.6946 78.0892 12.8715 77.2544 12.0262C76.9398 11.7074 76.6639 11.3429 76.4719 10.8595C76.5571 10.8595 76.606 10.8451 76.6434 10.8621C76.799 10.9313 76.9637 10.9875 77.1034 11.0881C78.6048 12.179 80.2197 13.0818 81.4747 14.5817C81.6621 14.8051 81.8881 14.9227 82.1084 14.6587C82.3162 14.4105 82.1993 14.1662 82.0153 13.9741C81.7234 13.6671 81.4236 13.3692 81.1192 13.0792C80.4855 12.4782 79.7995 11.9465 79.2283 11.2606C79.0795 11.0816 78.9023 10.9078 78.8444 10.5746C78.6582 10.8333 78.9216 11.0724 79.0761 11.2671C79.6121 11.9452 80.2652 12.4678 80.8853 13.0348C81.2316 13.3509 81.5848 13.6567 81.8938 14.0212C82.013 14.1623 82.1118 14.3556 81.9755 14.5372C81.8211 14.7437 81.6587 14.5934 81.5451 14.4589C80.5991 13.3366 79.4338 12.5671 78.2925 11.7583C77.8393 11.4369 77.4009 11.0829 76.9058 10.8464C76.7672 10.7798 76.5923 10.6975 76.4776 10.849C76.3527 11.0136 76.4867 11.1769 76.5685 11.318C76.8229 11.7596 77.1386 12.1437 77.4895 12.4821C78.1891 13.1576 78.8694 13.8618 79.5815 14.5203C79.879 14.7959 80.138 15.1186 80.3969 15.44C80.5071 15.5772 80.6547 15.7366 80.5184 15.943C80.398 16.1246 80.2163 16.0802 80.0539 16.0188C79.8063 15.9247 79.586 15.764 79.3702 15.5994C78.6218 15.0272 77.8802 14.4419 77.1238 13.8814C76.5844 13.4816 76.0188 13.1367 75.3783 12.993C75.2511 12.9642 75.1102 12.9368 75.0126 13.0531C75.7746 13.1524 76.4038 13.5103 76.9989 13.9454C77.8461 14.5647 78.6718 15.2219 79.5145 15.849H79.5133Z" fill="white"/>
<path d="M91.7532 17.3885C90.4585 17.0592 89.1899 16.615 87.8986 16.2675C86.8606 15.9879 85.818 15.7188 84.8289 15.2458C83.9362 14.8186 83.022 14.3234 82.4132 13.4938C81.566 12.3389 80.5836 11.4505 79.4582 10.7306C79.2867 10.6208 79.0743 10.387 78.9039 10.5137C80.1805 11.3381 81.3854 12.1181 82.2099 13.4703C82.2985 13.6153 82.3826 13.7577 82.5109 13.857C83.575 14.6723 84.6505 15.4562 85.9157 15.8207C88.0372 16.4334 90.153 17.071 92.2711 17.6981C92.137 17.51 91.9474 17.4381 91.7532 17.3885Z" fill="white"/>
<path d="M49.9066 25.8424C49.8737 25.8359 49.8396 25.8254 49.8067 25.8098C49.4149 25.8424 49.023 25.8568 48.6312 25.8947C47.0401 26.0488 45.7511 27.0078 44.5961 28.1066C43.6785 28.9793 43.1481 30.2832 42.7392 31.5988C42.7143 31.7347 42.6893 31.8706 42.6643 32.0052C42.6677 32.0822 42.6643 32.158 42.6257 32.2246C42.6075 32.6257 42.5893 33.0281 42.5723 33.4292C42.5791 33.748 42.5825 34.0655 42.5303 34.3817L42.5484 34.4L42.5371 34.4248C42.5007 35.0467 42.4655 35.6686 42.4826 36.2918C42.4928 36.5478 42.5098 36.8026 42.5325 37.0587C42.6427 37.7276 43.0391 38.2411 43.2741 38.8434C43.5865 39.6442 43.9249 40.4765 44.7108 40.8554C44.8948 40.9442 44.9198 41.1232 44.8993 41.3348C44.8221 42.1018 44.9118 42.3056 45.4524 42.644C45.4831 42.6492 45.5137 42.6531 45.5444 42.6583C45.6761 42.7446 45.6977 42.9013 45.7341 43.049C45.8192 43.1561 45.9044 43.2632 45.9907 43.3704C46.0918 43.5219 46.2315 43.4684 46.3621 43.4592C46.3678 43.4043 46.3803 43.356 46.4416 43.3625C46.5995 43.1927 46.7585 43.0228 46.9163 42.8543C47.3808 41.9215 47.9896 41.0722 48.161 39.9709C48.2042 39.6978 48.3643 39.7801 48.5131 39.8311C49.0219 40.0074 49.5262 40.2309 50.0656 40.2282C52.5392 40.2113 54.2132 38.7258 55.3284 36.3166C56.1336 34.579 56.2097 32.8008 55.4556 30.9665C54.9843 29.8194 54.2836 29.0433 53.2433 28.7232C52.3041 28.4332 51.3399 28.2255 50.362 28.2398C48.8709 28.2634 47.7329 29.1661 46.7551 30.342C46.0668 31.1703 45.5683 32.1672 45.2128 33.2424C44.7971 34.5006 44.88 35.7169 45.5069 36.8705C45.8022 37.4141 45.9271 37.9589 45.625 38.5794C45.3809 39.0811 45.2037 39.6259 44.9697 40.223C44.4496 39.7553 44.1475 39.1203 43.8522 38.4945C43.6807 38.1287 43.5774 37.7263 43.3752 37.367C43.1254 36.9228 43.1674 36.3845 43.1799 35.8828C43.2049 34.8677 43.2855 33.8538 43.3139 32.8374C43.3605 31.1376 44.043 29.6874 45.0606 28.637C46.3644 27.2913 47.9203 26.4186 49.8271 26.5636C51.5136 26.6916 53.0922 27.098 54.5823 27.9968C56.4675 29.1335 57.5816 30.8332 57.5498 33.3665C57.5351 34.575 57.5907 35.7862 57.4567 36.9921C57.4488 37.0613 57.4658 37.1397 57.4431 37.2011C56.848 38.8068 56.3028 40.4765 54.9877 41.5086C53.2546 42.8687 51.3308 43.5232 49.2127 43.2698C48.7414 43.2136 48.286 43.0712 47.8851 42.7759C47.6988 42.6387 47.5228 42.5211 47.3706 42.7615C47.2014 43.0268 47.3604 43.2136 47.5557 43.3586C48.4279 43.9021 49.3785 43.9949 50.345 43.9923C50.5347 43.8799 50.7379 43.9113 50.9378 43.9152C52.747 43.7688 54.371 43.062 55.8111 41.7947C55.9315 41.5974 56.0598 41.4093 56.2427 41.2826C56.3381 41.1376 56.4346 40.9912 56.53 40.8462C56.5731 40.5836 56.7253 40.3994 56.8707 40.2086C57.0274 39.8062 57.1739 39.3986 57.4158 39.0498C57.4737 38.8525 57.5249 38.6487 57.7066 38.5442C57.8224 38.4318 57.8304 38.262 57.8781 38.113C58.1915 36.1611 58.2699 34.1962 58.0723 32.226C57.9871 31.382 57.7917 30.5523 57.3942 29.8116C56.9207 28.8069 56.0916 28.2006 55.308 27.6336C53.8509 26.5806 52.2246 25.9744 50.4813 25.8855C50.2882 25.8947 50.0963 25.8934 49.9077 25.8411L49.9066 25.8424ZM49.1377 36.4995C47.8771 35.7679 47.6239 35.4386 48.2065 33.667C48.3905 33.1078 48.671 32.6022 48.9515 32.1005C49.4864 31.1416 49.8351 30.9312 51.1275 30.9469C51.8237 31.0109 52.6436 31.4826 53.3307 32.29C53.5079 32.4977 53.5556 32.7512 53.5499 33.0125C53.5295 34.0289 53.2285 34.9683 52.6777 35.7261C51.8191 36.9071 50.3563 37.2063 49.1389 36.4995H49.1377Z" fill="white"/>
<path d="M56.6227 48.3221C56.6091 48.8774 56.7851 49.4196 56.7158 49.9801C56.7113 50.0206 56.7374 50.0924 56.7658 50.1081C57.2371 50.355 57.4438 50.7444 57.286 51.3414C57.2814 51.3584 57.3291 51.3885 57.3416 51.4185C57.8879 52.8126 58.4273 54.2092 58.9793 55.5993C59.638 57.2586 60.4364 58.8394 61.0576 60.5209C61.3029 61.1833 61.8514 61.4446 62.2728 61.0618C62.5079 60.8488 62.7736 60.7077 63.0212 60.5261C63.0496 60.3171 63.078 60.1067 63.1075 59.8977C62.81 59.5946 62.676 59.183 62.5408 58.7715C62.3489 58.4723 62.1956 58.1496 62.0809 57.8034C61.9434 57.6583 61.873 57.465 61.7969 57.2755C61.5448 56.928 61.3654 56.5269 61.1712 56.135C60.9804 55.875 60.8146 55.5967 60.7089 55.2766C60.534 55.065 60.4273 54.8128 60.3671 54.5319C60.3285 54.4796 60.2899 54.4274 60.2513 54.3751C59.9423 53.748 59.6062 53.1366 59.4483 52.4271C59.412 52.3683 59.3756 52.3082 59.3393 52.2495C59.1462 51.8392 58.9361 51.4368 58.9055 50.9547C58.8191 50.7169 58.6749 50.5262 58.4648 50.4491C58.1241 50.3237 58.1877 50.1329 58.3649 49.8991C58.3808 49.673 58.3251 49.4705 58.2172 49.2837C58.1956 49.2524 58.1752 49.221 58.1536 49.1883C58.0401 49.0603 57.9219 48.9362 57.8776 48.7507C57.7425 48.6461 57.6585 48.4946 57.5846 48.3339C57.529 48.3274 57.5131 48.2869 57.5176 48.2307C57.4268 48.1209 57.3359 48.0125 57.2439 47.904C56.818 47.7211 56.6352 47.8426 56.6238 48.3247L56.6227 48.3221Z" fill="white"/>
<path d="M77.5467 17.278C77.5467 17.278 77.5431 17.2835 77.5406 17.2877C77.5479 17.2974 77.5575 17.3057 77.5647 17.3154C77.5551 17.3029 77.5479 17.2904 77.5467 17.278Z" fill="#9D9D9D"/>
<path d="M77.5708 17.3241C77.5549 17.3685 77.5345 17.4012 77.5106 17.426C77.5254 17.4221 77.5413 17.4195 77.5561 17.4156C77.631 17.3934 77.5992 17.3594 77.572 17.3241H77.5708Z" fill="#9D9D9D"/>
<path d="M77.5109 17.4261C77.5347 17.4012 77.5563 17.3686 77.5711 17.3242C77.5688 17.3216 77.5665 17.3176 77.5643 17.315C77.5574 17.3059 77.5495 17.298 77.5415 17.2889C77.4484 17.4561 77.2803 17.3059 77.1702 17.3999C77.2815 17.4522 77.3984 17.4522 77.5109 17.4261Z" fill="#9D9D9D"/>
<path d="M77.5715 17.3246C77.5987 17.3599 77.6305 17.3938 77.5556 17.416C77.5408 17.42 77.5249 17.4226 77.5101 17.4265C77.4852 17.4526 77.4556 17.4696 77.4238 17.4814C77.5363 17.4957 77.6601 17.4853 77.8111 17.4474C77.6884 17.3703 77.618 17.3259 77.5465 17.2802C77.5465 17.2919 77.5544 17.3037 77.5635 17.3154C77.5658 17.3181 77.5681 17.3207 77.5703 17.3233L77.5715 17.3246Z" fill="#9D9D9D"/>
<path d="M77.5641 17.3122C77.5641 17.3122 77.5699 17.3206 77.5728 17.324C77.5699 17.3206 77.567 17.3173 77.5641 17.3139V17.3122Z" fill="#9D9D9D"/>
<path d="M77.5109 17.4258C77.3996 17.452 77.2826 17.452 77.1702 17.3997C77.2508 17.4428 77.3337 17.469 77.4246 17.4807C77.4564 17.469 77.4848 17.452 77.5109 17.4258Z" fill="#9D9D9D"/>
<path d="M73.546 34.723C72.9543 35.5226 72.7021 36.3862 72.8555 37.3856C73.1791 39.4865 75.1053 41.1667 77.1427 41.1719C77.882 41.1784 78.5964 41.0543 79.2699 40.6793C80.9314 39.7543 81.5878 37.7763 81.5208 35.614C81.4992 34.932 81.3436 34.3102 80.9359 33.781C79.4811 31.8905 76.618 31.6175 74.9747 33.2885C74.5034 33.768 73.9673 34.1521 73.5448 34.723H73.546ZM73.4108 37.0303C73.5869 37.0825 73.7265 37.1374 73.8685 37.1609C74.0218 37.1871 74.1865 37.1021 74.1331 36.9166C73.8855 36.0439 74.5113 35.6101 74.8123 34.9177C75.2983 35.8832 75.982 36.4972 76.6555 37.2119C75.6197 37.4588 74.6283 37.4693 73.6357 37.468C73.3631 37.468 73.4392 37.2432 73.4108 37.0303ZM78.4908 33.3068C78.5919 33.342 78.6918 33.3825 78.7929 33.423C80.4726 34.1037 80.8587 34.8406 80.585 36.8696C80.4635 37.7658 80.1841 38.5837 79.6412 39.2618C79.5879 39.3767 79.5299 39.4839 79.3971 39.4826C78.66 40.2808 77.7367 40.3422 76.8077 40.307C75.471 40.2573 74.5397 39.4055 73.7209 38.1225C74.8463 38.2074 75.873 38.163 76.8736 37.8939C77.3256 37.7724 77.6424 37.873 77.9684 38.2218C78.3556 38.6373 78.7815 39.007 79.1904 39.3963C79.3357 39.429 79.4504 39.3402 79.5697 39.2696C79.5617 38.8542 79.3255 38.6059 79.0666 38.3838C78.0797 37.5359 77.162 36.5952 76.258 35.6363C76.0127 35.3763 75.8208 35.047 75.563 34.8066C75.2234 34.4878 75.3097 34.3049 75.6038 34.011C76.4624 33.1539 77.4187 32.9396 78.4919 33.3055L78.4908 33.3068Z" fill="white"/>
<path d="M66.787 41.0073C67.3333 39.6315 68.2634 38.7314 69.3344 37.9566C69.7716 37.6404 70.1873 37.2864 70.6075 36.9415C70.6904 36.8735 70.7642 36.7768 70.8176 36.6762C70.8835 36.5534 70.8278 36.4306 70.7427 36.3509C70.6518 36.2647 70.5337 36.2686 70.4496 36.3653C69.7773 37.1348 68.9414 37.6457 68.1783 38.2689C67.5366 38.7928 67.013 39.4068 66.6394 40.2286C66.2408 41.1039 65.8308 42.0041 65.0381 42.5333C64.9495 42.592 64.9234 42.6913 64.9154 42.7998C64.9165 42.9317 64.9608 43.0336 65.063 43.1029C65.2289 43.2152 65.3583 43.1146 65.4753 43.0023C66.0477 42.4562 66.4861 41.765 66.787 41.006V41.0073Z" fill="white"/>
<path d="M68.0152 42.784C68.8602 41.4396 69.7915 40.1658 71.0146 39.2329C71.1236 39.1493 71.2066 39.0513 71.1668 38.8893C71.1225 38.709 70.9896 38.6672 70.817 38.6385C70.5967 38.6934 70.3968 38.858 70.2321 39.0618C69.4121 40.0743 68.5558 41.0555 67.8029 42.1308C67.352 42.7762 66.9738 43.4621 66.2924 43.8253C66.1209 43.9167 66.0584 44.1101 66.1868 44.3087C66.3094 44.4994 66.49 44.5125 66.6229 44.3557C67.076 43.8201 67.62 43.415 68.0164 42.784H68.0152Z" fill="#020202"/>
<path d="M71.6205 40.8243C71.5002 40.8217 71.4354 40.887 71.3616 40.955C70.1725 42.0694 69.0016 43.2074 67.9409 44.4877C67.8103 44.6445 67.6717 44.847 67.4491 44.8118C67.2686 44.783 67.1573 44.8431 67.0891 45.0299C67.0414 45.1619 67.0868 45.2703 67.1629 45.3618C67.2924 45.5146 67.4355 45.4598 67.5854 45.3984C67.9398 45.2547 68.2214 44.9855 68.4803 44.6916C69.3492 43.7091 70.2713 42.7997 71.231 41.9388C71.4343 41.7559 71.6353 41.5612 71.7614 41.296C71.8636 41.0804 71.85 40.8897 71.6194 40.823L71.6205 40.8243Z" fill="white"/>
<path d="M28.4348 27.8062C28.4416 27.9616 28.3951 28.1315 28.4916 28.2817C28.6551 28.1655 28.6086 28.0204 28.6063 27.8898C28.512 27.963 28.4871 27.8454 28.4348 27.8062Z" fill="#989898"/>
<path d="M28.4344 27.8064C28.4878 27.8455 28.5117 27.9631 28.6059 27.89C28.5537 27.8495 28.5128 27.775 28.4344 27.8064Z" fill="#989898"/>
<path d="M22.5907 25.503C22.5907 25.503 22.6009 25.5082 22.6043 25.5134C22.6554 25.4559 22.7168 25.4154 22.7815 25.3802C22.7804 25.3762 22.7792 25.371 22.7792 25.3658C22.7134 25.4063 22.6475 25.4468 22.5918 25.503H22.5907Z" fill="#C5C5C5"/>
<path d="M22.5906 25.5025C22.6474 25.4463 22.7121 25.4058 22.778 25.3653C22.7746 25.3457 22.7757 25.3222 22.778 25.2947C22.6758 25.3352 22.5554 25.3457 22.5156 25.4959C22.5497 25.4894 22.5735 25.4933 22.5894 25.5038L22.5906 25.5025Z" fill="#C5C5C5"/>
<path d="M22.7796 25.3803C22.7148 25.4156 22.6535 25.4561 22.6024 25.5136C22.6149 25.5332 22.6149 25.5645 22.599 25.6116C22.6933 25.541 22.7864 25.4692 22.8807 25.3986C22.8205 25.4274 22.7909 25.4169 22.7796 25.3816V25.3803Z" fill="#C5C5C5"/>
<path d="M22.7799 25.3798C22.7987 25.3688 22.8175 25.3593 22.8362 25.3497C22.8315 25.3456 22.8268 25.3402 22.8233 25.3361C22.8081 25.3456 22.7928 25.3552 22.7776 25.3647C22.7776 25.3702 22.7788 25.3757 22.7799 25.3798Z" fill="#C5C5C5"/>
<path d="M22.7774 25.3654C22.7922 25.3562 22.8069 25.3471 22.8217 25.3379C22.8069 25.3235 22.7922 25.3092 22.7786 25.2948C22.7751 25.3235 22.7751 25.3471 22.7786 25.3654H22.7774Z" fill="#C5C5C5"/>
<path d="M22.7793 25.3799C22.7907 25.4151 22.8202 25.4256 22.8804 25.3969C22.8645 25.3812 22.8497 25.3655 22.8338 25.3498C22.8156 25.359 22.7975 25.3694 22.7793 25.3786V25.3799Z" fill="#C5C5C5"/>
<path d="M22.5915 25.4997C22.5774 25.5134 22.5669 25.5311 22.554 25.5461C22.5575 25.5516 22.5622 25.557 22.5657 25.5625C22.5786 25.5434 22.5915 25.5257 22.6056 25.5106C22.602 25.5052 22.5962 25.5038 22.5915 25.4997Z" fill="#C5C5C5"/>
<path d="M22.6043 25.512C22.5907 25.5276 22.5782 25.5433 22.5657 25.5616C22.577 25.5773 22.5884 25.593 22.6009 25.6086C22.6168 25.5616 22.6168 25.5303 22.6043 25.5107V25.512Z" fill="#C5C5C5"/>
<path d="M22.5919 25.5007C22.5754 25.4898 22.5508 25.4857 22.5156 25.4925C22.5285 25.5103 22.5414 25.5294 22.5555 25.5471C22.5684 25.5321 22.579 25.5144 22.593 25.5007H22.5919Z" fill="#C5C5C5"/>
<path d="M48.1785 55.2465C48.3363 55.3823 48.4715 55.4019 48.5532 55.1498C48.451 55.3 48.3 55.2007 48.1785 55.2465Z" fill="#575757"/>
<path d="M48.1783 55.2461C48.301 55.2004 48.452 55.2997 48.5531 55.1494C48.4237 55.1612 48.284 55.1141 48.1783 55.2461Z" fill="#575757"/>
<path d="M29.3702 49.7092C29.2986 49.6988 29.1805 49.7001 29.2226 49.7994C29.3021 49.9914 29.4372 49.8778 29.5496 49.8112C29.4679 49.8281 29.3577 49.9104 29.3702 49.7092Z" fill="#8C8C8C"/>
<path d="M29.5492 49.8117C29.489 49.7777 29.4288 49.7438 29.3697 49.7098C29.3584 49.911 29.4674 49.83 29.5492 49.8117Z" fill="#8C8C8C"/>
<path d="M28.8583 28.7925C28.9912 28.8552 29.082 28.9035 29.2444 28.7389C29.0922 28.7572 29.0071 28.6252 28.8583 28.7925Z" fill="#898989"/>
<path d="M31.8886 58.2851C31.833 58.2603 31.7808 58.2851 31.7285 58.3191C31.7297 58.323 31.7308 58.3269 31.7319 58.3308C31.7864 58.3008 31.8387 58.2786 31.8886 58.2851Z" fill="#7F7F7F"/>
<path d="M31.7281 58.3191C31.7804 58.2851 31.8326 58.2603 31.8883 58.2851C31.8383 58.2786 31.7849 58.3008 31.7315 58.3308C31.735 58.3504 31.7315 58.3766 31.7236 58.4105C31.8167 58.4001 31.953 58.3086 31.9269 58.2655C31.8394 58.127 31.7259 58.1989 31.635 58.3034C31.6895 58.2825 31.7191 58.2903 31.7293 58.3178L31.7281 58.3191Z" fill="#7F7F7F"/>
<path d="M31.729 58.3173C31.7114 58.3296 31.6926 58.3419 31.675 58.3528C31.6774 58.3555 31.6786 58.3569 31.6809 58.3596C31.6985 58.3487 31.7161 58.3391 31.7325 58.3296C31.7325 58.3255 31.7302 58.3214 31.729 58.3173Z" fill="#7F7F7F"/>
<path d="M31.7276 58.3196C31.7173 58.2908 31.6889 58.2843 31.6333 58.3052C31.6469 58.3222 31.6606 58.3379 31.6742 58.3549C31.6924 58.3431 31.7094 58.3313 31.7264 58.3209L31.7276 58.3196Z" fill="#7F7F7F"/>
<path d="M31.7317 58.3328C31.7147 58.3419 31.6977 58.3511 31.6818 58.3615C31.6954 58.3785 31.7102 58.3955 31.7238 58.4125C31.7329 58.3798 31.7351 58.3537 31.7317 58.3328Z" fill="#7F7F7F"/>
<path d="M6.0052 14.8742C5.97226 14.8703 5.93478 14.8585 5.89617 14.852C5.89276 14.8572 5.89049 14.8611 5.88708 14.8663C5.92683 14.8729 5.96658 14.8768 6.0052 14.8742Z" fill="#8D8D8D"/>
<path d="M6.00618 14.8741C6.02435 14.8741 6.04252 14.8715 6.05955 14.8688C6.04479 14.878 6.02548 14.8767 6.00618 14.8741C5.96643 14.8767 5.92781 14.8741 5.88806 14.8662C5.80629 14.9825 5.6791 14.8819 5.57007 14.8675C5.76087 14.989 5.95734 14.9694 6.16744 14.8715C6.08908 14.8362 6.00958 14.8009 5.93122 14.7656C5.921 14.8009 5.90964 14.8296 5.89715 14.8505C5.9369 14.8571 5.97438 14.8675 6.00618 14.8728V14.8741Z" fill="#8D8D8D"/>
<path d="M6.06244 14.8689C6.04368 14.873 6.02492 14.873 6.00732 14.8743C6.02843 14.8771 6.0472 14.8771 6.06244 14.8689Z" fill="#8D8D8D"/>
<path d="M5.89649 14.8539C5.88286 14.8513 5.86809 14.8487 5.85447 14.85C5.84652 14.8474 5.8397 14.8435 5.83175 14.8409C5.8204 14.8435 5.8079 14.8461 5.79541 14.8474C5.82607 14.8565 5.85674 14.8631 5.8874 14.8683C5.89081 14.8644 5.89308 14.8591 5.89649 14.8539Z" fill="#8D8D8D"/>
<path d="M5.88806 14.8677C5.8574 14.8625 5.82674 14.8559 5.79607 14.8468C5.71998 14.8507 5.63707 14.8233 5.57007 14.869C5.6791 14.8834 5.80629 14.984 5.88806 14.8677Z" fill="#8D8D8D"/>
<path d="M5.83203 14.8408C5.83998 14.8434 5.8468 14.8473 5.85475 14.85C5.86951 14.85 5.88314 14.8513 5.89677 14.8539C5.90926 14.8317 5.92175 14.8042 5.93084 14.769C5.90244 14.8147 5.86837 14.833 5.83203 14.8408Z" fill="#8D8D8D"/>
<path d="M11.6254 6.34045C11.496 6.32085 11.3551 6.26336 11.2904 6.4724C11.4017 6.57823 11.5175 6.56255 11.6357 6.52205C11.5584 6.46718 11.563 6.40577 11.6254 6.33914V6.34045Z" fill="#4B4B4B"/>
<path d="M11.6247 6.34016C11.5622 6.40549 11.5577 6.4682 11.6349 6.52307C11.6315 6.46167 11.6281 6.40157 11.6247 6.34016Z" fill="#4B4B4B"/>
<path d="M79.5948 39.2994C79.5766 39.2903 79.5686 39.2811 79.5686 39.2707C79.4494 39.3412 79.3347 39.4314 79.1893 39.3974C79.2518 39.4444 79.3415 39.4053 79.3949 39.4836C79.5278 39.4836 79.5857 39.3778 79.6391 39.2628C79.6266 39.2955 79.6107 39.3086 79.5948 39.2994Z" fill="#ACACAC"/>
<path d="M79.5676 39.2689C79.5676 39.2798 79.577 39.2894 79.5946 39.2989C79.6121 39.3085 79.6274 39.2948 79.6403 39.2607C79.6145 39.2443 79.5899 39.247 79.5664 39.2689H79.5676Z" fill="#ACACAC"/>
<path d="M79.3949 39.4837C79.3415 39.4066 79.2518 39.4445 79.1893 39.3975C79.2314 39.5098 79.3109 39.5059 79.3949 39.4837Z" fill="#ACACAC"/>
</g>
<defs>
<clipPath id="clip0_630_2095">
<rect width="64" height="88" fill="white" transform="matrix(0 -1 1 0 0 64)"/>
</clipPath>
</defs>
</svg>
