<svg width="88" height="64" viewBox="0 0 88 64" fill="none" xmlns="http://www.w3.org/2000/svg">
<g clip-path="url(#clip0_630_2291)">
<path d="M36.3689 63.524C37.3433 62.8394 38.362 62.2502 39.383 61.6649C41.467 60.4721 43.5306 59.2309 45.6577 58.1373C46.3801 57.7663 47.0819 57.343 47.7849 56.9249C47.9519 56.8256 48.0972 56.7851 48.2381 56.8008C48.263 56.7995 48.288 56.8034 48.3141 56.8165C48.4368 56.8478 48.5595 56.9223 48.6923 57.0438C49.1443 57.4554 49.4964 58.0028 50.0131 58.3203C50.1937 58.4104 50.3766 58.4091 50.5606 58.3359C50.9558 58.2249 51.2738 57.9505 51.5952 57.6866C51.8893 57.4449 51.9552 57.1379 51.7496 56.7786C51.3919 56.1489 50.9569 55.5845 50.5719 54.9782C50.2323 54.4426 49.8598 53.933 49.5839 53.3464C49.5396 53.1622 49.443 53.025 49.3022 52.9244C49.0217 52.6096 48.8002 52.2411 48.5856 51.8675C48.5322 51.6963 48.4482 51.5526 48.3073 51.4612C48.1903 51.3697 48.0915 51.2613 48.0325 51.111C47.9814 50.9399 47.8894 50.8066 47.7508 50.7164C47.5998 50.5963 47.4669 50.4578 47.3874 50.2618C47.334 50.0789 47.2205 49.9548 47.0842 49.8529C46.5663 49.1865 46.1257 48.4523 45.71 47.7011C45.3909 47.1262 45.0558 46.567 44.7072 46.0157C44.5811 45.8171 44.4346 45.6329 44.4846 45.3572C44.4846 45.3559 44.4846 45.3533 44.4857 45.352C44.2302 45.0724 44.0485 44.7275 43.8588 44.3917C43.609 43.9488 43.3716 43.4954 43.1297 43.0447C43.1195 43.0408 43.1081 43.0382 43.0979 43.0329C42.7322 42.803 42.6118 42.3457 42.3745 41.9956C42.3188 41.8218 42.2348 41.6716 42.1007 41.5631C42.0553 41.5174 42.019 41.4625 41.9906 41.4024C41.9349 41.2535 41.8486 41.1359 41.7294 41.0471C41.6453 40.9778 41.5783 40.8929 41.5329 40.7858C41.4761 40.6055 41.3637 40.4801 41.224 40.3834C40.5914 39.5995 40.0247 38.7529 39.5295 37.8501C39.0094 36.9016 38.4722 35.9661 37.8987 35.062C37.4535 34.3617 37.1366 33.5857 36.8323 32.807C36.4961 31.9486 36.027 31.2078 35.5205 30.4801C34.5858 29.1357 33.8817 27.6176 33.131 26.1373C32.4644 24.823 31.9033 23.4407 31.2844 22.0963C30.8642 21.1831 30.1419 20.5024 29.741 19.5657C29.5241 19.0587 29.2401 18.6054 28.8506 18.2526C28.6893 18.0998 28.5235 18.1311 28.3554 18.2383C27.967 18.4408 27.5752 18.6276 27.1663 18.7752C26.7121 18.9398 26.6564 19.2038 26.9426 19.6284C27.5945 20.5978 27.6036 20.7716 26.6791 21.4013C25.054 22.5079 23.4401 23.6354 21.7945 24.7041C19.5265 26.1778 17.2744 27.6842 14.9258 28.9842C13.3892 29.8347 11.8095 30.582 10.3501 31.6103C10.1707 31.737 9.99122 31.737 9.78566 31.6455C9.34501 31.4482 9.23484 31.5279 9.18374 32.0414C9.16784 32.2047 9.13604 32.3249 9.02247 32.4477C8.8135 32.6724 8.86915 32.8919 9.14399 32.8723C9.56987 32.841 9.73341 33.1493 9.91967 33.4746C10.2308 34.0181 10.5023 34.5864 10.7476 35.1705C11.3506 36.605 12.249 37.803 13.0837 39.0494C13.6243 39.8569 14.0956 40.7074 14.5624 41.5723C16.0979 44.4139 17.6447 47.2438 19.4061 49.9182C20.5452 51.648 21.6355 53.4261 22.6406 55.2696C23.3061 56.4899 23.2641 56.6506 22.2386 57.407C20.2874 58.8468 18.3068 60.2212 16.2035 61.3487C14.6578 62.1783 13.0985 62.974 11.5289 63.7435C11.2882 63.8611 11.0247 63.8676 10.793 64.0009H13.0792C13.9605 63.4626 14.9111 63.1112 15.8298 62.6761C17.8037 61.742 19.7048 60.6563 21.4867 59.2962C22.1193 58.8128 22.7951 58.4039 23.4492 57.9584C24.1499 57.4802 24.6746 56.8413 24.979 55.9437C25.2754 55.0684 25.7433 54.3276 26.4225 53.7593C27.2708 53.0485 28.1555 52.3914 28.9471 51.5905C29.0209 51.5147 29.1073 51.4115 29.2503 51.5317C29.097 51.9132 28.837 52.2006 28.5882 52.4946C28.1839 52.9715 27.7649 53.4327 27.3628 53.9108C27.0198 54.3185 26.9494 54.8006 27.1641 55.1337C27.4151 55.5244 27.8921 55.672 28.3134 55.3963C29.0016 54.9469 29.7978 54.7601 30.4372 54.1983C30.5235 54.1225 30.6473 53.967 30.7483 54.1212C30.8471 54.2714 30.6802 54.3668 30.603 54.4517C30.1055 54.9991 29.5729 55.4904 28.9335 55.8105C28.4065 56.0731 28.2714 56.3553 28.4258 56.8478C28.5474 57.2346 28.9233 57.4031 29.3946 57.215C29.9249 57.0033 30.4383 56.7355 30.9596 56.4925C31.0436 56.4533 31.1288 56.4075 31.248 56.4611C31.0402 56.8152 30.7177 56.9641 30.4076 57.117C29.9749 57.3299 29.5252 57.4972 29.0914 57.7101C28.6893 57.9087 28.4928 58.3281 28.6325 58.7214C28.787 59.1525 29.0902 59.3236 29.4854 59.1708C30.2043 58.8925 30.9187 58.5972 31.6353 58.3098C31.7262 58.2053 31.8397 58.1334 31.9272 58.2719C31.9533 58.3137 31.817 58.4052 31.7239 58.4169C31.0516 58.8664 30.3383 59.2061 29.6047 59.4961C26.9392 60.5491 24.552 62.2215 22.1784 63.9212C22.1557 63.9369 22.1466 63.9761 22.1318 64.0048H24.51C25.1505 63.4456 25.8898 63.0837 26.5792 62.6212C26.7143 62.5311 26.795 62.5664 26.8802 62.7009C27.1539 63.1386 27.4923 63.5201 27.7115 64.0048H28.6257C28.3486 63.4182 27.9897 62.8969 27.6297 62.3795C27.4832 62.1692 27.4912 62.0725 27.7172 61.9732C28.0999 61.8047 28.4713 61.6022 28.8494 61.4232C28.9505 61.3748 29.1061 61.2586 29.1163 61.5107C29.1368 62.0163 29.4627 62.309 29.691 62.6696C29.9738 63.1164 30.3565 63.4783 30.5462 64.0048H31.2776C31.2015 63.7161 31.2446 63.6011 31.5513 63.5188C32.6597 63.2209 33.6046 62.4841 34.6063 61.9014C34.8596 61.755 35.0833 61.5199 35.4047 61.5734C35.4671 61.5839 35.5614 61.5303 35.6046 61.4715C36.3042 60.5191 37.2865 60.0435 38.2258 59.5575C39.7533 58.7671 41.1911 57.7768 42.7197 56.9942C43.2614 56.7172 43.8191 56.482 44.3562 56.1959C44.9479 55.881 45.1172 55.1651 44.7674 54.517C44.4937 54.0114 44.2018 53.5189 43.9235 53.0159C43.7611 52.7219 43.5113 52.4737 43.6975 52.0386C43.7782 51.8492 43.6203 51.5774 43.4159 51.597C43.0672 51.631 42.9798 51.3462 42.8446 51.1071C38.554 43.4941 34.2656 35.8799 29.9772 28.2643C29.3401 27.1342 28.7007 26.0054 28.0783 24.8648C27.8648 24.4729 27.6502 24.4062 27.2924 24.6362C26.2578 25.3012 25.1993 25.9192 24.1636 26.5855C23.8978 26.7566 23.8024 26.6769 23.6332 26.4261C23.397 26.0746 23.4163 25.4606 22.8825 25.4005C22.7882 25.471 22.6951 25.5429 22.6008 25.6134C22.3885 26.2928 22.8428 26.7096 23.0994 27.2309C21.3084 28.3336 19.5277 29.4284 17.7469 30.5259C16.0456 31.575 14.3455 32.628 12.6419 33.6745C12.383 33.8339 12.1956 34.0403 12.3569 34.3787C12.5204 34.721 12.7964 34.6727 13.0213 34.4663C13.4017 34.1174 13.6493 34.2833 13.8798 34.6831C14.459 35.6878 15.0439 36.6768 15.5016 37.7782C16.0774 39.1644 16.7838 40.4787 17.4505 41.814C19.3028 45.5218 21.38 49.0598 23.5696 52.5116C23.8478 52.9493 24.3237 53.3072 24.4259 53.7828C24.5293 54.2636 24.0307 54.7039 23.8637 55.2017C23.7774 55.4577 23.7593 55.7491 23.5889 55.9751C22.4634 53.3007 20.9405 50.9255 19.4061 48.5856C17.8684 46.2404 16.5737 43.7306 15.2711 41.2274C14.4057 39.5642 13.3529 38.0761 12.3637 36.5266C11.5948 35.322 11.0701 33.958 10.4182 32.6764C10.2763 32.3981 10.5159 32.3981 10.6227 32.3341C11.9844 31.5175 13.3869 30.8002 14.7827 30.066C17.0927 28.8509 19.3266 27.4608 21.5526 26.055C21.8672 25.8564 22.1943 25.6827 22.5157 25.4972C22.5554 25.3469 22.6758 25.3378 22.778 25.296C24.2124 24.4141 25.5559 23.3467 27.0187 22.521C27.2742 22.3772 27.5059 22.163 27.7274 21.9513C27.9522 21.7371 28.0533 21.7919 28.2044 22.0741C31.398 28.0579 34.5438 34.0769 37.8249 39.9967C40.0349 43.9841 42.5153 47.7664 44.781 51.7172C45.509 52.9858 46.3891 54.1408 47.2205 55.3271C47.4578 55.6655 47.4669 55.8105 47.1001 56.0221C44.9513 57.2607 42.8117 58.5202 40.6777 59.7901C38.5426 61.06 36.42 62.356 34.3655 63.7945C34.2769 63.8572 34.1952 63.933 34.1111 64.0022H35.9396C35.9441 63.9774 35.9419 63.9408 35.9498 63.9238C35.9975 63.6808 36.219 63.6325 36.3689 63.528V63.524ZM31.9317 53.0368C31.7443 52.6932 31.4536 52.5808 31.1163 52.5586C30.6518 52.5286 30.3758 52.0334 30.5201 51.5108C30.8187 50.4264 30.4769 49.8267 29.5502 49.8097C29.4366 49.8764 29.3015 49.99 29.2231 49.798C29.1811 49.6974 29.2992 49.6961 29.3707 49.7078C29.8137 49.5602 30.2111 49.2963 30.595 49.0193C30.9016 48.7985 31.072 48.809 31.2776 49.1865C31.8977 50.3271 32.5507 51.4442 33.2071 52.5978C32.8937 52.7742 32.5802 52.9427 32.2747 53.1256C32.1293 53.2132 32.0271 53.2079 31.934 53.0368H31.9317ZM26.7848 45.5963C26.7848 45.5871 26.7848 45.578 26.7848 45.5702C26.1056 44.6177 25.5775 43.5412 24.954 42.5443C24.8529 42.3836 24.8984 42.3131 25.0256 42.2308C25.4492 41.959 25.8728 41.6846 26.2896 41.3985C26.4554 41.2849 26.5542 41.3241 26.6587 41.5017C27.1368 42.3118 27.6184 43.1192 28.1101 43.9174C28.2316 44.1147 28.1953 44.214 28.0249 44.3133C27.6626 44.5263 27.3878 44.9065 26.9733 45.0254C26.7121 45.1011 26.7836 45.3572 26.7848 45.5689C26.7882 45.5741 26.7916 45.5793 26.795 45.5845C26.7984 45.5911 26.8018 45.5976 26.8052 45.6054C27.356 45.8602 27.7978 45.5205 28.2089 45.1926C28.5712 44.9039 28.7427 44.9718 28.971 45.3964C29.4105 46.213 29.8966 46.9995 30.3951 47.7703C30.5996 48.0865 30.545 48.2263 30.2691 48.387C29.8307 48.6404 29.4457 49.0311 28.904 49.0076C28.8006 49.0036 28.7404 49.0036 28.6859 48.9056C28.0658 47.8004 27.3583 46.7604 26.8052 45.6054C26.7984 45.6028 26.7916 45.6002 26.7848 45.5963ZM31.3775 47.6018C31.2185 47.7011 31.1152 47.7272 30.9993 47.5338C30.4122 46.5553 29.8171 45.5832 29.1924 44.5576C30.0044 44.1748 30.7767 43.8168 31.5445 43.4432C31.6932 43.3713 31.7602 43.4197 31.8409 43.5569C32.3315 44.4008 32.8312 45.2383 33.2753 46.1176C33.3934 46.3514 33.3491 46.4272 33.1571 46.537C32.5575 46.878 31.9658 47.2359 31.3775 47.6018ZM33.968 47.4763C34.5904 48.5725 35.2252 49.6608 35.7397 50.8353C35.8499 51.0875 35.8283 51.1881 35.6091 51.3005C35.1117 51.5578 34.6165 51.827 34.135 52.1222C33.8908 52.2725 33.7602 52.2072 33.6182 51.9563C32.9857 50.8458 32.3394 49.7457 31.6989 48.6417C31.641 48.5424 31.541 48.4249 31.6807 48.3347C32.3292 47.9153 33.0129 47.5782 33.6671 47.266C33.8647 47.2098 33.9033 47.364 33.968 47.4763ZM28.9698 43.6849C28.7836 43.7881 28.7132 43.7189 28.6132 43.5503C28.1419 42.7534 27.6604 41.9655 27.18 41.1764C27.0959 41.0379 27.0142 40.9412 27.2163 40.8171C27.9681 40.352 28.7518 39.9731 29.5479 39.6269C29.5763 39.6152 29.6058 39.606 29.6342 39.5956C29.7784 39.5707 29.8091 39.7105 29.8614 39.8098C30.2793 40.6042 30.6881 41.4051 31.114 42.1929C31.2333 42.4137 31.206 42.5077 31.0005 42.6109C30.3179 42.9559 29.641 43.3125 28.9698 43.6849ZM26.6973 40.0215C26.5315 40.1404 26.4611 40.0646 26.3702 39.9235C25.8387 39.0952 25.3049 38.2682 24.8745 37.3614C24.812 37.2308 24.6962 37.1028 24.8972 36.9826C25.7581 36.4691 26.6326 35.9883 27.5423 35.5977C27.5707 35.5859 27.6013 35.5807 27.6308 35.5715C27.7898 35.5493 27.8273 35.7022 27.8943 35.8132C28.3622 36.5893 28.7393 37.4255 29.1141 38.2642C29.2072 38.4733 29.1822 38.5595 28.9982 38.6523C28.2066 39.0521 27.4332 39.495 26.6984 40.0228L26.6973 40.0215ZM24.4009 35.8838C24.2874 35.9635 24.2101 35.9609 24.1443 35.8211C23.7138 34.917 23.0722 34.1697 22.6985 33.2212C22.602 32.9768 22.5815 32.8488 22.8428 32.7234C23.5969 32.3589 24.3373 31.9578 25.0823 31.5658C25.2391 31.4835 25.3799 31.3764 25.4957 31.6377C25.8853 32.5091 26.3373 33.3361 26.8427 34.1253C26.8699 34.1671 26.8926 34.2115 26.9324 34.2807C26.8756 34.3291 26.8245 34.3879 26.762 34.4205C25.9489 34.853 25.1664 35.3494 24.4009 35.8838ZM22.1182 33.6209C22.4441 34.5211 23.0449 35.2162 23.5083 36.0145C23.6639 36.2836 23.6729 36.4273 23.4095 36.6102C23.0335 36.8715 22.6781 37.1772 22.3362 37.496C22.1522 37.6685 22.0682 37.6267 21.9512 37.4229C21.33 36.3463 20.7008 35.275 20.0489 34.1592C20.6463 34.0652 21.0892 33.6706 21.5776 33.4054C21.8592 33.2525 21.9933 33.276 22.1182 33.6209ZM23.9535 37.5731C24.0193 37.5313 24.0875 37.496 24.1431 37.4647C24.2737 37.4686 24.301 37.577 24.343 37.6659C24.7655 38.5778 25.2868 39.4153 25.8364 40.2292C25.992 40.4605 25.9523 40.5571 25.7581 40.6995C25.4003 40.9608 25.0437 41.2339 24.7178 41.5435C24.5065 41.7447 24.4316 41.6546 24.3101 41.4442C23.7831 40.5271 23.2482 39.6165 22.7053 38.7111C22.5838 38.5072 22.5781 38.4093 22.7928 38.2904C23.1891 38.0735 23.5673 37.8148 23.9535 37.5731ZM34.5427 52.8643C35.0549 52.603 35.5671 52.3417 36.0725 52.0661C36.2269 51.9824 36.3121 52.006 36.412 52.1667C36.9061 52.961 37.4115 53.7475 37.9123 54.5366C37.9475 54.5928 37.9827 54.6503 38.0134 54.6986C38.0259 54.828 37.9373 54.845 37.8771 54.8842C37.3433 55.2147 36.8061 55.5374 36.2769 55.8745C36.0918 55.9921 36.0134 55.8993 35.9271 55.7242C35.4921 54.8437 35.0242 53.9866 34.4677 53.2001C34.3405 53.0198 34.3871 52.9453 34.5438 52.8656L34.5427 52.8643ZM33.5149 57.0477C33.3741 56.8426 33.2219 56.6466 33.0856 56.4363C32.7517 55.9202 32.5257 55.3258 32.1555 54.8293C31.8522 54.4217 31.959 54.1146 32.3826 53.9252C32.7358 53.7671 33.0867 53.6012 33.4331 53.4235C33.6057 53.3347 33.7307 53.3164 33.8658 53.5163C34.428 54.3459 34.922 55.2265 35.3831 56.1332C35.4319 56.2286 35.5353 56.337 35.3729 56.4298C34.8584 56.7211 34.3701 57.0882 33.7409 57.1928C33.658 57.2333 33.5864 57.1509 33.516 57.0477H33.5149ZM31.7432 62.8133C31.5024 62.9701 31.2037 62.846 30.9834 63.0981C30.9198 63.1713 30.8426 62.9583 30.7869 62.8669C30.4133 62.2489 30.0101 61.6623 29.4525 61.1619C29.766 61.0208 30.0692 60.8862 30.3713 60.7477C31.4048 60.2748 32.4155 59.7483 33.2628 58.8938C33.4308 58.7253 33.499 58.771 33.6035 58.9539C33.9703 59.5967 34.3474 60.233 34.7471 60.9163C33.7125 61.5669 32.721 62.177 31.7432 62.8146V62.8133ZM35.6057 60.3218C35.4365 60.4381 35.3717 60.3479 35.2877 60.2016C34.8936 59.517 34.495 58.8363 34.0918 58.1569C33.9907 57.9871 33.9169 57.8578 34.1793 57.8055C34.7085 57.701 35.1889 57.4358 35.6602 57.1536C35.8203 57.0582 35.9192 57.0569 36.0407 57.2346C36.4825 57.8734 36.9549 58.4823 37.5205 59.0441C36.8595 59.4843 36.2292 59.8959 35.6068 60.3231L35.6057 60.3218ZM43.074 53.1753C43.3886 53.775 43.7191 54.3642 44.07 54.9364C44.2324 55.2017 44.1779 55.3153 43.9474 55.4316C43.4602 55.6759 42.9786 55.9359 42.4948 56.1881C41.1377 56.8949 39.8793 57.8238 38.5199 58.5306C38.1542 58.7214 37.8828 58.6495 37.642 58.3294C37.2922 57.8669 36.9663 57.3822 36.6142 56.9223C36.4529 56.712 36.5074 56.6257 36.6982 56.5108C37.2104 56.205 37.7181 55.8863 38.2178 55.5544C38.4177 55.4211 38.5551 55.4355 38.6664 55.6694C38.8345 56.0208 39.1956 56.2521 39.1241 56.7551C39.0968 56.9497 39.2547 57.0673 39.433 57.0412C39.6635 57.0085 39.7817 56.8478 39.7714 56.5016C39.7124 56.1057 39.4591 55.7465 39.2343 55.378C39.0889 55.1402 39.0753 55.0214 39.3308 54.8763C40.4063 54.2649 41.4773 53.6417 42.538 52.9963C42.8049 52.8343 42.9264 52.8983 43.0718 53.1753H43.074ZM40.9378 49.4073C41.3932 50.2134 41.8418 51.0248 42.3074 51.8231C42.4312 52.036 42.4187 52.1301 42.2155 52.2503C41.1104 52.9061 40.0088 53.5711 38.9129 54.2479C38.73 54.3603 38.6221 54.3603 38.4995 54.1565C38.0338 53.3791 37.5659 52.6056 37.0832 51.8413C36.9356 51.6088 37.014 51.533 37.1968 51.4272C38.3223 50.7765 39.4432 50.1181 40.504 49.3329C40.5801 49.2767 40.6641 49.2375 40.7379 49.1944C40.8515 49.2166 40.8878 49.3211 40.9367 49.4073H40.9378ZM38.4393 44.9104C39.0412 46.0431 39.6874 47.1445 40.3222 48.2681C39.1582 49.1643 37.9452 49.9234 36.7175 50.655C36.5347 50.7648 36.4529 50.7178 36.3632 50.527C35.8181 49.3734 35.1662 48.2955 34.5245 47.2124C34.4121 47.0217 34.3678 46.9145 34.6086 46.7957C35.742 46.2339 36.7846 45.4787 37.8362 44.7458C38.102 44.5602 38.2507 44.5576 38.4393 44.9104ZM36.3132 41.1647C36.7346 41.9146 37.1582 42.6619 37.5807 43.4105C37.5977 43.4393 37.6113 43.4706 37.6295 43.5085C37.625 43.6261 37.533 43.664 37.4637 43.7189C36.4234 44.542 35.3638 45.3272 34.2213 45.9569C33.9873 46.0862 33.8908 46.0353 33.7636 45.7975C33.3332 44.9927 32.8857 44.1996 32.4371 43.4092C32.3224 43.2067 32.2645 43.0944 32.5268 42.9663C33.7136 42.3902 34.9572 41.9512 36.0452 41.1242C36.1486 41.0458 36.2337 41.0236 36.3132 41.1647ZM34.1804 37.3876C34.6211 38.1649 35.0583 38.9449 35.4989 39.7223C35.5682 39.8451 35.5784 39.913 35.4478 40.0097C34.3655 40.8093 33.2105 41.4456 32.043 42.0596C31.8522 42.1602 31.75 42.1432 31.6399 41.929C31.2355 41.1464 30.8187 40.3742 30.4019 39.5995C30.3179 39.4427 30.2634 39.3343 30.4837 39.2624C31.7125 38.8626 32.8005 38.1336 33.8601 37.3366C33.9101 37.2987 33.9635 37.2661 34.0044 37.2373C34.1191 37.2217 34.1441 37.3209 34.1815 37.3876H34.1804ZM31.8136 33.2525C32.0249 33.3675 32.1271 33.749 32.277 34.0129C32.6415 34.6583 33.0038 35.3037 33.365 35.9426C32.3633 36.5331 31.6069 37.5444 30.5144 37.9572C29.7228 38.2564 29.7432 38.2995 29.3457 37.4699C29.0459 36.8428 28.7438 36.213 28.4008 35.6173C28.2225 35.3063 28.3066 35.2436 28.5542 35.1286C29.44 34.7158 30.3156 34.2768 31.1424 33.7124C31.3741 33.5543 31.5297 33.0984 31.8136 33.2525ZM29.5672 29.205C30.009 30.0033 30.4599 30.7937 30.9073 31.5867C30.9323 31.6312 30.9505 31.6782 30.9687 31.7161C30.8471 31.8755 30.7154 32.172 30.6155 32.1577C30.1521 32.0963 29.967 32.5653 29.6478 32.76C29.0028 33.1519 28.3577 33.5426 27.7035 33.9136C27.5218 34.0168 27.4173 34.0129 27.289 33.8104C26.812 33.0605 26.3884 32.2726 25.9909 31.4652C25.883 31.2457 25.8978 31.1399 26.1147 31.055C27.2447 30.6108 28.3066 30.0163 29.2447 29.154C29.3787 29.0312 29.4661 29.0169 29.5695 29.2037L29.5672 29.205ZM29.2447 28.7373C29.0823 28.9019 28.9914 28.8549 28.8585 28.7908C29.0084 28.6236 29.0925 28.7556 29.2447 28.7373ZM24.527 27.3785C25.4378 26.8246 26.3452 26.2615 27.2538 25.701C27.3901 25.6174 27.5059 25.5233 27.6286 25.7532C27.9477 26.3477 28.2805 26.9317 28.6212 27.5092C28.7086 27.6581 28.6598 27.7652 28.6064 27.888C28.6087 28.02 28.6541 28.1637 28.4917 28.28C28.3952 28.1284 28.4417 27.9599 28.4349 27.8044C28.3293 27.7678 28.2646 27.841 28.1976 27.9155C27.4548 28.7503 26.5326 29.239 25.5991 29.7106C25.406 29.8086 25.3163 29.8164 25.2266 29.5656C25.0006 28.9372 24.7496 28.3192 24.4146 27.7561C24.2839 27.5366 24.3714 27.4739 24.527 27.3785ZM20.9813 29.5643C21.8013 29.0704 22.6145 28.5622 23.4299 28.0605C23.456 28.0435 23.4844 28.0304 23.5117 28.0161C23.6275 27.9834 23.6718 28.084 23.7229 28.1702C24.0557 28.7347 24.3805 29.3043 24.7212 29.8609C24.8609 30.0882 24.7882 30.1823 24.6054 30.292C23.8399 30.7558 23.0801 31.2301 22.3215 31.7082C22.1852 31.7945 22.0921 31.8271 21.9739 31.6625C21.5765 31.1099 21.1767 30.5637 20.9234 29.8961C20.87 29.755 20.8167 29.6636 20.9813 29.5643ZM18.5419 31.0615C19.0007 30.7898 19.4595 30.5141 19.907 30.2175C20.1069 30.0856 20.1977 30.1548 20.292 30.3638C20.56 30.9557 20.8598 31.5253 21.2857 31.9878C21.4629 32.1799 21.4527 32.3014 21.2244 32.4347C20.9677 32.5836 20.7258 32.7704 20.4862 32.9559C20.2238 33.1571 19.9342 33.3296 19.8263 33.7803C19.3448 32.9572 18.911 32.1969 18.459 31.4535C18.3363 31.2523 18.367 31.1647 18.5419 31.0615ZM24.7916 52.9976C24.4486 52.4619 24.1045 51.9263 23.7797 51.3762C23.1392 50.2879 22.4998 49.2009 21.7877 48.1714C21.4072 47.6214 21.1415 46.9877 20.8258 46.3906C19.4425 43.7763 18.1183 41.1215 16.7747 38.4798C16.5022 37.9441 16.3398 37.368 16.1262 36.8114C15.7299 35.7793 15.1189 34.8974 14.5465 33.9972C14.3364 33.668 14.4113 33.6079 14.6612 33.4603C15.5255 32.9455 16.3897 32.4307 17.2301 31.8689C17.547 31.6573 17.6787 31.7318 17.8673 32.0545C20.0694 35.8381 22.2851 39.6099 24.4952 43.387C25.7535 45.5362 27.0108 47.688 28.2691 49.8385C28.3361 49.9535 28.402 50.0697 28.4485 50.152C28.4713 50.2866 28.4031 50.3075 28.3588 50.3506C27.3151 51.3462 26.1136 52.0974 25.0982 53.1374C24.9188 53.3216 24.8609 53.1073 24.7916 52.9989V52.9976ZM49.0626 56.1084C49.2965 55.915 49.3374 55.5988 49.1795 55.3088C49.0285 55.0318 48.807 54.9704 48.5538 55.1494C48.4709 55.4015 48.3357 55.3819 48.179 55.2461C47.0138 53.6299 45.8406 52.0203 44.8071 50.2853C40.4926 43.046 36.144 35.8328 32.3099 28.2317C31.4479 26.5228 30.4633 24.8909 29.4832 23.2644C28.8006 22.1316 28.5292 20.7703 27.8648 19.6375C27.7649 19.4664 27.8273 19.4154 27.9693 19.3449C28.7654 18.9438 28.5757 18.7112 29.0959 19.6885C29.4945 20.4358 29.8932 21.1792 30.4054 21.8364C30.6915 22.2035 30.8699 22.6568 31.0595 23.0958C32.3644 26.1099 33.7432 29.073 35.5909 31.7095C35.7329 31.9121 35.859 32.1394 35.9555 32.3746C37.332 35.7466 39.2354 38.7202 41.2535 41.601C42.7504 43.7358 43.9088 46.1372 45.308 48.3478C45.936 49.3394 46.5379 50.3532 47.267 51.256C48.6719 52.9963 49.7485 55.0305 51.0614 56.8531C51.0989 56.9053 51.1681 56.9968 51.1557 57.0164C50.9864 57.3012 50.7105 57.4227 50.4629 57.5873C50.3277 57.6775 50.196 57.7454 50.0631 57.5507C49.7962 57.1601 49.4351 56.8896 49.0887 56.6035C48.9047 56.452 48.7945 56.3305 49.0614 56.1097L49.0626 56.1084Z" fill="black"/>
<path d="M44.4835 45.3566C44.4347 45.6323 44.5812 45.8152 44.7061 46.0151C45.0536 46.5664 45.3898 47.1256 45.7089 47.7005C46.1246 48.4517 46.5652 49.1846 47.0831 49.8523C47.2194 49.9542 47.333 50.0783 47.3863 50.2612C47.4658 50.4572 47.5987 50.597 47.7498 50.7159C47.8883 50.806 47.9803 50.938 48.0314 51.1104C48.0905 51.2607 48.1904 51.3691 48.3063 51.4606C48.4471 51.5533 48.5311 51.6957 48.5845 51.8669C48.798 52.2418 49.0206 52.609 49.3011 52.9238C49.442 53.0231 49.5374 53.1616 49.5828 53.3458C49.8588 53.9324 50.2313 54.442 50.5708 54.9776C50.9558 55.5852 51.3908 56.1483 51.7486 56.778C51.953 57.1386 51.8871 57.4456 51.5941 57.686C51.2727 57.9499 50.9547 58.2243 50.5595 58.3353C50.3755 58.4085 50.1926 58.4098 50.0121 58.3197C49.4953 58.0022 49.1433 57.4548 48.6913 57.0432C48.5584 56.9217 48.4357 56.8485 48.3131 56.8159C48.3392 56.8289 48.3653 56.8499 48.3903 56.8825C48.7503 57.3437 49.2659 57.6076 49.5748 58.1328C49.6804 58.3118 49.8247 58.432 50.0234 58.4346C50.2063 58.432 50.388 58.4281 50.5708 58.4255C50.9161 58.3915 51.1739 58.1433 51.4385 57.9316C52.2494 57.2849 52.0541 57.0432 51.5827 56.3116C50.9354 55.3095 50.2313 54.3544 49.6464 53.3001C49.5476 53.1525 49.4499 53.0035 49.3511 52.8559C49.116 52.5071 48.8809 52.1582 48.6447 51.8094C48.5436 51.667 48.4414 51.5259 48.3403 51.3835C48.2358 51.3025 48.137 51.2149 48.0984 51.066C47.9939 50.9262 47.8895 50.7877 47.785 50.6479C47.6521 50.5316 47.5238 50.4101 47.4579 50.2246C47.3557 50.0848 47.2546 49.9437 47.1524 49.8039C46.4301 48.8541 45.8656 47.7723 45.2637 46.7284C45.0093 46.2881 44.605 45.9432 44.5142 45.3801C44.5039 45.3697 44.4949 45.3579 44.4846 45.3475C44.4846 45.3501 44.4846 45.3514 44.4835 45.3527V45.3566Z" fill="black"/>
<path d="M16.2021 61.3475C18.3054 60.2187 20.2861 58.8442 22.2372 57.4058C23.2628 56.6493 23.3048 56.4886 22.6393 55.2684C21.6342 53.4262 20.5439 51.6468 19.4048 49.917C17.6445 47.2426 16.0965 44.4127 14.5611 41.5711C14.0943 40.7062 13.6218 39.8556 13.0824 39.0482C12.2476 37.8018 11.3493 36.6038 10.7463 35.1692C10.5009 34.5865 10.2295 34.0169 9.91834 33.4734C9.73208 33.1481 9.56968 32.8398 9.14266 32.8711C8.86782 32.8907 8.81217 32.6712 9.02114 32.4465C9.13584 32.3237 9.1665 32.2048 9.1824 32.0402C9.23351 31.5267 9.34367 31.447 9.78432 31.6443C9.98988 31.7371 10.1693 31.7358 10.3488 31.609C11.8081 30.5808 13.389 29.8335 14.9245 28.983C17.2731 27.683 19.5252 26.1753 21.7932 24.7029C23.4377 23.6342 25.0526 22.5067 26.6778 21.4001C27.6022 20.7703 27.5932 20.5966 26.9413 19.6272C26.6551 19.2012 26.7107 18.9386 27.165 18.774C27.5739 18.6264 27.9657 18.4396 28.3541 18.237C28.5222 18.1312 28.688 18.0999 28.8492 18.2514C29.2399 18.6042 29.5227 19.0575 29.7396 19.5644C30.1417 20.5012 30.864 21.1819 31.283 22.0951C31.902 23.4408 32.463 24.8218 33.1297 26.1361C33.8804 27.6164 34.5845 29.1345 35.5192 30.4789C36.0246 31.2066 36.4936 31.9474 36.8309 32.8058C37.1364 33.5845 37.4533 34.3605 37.8973 35.0608C38.472 35.9649 39.008 36.9003 39.5282 37.8489C40.0233 38.7516 40.5901 39.5983 41.2226 40.3821C41.3623 40.4788 41.4748 40.6029 41.5316 40.7845C41.5758 40.8917 41.644 40.9766 41.728 41.0458C41.8473 41.1334 41.9336 41.2523 41.9892 41.4012C42.0176 41.4626 42.054 41.5162 42.0994 41.5619C42.2334 41.6704 42.3175 41.8219 42.3731 41.9944C42.6093 42.3445 42.7297 42.8018 43.0965 43.0317C43.1068 43.0356 43.117 43.0396 43.1283 43.0435C43.1124 43.0134 43.0965 42.9834 43.0806 42.9533C42.7854 42.6764 42.6797 42.2374 42.4231 41.9277C42.3231 41.7827 42.2232 41.6377 42.1233 41.4927C42.0721 41.4874 42.0506 41.4561 42.0585 41.3973C41.9563 41.2536 41.8541 41.1112 41.7519 40.9675C41.6781 40.9217 41.6145 40.8669 41.6031 40.7623C41.5009 40.6199 41.3987 40.4775 41.2976 40.3364C40.9705 39.8778 40.6173 39.4402 40.322 38.9568C39.5589 37.7064 38.8093 36.4431 38.0779 35.1666C37.7327 34.5643 37.367 33.9764 37.1455 33.2787C36.9717 32.73 36.7196 32.1996 36.4311 31.7175C35.6407 30.3953 34.7605 29.1489 34.0575 27.7483C33.3898 26.4183 32.7129 25.0935 32.1064 23.7269C31.6737 22.7536 31.3069 21.7515 30.6618 20.9206C30.4812 20.688 30.3063 20.428 30.1576 20.1458C29.7862 19.4403 29.5023 18.6499 28.8901 18.143C28.7141 18.0515 28.5301 18.1103 28.3507 18.1064C27.9293 18.3729 27.4671 18.514 27.0174 18.6969C26.5449 18.889 26.4813 19.3045 26.8425 19.6938C27.0162 19.8806 27.09 20.1315 27.2297 20.3353C27.3831 20.5587 27.3422 20.6763 27.14 20.867C26.3916 21.5778 25.5035 22.0115 24.6869 22.5824C21.984 24.4729 19.2265 26.2537 16.4338 27.9652C14.3691 29.2299 12.1613 30.1693 10.1693 31.5999C10.0103 31.7136 9.93991 31.6482 9.83089 31.5254C9.67984 31.3556 9.48109 31.2955 9.28348 31.4078C9.05975 31.5346 9.03022 31.7763 9.04726 32.0376C9.05407 32.1329 9.20398 32.3067 8.95072 32.3015C8.77355 32.2976 8.65317 32.4256 8.68838 32.6399C8.72586 32.862 8.88712 33.0906 9.05861 33.0227C9.54696 32.8267 9.65145 33.2565 9.82407 33.5714C10.0342 33.9555 10.2148 34.3618 10.418 34.7512C10.8803 35.6317 11.2437 36.575 11.8218 37.3837C12.5656 38.4224 13.3459 39.4571 13.9285 40.6147C16.025 44.772 18.4588 48.6601 20.896 52.5508C21.6398 53.7385 22.4076 54.913 22.9379 56.2652C23.0754 56.6141 22.98 56.6977 22.7721 56.8558C20.0147 58.954 17.1573 60.8366 14.1045 62.3156C12.9915 62.8552 11.8956 63.4379 10.7917 64.001C11.0245 63.8677 11.2868 63.8612 11.5276 63.7436C13.0971 62.9741 14.6553 62.1784 16.2021 61.3488V61.3475Z" fill="black"/>
<path d="M47.7837 56.9262C47.0818 57.3442 46.38 57.7675 45.6565 58.1386C43.5294 59.2308 41.467 60.4733 39.3818 61.6661C38.3608 62.2501 37.3421 62.8407 36.3677 63.5253C36.2178 63.6311 35.9963 63.6781 35.9486 63.9211C35.9497 63.9172 35.9509 63.9146 35.9543 63.912C37.1252 63.1229 38.3154 62.3769 39.5317 61.6844C41.2091 60.7294 42.8877 59.7769 44.5719 58.8363C45.6963 58.2078 46.8445 57.6395 47.9484 56.9627C48.0347 56.9092 48.1358 56.8086 48.238 56.802C48.0971 56.7864 47.9518 56.8269 47.7848 56.9262H47.7837Z" fill="black"/>
<path d="M4.75458 15.8083C5.33492 15.9729 5.92889 16.0029 6.524 15.9729C7.08389 15.9454 7.46208 15.6123 7.52114 15.1015C7.57906 14.5984 7.32125 14.2104 6.7818 14.0105C6.38885 13.8655 6.00158 13.7153 5.6586 13.4396C5.02034 12.9248 4.88632 12.2089 5.46326 11.6314C6.27187 10.8214 7.13046 10.0322 8.31726 10.0806C8.98618 10.108 9.65738 10.0754 10.3274 10.0897C10.8158 10.1002 10.9021 10.2138 10.9135 10.7835C10.9191 11.067 10.8726 11.3387 10.8147 11.6131C10.6818 12.235 10.9271 12.5864 11.4915 12.606C11.5676 12.6087 11.6437 12.606 11.7198 12.5995C12.0344 12.5708 12.2138 12.7419 12.1355 13.0934C11.8868 14.2117 12.2047 15.3196 12.1502 16.4367C12.1207 17.0547 12.4024 17.6269 12.6976 18.1404C14.3433 21.0003 16.6294 22.5158 19.6401 22.6243C21.0564 22.6752 22.3919 22.3734 23.7116 21.8534C24.0046 21.7384 24.276 21.5725 24.4964 21.3295C25.7184 19.9747 26.7133 18.4435 27.2209 16.549C27.4151 15.8266 27.4935 15.0779 27.5321 14.3241C27.6252 13.9648 27.5741 13.5951 27.5832 13.2305C27.5787 13.1744 27.5775 13.1195 27.5798 13.0633C27.5866 12.7916 27.6093 12.5185 27.5389 12.252C27.314 10.7169 26.6054 9.46523 25.7922 8.26978C25.0983 7.25072 24.1341 6.65234 23.2017 5.99387C22.4885 5.48956 21.731 5.17992 20.9008 5.05842C20.208 4.95651 19.5209 4.79451 18.8349 4.63773C18.6759 4.57502 18.5124 4.57763 18.3477 4.58546C18.1308 4.58546 17.9139 4.58546 17.6981 4.58546C17.5368 4.57893 17.3756 4.56979 17.2188 4.62988C16.4488 4.76445 15.8197 5.23871 15.203 5.74041C15.044 5.86975 14.8963 6.02131 14.7078 6.09839C14.5352 6.16371 14.3614 6.22643 14.2547 6.41718C14.1343 6.62099 13.9594 6.74772 13.7765 6.86269C13.7391 6.88229 13.7073 6.90972 13.6789 6.93977C13.5369 7.28469 13.6107 7.35524 13.9901 7.38267C14.2808 6.84832 14.8373 6.71636 15.2155 6.32049C16.4625 5.02184 17.9014 4.83239 19.4721 5.27138C20.0161 5.42293 20.5873 5.45559 21.1245 5.62936C23.891 6.523 25.9319 8.36908 26.8904 11.5844C26.9824 11.8927 27.0335 12.2298 27.0483 12.5564C27.1687 15.1563 26.6088 17.4923 25.2573 19.6415C24.1216 21.4471 22.5362 21.9266 20.8031 22.1056C19.5754 22.2323 18.3398 22.1552 17.153 21.6901C15.1757 20.9154 13.7311 19.4142 12.7283 17.329C12.6227 17.1095 12.5591 16.9018 12.709 16.6105C12.8862 16.2668 12.6238 15.888 12.575 15.5234C12.4512 14.5984 12.3512 13.6813 12.5614 12.768C12.6102 12.5564 12.4455 12.3944 12.5784 12.1762C12.801 11.8104 12.9872 11.5439 13.4358 11.7686C13.705 11.9031 14.1218 11.7856 14.3001 11.9855C14.4988 12.2076 14.2956 12.6492 14.2445 12.981C13.8027 15.871 16.1502 18.8433 18.4545 19.5906C19.9763 20.0844 21.4005 20.0269 22.794 19.0327C23.8786 18.2592 24.5304 17.2297 24.6179 15.7808C24.6815 14.7369 24.7122 13.6813 24.5691 12.6387C24.3646 11.1611 23.5799 10.0858 22.6145 9.1987C21.5629 8.2332 20.3386 7.64659 18.9962 7.46498C18.0786 7.34087 17.2495 7.6492 16.5295 8.32596C15.8276 8.98574 14.7726 9.0785 14.0309 8.4553C13.8436 8.29722 13.8186 7.88306 13.7198 7.58649C13.6221 7.46629 13.5244 7.34609 13.4279 7.2259C13.4245 7.22328 13.4222 7.22197 13.4188 7.21936C13.4109 7.22328 13.4029 7.22981 13.395 7.23373C12.8782 7.04691 12.374 6.81827 11.8686 6.59225C11.8504 6.57134 11.8334 6.55043 11.8186 6.52822C11.7573 6.52822 11.696 6.52692 11.6346 6.52561C11.5165 6.56611 11.4007 6.58048 11.2894 6.47596C11.3541 6.26693 11.4949 6.32441 11.6244 6.34401C11.6778 6.34662 11.7312 6.34793 11.7834 6.35054C11.7879 6.33617 11.7936 6.3218 11.8004 6.30743C12.2229 6.10362 12.684 6.08924 13.1201 5.94814C13.4563 5.8397 13.7913 5.73257 14.1048 5.55489C14.651 5.24655 14.8168 4.93038 14.7794 4.27975C14.7408 3.61343 14.5113 3.27505 13.9617 3.04641C13.7175 2.94451 13.4631 2.9014 13.2098 2.85697C13.0395 2.79034 12.868 2.77989 12.6942 2.83868C12.5341 2.8426 12.4353 2.80341 12.4273 2.70803C12.4262 2.70803 12.4251 2.70673 12.4228 2.70542C12.4239 2.70411 12.4251 2.70281 12.4273 2.7015C12.4251 2.64532 12.4523 2.57085 12.5137 2.47417C12.5852 2.36312 12.6874 2.28212 12.7681 2.1789C13.211 1.60274 13.1167 0.860647 12.5455 0.450407C12.3263 0.292322 12.0753 0.219158 11.8356 0.115946C11.4972 0.0205708 11.1576 0.0323296 10.8181 0.112026C10.2513 0.253128 9.70167 0.454327 9.1713 0.723465C8.88511 0.869793 8.63525 0.893312 8.38654 0.59543C8.07081 0.216547 7.65174 0.230917 7.23267 0.294935C6.40929 0.420359 5.69494 0.841049 5.03396 1.38455C4.63874 1.70987 4.25488 2.05348 3.8835 2.41799C2.84775 3.43575 1.69502 4.23924 0.463926 4.90033C0.319693 4.97742 0.170917 5.11329 -0.00170898 4.96827L-0.00170898 6.54652C1.91875 5.6777 3.60412 4.38557 5.12596 2.79557C5.56774 2.33438 6.04928 1.93589 6.58873 1.64193C6.80338 1.52565 7.00894 1.36103 7.29627 1.3937C7.23835 1.5139 7.18951 1.61188 7.14295 1.71118C7.00212 2.01167 7.04528 2.28473 7.24743 2.52643C7.43937 2.75637 7.67559 2.79818 7.91522 2.661C8.41834 2.37357 8.9135 2.06916 9.4098 1.76605C10.1798 1.2944 10.993 1.0527 11.8697 1.16245C11.9685 1.17421 12.1059 1.12848 12.1502 1.27219C12.2025 1.43943 12.0696 1.52174 11.9787 1.60405C11.378 2.14885 10.6909 2.53165 10.0253 2.95234C9.78571 3.1039 9.54495 3.25546 9.32008 3.43183C9.08953 3.61213 9.01231 3.87734 9.15313 4.16477C9.29169 4.44959 9.51996 4.511 9.78231 4.39211C10.9702 3.85514 12.2195 3.83554 13.4676 3.81071C13.7005 3.80549 13.948 3.77805 14.0185 4.18829C14.0889 4.60115 13.8492 4.66255 13.63 4.76576C12.5477 5.27791 11.3836 5.36675 10.2491 5.60192C9.59037 5.7391 8.93508 5.88935 8.3025 6.15326C7.9845 6.28652 7.75963 6.51777 7.84367 6.93455C7.91863 7.30298 8.20369 7.38006 8.49102 7.38398C9.66306 7.39966 10.8374 7.33433 11.9992 7.5891C12.3013 7.65573 12.5886 7.76025 12.8192 8.0111C12.8759 8.0725 12.927 8.14175 12.9043 8.23581C12.8782 8.34556 12.7874 8.32988 12.7158 8.3325C12.2627 8.34948 11.8481 8.42656 11.5608 8.91911C11.4472 9.11378 11.1928 9.04323 10.9986 9.05237C9.94812 9.10071 8.89646 8.93087 7.84708 9.06021C6.42519 9.23528 5.34742 10.1224 4.50473 11.3727C3.94937 12.1958 4.19809 13.4866 4.93743 14.1359C5.24066 14.4025 5.57455 14.6102 5.93003 14.7709C6.00839 14.8062 6.08789 14.8415 6.16625 14.8767C5.95501 14.9734 5.75967 14.993 5.56888 14.8728C4.72392 14.7539 3.92666 14.3763 3.06808 14.2993C1.99711 14.2039 0.972718 14.3097 -0.000573289 14.8597L-0.000573289 16.438C0.530932 15.8919 1.18396 15.6907 1.86424 15.5639C2.84548 15.381 3.80287 15.5417 4.75458 15.8122V15.8083ZM11.4586 11.8352C11.4802 11.5164 11.4983 11.2355 11.5188 10.922C11.7584 10.9403 11.9356 11.0853 12.1298 11.2172C11.9572 11.4981 11.7743 11.7189 11.4575 11.8365L11.4586 11.8352ZM19.2529 10.9207C19.8082 11.0435 20.3204 11.3126 20.8508 11.5177C21.907 11.9241 22.3669 12.7798 22.3533 14.034C22.292 15.0008 22.0739 15.9102 21.5209 16.6862C21.3732 16.894 21.1836 16.988 20.9723 17.022C20.0808 17.1657 19.2074 16.9632 18.4772 16.4249C17.2166 15.496 16.8327 13.7048 17.4165 12.0638C17.8094 10.9599 18.2376 10.6973 19.2517 10.922L19.2529 10.9207Z" fill="black"/>
<path d="M4.7387 15.9532C5.37582 16.1518 6.03452 16.1701 6.68982 16.1152C7.22019 16.0708 7.61087 15.6579 7.66311 15.121C7.7233 14.5043 7.45869 14.0718 6.88516 13.8902C6.44224 13.7491 6.01862 13.5662 5.64157 13.2579C5.17253 12.8738 5.10098 12.4701 5.40762 11.907C5.53141 11.6797 5.71085 11.5177 5.89597 11.3609C6.83746 10.5613 7.84596 10.0113 9.06456 10.1772C9.41095 10.2242 9.76528 10.1942 10.1151 10.1994C10.8465 10.2098 10.926 10.3261 10.7863 11.1845C10.7749 11.2524 10.759 11.3204 10.7431 11.3883C10.4933 12.4035 10.8272 12.8856 11.7255 12.7445C12.081 12.6883 12.0583 12.8307 12.0151 13.1364C11.9129 13.8445 11.8765 14.5592 11.9856 15.2738C12.0196 15.4972 12.1116 15.7402 12.0662 15.9401C11.9117 16.6065 12.098 17.1944 12.3603 17.7418C13.3336 19.7734 14.7464 21.2876 16.6362 22.099C18.9213 23.0801 21.2369 23.0004 23.5367 22.0702C24.0478 21.8638 24.5259 21.5947 24.8871 21.1361C26.4134 19.1985 27.6093 17.0755 27.6286 14.3305C27.6275 14 27.6252 13.6694 27.6673 13.3428C27.6741 13.2684 27.6832 13.1952 27.7025 13.122C27.6502 12.9626 27.6593 12.7954 27.6638 12.6295C27.6536 12.4962 27.6423 12.3616 27.632 12.2284C27.5946 11.6705 27.3992 11.1753 27.2152 10.6645C26.2499 7.97966 24.4158 6.36614 22.175 5.29351C21.12 4.7892 19.9491 4.79312 18.8384 4.5279C18.6896 4.54096 18.5431 4.53182 18.4011 4.47564C18.3795 4.46911 18.358 4.46127 18.3375 4.44951C18.124 4.44951 17.9094 4.44951 17.6958 4.44951C17.5357 4.53444 17.3665 4.5475 17.1939 4.5279C16.768 4.62197 16.3694 4.77613 15.9821 5.02175C15.5108 5.31964 15.1235 5.75601 14.6363 6.01992C14.5182 6.18976 14.3569 6.28906 14.1877 6.37529C14.0707 6.54513 13.9197 6.66663 13.7573 6.77115C13.7266 6.83517 13.7016 6.89135 13.6812 6.9423C13.7107 6.91225 13.7414 6.88482 13.7788 6.86522C13.9617 6.75025 14.1366 6.62352 14.257 6.41971C14.3637 6.22896 14.5375 6.16625 14.7101 6.10092C14.8986 6.02514 15.0451 5.87359 15.2053 5.74294C15.8219 5.23994 16.4511 4.76699 17.2211 4.63242C17.3779 4.57232 17.5391 4.58278 17.7004 4.588C17.9173 4.588 18.1331 4.588 18.35 4.588C18.5147 4.58016 18.6794 4.57755 18.8372 4.64026C19.5232 4.79704 20.2091 4.95905 20.9031 5.06095C21.7332 5.18246 22.4908 5.4921 23.204 5.9964C24.1364 6.65488 25.1006 7.25456 25.7945 8.27232C26.6076 9.46645 27.3175 10.7181 27.5412 12.2545C27.6116 12.521 27.5889 12.7941 27.5821 13.0658C27.5798 13.122 27.5798 13.1769 27.5855 13.2331C27.5764 13.5976 27.6275 13.9673 27.5344 14.3266C27.4969 15.0805 27.4174 15.8291 27.2232 16.5516C26.7155 18.4447 25.7195 19.9759 24.4987 21.332C24.2783 21.5764 24.008 21.741 23.7139 21.8559C22.3942 22.3746 21.0586 22.6764 19.6424 22.6268C16.6317 22.5196 14.3455 21.0028 12.6999 18.1429C12.4046 17.6294 12.1219 17.0572 12.1525 16.4392C12.207 15.3222 11.889 14.213 12.1378 13.0959C12.2161 12.7445 12.0367 12.5733 11.7221 12.602C11.646 12.6086 11.5699 12.6112 11.4938 12.6086C10.9294 12.5877 10.6841 12.2375 10.8169 11.6156C10.8749 11.3413 10.9214 11.0695 10.9157 10.786C10.9044 10.2164 10.8181 10.104 10.3297 10.0923C9.65966 10.0779 8.9896 10.1106 8.31954 10.0831C7.13274 10.0361 6.27416 10.8252 5.46554 11.6339C4.88861 12.2114 5.02376 12.9274 5.66088 13.4421C6.00272 13.7191 6.39113 13.868 6.78408 14.0131C7.32354 14.213 7.58248 14.601 7.52342 15.104C7.46436 15.6161 7.08618 15.948 6.52628 15.9754C5.93004 16.0055 5.33721 15.9754 4.75687 15.8108C3.80515 15.5404 2.84776 15.3797 1.86652 15.5626C1.18624 15.6893 0.533215 15.8918 0.00170898 16.4366C1.52241 15.5051 3.10557 15.4437 4.73983 15.9558L4.7387 15.9532Z" fill="black"/>
<path d="M11.8193 6.52624C11.8341 6.54845 11.8511 6.56936 11.8693 6.59026C12.3736 6.81759 12.8778 7.04492 13.3957 7.23175C13.4048 7.22783 13.4116 7.22261 13.4195 7.21738C12.9505 6.86332 12.4213 6.68956 11.8875 6.52624C11.8648 6.52624 11.842 6.52624 11.8193 6.52624Z" fill="black"/>
<path d="M0.465635 4.89635C1.69673 4.23526 2.84946 3.43177 3.88521 2.41401C4.25545 2.04949 4.64045 1.70588 5.03567 1.38057C5.69665 0.837065 6.41213 0.416374 7.23438 0.290951C7.65345 0.226933 8.07252 0.212564 8.38824 0.591447C8.63696 0.890635 8.88568 0.865808 9.17301 0.719481C9.70338 0.449037 10.2531 0.249144 10.8198 0.108042C11.1593 0.0283461 11.4978 0.0178938 11.8373 0.111961C12.077 0.215175 12.328 0.288338 12.5472 0.446424C13.1184 0.85797 13.2127 1.59875 12.7698 2.17492C12.6903 2.27944 12.5869 2.35913 12.5154 2.47018C12.4529 2.56686 12.4268 2.64134 12.429 2.69752C12.5301 2.593 12.6233 2.48848 12.7243 2.39572C13.4977 1.68629 13.1729 0.587524 12.4711 0.245223C12.2803 0.152462 12.0827 0.0819111 11.8873 0.000908375C11.5228 0.000908375 11.1571 -0.000396729 10.7925 -0.00170279C10.1667 0.119801 9.58299 0.390244 9.00152 0.665914C8.79482 0.763901 8.66308 0.850132 8.49841 0.545719C8.32578 0.22824 7.99984 0.121106 7.66253 0.127639C6.5257 0.151155 5.56831 0.711642 4.71427 1.5073C3.57971 2.56425 2.43039 3.58985 1.14024 4.38943C0.772273 4.61676 0.407714 4.84409 0 4.96298C0.173761 5.10931 0.321402 4.97343 0.465635 4.89504V4.89635Z" fill="black"/>
<path d="M12.6951 2.83622C12.8689 2.77743 13.0404 2.78657 13.2107 2.85451C13.4651 2.90024 13.7184 2.94335 13.9626 3.04395C14.5122 3.27129 14.7417 3.61097 14.7803 4.27729C14.8177 4.92792 14.6519 5.2454 14.1057 5.55243C13.7911 5.72881 13.456 5.83593 13.121 5.94568C12.6849 6.08678 12.2238 6.09985 11.8013 6.30497C11.7934 6.31934 11.7877 6.33371 11.7843 6.34808C11.7888 6.34808 11.7934 6.34808 11.7979 6.34808C12.6031 6.24618 13.3868 6.04367 14.1329 5.67915C14.4589 5.51976 14.8155 5.31726 14.8688 4.87044C14.9881 3.86705 14.7973 3.09099 13.7899 2.84929C13.5821 2.79964 13.3743 2.77481 13.1664 2.73562C13.0143 2.73562 12.8632 2.73562 12.711 2.73562C12.6236 2.75652 12.535 2.78004 12.4271 2.70427C12.4351 2.80095 12.5339 2.83883 12.694 2.83491L12.6951 2.83622Z" fill="black"/>
<path d="M81.1609 23.9647C80.8917 23.7426 80.6998 23.4107 80.3829 23.2592C80.2909 23.2252 80.2001 23.1912 80.1081 23.1572C79.8037 23.3441 79.5618 23.5975 79.3733 23.9372C79.2472 24.1646 79.0712 24.3579 78.8349 24.452C78.5919 24.4454 78.551 24.1776 78.4216 24.0248C78.2489 23.8183 78.0763 23.6132 77.9037 23.4068C77.806 23.2957 77.7083 23.1847 77.6118 23.0736C77.5051 23.0096 77.421 22.9195 77.3551 22.8071C77.3006 22.7927 77.2518 22.7627 77.2098 22.7183C77.1144 22.5928 77.0133 22.4739 76.9134 22.3524C76.7328 22.1617 76.5738 21.9474 76.475 21.6718C76.4557 21.6247 76.4364 21.5764 76.4205 21.5254C76.4159 21.5111 76.4102 21.498 76.4046 21.4849C76.3864 21.4523 76.3637 21.4222 76.3387 21.3935C76.2842 21.3425 76.2115 21.3151 76.132 21.3112C75.8015 21.2667 75.538 21.447 75.2916 21.6574C74.1173 22.6608 72.9884 23.7243 71.8924 24.8413C70.6807 26.076 69.5949 27.4478 68.4842 28.7935C67.7301 29.7067 67.0101 30.6604 66.3116 31.6312C65.6654 32.5274 64.9147 33.293 64.1504 34.0417C63.519 34.6596 62.9523 35.339 62.4957 36.132C62.063 36.8833 61.5644 37.5561 60.9466 38.1179C60.456 38.5634 60.0642 39.1318 59.6133 39.6295C59.343 39.9274 59.5031 40.2959 59.6485 40.6016C59.8314 40.9896 60.0937 41.3175 60.4003 41.5814C60.8421 41.9616 61.1806 42.4686 61.6235 42.8461C61.7984 42.9951 61.8449 43.2198 61.837 43.4563C61.8234 43.8325 61.9108 44.1827 62.013 44.5341C62.6751 46.7931 63.3202 49.0585 64.0879 51.2743C64.4162 52.2215 64.7944 53.1217 65.5462 53.7658C66.0947 54.2362 66.4377 54.9547 66.8988 55.5387C67.5348 56.3448 68.1992 57.1157 68.8726 57.8747C69.7653 58.8807 70.5251 60.0278 71.4177 61.0352C71.9072 61.5878 72.433 62.0934 72.9271 62.6395C73.102 62.8329 73.2984 63.0132 73.5721 62.9544C73.6721 62.8603 73.7232 62.7832 73.7402 62.7179C73.7323 62.6317 73.6959 62.5546 73.6448 62.4841C73.5721 62.42 73.4756 62.3639 73.4052 62.2998C73.3507 62.2607 73.3064 62.2084 73.2723 62.1457C73.2428 62.0817 73.2099 62.0216 73.1746 61.9641C73.0338 61.8086 72.8998 61.6453 72.7749 61.4728C72.7033 61.3997 72.6306 61.3265 72.5602 61.252C72.5125 61.2037 72.4739 61.1462 72.4421 61.0822C72.4183 61.0286 72.3922 60.979 72.3638 60.9306C72.2161 60.7673 72.0764 60.5949 71.9458 60.4133C71.8765 60.3427 71.8061 60.2722 71.738 60.199C71.6903 60.1507 71.6517 60.0945 71.621 60.0318C71.6006 59.9808 71.5767 59.9338 71.5517 59.8881C71.4473 59.7731 71.3507 59.649 71.2621 59.5196C71.2088 59.4648 71.1531 59.4112 71.0986 59.3576C71.0509 59.3106 71.0134 59.2544 70.9828 59.1917C70.9646 59.142 70.943 59.0976 70.9192 59.0545C70.8408 58.9644 70.7681 58.869 70.7011 58.7671C70.6511 58.7161 70.6 58.6665 70.5478 58.6168C70.5001 58.5698 70.4626 58.5136 70.4319 58.4509C70.4126 58.4013 70.3899 58.3542 70.3649 58.3098C70.29 58.2249 70.2218 58.1334 70.1582 58.0381C70.1049 57.9845 70.0492 57.9348 69.9902 57.8865C69.9038 57.8146 69.8346 57.7258 69.788 57.6148C69.6778 57.3208 69.4723 57.1248 69.2554 56.9419C69.1304 56.8426 69.0248 56.7224 68.9601 56.5604C68.8829 56.4337 68.7999 56.3122 68.7148 56.1946C68.3888 55.8301 68.0652 55.463 67.7585 55.0762C67.6188 54.9286 67.4791 54.781 67.3406 54.632C67.2531 54.5576 67.1816 54.4674 67.1327 54.355C67.0578 54.2244 66.9817 54.0937 66.9022 53.967C66.6819 53.69 66.4616 53.4131 66.2412 53.1361C66.1685 53.0708 66.0936 53.0081 66.0118 52.9519C65.9164 52.8983 65.8392 52.8212 65.7779 52.7232C65.7427 52.6631 65.704 52.607 65.6643 52.5508C65.6359 52.5207 65.6098 52.4881 65.5893 52.4502C65.5768 52.4332 65.5644 52.4162 65.5519 52.3992C65.5257 52.3626 65.503 52.3234 65.4826 52.2829C65.4758 52.2673 65.4678 52.2529 65.461 52.2372C65.3418 52.07 65.2543 51.8832 65.1816 51.6859C65.1362 51.5957 65.0919 51.5056 65.0544 51.4102C65.034 51.3645 65.0169 51.3174 65.001 51.2691C64.9091 51.0065 64.8205 50.7439 64.7342 50.48C64.4854 49.7836 64.2753 49.0703 64.0675 48.3556C63.9505 47.9689 63.8358 47.5809 63.7211 47.1928C63.6973 47.1171 63.6746 47.0413 63.6507 46.9655C63.511 46.5252 63.3827 46.0797 63.2532 45.6264C63.2464 45.6054 63.2407 45.5845 63.235 45.5636C63.1987 45.4434 63.1351 45.318 63.1294 45.19C63.0795 45.0149 63.0295 44.8398 62.9784 44.6622C63.1862 44.6831 63.2543 44.7876 63.2793 44.9417C63.4883 44.9744 63.6019 45.1769 63.7188 45.3402C64.4139 46.307 65.2225 47.1471 65.9936 48.0264C66.1299 48.1819 66.2299 48.3386 66.2333 48.5634C66.2401 48.7724 66.2333 48.984 66.2969 49.1866C66.323 49.3198 66.3332 49.4557 66.3355 49.5929C66.3389 49.8607 66.3116 50.1298 66.3798 50.3924C66.4366 50.7491 66.4161 51.1189 66.5104 51.4716C66.5808 51.7329 66.7023 51.8636 66.9442 51.7107C67.0442 51.5487 67.1009 51.3775 67.1316 51.1999C67.1339 51.1541 67.135 51.1084 67.1373 51.0627C67.1452 50.7818 67.1418 50.5022 67.1316 50.2226C67.0896 49.6334 67.0464 49.0441 67.0226 48.4549C67.0169 48.3648 67.0101 48.2746 67.0055 48.1845C67.001 48.1074 67.0033 48.029 67.009 47.9506C67.009 47.8983 67.0055 47.8461 67.0044 47.7951C67.0033 47.6749 66.9965 47.5482 67.0294 47.4358C67.0203 47.3261 66.9942 47.2177 66.9385 47.1092C67.085 47.0962 67.1838 47.1262 67.2509 47.2268C67.4576 47.2373 67.5609 47.4424 67.679 47.6031C67.9243 47.9388 68.1481 48.2942 68.3411 48.6718C68.8272 49.6216 69.5223 50.3101 70.3502 50.8288C71.2519 51.3932 72.0628 52.1209 72.8135 52.8996C74.3819 54.5275 76.0593 56.0365 77.4767 57.8356C78.9656 59.7274 80.7883 61.1854 82.3 63.0328C82.5316 63.3163 82.8371 63.5541 82.8553 64.0048H84.5929C84.5838 63.9774 84.5782 63.9526 84.5713 63.9264C84.5009 63.7644 84.3079 63.7213 84.2761 63.5541C85.0279 62.8237 85.7627 62.0725 86.4998 61.3213C88.2703 59.517 89.9897 57.6344 91.9965 56.1619C92.0828 56.0979 92.1567 55.996 92.2759 56.0078V54.6399C92.1714 54.7666 92.0794 54.9103 91.9466 55.0018C90.5565 55.9699 89.381 57.2463 88.1545 58.4535C86.7519 59.8332 85.4526 61.333 84.1375 62.8172C83.8683 63.1216 83.6696 63.0511 83.4379 62.7989C82.9939 62.3181 82.5691 61.8177 82.1251 61.3357C81.1279 60.2526 79.9105 59.4543 79.0235 58.2366C77.5175 56.1698 75.6539 54.5393 73.9753 52.6827C72.8907 51.4834 71.696 50.416 70.3172 49.6543C69.6142 49.2649 69.1407 48.5581 68.7148 47.8213C68.4093 47.2934 68.0845 46.7891 67.6131 46.4338C67.2599 46.1672 66.9033 46.0327 66.5058 46.3162C66.2208 46.5187 66.0175 46.3332 65.8244 46.1111C65.2418 45.4421 64.641 44.7928 64.0823 44.0978C63.0306 42.79 61.7791 41.7539 60.5889 40.6342C60.1369 40.2083 60.138 40.0724 60.6104 39.64C60.8603 39.4114 61.1113 39.184 61.3725 38.9698C61.971 38.4785 62.5343 37.9311 62.9159 37.1982C63.578 35.9256 64.5138 34.9497 65.4871 34.0194C66.3241 33.2186 67.0305 32.2779 67.7426 31.3424C70.0844 28.263 72.5523 25.3378 75.4165 22.8855C75.7266 22.6203 75.948 22.6843 76.2115 22.9717C77.3983 24.2638 78.4602 25.6853 79.5073 27.1225C80.1626 28.0213 80.8644 28.8745 81.5481 29.7446C82.6497 31.1478 83.6957 32.6097 84.8132 33.9972C85.6514 35.0385 86.4623 36.1072 87.2754 37.1733C88.209 38.3988 89.1255 39.64 90.0215 40.9021C90.6473 41.784 91.314 42.6266 91.9534 43.4955C92.0942 43.6862 92.2032 43.8848 92.2748 44.116V42.1171C91.8 41.7003 91.465 41.1346 91.0925 40.6133C87.8649 36.1059 84.3726 31.8676 80.9939 27.5144C80.4465 26.8089 79.9241 26.076 79.3778 25.3691C79.2211 25.1666 79.229 25.0373 79.4051 24.8701C79.58 24.7028 79.781 24.5369 79.8855 24.3161C80.1024 23.8588 80.2784 24.0744 80.4897 24.2965C80.6577 24.4729 80.8281 24.6532 81.0178 24.7956C83.8172 26.8899 86.0898 29.7119 88.6644 32.1172C89.8682 33.2408 91.0357 34.4153 92.2748 35.4879V34.5407C89.9932 32.5797 87.8092 30.4775 85.7139 28.2656C84.2624 26.7344 82.7633 25.2868 81.1643 23.9712L81.1609 23.9647Z" fill="black"/>
<path d="M65.0855 51.3881C65.0877 51.3907 65.0889 51.3933 65.0911 51.3959C64.9605 51.0954 64.8447 50.7884 64.7334 50.4787C64.8208 50.7426 64.9094 51.0053 65.0003 51.2679C65.0162 51.3162 65.0332 51.3632 65.0537 51.409C65.0911 51.5043 65.1354 51.5945 65.1809 51.6846C65.1457 51.588 65.1139 51.49 65.0855 51.3894V51.3881Z" fill="black"/>
<path d="M64.067 48.3548C63.9534 47.9655 63.8398 47.5774 63.7206 47.192C63.8353 47.58 63.9511 47.9681 64.067 48.3548Z" fill="black"/>
<path d="M63.2338 45.5613C63.2406 45.5822 63.2463 45.6031 63.252 45.624C63.2111 45.479 63.1691 45.334 63.1282 45.1877C63.1339 45.3157 63.1975 45.4424 63.2338 45.5613Z" fill="black"/>
<path d="M66.9416 51.7087C66.7009 51.8603 66.5793 51.7309 66.5078 51.4696C66.4135 51.1182 66.434 50.7484 66.3772 50.3904C66.309 50.1278 66.3363 49.8587 66.3329 49.5909C66.3306 49.455 66.3204 49.3191 66.2943 49.1845C66.2307 48.982 66.2375 48.7704 66.2307 48.5613C66.2273 48.3366 66.1262 48.1785 65.991 48.0244C65.2199 47.1438 64.4113 46.305 63.7163 45.3382C63.5993 45.1749 63.4857 44.9724 63.2767 44.9397C63.2767 44.9437 63.279 44.9489 63.279 44.9528C64.158 46.0908 65.0371 47.23 66.0603 48.2047C66.1478 48.2883 66.1569 48.3654 66.1239 48.4712C66.2216 48.6907 66.2114 48.9259 66.1989 49.161C66.2046 49.2917 66.2114 49.421 66.2171 49.5517C66.3068 49.8352 66.3079 50.1291 66.2897 50.4244C66.3272 50.8046 66.3511 51.1861 66.4044 51.5637C66.451 51.8942 66.5952 52.081 66.9098 51.8864C67.0813 51.693 67.1165 51.45 67.129 51.1992C67.0984 51.3768 67.0416 51.548 66.9416 51.71V51.7087Z" fill="black"/>
<path d="M65.5411 52.3396C65.5127 52.3057 65.4855 52.2704 65.4594 52.2351C65.4662 52.2508 65.4741 52.2651 65.4809 52.2808C65.5014 52.3213 65.5241 52.3618 65.5502 52.3971C65.5627 52.4141 65.5752 52.4311 65.5877 52.4481C65.5695 52.4154 65.5536 52.3801 65.5411 52.3396Z" fill="black"/>
<path d="M82.2973 63.028C80.7857 61.1806 78.9629 59.7225 77.474 57.8307C76.0578 56.0304 74.3803 54.5214 72.8108 52.8948C72.0601 52.1161 71.2504 51.3884 70.3475 50.824C69.5196 50.3053 68.8245 49.6155 68.3384 48.667C68.1454 48.2907 67.9216 47.934 67.6763 47.5983C67.5594 47.4376 67.4549 47.2324 67.2482 47.222C67.2573 47.2364 67.2663 47.2507 67.2743 47.2677C67.5639 47.5878 67.8035 47.9497 68.0239 48.3377C68.5236 49.2209 69.0585 50.0636 69.8796 50.6136C71.5331 51.7202 72.9868 53.1221 74.3531 54.6573C75.0833 55.4777 75.9044 56.1911 76.637 57.0102C78.0952 58.6394 79.4705 60.3614 81.0764 61.8208C81.7419 62.4257 82.4154 63.1077 82.8526 64C82.8345 63.5506 82.5289 63.3115 82.2973 63.028Z" fill="black"/>
<path d="M67.0258 47.4324C66.9929 47.5434 66.9997 47.6702 67.0009 47.7917C67.0009 47.8439 67.0043 47.8962 67.0054 47.9471C67.0168 47.7747 67.0406 47.6035 67.0258 47.4324Z" fill="black"/>
<path d="M67.1286 50.2202C67.1081 49.6297 67.0581 49.0418 67.0195 48.4525C67.0434 49.0431 67.0865 49.631 67.1286 50.2202Z" fill="black"/>
<path d="M65.7777 52.7227C65.839 52.8207 65.9162 52.8978 66.0116 52.9513C66.0934 53.0075 66.1684 53.0702 66.241 53.1356C66.1649 53.0402 66.09 52.9461 66.0139 52.8507C65.9526 52.7946 65.8912 52.7371 65.8299 52.6809C65.7686 52.6443 65.7118 52.6012 65.663 52.5502C65.7027 52.6064 65.7413 52.6626 65.7765 52.7227H65.7777Z" fill="black"/>
<path d="M72.4412 61.0815C72.4718 61.1455 72.5116 61.2017 72.5593 61.2513C72.6297 61.3258 72.7024 61.3976 72.7739 61.4721C72.7035 61.3754 72.6354 61.2774 72.5706 61.1742C72.5502 61.1455 72.5297 61.1167 72.5082 61.088C72.4582 61.037 72.4105 60.9835 72.3628 60.9299C72.3912 60.9783 72.4173 61.0279 72.4412 61.0815Z" fill="black"/>
<path d="M67.1321 54.3538C67.181 54.4662 67.2525 54.5576 67.3399 54.6308C67.4774 54.7811 67.6182 54.9274 67.7579 55.075C67.6205 54.9026 67.4853 54.7249 67.3559 54.5433C67.3059 54.4766 67.2559 54.4113 67.2059 54.3447C67.1049 54.218 67.0038 54.0899 66.9027 53.9632C66.9811 54.0899 67.0572 54.2206 67.1333 54.3512L67.1321 54.3538Z" fill="black"/>
<path d="M73.7399 62.7174C73.7228 62.7827 73.6717 62.8598 73.5718 62.9538C73.2981 63.0126 73.1016 62.8323 72.9267 62.639C72.4327 62.0929 71.9068 61.5873 71.4174 61.0346C70.5247 60.0273 69.7661 58.8802 68.8723 57.8742C68.1988 57.1151 67.5333 56.3443 66.8984 55.5382C66.4373 54.9542 66.0955 54.2356 65.5458 53.7653C64.794 53.1199 64.4158 52.221 64.0876 51.2738C63.321 49.058 62.6759 46.7925 62.0127 44.5336C61.9093 44.1821 61.823 43.832 61.8366 43.4557C61.8457 43.2192 61.798 42.9945 61.6231 42.8456C61.1813 42.468 60.8418 41.9611 60.4 41.5809C60.0933 41.3183 59.831 40.989 59.6481 40.601C59.5039 40.2953 59.3426 39.9269 59.6129 39.629C60.0638 39.1312 60.4556 38.5629 60.9462 38.1174C61.5641 37.5556 62.0626 36.8827 62.4953 36.1315C62.953 35.3384 63.5197 34.6591 64.15 34.0411C64.9144 33.2925 65.6651 32.5269 66.3113 31.6306C67.0109 30.6599 67.7298 29.7074 68.4839 28.7929C69.5946 27.4472 70.6803 26.0767 71.8921 24.8407C72.988 23.7237 74.118 22.6602 75.2912 21.6568C75.5377 21.4465 75.8011 21.2662 76.1316 21.3106C76.2111 21.3145 76.2838 21.3419 76.3383 21.3929C76.2759 21.321 76.1986 21.2544 76.1384 21.1825C75.6524 21.1198 75.3173 21.47 74.9766 21.7731C73.7773 22.8379 72.6019 23.9288 71.4923 25.1216C70.0125 26.7116 68.6519 28.4232 67.3027 30.1543C66.4226 31.2831 65.6162 32.4929 64.5759 33.4558C63.9979 33.9914 63.3596 34.5036 62.9723 35.2313C62.1194 36.8318 60.8463 37.9789 59.7776 39.3428C59.3029 39.9478 59.2756 40.1803 59.6992 40.8688C60.1013 41.5195 60.6703 41.9585 61.1643 42.4889C61.5209 42.8704 61.8389 43.2022 61.7639 43.832C61.7401 44.0345 61.848 44.2618 61.9105 44.4722C62.4579 46.3012 63.0143 48.1277 63.5572 49.9594C63.8775 51.0425 64.1887 52.1374 64.786 53.0624C65.0881 53.5288 65.5606 53.8476 65.8718 54.3075C66.5679 55.3357 67.3448 56.2737 68.15 57.1857C68.6599 57.7631 69.2209 58.2962 69.6548 58.9429C70.5951 60.3435 71.724 61.5219 72.8472 62.7082C73.0403 62.912 73.2595 63.2896 73.6342 63.0518C73.6683 62.9852 73.6967 62.9277 73.7183 62.8768C73.7364 62.8193 73.7421 62.7657 73.7376 62.7161L73.7399 62.7174Z" fill="black"/>
<path d="M77.2118 22.7198C77.2538 22.7642 77.3015 22.7943 77.3572 22.8087C77.3481 22.7943 77.339 22.7799 77.331 22.7642C77.3083 22.7407 77.2845 22.7172 77.2618 22.6937C77.1448 22.5813 77.0267 22.4716 76.9165 22.354C77.0164 22.4755 77.1175 22.5944 77.2129 22.7198H77.2118Z" fill="black"/>
<path d="M73.2719 62.1434C73.306 62.2061 73.3503 62.2583 73.4048 62.2975C73.4752 62.3616 73.5718 62.4177 73.6445 62.4818C73.5786 62.3903 73.4877 62.308 73.4071 62.2218C73.3832 62.1917 73.3583 62.1617 73.3344 62.1316C73.2799 62.0754 73.2277 62.0179 73.1754 61.9605C73.2106 62.0179 73.2447 62.078 73.2731 62.1421L73.2719 62.1434Z" fill="black"/>
<path d="M76.4059 21.4863C76.4116 21.4993 76.4172 21.5124 76.4218 21.5268C76.4377 21.5777 76.457 21.6248 76.4763 21.6731C76.4627 21.6352 76.449 21.5999 76.4377 21.5594C76.4309 21.5333 76.4195 21.5098 76.4059 21.4863Z" fill="black"/>
<path d="M68.9586 56.5598C69.0233 56.7205 69.1278 56.842 69.2538 56.9413C69.4708 57.1255 69.6763 57.3202 69.7865 57.6142C69.8331 57.7252 69.9023 57.8141 69.9886 57.8859C70.0477 57.9343 70.1034 57.9839 70.1567 58.0375C70.1068 57.963 70.0579 57.8859 70.0136 57.8062C69.9625 57.7383 69.9114 57.6704 69.8603 57.6011C69.6672 57.3542 69.4753 57.1059 69.2822 56.859C69.1755 56.7832 69.0869 56.6892 69.0358 56.5533C68.9279 56.4331 68.8211 56.3142 68.7133 56.194C68.7984 56.3129 68.8813 56.4331 68.9586 56.5598Z" fill="black"/>
<path d="M70.9812 59.1894C71.0119 59.2521 71.0493 59.3083 71.097 59.3553C71.1516 59.4089 71.2061 59.4625 71.2606 59.5173C71.2072 59.4403 71.1561 59.3606 71.1095 59.2782C71.0891 59.2482 71.0675 59.2181 71.0471 59.1881C71.0016 59.145 70.9596 59.0993 70.9176 59.0522C70.9415 59.0953 70.963 59.1411 70.9812 59.1894Z" fill="black"/>
<path d="M70.4307 58.4502C70.4602 58.5129 70.4988 58.5691 70.5465 58.6161C70.5987 58.6645 70.6498 58.7141 70.6998 58.7664C70.6521 58.6945 70.6056 58.62 70.5624 58.5429C70.5408 58.5116 70.5204 58.4815 70.4988 58.4502C70.4522 58.4058 70.4068 58.3587 70.3636 58.3091C70.3886 58.3535 70.4113 58.4005 70.4307 58.4502Z" fill="black"/>
<path d="M71.6189 60.031C71.6495 60.0937 71.6882 60.1499 71.7359 60.1982C71.804 60.2701 71.8744 60.3406 71.9437 60.4125C71.8767 60.3184 71.8108 60.2217 71.7483 60.1211C71.7268 60.0911 71.7063 60.0623 71.6847 60.0323C71.6382 59.9853 71.5928 59.9369 71.5485 59.8873C71.5746 59.933 71.5984 59.98 71.6177 60.031H71.6189Z" fill="black"/>
<path d="M90.0184 40.897C89.1223 39.6349 88.2058 38.3937 87.2723 37.1682C86.4591 36.1008 85.6482 35.0321 84.8101 33.9922C83.6925 32.6047 82.6466 31.144 81.5449 29.7395C80.8613 28.8694 80.1594 28.0162 79.5041 27.1174C78.4559 25.6802 77.3951 24.2588 76.2083 22.9666C75.9437 22.6792 75.7234 22.6152 75.4133 22.8804C72.5491 25.3314 70.0812 28.2566 67.7394 31.3374C67.0285 32.2728 66.3221 33.2135 65.4839 34.0144C64.5107 34.9446 63.5748 35.9205 62.9127 37.1931C62.5311 37.926 61.9678 38.4734 61.3693 38.9647C61.1081 39.1789 60.8571 39.4063 60.6073 39.6349C60.1348 40.0661 60.1337 40.2032 60.5857 40.6292C61.7759 41.7501 63.0274 42.7849 64.0791 44.0927C64.6379 44.7877 65.2386 45.4371 65.8212 46.106C66.0143 46.3281 66.2176 46.5136 66.5027 46.3111C66.9002 46.0276 67.2568 46.1622 67.61 46.4287C68.0813 46.7841 68.4061 47.2884 68.7116 47.8162C69.1375 48.5531 69.6099 49.2612 70.3141 49.6492C71.6928 50.4122 72.8875 51.4796 73.9721 52.6777C75.6507 54.5342 77.5155 56.1647 79.0203 58.2316C79.9073 59.4492 81.1247 60.2462 82.1219 61.3306C82.5648 61.8114 82.9907 62.3131 83.4347 62.7939C83.6676 63.046 83.8652 63.1153 84.1343 62.8122C85.4495 61.3293 86.7487 59.8281 88.1513 58.4485C89.3778 57.2413 90.5533 55.9635 91.9434 54.9967C92.0762 54.9039 92.1682 54.7615 92.2727 54.6348C92.1512 54.6243 92.0865 54.738 92.0002 54.802C90.7077 55.7401 89.5561 56.8754 88.4057 58.0291C86.8895 59.5498 85.4336 61.1346 84.0287 62.7873C83.8311 63.0186 83.6789 62.9585 83.4938 62.7429C82.9384 62.0936 82.3876 61.4351 81.7948 60.8328C81.0645 60.092 80.198 59.5028 79.5586 58.6745C77.8517 56.4639 75.879 54.5825 74.0176 52.5653C73.1226 51.5959 72.2061 50.6147 71.0807 50.0085C69.9893 49.4193 69.1977 48.5204 68.5764 47.3628C68.3118 46.869 67.9518 46.4574 67.4873 46.1909C67.1898 46.0198 66.8479 45.8904 66.5765 46.1347C66.2676 46.413 66.1097 46.2602 65.9007 46.0171C64.2494 44.1005 62.6175 42.1591 60.7049 40.5704C60.5607 40.4502 60.4301 40.3091 60.2904 40.1732C60.5789 39.8204 60.881 39.5278 61.2058 39.2639C61.969 38.6433 62.6754 37.9535 63.1626 37.0128C63.6453 36.0812 64.3006 35.3287 65.0206 34.6428C65.8792 33.8249 66.6764 32.9365 67.4067 31.9671C69.8666 28.7048 72.4458 25.5835 75.4644 22.981C75.7586 22.7275 75.8846 22.7471 76.1515 23.0411C77.9357 25.0139 79.445 27.2689 81.102 29.3724C84.9077 34.2025 88.6271 39.1202 92.2727 44.111C92.2012 43.8797 92.0921 43.6811 91.9513 43.4904C91.3119 42.6216 90.6453 41.7789 90.0195 40.897H90.0184Z" fill="black"/>
<path d="M91.8842 16.3072C89.5265 15.6814 87.1347 15.2137 84.8463 14.2796C84.2285 14.0274 83.6583 13.6485 83.1166 13.2213C83.0201 13.1102 82.9417 12.9809 82.8497 12.8646C82.8213 12.8267 82.7952 12.7862 82.7714 12.7444C82.71 12.653 82.6464 12.5628 82.5828 12.474C82.4011 12.2623 82.2194 12.0494 82.0377 11.8377C81.9423 11.7476 81.8412 11.6639 81.7345 11.5882C81.6391 11.5359 81.563 11.4575 81.5005 11.3595C81.4142 11.1975 81.2915 11.0956 81.1257 11.0643C80.4114 10.6083 79.7186 10.1053 78.9793 9.70289C78.7862 9.59576 78.5954 9.57617 78.4091 9.71988C78.2104 9.89234 78.1366 10.1327 78.1184 10.4058C78.1071 10.5809 78.0673 10.6841 78.0048 10.7298C78.0048 10.7389 78.0048 10.7468 78.0048 10.7559C77.998 10.7507 77.9924 10.7468 77.9855 10.7416C77.9083 10.7794 77.7993 10.7442 77.6653 10.6527C77.3632 10.4489 77.035 10.3026 76.7192 10.1327C76.5512 10.023 76.3819 10.0073 76.2104 10.1249C75.805 10.5391 75.7618 10.82 75.972 11.37C76.1264 11.775 76.4262 12.069 76.5716 12.4766C76.5716 12.4792 76.5693 12.4818 76.5682 12.4857C76.65 12.5328 76.7158 12.5942 76.7022 12.7366C76.6034 12.7183 76.5159 12.6804 76.4387 12.6229C76.4137 12.6321 76.3876 12.6386 76.3592 12.6425C75.9049 12.5746 75.487 12.3499 75.0452 12.2336C74.8964 12.1722 74.7477 12.1082 74.5932 12.2101C74.4637 12.3067 74.3513 12.4256 74.2514 12.5602C74.1412 12.7967 74.1821 13.0332 74.2514 13.2696C74.6012 14.3828 75.3303 15.1484 76.0605 15.9205C76.5194 16.4065 77.0827 16.7384 77.5165 17.2571C77.5279 17.2649 77.5381 17.2727 77.5494 17.2806C77.621 17.325 77.6914 17.3707 77.814 17.4478C77.663 17.4857 77.5392 17.4961 77.4268 17.4818C77.3666 17.504 77.2973 17.5066 77.2326 17.5184C76.5318 17.4948 76.2763 18.3166 76.6965 18.9424C76.8578 19.1828 77.0622 19.3592 77.2541 19.5565C77.4007 19.7067 77.5608 19.8504 77.5971 20.0961C77.5971 20.1039 77.5971 20.1104 77.596 20.1183C78.2013 20.5573 78.7487 21.0929 79.3688 21.511C80.1434 22.0323 80.8861 22.5993 81.7583 22.9207C84.141 23.7974 86.5033 24.7498 88.8882 25.6186C90.0001 26.0236 91.1448 26.3058 92.2749 26.6442V25.3808C92.1363 25.4645 92.0068 25.3913 91.8774 25.3495C90.0886 24.7655 88.3158 24.1331 86.5668 23.4028C85.1495 22.8123 83.6935 22.3459 82.266 21.7867C80.7521 21.1948 79.412 20.2215 78.1582 19.0914C78.0514 18.9947 77.9242 18.8732 77.9924 18.6981C78.0684 18.5035 78.2433 18.527 78.3944 18.5518C78.6511 18.5949 78.8986 18.6877 79.1508 18.7556C79.345 18.8079 79.5403 18.834 79.7402 18.8235C79.9651 18.8118 80.1729 18.7608 80.2342 18.4616C80.2921 18.1742 80.1604 17.9913 79.9537 17.8672C79.4404 17.5575 78.9384 17.2257 78.4444 16.8795C77.4131 16.157 76.4444 15.3404 75.604 14.3344C75.4018 14.0927 75.219 13.8366 75.0588 13.5584C74.9759 13.4147 74.8805 13.25 74.9952 13.0802C74.993 13.071 74.9884 13.0619 74.9862 13.0514C74.9953 13.0514 75.0043 13.0554 75.0146 13.0567C75.1122 12.9417 75.2519 12.9678 75.3803 12.9966C76.0208 13.1403 76.5864 13.4852 77.1258 13.885C77.8822 14.4442 78.6238 15.0295 79.3722 15.603C79.588 15.7676 79.8083 15.9283 80.0559 16.0224C80.2183 16.0838 80.4 16.1282 80.5204 15.9466C80.6567 15.7415 80.5102 15.5821 80.3989 15.4436C80.14 15.1222 79.881 14.7982 79.5835 14.5239C78.8714 13.8654 78.1911 13.1612 77.4915 12.4857C77.1417 12.1473 76.8249 11.7645 76.5705 11.3216C76.4887 11.1792 76.3547 11.0159 76.4796 10.8526C76.5943 10.7011 76.7692 10.7834 76.9078 10.85C77.4029 11.0878 77.8413 11.4405 78.2944 11.7619C79.4358 12.5707 80.601 13.3402 81.5471 14.4625C81.6618 14.5983 81.8231 14.7473 81.9775 14.5408C82.1138 14.3592 82.0161 14.1659 81.8957 14.0248C81.5868 13.6603 81.2336 13.3546 80.8872 13.0384C80.2671 12.4727 79.6141 11.9501 79.0781 11.2707C78.9236 11.076 78.6601 10.8369 78.8464 10.5782C78.8396 10.5417 78.8339 10.5051 78.8305 10.4646C78.8566 10.4816 78.8816 10.4972 78.9077 10.5142C79.0792 10.3875 79.2905 10.6214 79.4619 10.7311C80.5874 11.451 81.5698 12.3394 82.417 13.4943C83.0246 14.3227 83.9388 14.8178 84.8326 15.2464C85.823 15.7206 86.8644 15.9884 87.9024 16.268C89.1926 16.6156 90.4623 17.0598 91.757 17.389C91.9512 17.4387 92.1408 17.5105 92.2749 17.6986V16.2249C92.1613 16.3451 92.0239 16.3451 91.8876 16.3085L91.8842 16.3072Z" fill="black"/>
<path d="M92.0041 16.2219C90.4913 15.8221 88.9831 15.3988 87.4659 15.0199C85.927 14.6358 84.4381 14.121 83.1218 13.085C82.9696 13.0458 82.8822 12.9295 82.8334 12.7649C82.7504 12.6682 82.6664 12.5702 82.5835 12.4735C82.6482 12.5624 82.7107 12.6525 82.772 12.744C82.7959 12.7858 82.822 12.8263 82.8504 12.8642C82.9424 12.9805 83.0207 13.1098 83.1173 13.2209C83.659 13.6481 84.228 14.027 84.8469 14.2791C87.1365 15.2133 89.5283 15.681 91.8848 16.3068C92.0223 16.3434 92.1585 16.3421 92.2721 16.2232C92.1824 16.2232 92.0893 16.2428 92.0041 16.2206V16.2219Z" fill="black"/>
<path d="M77.5943 20.0948C77.558 19.8491 77.3979 19.7054 77.2514 19.5552C77.0594 19.3579 76.855 19.1815 76.6937 18.9411C76.2735 18.314 76.5291 17.4935 77.2298 17.5171C77.2945 17.5066 77.3638 17.5027 77.424 17.4805C77.3343 17.4687 77.2514 17.4426 77.1696 17.3995C76.3542 17.5824 76.1418 18.2239 76.6188 18.9856C76.8913 19.4193 77.3116 19.6728 77.5762 20.1052C77.5819 20.1091 77.5875 20.1131 77.5932 20.1183C77.5932 20.1104 77.5943 20.1039 77.5943 20.0961V20.0948Z" fill="black"/>
<path d="M78.1171 10.4075C78.1341 10.1357 78.2079 9.89404 78.4078 9.72158C78.5952 9.57656 78.786 9.59616 78.9779 9.7046C79.7173 10.107 80.41 10.61 81.1244 11.066C81.2902 11.0973 81.4128 11.1992 81.4992 11.3612C81.5616 11.4592 81.6377 11.5363 81.7331 11.5899C81.841 11.6657 81.9409 11.7493 82.0363 11.8394C81.9375 11.7244 81.8399 11.6095 81.7411 11.4958C81.6797 11.4383 81.6184 11.3808 81.5571 11.322C81.4276 11.2071 81.2993 11.0934 81.1698 10.9784C80.4498 10.5185 79.7298 10.0574 79.0097 9.59616C78.7962 9.59486 78.5827 9.59224 78.3703 9.59093C78.0024 9.84439 78.0114 10.2808 78.0012 10.7315C78.0648 10.6871 78.1046 10.5839 78.1148 10.4075H78.1171Z" fill="black"/>
<path d="M76.0575 15.9192C75.3272 15.1471 74.5981 14.3814 74.2483 13.2683C74.1801 13.0318 74.1393 12.7954 74.2483 12.5589C74.3482 12.4243 74.4595 12.3054 74.5901 12.2087C74.7457 12.1068 74.8945 12.1709 75.0421 12.2323C75.4851 12.3498 75.9019 12.5733 76.3561 12.6412C76.3834 12.6373 76.4107 12.6307 76.4356 12.6216C76.405 12.5994 76.3766 12.5733 76.3493 12.5445C75.895 12.3969 75.4408 12.2479 74.9865 12.1003C74.8343 12.1029 74.6833 12.1055 74.5311 12.1094C74.4164 12.2205 74.3005 12.3329 74.1858 12.4439C74.1143 12.7183 74.1631 12.9992 74.1586 13.2762C74.2188 13.463 74.254 13.6668 74.3437 13.834C75.1296 15.3051 76.2494 16.3699 77.5134 17.2557C77.0796 16.7371 76.5174 16.4039 76.0575 15.9192Z" fill="black"/>
<path d="M76.5704 12.4768C76.4251 12.0692 76.1252 11.7752 75.9708 11.3702C75.7607 10.8201 75.805 10.5406 76.2093 10.1251C76.3808 10.0088 76.55 10.0245 76.7181 10.1329C77.0349 10.3028 77.362 10.4478 77.6641 10.6529C77.7981 10.7444 77.9071 10.7796 77.9844 10.7418C77.5619 10.4125 77.136 10.2257 76.7249 10.0049C76.5432 10.001 76.3603 9.99836 76.1786 9.99444C75.7277 10.3629 75.6108 10.7548 75.8322 11.3166C76.0015 11.7478 76.2161 12.1554 76.5386 12.4689C76.5477 12.4742 76.5568 12.4794 76.5659 12.4846C76.5659 12.482 76.5682 12.4794 76.5693 12.4755L76.5704 12.4768Z" fill="black"/>
<path d="M83.5175 22.1242C81.5664 21.4618 79.7913 20.4362 78.2093 18.9664C78.1275 18.8906 77.9697 18.8488 78.056 18.6045C78.4614 18.7116 78.8714 18.8292 79.2837 18.9259C79.9015 19.0709 80.3115 18.9363 80.3944 18.5378C80.5216 17.9212 80.0741 17.7918 79.7357 17.5789C78.2468 16.6473 76.8113 15.6283 75.646 14.182C75.3916 13.8658 75.1236 13.5509 74.9919 13.0793C74.8772 13.2491 74.9737 13.4138 75.0555 13.5575C75.2156 13.8358 75.3985 14.0918 75.6006 14.3335C76.441 15.3395 77.4098 16.1561 78.441 16.8786C78.935 17.2248 79.437 17.5567 79.9503 17.8663C80.157 17.9904 80.2888 18.1733 80.2308 18.4608C80.1706 18.7599 79.9617 18.8109 79.7368 18.8226C79.5369 18.8331 79.3416 18.807 79.1474 18.7547C78.8953 18.6868 78.6477 18.594 78.391 18.5509C78.24 18.5261 78.0651 18.5013 77.989 18.6972C77.9208 18.8723 78.048 18.9938 78.1548 19.0905C79.4086 20.2206 80.7487 21.1939 82.2626 21.7858C83.6902 22.3437 85.1461 22.8101 86.5635 23.4019C88.3124 24.1322 90.0864 24.7646 91.874 25.3486C92.0035 25.3904 92.1329 25.4636 92.2715 25.3799C92.1715 25.3381 92.0739 25.2872 91.9717 25.2558C89.1063 24.3779 86.3568 23.0884 83.5164 22.1242H83.5175Z" fill="black"/>
<path d="M79.5133 15.8489C79.7155 15.9992 79.9392 16.122 80.1664 16.2108C80.3572 16.2866 80.5593 16.2748 80.6842 16.0266C80.7978 15.8019 80.7217 15.6098 80.5922 15.4543C80.3299 15.1382 80.0619 14.8259 79.7757 14.5372C78.9398 13.6945 78.0892 12.8714 77.2544 12.0261C76.9398 11.7073 76.6639 11.3428 76.4719 10.8594C76.5571 10.8594 76.606 10.845 76.6434 10.862C76.799 10.9313 76.9637 10.9874 77.1034 11.088C78.6048 12.179 80.2197 13.0817 81.4747 14.5816C81.6621 14.805 81.8881 14.9226 82.1084 14.6587C82.3162 14.4105 82.1993 14.1661 82.0153 13.9741C81.7234 13.6671 81.4236 13.3692 81.1192 13.0791C80.4855 12.4781 79.7995 11.9464 79.2283 11.2605C79.0795 11.0815 78.9023 10.9077 78.8444 10.5746C78.6582 10.8333 78.9216 11.0724 79.0761 11.267C79.6121 11.9451 80.2652 12.4677 80.8853 13.0347C81.2316 13.3509 81.5848 13.6566 81.8938 14.0211C82.013 14.1622 82.1118 14.3556 81.9755 14.5372C81.8211 14.7436 81.6587 14.5934 81.5451 14.4588C80.5991 13.3365 79.4338 12.567 78.2925 11.7583C77.8393 11.4369 77.4009 11.0828 76.9058 10.8463C76.7672 10.7797 76.5923 10.6974 76.4776 10.8489C76.3527 11.0136 76.4867 11.1769 76.5685 11.318C76.8229 11.7596 77.1386 12.1437 77.4895 12.4821C78.1891 13.1575 78.8694 13.8617 79.5815 14.5202C79.879 14.7959 80.138 15.1186 80.3969 15.44C80.5071 15.5772 80.6547 15.7365 80.5184 15.943C80.398 16.1246 80.2163 16.0802 80.0539 16.0188C79.8063 15.9247 79.586 15.764 79.3702 15.5994C78.6218 15.0271 77.8802 14.4418 77.1238 13.8813C76.5844 13.4815 76.0188 13.1366 75.3783 12.9929C75.2511 12.9642 75.1102 12.9367 75.0126 13.053C75.7746 13.1523 76.4038 13.5103 76.9989 13.9453C77.8461 14.5646 78.6718 15.2218 79.5145 15.8489H79.5133Z" fill="black"/>
<path d="M91.7532 17.3884C90.4585 17.0592 89.1899 16.615 87.8986 16.2674C86.8606 15.9879 85.818 15.7187 84.8289 15.2458C83.9362 14.8185 83.022 14.3234 82.4132 13.4938C81.566 12.3388 80.5836 11.4504 79.4582 10.7305C79.2867 10.6208 79.0743 10.3869 78.9039 10.5136C80.1805 11.338 81.3854 12.118 82.2099 13.4702C82.2985 13.6153 82.3826 13.7577 82.5109 13.857C83.575 14.6722 84.6505 15.4561 85.9157 15.8206C88.0372 16.4334 90.153 17.0709 92.2711 17.6981C92.137 17.5099 91.9474 17.4381 91.7532 17.3884Z" fill="black"/>
<path d="M49.9066 25.8424C49.8737 25.8359 49.8396 25.8254 49.8067 25.8098C49.4149 25.8424 49.023 25.8568 48.6312 25.8947C47.0401 26.0488 45.7511 27.0078 44.5961 28.1066C43.6785 28.9793 43.1481 30.2832 42.7392 31.5988C42.7143 31.7347 42.6893 31.8706 42.6643 32.0052C42.6677 32.0822 42.6643 32.158 42.6257 32.2246C42.6075 32.6257 42.5893 33.0281 42.5723 33.4292C42.5791 33.748 42.5825 34.0655 42.5303 34.3817L42.5484 34.4L42.5371 34.4248C42.5007 35.0467 42.4655 35.6686 42.4826 36.2918C42.4928 36.5478 42.5098 36.8026 42.5325 37.0587C42.6427 37.7276 43.0391 38.2411 43.2741 38.8434C43.5865 39.6442 43.9249 40.4765 44.7108 40.8554C44.8948 40.9442 44.9198 41.1232 44.8993 41.3348C44.8221 42.1018 44.9118 42.3056 45.4524 42.644C45.4831 42.6492 45.5137 42.6531 45.5444 42.6583C45.6761 42.7446 45.6977 42.9013 45.7341 43.049C45.8192 43.1561 45.9044 43.2632 45.9907 43.3704C46.0918 43.5219 46.2315 43.4684 46.3621 43.4592C46.3678 43.4043 46.3803 43.356 46.4416 43.3625C46.5995 43.1927 46.7585 43.0228 46.9163 42.8543C47.3808 41.9215 47.9896 41.0722 48.161 39.9709C48.2042 39.6978 48.3643 39.7801 48.5131 39.8311C49.0219 40.0074 49.5262 40.2309 50.0656 40.2282C52.5392 40.2113 54.2132 38.7258 55.3284 36.3166C56.1336 34.579 56.2097 32.8008 55.4556 30.9665C54.9843 29.8194 54.2836 29.0433 53.2433 28.7232C52.3041 28.4332 51.3399 28.2255 50.362 28.2398C48.8709 28.2634 47.7329 29.1661 46.7551 30.342C46.0668 31.1703 45.5683 32.1672 45.2128 33.2424C44.7971 34.5006 44.88 35.7169 45.5069 36.8705C45.8022 37.4141 45.9271 37.9589 45.625 38.5794C45.3809 39.0811 45.2037 39.6259 44.9697 40.223C44.4496 39.7553 44.1475 39.1203 43.8522 38.4945C43.6807 38.1287 43.5774 37.7263 43.3752 37.367C43.1254 36.9228 43.1674 36.3845 43.1799 35.8828C43.2049 34.8677 43.2855 33.8538 43.3139 32.8374C43.3605 31.1376 44.043 29.6874 45.0606 28.637C46.3644 27.2913 47.9203 26.4186 49.8271 26.5636C51.5136 26.6916 53.0922 27.098 54.5823 27.9968C56.4675 29.1335 57.5816 30.8332 57.5498 33.3665C57.5351 34.575 57.5907 35.7862 57.4567 36.9921C57.4488 37.0613 57.4658 37.1397 57.4431 37.2011C56.848 38.8068 56.3028 40.4765 54.9877 41.5086C53.2546 42.8687 51.3308 43.5232 49.2127 43.2698C48.7414 43.2136 48.286 43.0712 47.8851 42.7759C47.6988 42.6387 47.5228 42.5211 47.3706 42.7615C47.2014 43.0268 47.3604 43.2136 47.5557 43.3586C48.4279 43.9021 49.3785 43.9949 50.345 43.9923C50.5347 43.8799 50.7379 43.9113 50.9378 43.9152C52.747 43.7688 54.371 43.062 55.8111 41.7947C55.9315 41.5974 56.0598 41.4093 56.2427 41.2826C56.3381 41.1376 56.4346 40.9912 56.53 40.8462C56.5731 40.5836 56.7253 40.3994 56.8707 40.2086C57.0274 39.8062 57.1739 39.3986 57.4158 39.0498C57.4737 38.8525 57.5249 38.6487 57.7066 38.5442C57.8224 38.4318 57.8304 38.262 57.8781 38.113C58.1915 36.1611 58.2699 34.1962 58.0723 32.226C57.9871 31.382 57.7917 30.5523 57.3942 29.8116C56.9207 28.8069 56.0916 28.2006 55.308 27.6336C53.8509 26.5806 52.2246 25.9744 50.4813 25.8855C50.2882 25.8947 50.0963 25.8934 49.9077 25.8411L49.9066 25.8424ZM49.1377 36.4995C47.8771 35.7679 47.6239 35.4386 48.2065 33.667C48.3905 33.1078 48.671 32.6022 48.9515 32.1005C49.4864 31.1416 49.8351 30.9312 51.1275 30.9469C51.8237 31.0109 52.6436 31.4826 53.3307 32.29C53.5079 32.4977 53.5556 32.7512 53.5499 33.0125C53.5295 34.0289 53.2285 34.9683 52.6777 35.7261C51.8191 36.9071 50.3563 37.2063 49.1389 36.4995H49.1377Z" fill="black"/>
<path d="M56.6227 48.3222C56.6091 48.8774 56.7851 49.4196 56.7158 49.9801C56.7113 50.0206 56.7374 50.0925 56.7658 50.1082C57.2371 50.3551 57.4438 50.7444 57.286 51.3415C57.2814 51.3585 57.3291 51.3885 57.3416 51.4186C57.8879 52.8126 58.4273 54.2093 58.9793 55.5994C59.638 57.2586 60.4364 58.8395 61.0576 60.5209C61.3029 61.1833 61.8514 61.4446 62.2728 61.0618C62.5079 60.8489 62.7736 60.7078 63.0212 60.5262C63.0496 60.3171 63.078 60.1068 63.1075 59.8977C62.81 59.5946 62.676 59.1831 62.5408 58.7715C62.3489 58.4724 62.1956 58.1496 62.0809 57.8034C61.9434 57.6584 61.873 57.465 61.7969 57.2756C61.5448 56.9281 61.3654 56.527 61.1712 56.135C60.9804 55.875 60.8146 55.5968 60.7089 55.2767C60.534 55.065 60.4273 54.8129 60.3671 54.532C60.3285 54.4797 60.2899 54.4274 60.2513 54.3752C59.9423 53.7481 59.6062 53.1366 59.4483 52.4272C59.412 52.3684 59.3756 52.3083 59.3393 52.2495C59.1462 51.8393 58.9361 51.4369 58.9055 50.9548C58.8191 50.717 58.6749 50.5262 58.4648 50.4492C58.1241 50.3237 58.1877 50.133 58.3649 49.8991C58.3808 49.6731 58.3251 49.4706 58.2172 49.2838C58.1956 49.2524 58.1752 49.2211 58.1536 49.1884C58.0401 49.0604 57.9219 48.9362 57.8776 48.7507C57.7425 48.6462 57.6585 48.4946 57.5846 48.3339C57.529 48.3274 57.5131 48.2869 57.5176 48.2307C57.4268 48.121 57.3359 48.0125 57.2439 47.9041C56.818 47.7212 56.6352 47.8427 56.6238 48.3248L56.6227 48.3222Z" fill="black"/>
<path d="M77.5467 17.2779C77.5467 17.2779 77.5431 17.2835 77.5406 17.2876C77.5479 17.2973 77.5575 17.3057 77.5647 17.3154C77.5551 17.3029 77.5479 17.2904 77.5467 17.2779Z" fill="#9D9D9D"/>
<path d="M77.5708 17.3241C77.5549 17.3685 77.5345 17.4011 77.5106 17.426C77.5254 17.422 77.5413 17.4194 77.5561 17.4155C77.631 17.3933 77.5992 17.3593 77.572 17.3241H77.5708Z" fill="#9D9D9D"/>
<path d="M77.5109 17.4261C77.5347 17.4012 77.5563 17.3686 77.5711 17.3242C77.5688 17.3216 77.5665 17.3176 77.5643 17.315C77.5574 17.3059 77.5495 17.298 77.5415 17.2889C77.4484 17.4561 77.2803 17.3059 77.1702 17.3999C77.2815 17.4522 77.3984 17.4522 77.5109 17.4261Z" fill="#9D9D9D"/>
<path d="M77.5715 17.3245C77.5987 17.3598 77.6305 17.3938 77.5556 17.416C77.5408 17.4199 77.5249 17.4225 77.5101 17.4264C77.4852 17.4526 77.4556 17.4696 77.4238 17.4813C77.5363 17.4957 77.6601 17.4852 77.8111 17.4473C77.6884 17.3703 77.618 17.3258 77.5465 17.2801C77.5465 17.2919 77.5544 17.3036 77.5635 17.3154C77.5658 17.318 77.5681 17.3206 77.5703 17.3232L77.5715 17.3245Z" fill="#9D9D9D"/>
<path d="M77.5641 17.3123C77.5641 17.3123 77.5699 17.3207 77.5728 17.324C77.5699 17.3207 77.567 17.3173 77.5641 17.314V17.3123Z" fill="#9D9D9D"/>
<path d="M77.5109 17.4259C77.3996 17.452 77.2826 17.452 77.1702 17.3998C77.2508 17.4429 77.3337 17.469 77.4246 17.4808C77.4564 17.469 77.4848 17.452 77.5109 17.4259Z" fill="#9D9D9D"/>
<path d="M73.546 34.723C72.9543 35.5226 72.7021 36.3862 72.8555 37.3856C73.1791 39.4865 75.1053 41.1667 77.1427 41.1719C77.882 41.1784 78.5964 41.0543 79.2699 40.6793C80.9314 39.7543 81.5878 37.7763 81.5208 35.614C81.4992 34.932 81.3436 34.3102 80.9359 33.781C79.4811 31.8905 76.618 31.6175 74.9747 33.2885C74.5034 33.768 73.9673 34.1521 73.5448 34.723H73.546ZM73.4108 37.0303C73.5869 37.0825 73.7265 37.1374 73.8685 37.1609C74.0218 37.1871 74.1865 37.1021 74.1331 36.9166C73.8855 36.0439 74.5113 35.6101 74.8123 34.9177C75.2983 35.8832 75.982 36.4972 76.6555 37.2119C75.6197 37.4588 74.6283 37.4693 73.6357 37.468C73.3631 37.468 73.4392 37.2432 73.4108 37.0303ZM78.4908 33.3068C78.5919 33.342 78.6918 33.3825 78.7929 33.423C80.4726 34.1037 80.8587 34.8406 80.585 36.8696C80.4635 37.7658 80.1841 38.5837 79.6412 39.2618C79.5879 39.3767 79.5299 39.4839 79.3971 39.4826C78.66 40.2808 77.7367 40.3422 76.8077 40.307C75.471 40.2573 74.5397 39.4055 73.7209 38.1225C74.8463 38.2074 75.873 38.163 76.8736 37.8939C77.3256 37.7724 77.6424 37.873 77.9684 38.2218C78.3556 38.6373 78.7815 39.007 79.1904 39.3963C79.3357 39.429 79.4504 39.3402 79.5697 39.2696C79.5617 38.8542 79.3255 38.6059 79.0666 38.3838C78.0797 37.5359 77.162 36.5952 76.258 35.6363C76.0127 35.3763 75.8208 35.047 75.563 34.8066C75.2234 34.4878 75.3097 34.3049 75.6038 34.011C76.4624 33.1539 77.4187 32.9396 78.4919 33.3055L78.4908 33.3068Z" fill="black"/>
<path d="M66.787 41.0072C67.3333 39.6315 68.2634 38.7313 69.3344 37.9565C69.7716 37.6404 70.1873 37.2863 70.6075 36.9414C70.6904 36.8735 70.7642 36.7768 70.8176 36.6762C70.8835 36.5534 70.8278 36.4305 70.7427 36.3509C70.6518 36.2646 70.5337 36.2685 70.4496 36.3652C69.7773 37.1348 68.9414 37.6456 68.1783 38.2688C67.5366 38.7927 67.013 39.4067 66.6394 40.2285C66.2408 41.1039 65.8308 42.0041 65.0381 42.5332C64.9495 42.592 64.9234 42.6913 64.9154 42.7997C64.9165 42.9317 64.9608 43.0336 65.063 43.1028C65.2289 43.2152 65.3583 43.1146 65.4753 43.0022C66.0477 42.4561 66.4861 41.765 66.787 41.0059V41.0072Z" fill="black"/>
<path d="M68.0152 42.7839C68.8602 41.4396 69.7915 40.1657 71.0146 39.2329C71.1236 39.1493 71.2066 39.0513 71.1668 38.8893C71.1225 38.709 70.9896 38.6672 70.817 38.6384C70.5967 38.6933 70.3968 38.8579 70.2321 39.0617C69.4121 40.0743 68.5558 41.0555 67.8029 42.1307C67.352 42.7761 66.9738 43.462 66.2924 43.8252C66.1209 43.9167 66.0584 44.11 66.1868 44.3086C66.3094 44.4994 66.49 44.5124 66.6229 44.3557C67.076 43.82 67.62 43.415 68.0164 42.7839H68.0152Z" fill="#020202"/>
<path d="M71.6205 40.8243C71.5002 40.8217 71.4354 40.887 71.3616 40.955C70.1725 42.0694 69.0016 43.2074 67.9409 44.4877C67.8103 44.6445 67.6717 44.847 67.4491 44.8118C67.2686 44.783 67.1573 44.8431 67.0891 45.0299C67.0414 45.1619 67.0868 45.2703 67.1629 45.3618C67.2924 45.5146 67.4355 45.4598 67.5854 45.3984C67.9398 45.2547 68.2214 44.9855 68.4803 44.6916C69.3492 43.7091 70.2713 42.7997 71.231 41.9388C71.4343 41.7559 71.6353 41.5612 71.7614 41.296C71.8636 41.0804 71.85 40.8897 71.6194 40.823L71.6205 40.8243Z" fill="black"/>
<path d="M28.4348 27.8062C28.4416 27.9616 28.3951 28.1315 28.4916 28.2817C28.6551 28.1655 28.6086 28.0204 28.6063 27.8898C28.512 27.963 28.4871 27.8454 28.4348 27.8062Z" fill="#989898"/>
<path d="M28.4344 27.8064C28.4878 27.8455 28.5117 27.9631 28.6059 27.89C28.5537 27.8495 28.5128 27.775 28.4344 27.8064Z" fill="#989898"/>
<path d="M22.5907 25.503C22.5907 25.503 22.6009 25.5082 22.6043 25.5134C22.6554 25.4559 22.7168 25.4154 22.7815 25.3802C22.7804 25.3762 22.7792 25.371 22.7792 25.3658C22.7134 25.4063 22.6475 25.4468 22.5918 25.503H22.5907Z" fill="#C5C5C5"/>
<path d="M22.5906 25.5025C22.6474 25.4464 22.7121 25.4059 22.778 25.3654C22.7746 25.3458 22.7757 25.3222 22.778 25.2948C22.6758 25.3353 22.5554 25.3458 22.5156 25.496C22.5497 25.4895 22.5735 25.4934 22.5894 25.5038L22.5906 25.5025Z" fill="#C5C5C5"/>
<path d="M22.7796 25.3803C22.7148 25.4156 22.6535 25.4561 22.6024 25.5136C22.6149 25.5332 22.6149 25.5645 22.599 25.6116C22.6933 25.541 22.7864 25.4692 22.8807 25.3986C22.8205 25.4274 22.7909 25.4169 22.7796 25.3816V25.3803Z" fill="#C5C5C5"/>
<path d="M22.7799 25.3798C22.7987 25.3689 22.8175 25.3593 22.8362 25.3498C22.8315 25.3457 22.8268 25.3402 22.8233 25.3361C22.8081 25.3457 22.7928 25.3553 22.7776 25.3648C22.7776 25.3703 22.7788 25.3757 22.7799 25.3798Z" fill="#C5C5C5"/>
<path d="M22.7774 25.3654C22.7922 25.3563 22.8069 25.3471 22.8217 25.338C22.8069 25.3236 22.7922 25.3092 22.7786 25.2949C22.7751 25.3236 22.7751 25.3471 22.7786 25.3654H22.7774Z" fill="#C5C5C5"/>
<path d="M22.7793 25.3799C22.7907 25.4151 22.8202 25.4256 22.8804 25.3969C22.8645 25.3812 22.8497 25.3655 22.8338 25.3498C22.8156 25.359 22.7975 25.3694 22.7793 25.3786V25.3799Z" fill="#C5C5C5"/>
<path d="M22.5915 25.4997C22.5774 25.5134 22.5669 25.5311 22.554 25.5461C22.5575 25.5516 22.5622 25.557 22.5657 25.5625C22.5786 25.5434 22.5915 25.5257 22.6056 25.5106C22.602 25.5052 22.5962 25.5038 22.5915 25.4997Z" fill="#C5C5C5"/>
<path d="M22.6043 25.512C22.5907 25.5276 22.5782 25.5433 22.5657 25.5616C22.577 25.5773 22.5884 25.593 22.6009 25.6086C22.6168 25.5616 22.6168 25.5303 22.6043 25.5107V25.512Z" fill="#C5C5C5"/>
<path d="M22.5919 25.5007C22.5754 25.4898 22.5508 25.4857 22.5156 25.4925C22.5285 25.5103 22.5414 25.5294 22.5555 25.5471C22.5684 25.5321 22.579 25.5144 22.593 25.5007H22.5919Z" fill="#C5C5C5"/>
<path d="M48.1785 55.2465C48.3363 55.3823 48.4715 55.4019 48.5532 55.1498C48.451 55.3 48.3 55.2007 48.1785 55.2465Z" fill="#575757"/>
<path d="M48.1783 55.2462C48.301 55.2004 48.452 55.2997 48.5531 55.1495C48.4237 55.1612 48.284 55.1142 48.1783 55.2462Z" fill="#575757"/>
<path d="M29.3702 49.7092C29.2986 49.6988 29.1805 49.7001 29.2226 49.7994C29.3021 49.9914 29.4372 49.8778 29.5496 49.8112C29.4679 49.8281 29.3577 49.9104 29.3702 49.7092Z" fill="#8C8C8C"/>
<path d="M29.5492 49.8117C29.489 49.7777 29.4288 49.7438 29.3697 49.7098C29.3584 49.911 29.4674 49.83 29.5492 49.8117Z" fill="#8C8C8C"/>
<path d="M28.8583 28.7925C28.9912 28.8552 29.082 28.9035 29.2444 28.7389C29.0922 28.7572 29.0071 28.6252 28.8583 28.7925Z" fill="#898989"/>
<path d="M31.8886 58.285C31.833 58.2602 31.7808 58.285 31.7285 58.319C31.7297 58.3229 31.7308 58.3268 31.7319 58.3307C31.7864 58.3007 31.8387 58.2785 31.8886 58.285Z" fill="#7F7F7F"/>
<path d="M31.7281 58.3191C31.7804 58.2852 31.8326 58.2603 31.8883 58.2852C31.8383 58.2786 31.7849 58.3008 31.7315 58.3309C31.735 58.3505 31.7315 58.3766 31.7236 58.4106C31.8167 58.4001 31.953 58.3087 31.9269 58.2656C31.8394 58.1271 31.7259 58.1989 31.635 58.3035C31.6895 58.2825 31.7191 58.2904 31.7293 58.3178L31.7281 58.3191Z" fill="#7F7F7F"/>
<path d="M31.729 58.3173C31.7114 58.3296 31.6926 58.3419 31.675 58.3528C31.6774 58.3555 31.6786 58.3569 31.6809 58.3596C31.6985 58.3487 31.7161 58.3391 31.7325 58.3296C31.7325 58.3255 31.7302 58.3214 31.729 58.3173Z" fill="#7F7F7F"/>
<path d="M31.7276 58.3195C31.7173 58.2908 31.6889 58.2842 31.6333 58.3052C31.6469 58.3221 31.6606 58.3378 31.6742 58.3548C31.6924 58.343 31.7094 58.3313 31.7264 58.3208L31.7276 58.3195Z" fill="#7F7F7F"/>
<path d="M31.7317 58.3328C31.7147 58.3419 31.6977 58.3511 31.6818 58.3615C31.6954 58.3785 31.7102 58.3955 31.7238 58.4125C31.7329 58.3798 31.7351 58.3537 31.7317 58.3328Z" fill="#7F7F7F"/>
<path d="M6.0052 14.8742C5.97226 14.8703 5.93478 14.8585 5.89617 14.852C5.89276 14.8572 5.89049 14.8611 5.88708 14.8663C5.92683 14.8729 5.96658 14.8768 6.0052 14.8742Z" fill="#8D8D8D"/>
<path d="M6.00618 14.8741C6.02435 14.8741 6.04252 14.8715 6.05955 14.8688C6.04479 14.878 6.02548 14.8767 6.00618 14.8741C5.96643 14.8767 5.92781 14.8741 5.88806 14.8662C5.80629 14.9825 5.6791 14.8819 5.57007 14.8675C5.76087 14.989 5.95734 14.9694 6.16744 14.8715C6.08908 14.8362 6.00958 14.8009 5.93122 14.7656C5.921 14.8009 5.90964 14.8296 5.89715 14.8505C5.9369 14.8571 5.97438 14.8675 6.00618 14.8728V14.8741Z" fill="#8D8D8D"/>
<path d="M6.06244 14.8689C6.04368 14.873 6.02492 14.873 6.00732 14.8743C6.02843 14.8771 6.0472 14.8771 6.06244 14.8689Z" fill="#8D8D8D"/>
<path d="M5.89649 14.8539C5.88286 14.8513 5.86809 14.8487 5.85447 14.85C5.84652 14.8474 5.8397 14.8435 5.83175 14.8409C5.8204 14.8435 5.8079 14.8461 5.79541 14.8474C5.82607 14.8565 5.85674 14.8631 5.8874 14.8683C5.89081 14.8644 5.89308 14.8591 5.89649 14.8539Z" fill="#8D8D8D"/>
<path d="M5.88806 14.8677C5.8574 14.8625 5.82674 14.8559 5.79607 14.8468C5.71998 14.8507 5.63707 14.8233 5.57007 14.869C5.6791 14.8834 5.80629 14.984 5.88806 14.8677Z" fill="#8D8D8D"/>
<path d="M5.83203 14.8408C5.83998 14.8434 5.8468 14.8473 5.85475 14.8499C5.86951 14.8499 5.88314 14.8512 5.89677 14.8538C5.90926 14.8316 5.92175 14.8042 5.93084 14.7689C5.90244 14.8146 5.86837 14.8329 5.83203 14.8408Z" fill="#8D8D8D"/>
<path d="M11.6254 6.34045C11.496 6.32085 11.3551 6.26336 11.2904 6.4724C11.4017 6.57823 11.5175 6.56255 11.6357 6.52205C11.5584 6.46718 11.563 6.40577 11.6254 6.33914V6.34045Z" fill="#4B4B4B"/>
<path d="M11.6247 6.34016C11.5622 6.40549 11.5577 6.4682 11.6349 6.52307C11.6315 6.46167 11.6281 6.40157 11.6247 6.34016Z" fill="#4B4B4B"/>
<path d="M79.5948 39.2994C79.5766 39.2903 79.5686 39.2811 79.5686 39.2707C79.4494 39.3412 79.3347 39.4314 79.1893 39.3974C79.2518 39.4444 79.3415 39.4053 79.3949 39.4836C79.5278 39.4836 79.5857 39.3778 79.6391 39.2628C79.6266 39.2955 79.6107 39.3086 79.5948 39.2994Z" fill="#ACACAC"/>
<path d="M79.5676 39.2689C79.5676 39.2799 79.577 39.2894 79.5946 39.299C79.6121 39.3085 79.6274 39.2949 79.6403 39.2608C79.6145 39.2444 79.5899 39.2471 79.5664 39.2689H79.5676Z" fill="#ACACAC"/>
<path d="M79.3949 39.4837C79.3415 39.4066 79.2518 39.4445 79.1893 39.3974C79.2314 39.5098 79.3109 39.5059 79.3949 39.4837Z" fill="#ACACAC"/>
</g>
<defs>
<clipPath id="clip0_630_2291">
<rect width="64" height="88" fill="white" transform="matrix(0 -1 1 0 0 64)"/>
</clipPath>
</defs>
</svg>
