<svg width="82" height="94" viewBox="0 0 82 94" fill="none" xmlns="http://www.w3.org/2000/svg">
<g clip-path="url(#clip0_630_1995)">
<path d="M23.7955 70.1735C23.2571 67.283 21.539 64.7506 20.2254 62.1147C18.6941 59.0451 17.6431 55.7035 16.4312 52.52C14.7595 48.1295 13.5192 43.9135 13.5257 39.2417C13.5373 30.9841 16.7841 22.1346 24.0724 16.8094C32.1939 10.876 44.8193 10.9981 53.7883 15.2037C62.7908 19.4243 68.6122 27.9157 69.2574 36.9942C70.0495 48.1319 62.5126 57.7871 59.4745 68.1946C59.3521 68.6155 60.0721 68.7934 60.1944 68.3736C63.391 57.4185 71.2408 47.4052 69.8769 35.6373C68.8827 27.0564 63.2171 19.2778 54.9346 15.0013C46.4782 10.6342 34.8432 10.2005 26.2979 14.6223C18.4906 18.6627 14.3023 26.7518 13.147 34.5408C12.4503 39.2382 12.7053 44.0902 14.2263 48.6411C15.5013 52.4572 17.0764 56.1953 18.5228 59.9602C19.8686 63.4635 22.3878 66.6679 23.0742 70.3537C23.1541 70.7816 23.8727 70.5991 23.7942 70.1747L23.7955 70.1735Z" fill="white"/>
<path d="M21.9061 70.5328C24.4073 72.1885 27.5549 72.8118 30.5712 73.1966C33.782 73.6071 37.0327 73.6699 40.2692 73.7698C47.6953 73.9989 55.2733 73.7187 61.7013 69.9294C62.116 69.6852 61.7296 69.0829 61.3124 69.3283C54.9977 73.0501 47.5613 73.3071 40.2692 73.0734C37.1743 72.9745 34.0795 72.9001 31.0039 72.5525C27.9838 72.2106 24.7923 71.5839 22.2951 69.9305C21.8933 69.6643 21.5095 70.2689 21.9061 70.5317V70.5328Z" fill="white"/>
<path d="M21.3806 68.7259C21.4051 69.0561 21.3742 69.3747 21.4682 69.6991C21.5828 70.0932 22.1997 69.9886 22.2255 69.6061C22.277 68.8166 22.7497 68.334 23.3408 67.7969C23.1386 67.6562 22.9377 67.5155 22.7355 67.3748C22.4431 67.7794 22.2345 68.2422 22.344 68.7328C22.4212 69.0805 22.6505 69.377 22.7303 69.7223C22.8334 70.1618 23.5752 69.9746 23.4735 69.5374C23.4129 69.2758 23.2635 69.0456 23.1605 68.798C22.9944 68.4015 23.1579 68.0654 23.4013 67.7259C23.6435 67.3899 23.1013 67.0283 22.796 67.3039C22.049 67.9817 21.5197 68.6189 21.4553 69.6049C21.7077 69.5735 21.9602 69.5433 22.2126 69.5119C22.1366 69.2526 22.1714 68.9898 22.1521 68.7235C22.1199 68.2782 21.3484 68.2759 21.3819 68.7235L21.3806 68.7259Z" fill="white"/>
<path d="M60.1184 67.8214C60.054 68.6678 60.1648 69.5213 59.8479 70.3352C59.7179 70.6677 60.2343 70.9189 60.4919 70.6735C60.7881 70.391 61.0908 70.055 61.1036 69.6445C61.1165 69.2271 60.9208 68.8376 60.8899 68.4237C60.8564 67.9783 60.0849 67.976 60.1197 68.4237C60.1403 68.705 60.1982 68.9736 60.2755 69.2457C60.3914 69.6527 60.2691 69.8736 59.9471 70.1805C60.1622 70.2933 60.376 70.4061 60.5911 70.5189C60.9324 69.6445 60.8203 68.7283 60.8899 67.8202C60.9246 67.3726 60.1532 67.3749 60.1197 67.8202L60.1184 67.8214Z" fill="white"/>
<path d="M34.4942 72.8536C33.5166 69.9678 34.0086 66.8982 34.0163 63.9321C34.0202 62.5461 33.7884 61.1892 33.6364 59.8137C33.4651 58.2673 33.3647 56.7163 33.2166 55.1675C32.9577 52.4502 32.5404 49.712 31.3813 47.175C30.7541 45.803 29.9672 44.0356 28.5839 43.138C27.1183 42.1869 25.9476 43.4613 25.6127 44.7461C25.1735 46.4332 26.6946 47.8819 28.0585 48.7923C29.6014 49.8237 31.6582 50.5934 33.6016 50.4783C35.8104 50.3469 38.0449 49.0574 39.3174 47.4575C40.4701 46.0076 40.9981 44.2287 40.3554 42.4916C39.9691 41.4463 38.8679 41.1463 37.987 41.9079C36.9141 42.8357 36.815 44.5914 37.0288 45.8297C37.2207 46.9401 37.9496 47.9203 38.8924 48.6284C42.8012 51.5666 50.7734 50.3783 52.1785 45.5972C52.2274 45.4321 52.1424 45.3018 52.0007 45.2042C48.8054 42.9973 45.1001 47.4552 47.1827 50.112C49.1042 52.5642 53.5862 50.5155 54.65 48.3621C54.7556 48.1493 54.6719 47.9307 54.4194 47.8505C49.6915 46.3646 48.5504 54.7885 48.146 57.2337C47.3063 62.3206 47.0977 67.504 47.0964 72.642C47.0964 73.0908 47.8665 73.0908 47.8665 72.642C47.8665 69.3585 47.8253 46.5134 54.2147 48.5214C54.1374 48.3505 54.0614 48.1807 53.9841 48.0098C53.1508 49.6946 50.4681 51.1015 48.4744 50.2213C45.4144 48.8702 48.7075 43.7984 51.6105 45.803C51.5513 45.6716 51.492 45.5414 51.4328 45.41C50.4617 48.7144 46.1613 49.8364 42.7922 49.376C41.1552 49.1528 39.5003 48.49 38.5047 47.2552C38.0192 46.6529 37.7783 45.9309 37.7152 45.1949C37.638 44.2984 37.8234 42.516 38.9375 42.1474C40.1738 41.7393 39.7553 45.0612 39.6136 45.4856C39.1667 46.8285 37.9934 47.9307 36.7454 48.7074C34.5264 50.0888 32.1695 49.9841 29.8448 48.9516C27.8138 48.0493 25.3371 46.1425 26.8079 43.9461C28.0353 42.1148 30.1475 46.3448 30.5261 47.1227C32.5172 51.205 32.4219 55.8012 32.9036 60.1602C33.1509 62.3915 33.2526 64.5286 33.1663 66.7726C33.0852 68.876 33.0607 71.0037 33.7497 73.035C33.8953 73.4629 34.6384 73.2803 34.4929 72.8501L34.4942 72.8536Z" fill="white"/>
<path d="M21.4939 68.4794C19.6303 69.8177 19.848 72.1931 20.0206 74.1139C20.1828 75.9243 19.9845 77.9777 20.8036 79.681C21.6781 81.4995 23.646 82.3239 25.5882 83.0018C28.477 84.011 31.5512 84.5552 34.6165 84.8889C40.1777 85.4935 45.8058 84.9307 51.3838 84.7842C55.1831 84.6842 60.8229 84.5052 63.0316 81.1356C64.3685 79.0962 64.7665 76.2847 64.854 73.9651C64.939 71.7304 64.4458 68.7108 61.6098 68.0899C61.1268 67.9841 60.922 68.655 61.405 68.7608C65.2842 69.6107 64.1251 75.415 63.4863 77.8788C63.1347 79.2369 62.7058 80.6252 61.5982 81.6402C59.8672 83.2262 57.1008 83.6634 54.7581 83.8994C52.2621 84.1505 49.7404 84.1075 47.2328 84.1691C44.4471 84.2377 41.6961 84.5307 38.9026 84.4703C35.5644 84.3982 32.2313 84.0005 28.996 83.2506C26.5413 82.682 23.1734 81.9414 21.7515 79.8531C20.7817 78.4288 20.9762 76.4824 20.859 74.8848C20.7173 72.957 20.1184 70.3537 22.0387 68.9736C22.4277 68.6945 21.8777 68.205 21.4939 68.4817V68.4794Z" fill="white"/>
<path d="M25.8458 83.2541C25.7981 83.2472 25.7505 83.2402 25.7041 83.2332C25.3589 83.1844 25.1207 83.4529 25.2688 83.7448C25.8638 84.9145 26.3596 86.0946 26.8323 87.3178C27.0461 87.8701 27.3436 89.1503 27.8768 89.5421C28.4808 89.9863 29.4558 89.9839 30.1886 89.9932C31.7586 90.0142 33.3079 90.3711 34.8689 90.5386C38.068 90.8816 41.2852 91.0874 44.5076 91.0978C47.8034 91.1095 51.0541 90.5944 54.3447 90.556C54.5675 90.5537 54.7143 90.399 54.7298 90.2083C54.8933 88.2875 56.623 86.7597 56.8561 84.7971C56.9089 84.3517 56.1374 84.3552 56.0859 84.7971C55.8528 86.7586 54.1257 88.248 53.9596 90.2083C54.0884 90.0921 54.2159 89.977 54.3447 89.8607C51.4919 89.8944 48.6676 90.3258 45.8161 90.3909C42.7432 90.4607 39.6676 90.2874 36.6114 90.0153C35.111 89.8816 33.6106 89.7363 32.1321 89.4619C30.9691 89.2456 29.761 89.42 28.6225 89.1142C27.9438 88.9317 27.5626 87.0957 27.3449 86.533C26.9263 85.4528 26.4614 84.425 25.9372 83.396C25.7917 83.5669 25.6474 83.7367 25.5019 83.9076C25.5496 83.9146 25.5972 83.9215 25.6436 83.9285C26.1291 83.9983 26.3378 83.3274 25.8483 83.2576L25.8458 83.2541Z" fill="white"/>
<path d="M30.4927 90.0141C30.9318 91.7512 32.9023 92.2733 34.5586 92.7814C37.0958 93.5592 39.8313 93.9127 42.5024 93.9906C45.2856 94.0708 49.8126 93.6836 50.9395 90.9187C51.1121 90.4966 50.3664 90.3164 50.1964 90.7338C49.2137 93.1453 44.8709 93.3325 42.5024 93.2953C40.2692 93.2604 38.0398 92.9302 35.8826 92.4151C34.2662 92.0291 31.6647 91.5291 31.2358 89.8304C31.125 89.3932 30.3819 89.5781 30.4927 90.0153V90.0141Z" fill="white"/>
<path d="M32.8301 90.4781C32.6344 90.9281 32.8121 91.4106 32.9782 91.8431C33.0594 92.0536 33.4316 91.9629 33.3504 91.7501C33.2062 91.3745 33.0323 90.9606 33.2023 90.5699C33.2938 90.3607 32.9203 90.2711 32.8301 90.4769V90.4781Z" fill="white"/>
<path d="M33.8618 90.792C33.9159 91.2978 33.9198 91.8257 34.1851 92.2873C34.2997 92.4861 34.632 92.3106 34.5174 92.1117C34.2868 91.7094 34.2933 91.2327 34.2469 90.792C34.2237 90.5711 33.8374 90.5688 33.8618 90.792Z" fill="white"/>
<path d="M35.4278 90.6793C35.1741 91.2641 35.478 91.9443 35.6506 92.514C35.7163 92.7303 36.0872 92.6384 36.0228 92.421C35.8683 91.9106 35.5734 91.2943 35.8 90.7711C35.8902 90.5618 35.518 90.4723 35.4278 90.6781V90.6793Z" fill="white"/>
<path d="M36.9051 90.792C36.9 91.4455 37.0829 92.0745 37.2091 92.714C37.2529 92.9349 37.6238 92.8407 37.5813 92.621C37.4615 92.0117 37.2864 91.4141 37.2915 90.7909C37.2928 90.5665 36.9077 90.5665 36.9064 90.7909L36.9051 90.792Z" fill="white"/>
<path d="M38.3966 91.014C38.175 91.6245 38.3025 92.3337 38.6387 92.8895C38.7585 93.086 39.0907 92.9104 38.971 92.7139C38.6812 92.2361 38.5782 91.6291 38.7675 91.1059C38.8448 90.892 38.4725 90.8013 38.3953 91.0129L38.3966 91.014Z" fill="white"/>
<path d="M39.5839 91.3083C39.7488 91.8861 39.866 92.4721 40.0295 93.05C40.0914 93.2674 40.4623 93.1756 40.4018 92.957C40.2382 92.3791 40.121 91.792 39.9561 91.2152C39.8943 90.9978 39.5221 91.0908 39.5839 91.3083Z" fill="white"/>
<path d="M41.0677 91.1734C41.333 91.7582 41.4798 92.3745 41.6614 92.9826C41.7258 93.1988 42.098 93.107 42.0336 92.8895C41.852 92.2814 41.7052 91.6652 41.4399 91.0803C41.3471 90.8757 40.9736 90.9652 41.0677 91.1734Z" fill="white"/>
<path d="M43.5095 91.4629C43.5804 92.0978 43.7826 92.7036 43.9616 93.3186C44.0247 93.5349 44.3969 93.4431 44.3338 93.2256C44.1638 92.6431 43.9616 92.0652 43.8959 91.4629C43.8714 91.242 43.4863 91.2397 43.5108 91.4629H43.5095Z" fill="white"/>
<path d="M45.2173 91.2617C45.2572 91.885 45.4878 92.4582 45.7634 93.0244C45.8625 93.2291 46.1948 93.0523 46.0957 92.8488C45.8484 92.3407 45.6384 91.8198 45.6024 91.2617C45.5882 91.0385 45.2031 91.0373 45.2173 91.2617Z" fill="white"/>
<path d="M46.5348 91.5187C46.6829 91.6606 46.7434 91.8908 46.813 92.0699C46.9019 92.3012 46.9869 92.5326 47.0989 92.7559C47.2019 92.9593 47.5342 92.7826 47.4312 92.5803C47.2238 92.1699 47.162 91.6083 46.8078 91.2722C46.6365 91.1095 46.3648 91.356 46.5348 91.5187Z" fill="white"/>
<path d="M47.8962 90.8385C48.034 91.2897 48.2581 91.7152 48.3418 92.178C48.3817 92.3989 48.7526 92.3047 48.714 92.0849C48.6303 91.621 48.4062 91.1955 48.2684 90.7455C48.2027 90.5292 47.8305 90.6211 47.8962 90.8385Z" fill="white"/>
<path d="M48.9536 90.8804C49.1274 91.1478 49.2768 91.428 49.4726 91.6838C49.613 91.8675 49.9466 91.6931 49.8049 91.5082C49.6091 91.2524 49.4584 90.9722 49.2859 90.7048C49.1609 90.5118 48.8274 90.6862 48.9536 90.8804Z" fill="white"/>
<path d="M49.6773 90.906C49.7262 91.0176 49.7765 91.1292 49.8254 91.2408C49.864 91.3292 49.9529 91.3897 50.0624 91.3618C50.1551 91.3385 50.2363 91.2362 50.1963 91.1478C50.1474 91.0362 50.0972 90.9246 50.0482 90.813C50.0096 90.7246 49.9207 90.6641 49.8112 90.692C49.7185 90.7153 49.6374 90.8176 49.6773 90.906Z" fill="white"/>
<path d="M32.1025 90.8757C34.7002 92.0315 37.6689 92.1675 40.501 92.4547C43.2558 92.7337 46.2708 93.0058 48.8479 91.8803C49.072 91.7826 48.8763 91.4827 48.6535 91.5803C46.2451 92.6326 43.4104 92.3861 40.8307 92.1396C37.9715 91.8664 34.9179 91.7419 32.297 90.5757C32.0755 90.4769 31.8797 90.7769 32.1025 90.8757Z" fill="white"/>
<path d="M47.9889 73.821C47.3785 74.6616 48.0559 76.3382 48.1551 77.2591C48.2813 78.4265 48.3135 79.602 48.3302 80.7752C48.3444 81.8612 48.5157 83.0925 48.0443 84.1145C47.949 84.3215 48.3212 84.411 48.4165 84.2075C48.7269 83.5343 48.7372 82.8378 48.7295 82.1181C48.7166 81.0193 48.7114 79.9206 48.6599 78.8218C48.6213 77.9812 48.5543 77.1394 48.4114 76.308C48.3096 75.7162 47.9207 74.5546 48.3238 73.9989C48.4603 73.8105 48.1267 73.6361 47.9915 73.8233L47.9889 73.821Z" fill="white"/>
<path d="M49.6773 84.0715C49.9529 82.3356 50.0688 80.5973 50.025 78.8451C49.9812 77.0731 49.6051 75.3372 49.4609 73.5733C49.4429 73.3512 49.0578 73.3489 49.0758 73.5733C49.2085 75.2034 49.533 76.8103 49.6232 78.4451C49.7249 80.2927 49.5948 82.1495 49.3051 83.9785C49.2703 84.1982 49.6412 84.2924 49.6773 84.0715Z" fill="white"/>
<path d="M50.9459 83.9587C50.8802 81.9588 51.1945 79.9461 51.1751 77.937C51.161 76.4696 51.1416 74.7174 50.4745 73.3512C50.3741 73.1466 50.0431 73.3233 50.1422 73.5268C50.8351 74.9453 50.7797 76.7998 50.7939 78.323C50.8119 80.2054 50.5003 82.0844 50.5608 83.9587C50.5685 84.1831 50.9536 84.1831 50.9459 83.9587Z" fill="white"/>
<path d="M52.0587 83.6901C52.1836 81.8437 52.4875 80.0113 52.5751 78.1614C52.6112 77.4033 52.6343 76.5824 52.4708 75.8348C52.2673 74.9023 51.8745 73.9989 51.9105 73.0362C51.9183 72.8117 51.5332 72.8129 51.5255 73.0362C51.501 73.7059 51.6684 74.3279 51.8552 74.9744C52.123 75.9046 52.2029 76.8068 52.2003 77.7649C52.1952 79.7462 51.8062 81.7147 51.6736 83.689C51.6581 83.9134 52.0445 83.9122 52.0587 83.689V83.6901Z" fill="white"/>
<path d="M52.7207 83.7366C53.4264 82.0832 53.6312 80.3368 53.7175 78.5799C53.7626 77.6614 53.7845 76.7347 53.7587 75.8161C53.733 74.8825 53.393 73.9697 53.3221 73.0384C53.3054 72.8163 52.919 72.814 52.937 73.0384C52.9924 73.7558 53.1547 74.4511 53.2912 75.158C53.4831 76.1568 53.3775 77.2207 53.3466 78.2288C53.2912 80.0694 53.089 81.9158 52.3497 83.6447C52.2596 83.854 52.6331 83.9447 52.722 83.7377L52.7207 83.7366Z" fill="white"/>
<path d="M54.0485 72.8362C54.0356 73.6942 54.2262 74.5372 54.2803 75.393C54.3486 76.4836 54.3949 77.5754 54.4181 78.6672C54.4529 80.381 54.7324 82.3018 54.279 83.9785C54.2198 84.1959 54.592 84.2889 54.6512 84.0715C55.0865 82.4611 54.8148 80.7194 54.8096 79.0776C54.8058 77.9858 54.7517 76.8929 54.6911 75.8022C54.6358 74.8139 54.4207 73.8233 54.4361 72.8362C54.44 72.6117 54.0536 72.6117 54.051 72.8362H54.0485Z" fill="white"/>
<path d="M55.0132 72.7699C55.0119 73.6954 55.2875 74.6186 55.3918 75.5383C55.5103 76.5847 55.5438 77.6382 55.5773 78.6893C55.6018 79.4997 55.634 80.2961 55.7254 81.1019C55.8297 82.0135 55.9624 83.0541 55.4112 83.8715C55.2811 84.0634 55.6146 84.2389 55.7434 84.0471C56.5793 82.8065 56.059 81.2193 55.992 79.8636C55.934 78.6835 55.9315 77.5033 55.8478 76.3231C55.764 75.1441 55.397 73.943 55.3983 72.7699C55.3983 72.5455 55.0132 72.5455 55.0132 72.7699Z" fill="white"/>
<path d="M55.9778 72.635C56.0628 73.5151 56.4312 74.3244 56.6411 75.1813C56.9116 76.2812 56.918 77.4591 56.9412 78.5823C56.9605 79.5217 56.927 80.4612 56.9515 81.4007C56.9734 82.2425 57.0275 83.1017 56.7261 83.911C56.6463 84.1238 57.0185 84.2145 57.0983 84.004C57.6663 82.4762 57.3366 80.5554 57.3314 78.9694C57.3276 77.9381 57.276 76.9114 57.146 75.8859C57.0056 74.7732 56.4711 73.7454 56.3629 72.6338C56.341 72.4117 55.9559 72.4106 55.9778 72.6338V72.635Z" fill="white"/>
<path d="M57.3134 72.3676C57.4048 74.193 57.7873 75.9953 57.8697 77.8312C57.9535 79.6974 57.9496 81.5565 57.9818 83.4227C57.9857 83.6471 58.3707 83.6471 58.3669 83.4227C58.3347 81.5565 58.3321 79.6974 58.2548 77.8312C58.1788 75.9953 57.7912 74.1919 57.6985 72.3676C57.6869 72.1443 57.3018 72.1432 57.3134 72.3676Z" fill="white"/>
<path d="M58.3604 71.6769C58.4943 72.564 58.9271 73.3652 59.0533 74.2744C59.1782 75.1709 59.1924 76.0813 59.2155 76.9835C59.2696 79.0183 59.3856 81.0519 59.3933 83.0878C59.3933 83.3122 59.7797 83.3122 59.7784 83.0878C59.7719 81.0519 59.6509 79.0195 59.6006 76.9835C59.5749 75.9499 59.5272 74.9197 59.3856 73.893C59.2735 73.0849 58.8524 72.3768 58.7326 71.5839C58.6991 71.363 58.3282 71.4571 58.3604 71.6769Z" fill="white"/>
<path d="M59.4731 70.9397C60.0591 73.0593 60.0772 75.222 60.1377 77.3928C60.166 78.4206 60.2278 79.4473 60.2832 80.474C60.3244 81.2332 60.2317 82.0588 60.4378 82.7983C60.4983 83.0157 60.8705 82.9238 60.81 82.7052C60.5511 81.7774 60.6799 80.66 60.6271 79.7054C60.5704 78.6753 60.5292 77.6439 60.5022 76.6126C60.4519 74.6685 60.3682 72.7419 59.844 70.8467C59.7835 70.6292 59.4126 70.7211 59.4718 70.9397H59.4731Z" fill="white"/>
<path d="M60.5794 70.4246C60.6451 71.2153 60.9259 71.9571 61.1075 72.7291C61.3741 73.8628 61.4192 75.0523 61.4784 76.2068C61.5248 77.1382 61.5415 78.0683 61.6368 78.9962C61.7373 79.9833 61.8802 81.0042 61.5518 81.9693C61.4784 82.1844 61.8506 82.2751 61.924 82.0623C62.4637 80.4775 61.9665 78.6206 61.8983 76.994C61.8493 75.8127 61.7849 74.636 61.6226 73.4628C61.481 72.435 61.0508 71.456 60.9645 70.4246C60.9465 70.2026 60.5601 70.2002 60.5794 70.4246Z" fill="white"/>
<path d="M61.0315 70.1352C61.6781 71.7083 62.2602 73.2931 62.6556 74.9349C63.0175 76.4371 63.6073 78.2381 63.1836 79.7578C63.1231 79.9752 63.494 80.0683 63.5558 79.8508C63.9229 78.5346 63.512 77.1661 63.2377 75.8674C62.8127 73.864 62.1906 71.956 61.4037 70.0433C61.3187 69.8352 60.9452 69.9247 61.0315 70.1363V70.1352Z" fill="white"/>
<path d="M61.5261 69.877C62.1803 70.5944 62.738 71.0839 63.1295 71.9792C63.5507 72.9419 64.0813 73.8605 64.1418 74.9128C64.1547 75.136 64.5398 75.1372 64.5269 74.9128C64.4638 73.8233 63.9306 72.8885 63.5004 71.8862C63.0857 70.9211 62.4985 70.3979 61.7978 69.6305C61.6394 69.4573 61.369 69.7049 61.5248 69.877H61.5261Z" fill="white"/>
<path d="M47.7545 84.0924C47.7236 80.7042 46.9702 77.3637 46.938 73.9756C46.9354 73.7511 46.5503 73.7511 46.5529 73.9756C46.5851 77.3637 47.3385 80.7042 47.3694 84.0924C47.372 84.3168 47.7571 84.3168 47.7545 84.0924Z" fill="white"/>
<path d="M45.3653 73.6407C45.3615 75.5022 45.3215 77.3626 45.4297 79.2229C45.5315 80.9879 45.8766 82.7332 46.0338 84.4947C46.0531 84.7168 46.4395 84.7179 46.4189 84.4947C46.2617 82.7332 45.9397 80.9879 45.8148 79.2229C45.6822 77.3661 45.7478 75.4999 45.7504 73.6407C45.7504 73.4163 45.3653 73.4163 45.3653 73.6407Z" fill="white"/>
<path d="M43.5906 73.7279C43.4451 74.3372 43.6331 74.8976 43.713 75.5069C43.8572 76.594 43.834 77.716 43.8843 78.809C43.9281 79.7589 43.9783 80.7112 44.0916 81.6577C44.2153 82.6797 44.5076 83.6587 44.4729 84.6958C44.4651 84.9202 44.8502 84.9191 44.8579 84.6958C44.9172 82.8785 44.3866 81.0449 44.2887 79.2229C44.2372 78.2602 44.2024 77.2963 44.1496 76.3324C44.1071 75.5604 43.7825 74.5674 43.9603 73.8209C44.0118 73.6023 43.6409 73.5093 43.5881 73.7279H43.5906Z" fill="white"/>
<path d="M42.1006 74.1767C42.1109 77.5323 42.3646 80.8798 42.6196 84.2273C42.6364 84.4493 43.0214 84.4517 43.0047 84.2273C42.7497 80.881 42.496 77.5335 42.4857 74.1767C42.4857 73.9523 42.0993 73.9523 42.1006 74.1767Z" fill="white"/>
<path d="M40.6221 73.8617C40.2331 75.4337 40.5448 77.3092 40.6208 78.9056C40.7109 80.7903 40.7303 82.7646 41.2158 84.6076C41.2738 84.8261 41.6447 84.7331 41.588 84.5145C41.145 82.8309 41.1295 81.0357 41.0291 79.3137C40.9737 78.3614 40.9441 77.4092 40.9286 76.4569C40.9157 75.6314 40.7934 74.7675 40.9943 73.9547C41.0484 73.7361 40.6775 73.6431 40.6221 73.8617Z" fill="white"/>
<path d="M39.2801 73.8418C39.2801 75.8847 39.2698 77.9265 39.271 79.9694C39.2723 81.5623 39.0637 83.3622 39.7321 84.876C39.8236 85.0818 40.1958 84.9923 40.1043 84.783C39.4514 83.3029 39.66 81.5286 39.6574 79.9682C39.6536 77.9253 39.6651 75.8836 39.6664 73.8407C39.6664 73.6163 39.2813 73.6163 39.2813 73.8407L39.2801 73.8418Z" fill="white"/>
<path d="M37.9702 73.4862C37.7332 73.9582 37.759 74.5152 37.7487 75.0221C37.7294 75.9279 37.701 76.8348 37.692 77.7405C37.6804 78.9277 37.7268 80.123 37.853 81.3043C37.9664 82.3763 38.2845 83.4088 38.242 84.4948C38.2329 84.7192 38.618 84.718 38.627 84.4948C38.6605 83.6367 38.4995 82.8065 38.3437 81.9635C38.1364 80.838 38.1093 79.6881 38.0823 78.5486C38.0604 77.6161 38.1183 76.6871 38.1299 75.7546C38.1376 75.1105 38.0024 74.2605 38.3038 73.6606C38.4055 73.4583 38.0732 73.2804 37.9715 73.485L37.9702 73.4862Z" fill="white"/>
<path d="M36.6642 73.6512C36.3178 74.0488 36.3345 74.586 36.3306 75.0708C36.3216 76.0231 36.3912 76.9661 36.3654 77.9207C36.3294 79.2915 36.3989 80.6484 36.5444 82.0134C36.6462 82.9645 36.632 83.8994 37.0789 84.783C37.182 84.9865 37.5142 84.8098 37.4112 84.6074C36.9566 83.7098 37.0016 82.7006 36.8999 81.7379C36.7917 80.7205 36.7402 79.7078 36.7389 78.6857C36.7389 77.88 36.8136 77.0719 36.7698 76.2673C36.7351 75.6278 36.4646 74.4383 36.936 73.8965C37.0879 73.7221 36.8175 73.4744 36.6629 73.65L36.6642 73.6512Z" fill="white"/>
<path d="M35.5013 73.7953C35.303 74.4499 35.3622 75.1511 35.3236 75.8243C35.2631 76.8858 35.2631 77.9497 35.2644 79.0124C35.2669 80.8495 35.0274 82.8192 35.576 84.6086C35.6417 84.8249 36.0139 84.733 35.9482 84.5156C35.4125 82.768 35.6572 80.8112 35.6507 79.0124C35.6469 78.0823 35.6572 77.1521 35.6906 76.2231C35.7177 75.4743 35.6546 74.6116 35.8735 73.8883C35.9392 73.6721 35.567 73.5802 35.5013 73.7953Z" fill="white"/>
<path d="M34.3138 73.6617C34.0627 74.4779 34.1515 75.3186 34.1541 76.1569C34.1593 77.5324 34.1168 78.9033 34.167 80.2787C34.2146 81.5926 33.8411 83.5053 34.704 84.6506C34.8431 84.8343 35.1767 84.661 35.0363 84.475C34.5508 83.8297 34.5971 82.9751 34.5984 82.2263C34.5997 81.438 34.5662 80.6566 34.5366 79.8683C34.4967 78.7695 34.516 77.6684 34.5315 76.5685C34.5456 75.6395 34.404 74.6605 34.6834 73.7559C34.7504 73.5396 34.3782 73.4478 34.3112 73.6629L34.3138 73.6617Z" fill="white"/>
<path d="M33.12 73.5058C33.1998 77.073 32.1038 80.9333 33.4239 84.4063C33.5038 84.6168 33.876 84.5261 33.7961 84.3133C32.4889 80.874 33.5849 77.0393 33.5063 73.5058C33.5012 73.2814 33.1161 73.2814 33.1213 73.5058H33.12Z" fill="white"/>
<path d="M31.8591 73.171C31.7818 74.9279 31.617 76.6801 31.5294 78.437C31.4444 80.1369 31.7277 81.7973 31.711 83.489C31.7084 83.7134 32.0935 83.7134 32.0961 83.489C32.1128 81.7973 31.8436 80.1357 31.9145 78.437C31.9879 76.6801 32.1669 74.9279 32.2442 73.171C32.2545 72.9466 31.8681 72.9478 31.8591 73.171Z" fill="white"/>
<path d="M30.3806 73.2594C30.2286 73.8733 30.284 74.4779 30.2994 75.1035C30.3265 76.1743 30.2788 77.2487 30.2749 78.3196C30.2698 80.1881 30.7051 82.0368 30.6703 83.8925C30.6665 84.1169 31.0516 84.1169 31.0554 83.8925C31.0876 82.167 30.6781 80.4543 30.6613 78.7219C30.6523 77.7835 30.6716 76.8452 30.6806 75.9069C30.6884 75.0698 30.548 74.1756 30.7515 73.3524C30.8056 73.1338 30.4346 73.0408 30.3793 73.2594H30.3806Z" fill="white"/>
<path d="M28.8222 72.9245C28.4525 74.5372 28.7475 76.294 28.7243 77.9335C28.6985 79.738 28.6831 81.5635 29.1197 83.3343C29.1738 83.5529 29.5447 83.4599 29.4919 83.2413C29.063 81.5007 29.0875 79.7054 29.1107 77.9323C29.1313 76.3312 28.835 74.5883 29.1944 73.0151C29.2446 72.7966 28.8737 72.7035 28.8222 72.9221V72.9245Z" fill="white"/>
<path d="M27.4055 73.1048C27.4081 74.9767 27.4429 76.8487 27.4686 78.7207C27.4892 80.2369 27.3823 81.7961 27.8576 83.2669C27.9271 83.482 28.2993 83.3902 28.2298 83.1739C27.7262 81.6159 27.8705 79.9253 27.8486 78.3184C27.8254 76.5801 27.7932 74.8419 27.7906 73.1036C27.7906 72.8792 27.4055 72.8792 27.4055 73.1036V73.1048Z" fill="white"/>
<path d="M26.2245 72.4547C26.0609 73.0012 26.1266 73.5465 26.1434 74.1058C26.1704 74.9918 26.1588 75.8801 26.164 76.7661C26.1743 78.7171 26.0738 80.667 26.0699 82.618C26.0699 82.8425 26.455 82.8425 26.455 82.618C26.4589 80.9205 26.5233 79.2241 26.5465 77.5265C26.5594 76.6394 26.54 75.7522 26.5323 74.8662C26.5259 74.1209 26.379 73.2744 26.5967 72.5477C26.6611 72.3303 26.2902 72.2385 26.2245 72.4547Z" fill="white"/>
<path d="M25.1864 72.3884C24.9752 72.9756 24.9996 73.5651 24.9777 74.1767C24.9404 75.2173 24.8721 76.2545 24.8644 77.2974C24.8567 78.345 24.9198 79.3892 25.0022 80.4333C25.0563 81.1286 24.9803 81.946 25.3551 82.5727C25.4736 82.7703 25.8059 82.5948 25.6874 82.3971C25.2662 81.6925 25.3847 80.4344 25.3281 79.6438C25.2727 78.8624 25.2521 78.0799 25.2495 77.2963C25.2469 76.5149 25.2804 75.7347 25.319 74.9546C25.3577 74.1511 25.2817 73.2488 25.5586 72.4803C25.6359 72.2663 25.2637 72.1757 25.1864 72.3873V72.3884Z" fill="white"/>
<path d="M24.066 72.1664C24.0608 74.0047 24.0106 75.8418 23.9861 77.68C23.9668 79.1358 23.8599 80.6101 24.4433 81.9949C24.5309 82.2018 24.9031 82.1123 24.8155 81.9019C24.2051 80.4531 24.3557 78.8916 24.3751 77.3719C24.3982 75.636 24.4459 73.9012 24.451 72.1653C24.451 71.9408 24.066 71.9408 24.066 72.1653V72.1664Z" fill="white"/>
<path d="M23.3975 71.4967C23.2107 73.3559 22.8308 75.193 22.7097 77.0568C22.6144 78.5184 22.3968 80.0218 22.8102 81.4589C22.872 81.6763 23.2442 81.5833 23.1824 81.3659C22.778 79.959 23.0085 78.487 23.0948 77.0568C23.2081 75.1918 23.5958 73.3547 23.7825 71.4967C23.8044 71.2735 23.4194 71.2746 23.3975 71.4967Z" fill="white"/>
<path d="M22.2178 71.3827C21.7387 74.3511 21.5507 77.3416 21.543 80.3403C21.543 80.5647 21.9281 80.5647 21.9281 80.3403C21.9358 77.3742 22.1148 74.4127 22.5888 71.4757C22.6248 71.256 22.2526 71.1618 22.2165 71.3827H22.2178Z" fill="white"/>
<path d="M21.8958 70.5688C20.5448 71.8583 21.2184 74.2035 21.2454 75.7836C21.2493 76.008 21.6344 76.008 21.6305 75.7836C21.6061 74.3209 20.9325 71.9943 22.1676 70.8141C22.3376 70.6514 22.0658 70.4049 21.8946 70.5676L21.8958 70.5688Z" fill="white"/>
<path d="M26.2746 83.8134C26.7525 84.2448 27.4505 84.2076 28.0661 84.3273C28.3083 84.3738 28.4113 84.039 28.1692 83.9913C27.6385 83.889 26.9572 83.9378 26.5477 83.5669C26.3725 83.4076 26.0995 83.6541 26.2746 83.8134Z" fill="white"/>
<path d="M27.9181 83.9424C27.4389 83.7204 27.1002 83.568 26.5696 83.6378C26.3764 83.6634 26.3945 83.9355 26.5696 83.9738C27.2599 84.1203 27.9515 84.2517 28.6277 84.4459C28.8672 84.5145 28.96 84.1866 28.7307 84.1099C28.1499 83.9192 27.6257 83.818 27.0088 83.8436C26.8414 83.8506 26.7525 84.0285 26.8723 84.1401C27.3449 84.5831 27.9567 84.6564 28.6161 84.6854C28.5994 84.5715 28.5813 84.4575 28.5646 84.3436C28.0262 84.4122 27.5961 84.3226 27.1157 84.5598C26.9766 84.6284 27.0075 84.7854 27.1157 84.8598C27.6064 85.1982 28.1666 85.1796 28.7591 85.2517C28.7758 85.1377 28.7938 85.0238 28.8106 84.9098C28.4577 84.9238 28.1061 84.9238 27.7519 84.9273C27.6193 84.9284 27.4943 85.0796 27.5858 85.1889C27.967 85.6481 28.5015 85.7772 29.0875 85.9563C29.1042 85.8423 29.1222 85.7284 29.139 85.6144C28.7281 85.6598 28.3225 85.6633 27.909 85.6819C27.7403 85.6888 27.6553 85.8656 27.7725 85.9784C28.1061 86.3004 28.5028 86.3621 28.9638 86.4748C28.9806 86.3609 28.9986 86.2469 29.0153 86.133C28.6509 86.126 28.2941 86.126 27.9309 86.1493C27.7802 86.1586 27.654 86.3411 27.7944 86.4458C28.1628 86.7213 28.5105 86.8411 28.9728 86.9574C28.9896 86.8434 29.0076 86.7295 29.0244 86.6155C28.562 86.6632 28.2658 86.626 27.9155 86.9132C27.8382 86.9771 27.8434 87.0946 27.9155 87.1597C28.2619 87.4725 28.5929 87.5224 29.072 87.5934C29.0888 87.4794 29.1068 87.3655 29.1235 87.2515C28.7063 87.2678 28.5015 87.3155 28.2117 87.5806C28.155 87.6329 28.1318 87.7282 28.1821 87.791C28.4822 88.1678 28.8054 88.3398 29.2652 88.548V88.248C28.8428 88.4177 28.5259 88.4061 28.2503 88.7491C28.1769 88.841 28.2529 88.9782 28.365 89.0049C28.7024 89.084 28.9716 89.0979 29.3244 89.077C29.5408 89.0642 29.5872 88.7968 29.376 88.7352C28.9407 88.6073 29.0463 88.6282 28.5891 88.6049V88.9526C28.9677 88.9631 29.2768 88.9526 29.6413 88.8759C29.7765 88.8468 29.8357 88.6701 29.7263 88.5852C29.2987 88.2538 28.8363 88.1399 28.3006 87.991V88.327C28.4332 88.291 28.5659 88.255 28.6985 88.2189C28.835 88.1817 28.8891 88.0224 28.7835 87.9282C28.3881 87.5771 27.8678 87.3841 27.5111 86.9969C27.4982 87.0876 27.4853 87.1794 27.4724 87.2701C27.6759 87.1132 27.909 87.0004 28.1705 86.9329C28.2864 86.8923 28.3508 86.783 28.2851 86.6771C27.985 86.1935 27.5832 85.7923 27.2058 85.3575C27.1427 85.454 27.0809 85.5516 27.0178 85.6481C27.1595 85.6598 27.2947 85.6947 27.4222 85.7528C27.6193 85.8191 27.7236 85.5819 27.6102 85.4621C27.3977 85.2377 27.1839 85.0761 26.9186 84.9098C26.8697 85.0156 26.8195 85.1214 26.7705 85.2272C27.2393 85.3807 27.6772 85.4703 28.1718 85.4912C28.383 85.5005 28.4075 85.2621 28.2684 85.1668C27.9 84.9145 27.5124 84.7319 27.0976 84.5482C27.0655 84.6563 27.0333 84.7645 26.9998 84.8726C28.2194 84.8796 29.3708 85.161 30.5364 85.4563C30.7618 85.5133 30.8493 85.2505 30.6845 85.1389C30.1732 84.7889 29.6013 84.5901 29.0257 84.3436C28.9767 84.4494 28.9265 84.5552 28.8775 84.661C29.792 84.7947 30.6974 84.954 31.5963 85.1586C31.6131 85.0447 31.6311 84.9307 31.6478 84.8168C30.8365 84.868 30.1114 84.6749 29.3708 84.4029V84.7389C30.3084 84.5447 31.1971 85.0028 32.0857 85.2075C32.1025 85.0935 32.1205 84.9796 32.1372 84.8656C31.4237 84.7889 30.7643 84.6505 30.0534 84.7889C29.8963 84.8191 29.8576 85.0424 30.007 85.1063C30.7553 85.4272 31.5178 85.3365 32.3214 85.4516C32.3382 85.3377 32.3562 85.2238 32.3729 85.1098C31.2705 85.1459 30.1758 85.0935 29.0823 85.2517C28.8569 85.2842 28.9278 85.583 29.1338 85.5935C30.2414 85.6493 31.3271 85.3156 32.4283 85.5261V85.19C31.3941 85.4377 30.329 85.3563 29.2755 85.4749C29.0746 85.497 28.9947 85.7679 29.224 85.8167C30.1023 86.0051 30.9962 86.0016 31.8887 86.0923C31.8719 85.9784 31.8539 85.8644 31.8372 85.7505C30.848 85.8842 29.8705 85.8807 28.9226 86.1923C28.7178 86.2597 28.7513 86.5225 28.9741 86.5341C29.9298 86.5818 30.8545 86.5516 31.7947 86.3876C32.0059 86.3504 31.9595 86.0214 31.7431 86.0458C30.8506 86.147 30.0161 86.3597 29.1918 86.6841C29.0128 86.7551 29.1068 87.0143 29.2897 87.0085C30.0161 86.9829 30.7077 86.833 31.4263 86.7458C31.4096 86.6318 31.3915 86.5179 31.3748 86.4039C30.5673 86.5376 29.7417 86.6039 29.0411 87.0213C28.8943 87.1085 28.9342 87.3608 29.139 87.3457C30.0096 87.2783 30.8648 87.126 31.7328 87.0306C31.7161 86.9167 31.6981 86.8027 31.6813 86.6888C30.9073 86.9516 30.0998 87.0818 29.3051 87.2783C29.1325 87.3213 29.1107 87.5841 29.3051 87.6143C30.2839 87.7643 31.2589 87.4794 32.2287 87.6817C32.2132 87.5759 32.1978 87.4701 32.1823 87.3643C31.295 87.7713 30.2788 87.6759 29.3283 87.8701C29.1145 87.9143 29.1635 88.2143 29.3798 88.2119C30.2633 88.2003 31.1314 88.0585 32.0162 88.091C31.984 87.9829 31.9518 87.8748 31.9183 87.7666C30.9446 88.1817 29.8448 88.1154 28.8556 88.4898C28.6947 88.5503 28.6509 88.7805 28.8556 88.8259C29.9208 89.0572 30.9202 88.6654 31.9904 88.7026C31.9582 88.5945 31.926 88.4863 31.8925 88.3782C31.094 88.7468 30.1989 88.7654 29.3554 89.0038C29.1892 89.0503 29.1544 89.313 29.3554 89.3398C30.6922 89.5165 31.9788 89.2561 33.308 89.1433C33.2912 89.0293 33.2732 88.9154 33.2564 88.8014C32.5584 88.8968 31.8629 89.0096 31.1636 89.1014C30.9781 89.1258 30.9807 89.4095 31.1636 89.4374C32.1836 89.5874 33.1985 89.5002 34.2262 89.4956C34.4812 89.4956 34.4658 89.1735 34.2262 89.1479C33.6827 89.0898 33.1431 89.0119 32.6009 88.9433C32.5842 89.0572 32.5661 89.1712 32.5494 89.2851C33.5707 89.2968 34.592 89.2909 35.6133 89.2898C35.8619 89.2898 35.8619 88.9456 35.6133 88.9421C34.8071 88.9305 34.0446 88.8991 33.2603 89.084C33.0723 89.1282 33.08 89.3712 33.2603 89.42C34.243 89.6805 35.2527 89.6026 36.2624 89.5444C36.4659 89.5328 36.5406 89.2316 36.3139 89.2026C35.0775 89.0433 33.8244 89.0828 32.5919 88.8898C32.6073 88.9956 32.6228 89.1014 32.6382 89.2072C33.6621 88.8131 34.7826 88.8584 35.8632 88.691C36.086 88.6561 36.019 88.3573 35.8117 88.3491C34.3795 88.2933 32.7104 88.6968 31.3928 88.0422C31.3774 88.148 31.3619 88.2538 31.3465 88.3596C32.816 88.062 34.3293 88.2526 35.7975 87.9399C35.9765 87.9015 35.9881 87.6352 35.7975 87.6038C34.4877 87.3887 33.1753 87.4259 31.8513 87.4771C31.8681 87.591 31.8861 87.705 31.9028 87.8189C33.1045 87.612 34.5675 86.9946 35.7833 87.3248C35.7679 87.219 35.7524 87.1132 35.737 87.0074C34.6152 87.4725 33.3517 87.3957 32.2429 87.8968C32.0638 87.9771 32.1591 88.2166 32.3407 88.2212C33.1225 88.2398 33.8437 88.0387 34.6165 87.9457C34.6422 88.1189 34.6667 88.2922 34.6925 88.4666C34.4903 88.5863 34.2713 88.6759 34.0369 88.7352C33.7136 88.834 33.3788 88.8386 33.0633 88.7305C33.0916 88.827 33.1199 88.9247 33.1483 89.0212C34.0305 88.3375 35.187 88.0945 36.0911 87.4399C36.2315 87.3387 36.1066 87.1481 35.9546 87.1434C34.4336 87.0911 32.9473 87.4434 31.4263 87.3841C31.4585 87.4922 31.4907 87.6004 31.5242 87.7085C32.7297 87.2283 34.0691 87.3306 35.3055 86.9516C35.5219 86.8853 35.4652 86.633 35.254 86.6097C34.2456 86.4993 33.259 86.5504 32.2506 86.6423C32.2673 86.7562 32.2854 86.8702 32.3021 86.9841C33.6132 86.7667 34.923 86.5493 36.2238 86.2865C36.4711 86.2365 36.3603 85.9191 36.1208 85.9504C34.9642 86.1051 33.8051 86.183 32.6795 86.4818C32.4566 86.5411 32.5249 86.8004 32.731 86.8237C33.8875 86.9527 35.0054 86.5597 36.1349 86.3958C36.3526 86.3644 36.2972 86.0493 36.0834 86.0539C34.6023 86.0888 33.1521 86.4004 31.6697 86.3981C31.7019 86.5062 31.7341 86.6144 31.7676 86.7225C32.8842 86.1935 34.194 86.2446 35.4137 86.076C35.6391 86.0446 35.5682 85.7447 35.3622 85.7342C33.9352 85.6609 32.5082 85.6481 31.0799 85.6656V86.0132C32.5906 85.9691 34.1 85.9632 35.5979 85.7621C35.8129 85.733 35.7614 85.4051 35.5463 85.4203C34.0962 85.5191 32.5713 85.826 31.1533 85.4028C31.1687 85.5086 31.1842 85.6144 31.1996 85.7202C31.9672 85.2784 32.8984 85.4679 33.6299 84.9389C33.7587 84.8459 33.6544 84.6284 33.4934 84.6424C33.3827 84.6517 33.2706 84.661 33.1598 84.6715C32.9551 84.6889 32.8829 84.9656 33.1083 85.0133C34.0369 85.211 34.9603 85.1528 35.907 85.1377C36.1555 85.1342 36.1555 84.7912 35.907 84.7901C34.9333 84.7842 33.9712 84.7598 33.004 84.8784C32.8186 84.9017 32.8198 85.19 33.004 85.2145C35.1625 85.4912 37.3404 85.1819 39.4977 85.4505C39.5144 85.3365 39.5324 85.2226 39.5492 85.1086C38.5317 85.1796 37.5156 85.19 36.4955 85.1935C36.247 85.1935 36.247 85.54 36.4955 85.5412C37.7294 85.5482 38.9567 85.4226 40.1906 85.4912C40.1584 85.383 40.1262 85.2749 40.0927 85.1668C39.0198 85.6679 37.7834 85.6481 36.681 86.0784C36.5342 86.1353 36.5664 86.376 36.7274 86.3958C37.75 86.5237 38.7365 86.433 39.7359 86.2109C39.9549 86.1621 39.8956 85.8784 39.6844 85.8691C38.4879 85.8144 37.3172 86.0307 36.1259 86.0807C36.1581 86.1888 36.1903 86.2969 36.2238 86.4051C36.5754 86.2097 36.8343 86.0377 37.1021 85.7609C37.1781 85.683 37.182 85.5388 37.0635 85.4877C36.5303 85.2586 36.0499 85.3051 35.4974 85.4761C35.3467 85.5226 35.2965 85.7167 35.451 85.7935C36.7402 86.4341 38.2316 86.1132 39.6303 86.2853C39.6471 86.1714 39.6651 86.0574 39.6818 85.9435C38.542 86.0679 37.3932 86.0795 36.2611 86.2574C36.0383 86.2923 36.1053 86.5911 36.3127 86.5992C37.3971 86.6423 38.4583 86.4097 39.5402 86.5307C39.508 86.4225 39.4758 86.3144 39.4436 86.2062C38.4506 86.7155 37.2799 86.7202 36.2212 87.0678C36.0216 87.1329 36.0461 87.4073 36.2727 87.4097C37.4203 87.419 38.551 87.2236 39.6999 87.2632C39.6677 87.155 39.6355 87.0469 39.602 86.9388C38.4609 87.405 37.1897 87.412 36.0254 87.8155C35.8657 87.8713 35.8194 88.1166 36.0254 88.1515C37.1112 88.334 38.1737 88.2003 39.2568 88.0643C39.222 87.9527 39.1886 87.841 39.1538 87.7283C38.1144 87.8957 37.0352 88.0131 36.1105 88.5026C35.9739 88.5747 35.9881 88.7898 36.1568 88.82C37.2 89.0096 38.1698 88.6666 39.2169 88.7026C39.2001 88.5887 39.1821 88.4747 39.1654 88.3608C38.336 88.6131 37.4859 88.7491 36.7699 89.2258C36.6424 89.3107 36.6411 89.5026 36.8162 89.5433C37.6547 89.7409 38.4828 89.5712 39.3354 89.5595C39.3186 89.4456 39.3006 89.3316 39.2839 89.2177C38.1531 89.6212 36.9308 89.5898 35.7666 89.8781C35.5605 89.9293 35.5966 90.2327 35.8181 90.22C36.4221 90.1839 37.0017 90.1025 37.5954 89.999C37.8259 89.9583 37.7422 89.6781 37.5439 89.6572C36.7312 89.5735 35.925 89.6026 35.1085 89.6095C34.8599 89.6119 34.8599 89.9549 35.1085 89.9572C36.9734 89.9769 38.8292 90.1537 40.6787 89.8595C40.8976 89.8246 40.8397 89.5177 40.6272 89.5177C40.1506 89.5177 39.7359 89.5944 39.2826 89.7374C39.1216 89.7886 39.0778 90.0444 39.2826 90.0735C40.264 90.2083 41.2119 90.0804 42.1855 89.9583C42.1508 89.8467 42.1173 89.7351 42.0825 89.6223C41.15 89.7816 40.2137 89.8421 39.2697 89.899C39.0237 89.9142 39.0186 90.2432 39.2697 90.2467C40.3876 90.2618 41.4849 89.9921 42.5101 89.606C42.7136 89.5293 42.6814 89.2863 42.4586 89.2642C41.1604 89.134 39.8763 89.1619 38.5781 89.2793C38.336 89.3014 38.3244 89.6281 38.5781 89.627C40.0231 89.6188 41.4707 89.4491 42.8372 89.0142C43.0381 88.9503 43.0111 88.6747 42.7857 88.6724C41.4617 88.6631 40.1687 88.7666 38.8885 89.0782C38.6476 89.1363 38.7494 89.463 38.9915 89.4142C40.5615 89.0944 42.1662 88.9026 43.6666 88.3538C43.8946 88.2701 43.8122 87.9771 43.5636 88.0178C42.286 88.2305 41.0019 88.3701 39.7076 88.4596C39.7398 88.5677 39.772 88.6759 39.8055 88.784C40.962 88.2654 42.2486 88.1154 43.4412 87.6817C43.6254 87.6143 43.6241 87.319 43.3897 87.3399C42.2074 87.4469 41.1178 87.8387 39.978 88.1143C40.027 88.2201 40.0772 88.3259 40.1262 88.4317C41.1526 87.8899 42.2654 87.562 43.382 87.2074C43.3472 87.0957 43.3137 86.9841 43.279 86.8713C42.1134 87.276 40.4262 88.0015 39.1718 87.6457C39.1873 87.7515 39.2027 87.8573 39.2182 87.9631C40.2846 87.2887 41.5557 87.0806 42.7857 86.7667C42.7509 86.6551 42.7174 86.5434 42.6827 86.4307C41.3986 86.8132 40.0952 87.1143 38.7648 87.3341C38.8279 87.4306 38.8898 87.5283 38.9529 87.6248C40.0373 86.7655 41.6227 86.5946 42.9544 86.2051C43.1901 86.1365 43.0948 85.8179 42.8514 85.8691C41.5184 86.1539 40.1996 86.4551 38.9232 86.9109C38.694 86.9934 38.779 87.2876 39.0263 87.2469C40.5718 86.9864 42.0683 86.5574 43.5842 86.1876C43.789 86.1377 43.7542 85.8249 43.5327 85.8458C42.4122 85.9539 41.3497 86.3121 40.2215 86.3737C40.2382 86.4876 40.2562 86.6016 40.273 86.7155C41.4282 86.3109 42.6891 86.3225 43.8173 85.8446C43.9706 85.7795 43.9255 85.5598 43.7709 85.5272C42.3993 85.2284 41.0663 85.6005 39.7089 85.7912C39.7436 85.9028 39.7771 86.0144 39.8119 86.1272C41.0895 85.8516 42.3748 85.6086 43.6357 85.2714C43.8766 85.2075 43.7748 84.8947 43.5327 84.9354C42.0838 85.1819 40.6465 85.4749 39.186 85.6574C39.2208 85.7691 39.2542 85.8807 39.289 85.9935C40.0077 85.7772 40.7237 85.6109 41.4746 85.5156C41.4257 85.4098 41.3754 85.304 41.3265 85.1982C41.2698 85.2238 41.2132 85.2493 41.1565 85.2749C40.9337 85.3749 41.1294 85.6749 41.351 85.5749C41.4076 85.5493 41.4643 85.5237 41.521 85.4982C41.7348 85.4028 41.5699 85.1552 41.3729 85.1807C40.622 85.2761 39.9059 85.4423 39.1873 85.6586C38.9451 85.7319 39.0495 86.0237 39.2903 85.9946C40.7508 85.8121 42.1894 85.5202 43.637 85.2726C43.6022 85.161 43.5687 85.0493 43.534 84.9366C42.2731 85.2738 40.9878 85.5168 39.7102 85.7923C39.4642 85.8458 39.5736 86.1621 39.8132 86.1283C41.096 85.9481 42.3736 85.5819 43.6705 85.8644C43.655 85.7586 43.6396 85.6528 43.6241 85.547C42.5268 86.0109 41.2943 85.99 40.1712 86.383C39.9819 86.4493 39.9896 86.7376 40.2227 86.7248C41.3522 86.662 42.4122 86.3039 43.534 86.197C43.5172 86.083 43.4992 85.9691 43.4825 85.8551C41.9666 86.2249 40.47 86.6539 38.9245 86.9143C38.9593 87.026 38.9928 87.1376 39.0276 87.2504C40.3026 86.7946 41.6227 86.4923 42.9557 86.2086C42.9209 86.097 42.8874 85.9853 42.8527 85.8725C41.4463 86.283 39.8274 86.4725 38.6811 87.3818C38.5227 87.5073 38.6953 87.7015 38.8692 87.6724C40.1996 87.4527 41.5029 87.1515 42.787 86.769C43.0214 86.6992 42.9248 86.3725 42.6839 86.433C41.4218 86.7551 40.1171 86.9736 39.025 87.6643C38.8898 87.7503 38.9039 87.9352 39.0714 87.9817C40.425 88.3654 42.1404 87.6387 43.3833 87.2074C43.6112 87.1283 43.5172 86.7969 43.2802 86.8713C42.1314 87.2364 40.9891 87.5748 39.933 88.1317C39.7436 88.2317 39.8699 88.5003 40.0811 88.4491C41.1848 88.1817 42.2448 87.7899 43.391 87.6876C43.3743 87.5736 43.3562 87.4597 43.3395 87.3457C42.116 87.791 40.7984 87.9515 39.6123 88.4829C39.4436 88.5584 39.5195 88.82 39.7102 88.8073C41.0406 88.7166 42.3568 88.5724 43.6692 88.3538C43.6344 88.2422 43.6009 88.1306 43.5662 88.0178C42.0657 88.5666 40.461 88.7584 38.8911 89.0782C38.9258 89.1898 38.9593 89.3014 38.9941 89.4142C40.2408 89.1107 41.5016 89.0107 42.7883 89.0212C42.7715 88.9072 42.7535 88.7933 42.7367 88.6794C41.4012 89.1049 39.9935 89.2712 38.5807 89.2793V89.627C39.8789 89.5095 41.1629 89.4816 42.4611 89.6119C42.4444 89.4979 42.4264 89.384 42.4096 89.27C41.4166 89.6444 40.3554 89.913 39.2723 89.899V90.2467C40.2511 90.1862 41.2222 90.1211 42.1881 89.9572C42.4367 89.9153 42.3246 89.5921 42.0851 89.6212C41.1758 89.7351 40.3026 89.8618 39.3869 89.7363V90.0723C39.8183 89.9351 40.1558 89.8642 40.6284 89.8653C40.6117 89.7514 40.5937 89.6374 40.5769 89.5235C38.7635 89.8118 36.9373 89.6281 35.1097 89.6095V89.9572C35.9263 89.9502 36.7325 89.92 37.5452 90.0049C37.5284 89.8909 37.5104 89.777 37.4937 89.663C36.9373 89.7595 36.3835 89.8374 35.8181 89.8723C35.8348 89.9863 35.8529 90.1002 35.8696 90.2141C37.0365 89.9246 38.2522 89.9583 39.3869 89.5537C39.5788 89.4851 39.5672 89.2084 39.3354 89.2119C38.5214 89.2235 37.7229 89.3979 36.9193 89.2084C36.9347 89.3142 36.9502 89.42 36.9656 89.5258C37.6508 89.0689 38.4763 88.9363 39.2697 88.6956C39.4758 88.6328 39.4397 88.3619 39.2182 88.3538C38.22 88.3189 37.2567 88.6642 36.2611 88.484C36.2766 88.5898 36.292 88.6956 36.3075 88.8014C37.2 88.3294 38.2574 88.2236 39.2594 88.062C39.5067 88.0224 39.3972 87.6969 39.1564 87.7259C38.1415 87.8538 37.1498 87.984 36.1298 87.8131V88.1492C37.325 87.7352 38.6245 87.7155 39.7977 87.2364C39.9832 87.1608 39.8763 86.9178 39.6999 86.912C38.551 86.8725 37.4203 87.0667 36.2727 87.0585C36.2895 87.1725 36.3075 87.2864 36.3242 87.4004C37.4164 87.0422 38.6141 87.0283 39.6393 86.5039C39.8222 86.4109 39.7192 86.1993 39.5414 86.1795C38.4596 86.0586 37.3971 86.2911 36.3139 86.2493C36.3307 86.3632 36.3487 86.4772 36.3655 86.5911C37.464 86.419 38.5781 86.4097 39.6844 86.29C39.8789 86.269 39.9703 85.9772 39.7359 85.9481C38.3926 85.783 36.8806 86.1039 35.6481 85.4912C35.6326 85.597 35.6172 85.7028 35.6017 85.8086C36.0023 85.6481 36.426 85.64 36.8716 85.7853L36.833 85.5121C36.6089 85.7598 36.3423 85.9563 36.0319 86.1016C35.8748 86.1888 35.9314 86.4341 36.1298 86.426C37.3224 86.376 38.4918 86.1597 39.6883 86.2144C39.6715 86.1004 39.6535 85.9865 39.6368 85.8725C38.7095 86.0784 37.7847 86.176 36.833 86.0574C36.8484 86.1632 36.8639 86.269 36.8793 86.3748C37.9844 85.9435 39.213 85.9667 40.291 85.4633C40.4726 85.3784 40.3734 85.1493 40.1931 85.1389C38.9593 85.0703 37.7319 85.1947 36.4981 85.1889V85.5365C37.5181 85.533 38.5343 85.5226 39.5517 85.4516C39.754 85.4377 39.8312 85.1389 39.6033 85.1098C37.4447 84.8401 35.2656 85.1505 33.1096 84.8738V85.2098C34.0434 85.0947 34.9719 85.1284 35.9108 85.1342V84.7866C34.999 84.8005 34.1129 84.8656 33.2139 84.6738C33.1972 84.7877 33.1792 84.9017 33.1624 85.0156C33.2732 85.0063 33.3852 84.997 33.496 84.9866C33.4509 84.8877 33.4045 84.7889 33.3595 84.6901C32.6692 85.1889 31.7367 84.9982 31.0065 85.4179C30.8622 85.5005 30.8931 85.6877 31.0528 85.7353C32.5095 86.1702 34.0575 85.8667 35.5489 85.7656C35.5322 85.6516 35.5141 85.5377 35.4974 85.4237C34.0343 85.6202 32.5571 85.6191 31.0812 85.6621C30.8339 85.6691 30.8326 86.0132 31.0812 86.0097C32.5095 85.9923 33.9365 86.0051 35.3635 86.0784C35.3467 85.9644 35.3287 85.8505 35.3119 85.7365C34.0537 85.9109 32.7271 85.8714 31.5744 86.4179C31.4006 86.5004 31.4856 86.7411 31.6723 86.7423C33.156 86.7458 34.6049 86.433 36.086 86.3981C36.0692 86.2842 36.0512 86.1702 36.0345 86.0563C34.9397 86.2156 33.8527 86.5969 32.7335 86.4725C32.7503 86.5865 32.7683 86.7004 32.7851 86.8144C33.9094 86.5167 35.0724 86.4376 36.2264 86.283C36.1916 86.1714 36.1581 86.0597 36.1233 85.947C34.8225 86.2086 33.5127 86.4272 32.2016 86.6446C31.9891 86.6795 32.0368 87.0062 32.2532 86.9864C33.2603 86.8957 34.2481 86.8434 35.2566 86.9539C35.2398 86.8399 35.2218 86.726 35.205 86.612C33.9339 87.0015 32.5713 86.9097 31.331 87.4038C31.143 87.4783 31.2537 87.7213 31.4289 87.7283C32.9499 87.7875 34.4362 87.4352 35.9572 87.4876L35.8207 87.1911C34.9166 87.8468 33.7626 88.0875 32.8778 88.7724C32.758 88.8654 32.8392 89.0212 32.9628 89.0631C33.9429 89.3956 35.4549 88.8084 35.5644 87.8073C35.5721 87.7387 35.5013 87.6492 35.4227 87.6399C34.364 87.5073 33.3981 87.8945 32.3433 87.8701C32.3755 87.9782 32.4077 88.0864 32.4412 88.1945C33.5475 87.6957 34.8148 87.7701 35.9353 87.305C36.095 87.2387 36.0358 87.0271 35.8889 86.9876C34.583 86.633 33.08 87.262 31.8037 87.4818C31.5886 87.519 31.6401 87.8317 31.8552 87.8236C33.1431 87.7748 34.4233 87.7294 35.6983 87.9387V87.6027C34.2327 87.9154 32.7168 87.7248 31.2473 88.0224C31.085 88.055 31.0593 88.2689 31.2009 88.3398C32.6009 89.0351 34.2945 88.6352 35.8142 88.6933C35.7975 88.5794 35.7795 88.4654 35.7627 88.3515C34.6358 88.527 33.5127 88.4922 32.4463 88.9038C32.2957 88.9619 32.3356 89.1968 32.4927 89.2212C33.7252 89.4142 34.9771 89.3747 36.2148 89.5339C36.2315 89.42 36.2495 89.3061 36.2663 89.1921C35.2926 89.2479 34.3164 89.3316 33.3659 89.0793V89.4154C34.1129 89.2386 34.8534 89.2747 35.6172 89.2851V88.9375C34.5959 88.9386 33.5746 88.9445 32.5532 88.9328C32.3407 88.9305 32.2828 89.2468 32.5017 89.2747C33.0774 89.3468 33.6518 89.4293 34.2301 89.4909V89.1433C33.2397 89.1468 32.2544 89.2421 31.2705 89.0968V89.4328C31.9698 89.3398 32.6653 89.227 33.3633 89.1328C33.5771 89.1037 33.5282 88.7724 33.3118 88.791C32.0252 88.9003 30.7566 89.1712 29.461 89.0003V89.3363C30.3393 89.0875 31.2615 89.0584 32.0909 88.6747C32.2699 88.5922 32.1746 88.3573 31.993 88.3503C30.9678 88.3143 29.9787 88.7073 28.9613 88.4863V88.8224C29.9813 88.4363 31.1108 88.4933 32.1154 88.0643C32.2995 87.9864 32.1952 87.7469 32.0175 87.7399C31.1327 87.7073 30.2646 87.8492 29.3811 87.8608C29.3979 87.9747 29.4159 88.0887 29.4326 88.2026C30.4295 87.998 31.4482 88.0887 32.3794 87.662C32.5275 87.5945 32.4914 87.3771 32.333 87.3446C31.3581 87.1411 30.3921 87.4271 29.4095 87.2771V87.6131C30.2054 87.4166 31.0116 87.2853 31.7856 87.0236C31.9737 86.9597 31.9647 86.6562 31.7341 86.6818C30.8674 86.7771 30.0109 86.9295 29.1403 86.9969C29.1725 87.105 29.2047 87.2132 29.2382 87.3213C29.9066 86.9236 30.7102 86.8667 31.4791 86.7388C31.6916 86.7039 31.6427 86.3714 31.4276 86.3969C30.7128 86.483 30.0148 86.6341 29.291 86.6597C29.3232 86.7678 29.3554 86.876 29.3888 86.9841C30.1526 86.683 30.9176 86.4865 31.7457 86.3923C31.729 86.2783 31.7109 86.1644 31.6942 86.0504C30.7862 86.2086 29.8963 86.2295 28.9767 86.1842C28.9935 86.2981 29.0115 86.4121 29.0282 86.526C29.9684 86.2167 30.9627 86.2179 31.9428 86.0842C32.1759 86.0528 32.0883 85.7621 31.8913 85.7423C31.0335 85.6551 30.1719 85.6586 29.3283 85.4784C29.3116 85.5923 29.2935 85.7063 29.2768 85.8202C30.3664 85.697 31.4624 85.7784 32.5313 85.5226C32.7091 85.4795 32.722 85.2238 32.5313 85.1865C31.3941 84.9703 30.2801 85.2993 29.1351 85.2424C29.1519 85.3563 29.1699 85.4703 29.1866 85.5842C30.2453 85.4319 31.3078 85.49 32.3742 85.4551C32.5816 85.4482 32.6485 85.1459 32.4257 85.1133C31.6852 85.0075 30.9021 85.1028 30.2028 84.8028C30.1873 84.9087 30.1719 85.0145 30.1564 85.1203C30.8223 84.99 31.4765 85.1377 32.1372 85.2086C32.3562 85.2319 32.3948 84.9145 32.1888 84.8668C31.2099 84.6401 30.2981 84.1843 29.2691 84.3982C29.0643 84.4412 29.1081 84.675 29.2691 84.7343C30.0431 85.0191 30.8094 85.2145 31.6478 85.161C31.8565 85.1482 31.9196 84.8691 31.6994 84.8191C30.8004 84.6157 29.895 84.4552 28.9806 84.3215C28.7822 84.2924 28.6187 84.5482 28.8325 84.6389C29.4082 84.8854 29.98 85.0842 30.4913 85.4342C30.5402 85.3284 30.5905 85.2226 30.6394 85.1168C29.4378 84.8133 28.2555 84.5284 26.9998 84.5215C26.8156 84.5215 26.7254 84.768 26.9019 84.8459C27.3166 85.0296 27.7043 85.2121 28.0726 85.4644C28.1048 85.3563 28.137 85.2482 28.1705 85.14C27.6836 85.1203 27.3166 85.0354 26.871 84.8889C26.6533 84.8168 26.5542 85.1005 26.7229 85.2063C26.965 85.3365 27.1698 85.5028 27.3372 85.7051C27.4003 85.6086 27.4621 85.5109 27.5252 85.4144C27.3977 85.3563 27.2625 85.3214 27.1208 85.3098C26.9225 85.2796 26.8117 85.461 26.9328 85.6005C27.2883 86.0098 27.6682 86.3946 27.9515 86.8504C27.9902 86.7655 28.0288 86.6795 28.0662 86.5946C27.7764 86.6969 27.5291 86.7981 27.2754 86.9667C27.1698 87.0364 27.1517 87.1481 27.2367 87.2399C27.6012 87.6352 28.1074 87.8143 28.5092 88.1712C28.5375 88.0747 28.5659 87.9771 28.5942 87.8806C28.4615 87.9166 28.3289 87.9527 28.1962 87.9887C28.0121 88.0387 28.0134 88.2736 28.1962 88.3247C28.647 88.4503 29.072 88.534 29.452 88.8293C29.4803 88.7328 29.5086 88.6352 29.537 88.5387C29.2227 88.6084 28.9059 88.6294 28.5865 88.6038C28.3366 88.5968 28.3405 88.9398 28.5865 88.9514C28.8144 88.991 29.0424 89.0293 29.2704 89.0689C29.2871 88.9549 29.3051 88.841 29.3219 88.727C29.0334 88.7654 28.7475 88.7456 28.4641 88.6677C28.5028 88.7526 28.5414 88.8386 28.5787 88.9235C28.7449 88.7166 29.1944 88.6514 29.4545 88.5468C29.5846 88.4945 29.5756 88.3015 29.4545 88.2468C29.0978 88.1794 28.9857 87.9631 29.1184 87.598C29.3257 87.5899 29.3927 87.2899 29.1699 87.2562C28.9046 87.2167 28.4615 87.0202 29.0192 86.962C29.2253 86.9411 29.2935 86.676 29.0707 86.6202C28.7037 86.5493 28.3675 86.4086 28.0623 86.1981C28.0172 86.2969 27.9709 86.3958 27.9258 86.4946C28.2903 86.4714 28.6457 86.4714 29.0102 86.4783C29.2291 86.4818 29.2704 86.1876 29.0617 86.1365C28.6947 86.047 28.3237 86.0039 28.0404 85.7295C27.9953 85.8284 27.949 85.9272 27.9039 86.026C28.3173 86.0074 28.7217 86.0039 29.1338 85.9586C29.3451 85.9353 29.4017 85.683 29.1854 85.6168C28.7204 85.4749 28.2246 85.3842 27.9129 85.0087C27.8575 85.0959 27.8021 85.1831 27.7468 85.2703C28.0996 85.2668 28.4525 85.2668 28.8054 85.2528C29.0115 85.2447 29.081 84.9389 28.8569 84.911C28.3173 84.8447 27.7622 84.868 27.305 84.554V84.854C27.6721 84.6738 28.24 84.7261 28.6625 84.6726C28.8866 84.6436 28.817 84.3401 28.6109 84.3308C28.0674 84.3064 27.5536 84.275 27.1402 83.8878C27.0951 83.9866 27.0487 84.0855 27.0036 84.1843C27.5793 84.1599 28.0868 84.2622 28.6225 84.4389C28.6573 84.3273 28.6908 84.2157 28.7256 84.1029C28.0481 83.9087 27.3578 83.7785 26.6675 83.6308V83.9669C27.0513 83.9703 27.4016 84.0599 27.7184 84.2366C27.9387 84.3389 28.1344 84.0389 27.9129 83.9366L27.9181 83.9424Z" fill="white"/>
<path d="M43.9024 86.1365C45.1272 85.8598 46.3739 85.8005 47.6296 85.7249C47.8331 85.7121 47.9078 85.4156 47.6811 85.3831C45.8394 85.1238 44.0093 85.3656 42.1766 85.5749C42.1933 85.6889 42.2113 85.8028 42.2281 85.9168C44.1728 85.5319 46.1201 85.0854 48.1267 85.2191C48.11 85.1052 48.0919 84.9912 48.0752 84.8773C46.5928 85.3063 45.0486 85.5214 43.5843 86.0051C43.3846 86.0714 43.4091 86.3446 43.6358 86.347C45.0795 86.3633 46.4795 86.0516 47.855 85.6842C48.0559 85.6307 48.0263 85.3156 47.8035 85.3424C46.1073 85.5459 44.3609 85.7145 42.8167 86.4237C42.6763 86.4877 42.6969 86.719 42.863 86.7411C44.3789 86.9481 45.8484 86.5632 47.363 86.5435C47.3462 86.4295 47.3282 86.3156 47.3115 86.2016C45.9373 86.6946 44.451 86.8028 43.0691 87.276C42.8759 87.3423 42.8901 87.6213 43.1206 87.6178C44.5605 87.5934 45.9038 87.0109 47.3488 87.0865C47.3166 86.9783 47.2844 86.8702 47.2509 86.7621C46.0532 87.5574 44.4639 87.5946 43.346 88.5154C43.2468 88.5968 43.2867 88.7875 43.431 88.8061C44.6313 88.9654 45.7531 88.5887 46.8903 88.2852C46.8555 88.1736 46.8221 88.062 46.7873 87.9492C45.4466 88.4503 44.0646 88.8178 42.6595 89.1375C42.4161 89.1933 42.5217 89.5131 42.7626 89.4735C43.7156 89.3154 44.6494 89.1328 45.5638 88.8398C45.7956 88.7654 45.7054 88.4503 45.4607 88.5038C44.1664 88.7887 42.7832 88.8736 41.6202 89.5038C41.4553 89.5933 41.5249 89.8258 41.7181 89.8282C42.9223 89.8386 44.0634 89.5189 45.2521 89.391C45.2354 89.277 45.2173 89.1631 45.2006 89.0491C44.3158 89.1921 43.4426 89.2619 42.6093 89.5828C42.4599 89.6398 42.4973 89.8781 42.6557 89.9002C44.1393 90.1107 45.5792 89.7247 47.0526 89.6177C47.2973 89.6003 47.3037 89.2631 47.0526 89.2701C46.258 89.2898 45.4672 89.3468 44.6713 89.3433C44.4227 89.3421 44.4227 89.6886 44.6713 89.691C45.7492 89.7026 46.7976 89.6177 47.855 89.4328C47.8202 89.3212 47.7867 89.2096 47.7519 89.0968C46.5632 89.3759 45.3551 89.5735 44.178 89.8956C44.0118 89.9409 43.9771 90.206 44.178 90.2316C45.2457 90.3618 46.2039 90.0188 47.2522 89.8863C47.2175 89.7747 47.184 89.663 47.1492 89.5503C45.7325 90.0816 44.214 90.1258 42.702 90.1467C42.4535 90.1502 42.4535 90.4921 42.702 90.4944C43.109 90.4816 43.5108 90.52 43.9088 90.6095C43.9255 90.4956 43.9436 90.3816 43.9603 90.2677C42.8682 90.3456 41.8147 90.0653 40.7302 89.9991V90.3467C42.0929 90.1967 43.4439 90.0956 44.7975 89.877C45.8497 89.7072 47.0268 89.5305 47.8614 88.8817C48.0005 88.7736 47.8769 88.5957 47.7249 88.5852C46.1227 88.4666 44.5824 88.805 43.0034 88.9852C43.0356 89.0933 43.0678 89.2014 43.1013 89.3096C44.3248 88.605 45.8278 88.6875 47.144 88.1969C47.3501 88.1201 47.3128 87.8806 47.0925 87.855C45.6372 87.6853 44.2063 87.9771 42.7703 88.1608C42.8051 88.2724 42.8386 88.3841 42.8733 88.4968C44.2875 88.2887 45.6307 87.8655 46.9921 87.4725C47.1891 87.4155 47.1646 87.1051 46.9406 87.1306C45.9141 87.2504 44.9932 87.6225 44.0273 87.9376C44.0762 88.0434 44.1265 88.1492 44.1754 88.255C45.2817 87.7097 46.4988 87.3527 47.4763 86.6144C47.5806 86.5353 47.5304 86.3435 47.3913 86.3237C46.3958 86.1854 45.5161 86.4842 44.5708 86.7423C44.6056 86.8539 44.6391 86.9655 44.6738 87.0783C46.2219 86.6086 47.7494 86.097 49.2524 85.518C49.4558 85.4401 49.309 85.1436 49.1042 85.2005C48.5028 85.3656 47.8975 85.518 47.2909 85.6645C47.0513 85.7226 47.1531 86.0575 47.3939 86.0005C48.0018 85.854 48.6058 85.7017 49.2073 85.5366C49.1583 85.4307 49.1081 85.3249 49.0592 85.2191C47.5871 85.7865 46.0892 86.2853 44.5734 86.7446C44.3403 86.8155 44.4369 87.1458 44.6764 87.0806C45.5342 86.8458 46.3764 86.5342 47.2922 86.6621C47.2638 86.5656 47.2355 86.4679 47.2071 86.3714C46.258 87.0876 45.0576 87.4283 43.9848 87.9573C43.7955 88.0504 43.9256 88.3434 44.1329 88.2748C45.0628 87.9725 45.954 87.5969 46.9444 87.4806C46.9277 87.3667 46.9096 87.2527 46.8929 87.1388C45.5329 87.5318 44.1883 87.955 42.7742 88.1631C42.5269 88.1992 42.6351 88.5294 42.8772 88.4992C44.281 88.3201 45.6758 88.0399 47.0977 88.2062C47.0809 88.0922 47.0629 87.9783 47.0462 87.8643C45.6977 88.3666 44.1664 88.2899 42.9107 89.0119C42.7639 89.0968 42.8051 89.3596 43.0086 89.3363C44.5837 89.1573 46.133 88.8189 47.73 88.9364C47.685 88.8375 47.6386 88.7387 47.5935 88.6399C46.8182 89.2421 45.6745 89.3817 44.6996 89.5456C43.3846 89.7665 42.0619 89.8572 40.7354 90.0026C40.492 90.0293 40.483 90.3351 40.7354 90.3502C41.8275 90.4177 42.8656 90.6979 43.9655 90.6188C44.1703 90.6037 44.2411 90.3211 44.017 90.277C43.5727 90.1909 43.1657 90.1549 42.7085 90.1491V90.4967C44.2553 90.4758 45.8111 90.4316 47.2587 89.8886C47.4892 89.8026 47.4029 89.5224 47.1556 89.5526C46.1949 89.6747 45.2714 90.0177 44.2862 89.8979V90.2339C45.462 89.9119 46.6714 89.713 47.8601 89.4352C48.1035 89.3782 47.9992 89.0573 47.7571 89.0991C46.7306 89.2782 45.7196 89.3561 44.6764 89.3445V89.6921C45.471 89.6968 46.2631 89.6386 47.0578 89.6189V89.2712C45.6269 89.3759 44.2037 89.77 42.7626 89.5665C42.778 89.6723 42.7935 89.7782 42.8089 89.884C43.61 89.5747 44.4613 89.5224 45.3075 89.3852C45.52 89.3503 45.4723 89.0201 45.256 89.0433C44.0724 89.1701 42.921 89.491 41.7219 89.4805C41.7541 89.5886 41.7863 89.6968 41.8198 89.8049C42.9506 89.1921 44.3106 89.1166 45.5676 88.8398C45.5329 88.7282 45.4994 88.6166 45.4646 88.5038C44.5502 88.7968 43.6165 88.9794 42.6634 89.1375C42.6982 89.2491 42.7317 89.3607 42.7664 89.4735C44.1715 89.1538 45.5535 88.7864 46.8942 88.2852C47.117 88.2027 47.0371 87.8841 46.7912 87.9492C45.7364 88.2306 44.6545 88.6189 43.5366 88.4701C43.5649 88.5666 43.5933 88.6643 43.6216 88.7608C44.706 87.8678 46.2799 87.8376 47.448 87.0609C47.6012 86.9597 47.5523 86.7469 47.3514 86.7365C45.8999 86.6609 44.5656 87.2434 43.1232 87.2678C43.1399 87.3818 43.158 87.4957 43.1747 87.6097C44.5553 87.1365 46.0429 87.0283 47.4171 86.5353C47.609 86.4667 47.5987 86.1912 47.3656 86.1935C45.8909 86.2121 44.4433 86.6051 42.9673 86.4039C42.9828 86.5098 42.9983 86.6156 43.0137 86.7214C44.4935 86.0412 46.1833 85.8819 47.806 85.6866C47.7893 85.5726 47.7713 85.4587 47.7545 85.3447C46.4112 85.704 45.0473 86.0121 43.6371 85.9958C43.6538 86.1098 43.6718 86.2237 43.6886 86.3377C45.1529 85.854 46.6971 85.6389 48.1795 85.2098C48.392 85.1482 48.3444 84.8831 48.128 84.868C46.0867 84.732 44.1059 85.1866 42.1276 85.5773C41.9177 85.6191 41.9615 85.9435 42.1791 85.9191C43.9719 85.7145 45.7789 85.461 47.5819 85.7145C47.5987 85.6005 47.6167 85.4866 47.6334 85.3726C46.343 85.4505 45.0628 85.5133 43.8045 85.797C43.5636 85.8517 43.6654 86.1865 43.9075 86.133L43.9024 86.1365Z" fill="white"/>
<path d="M48.2297 85.4726C49.7791 85.5086 51.3374 85.3551 52.8533 85.0726C53.0723 85.0319 53.0143 84.7342 52.8018 84.7308C51.0747 84.7005 49.4146 85.0656 47.7841 85.5505C47.587 85.6086 47.6089 85.9109 47.8356 85.8923C49.3966 85.7632 50.9266 85.4272 52.4979 85.4051C52.4811 85.2912 52.4631 85.1772 52.4463 85.0633C51.2125 85.39 49.9298 85.5121 48.7075 85.8784C48.4989 85.9411 48.5388 86.2097 48.759 86.2202C50.3174 86.2946 51.7947 85.8342 53.3286 85.6714C53.3118 85.5574 53.2938 85.4435 53.277 85.3296C51.8243 85.7167 50.3522 86.0388 48.8891 86.3958C48.6496 86.4539 48.7513 86.7864 48.9922 86.7318C50.2865 86.4318 51.568 86.1016 52.9061 86.0051C52.8894 85.8911 52.8713 85.7772 52.8546 85.6633C51.103 86.2155 49.1905 86.8771 47.3063 86.6539C47.3385 86.762 47.3707 86.8702 47.4029 86.9783C48.5594 86.2039 50.0637 86.1923 51.407 85.8551C51.5796 85.8121 51.6015 85.5505 51.407 85.5191C49.8602 85.2726 47.9206 85.64 46.6778 86.5237C46.5464 86.6179 46.6559 86.8306 46.8143 86.8202C48.5208 86.7167 50.1049 86.0016 51.8294 86.0795C51.7972 85.9714 51.765 85.8632 51.7315 85.7551C50.2002 86.7992 48.2155 86.962 46.4846 87.6236C46.2734 87.7038 46.4318 87.9806 46.6327 87.941C48.4564 87.5934 50.2504 87.1329 52.078 86.8039C52.0291 86.6981 51.9788 86.5923 51.9299 86.4865C50.4604 87.2469 48.7771 87.4899 47.2226 88.0631C46.9972 88.1468 47.077 88.448 47.3256 88.3991C48.638 88.1399 49.886 87.6782 51.2177 87.4945C51.1687 87.3887 51.1185 87.2829 51.0696 87.1771C49.6748 88.0236 47.985 88.2945 46.5477 89.0712C46.3648 89.17 46.4846 89.456 46.6958 89.3886C48.0262 88.9654 49.3785 88.6003 50.7012 88.1561C50.6664 88.0445 50.633 87.9329 50.5982 87.8201C49.3798 88.2503 48.1988 88.7584 46.9946 89.2189C46.7911 89.2968 46.9379 89.5932 47.1427 89.5363C48.4538 89.1735 49.7044 88.6468 51.0876 88.5561C51.0554 88.448 51.0232 88.3398 50.991 88.2317C49.8229 88.8026 48.5053 88.984 47.2767 89.4154C47.0912 89.4805 47.0964 89.7839 47.3282 89.7572C48.5517 89.6177 49.7185 89.2061 50.9601 89.1933C50.9279 89.0851 50.8957 88.977 50.8622 88.8689C50.056 89.3421 49.1416 89.4781 48.222 89.6688C47.9799 89.7188 48.0829 90.0514 48.325 90.0049C49.3901 89.7979 50.423 89.4153 51.5293 89.5049C51.5126 89.3909 51.4946 89.277 51.4778 89.163C50.463 89.5351 49.376 89.6363 48.3276 89.9072C48.1202 89.9607 48.1589 90.2525 48.3791 90.249C49.0385 90.2386 49.676 90.0979 50.3354 90.099C50.3187 89.9851 50.3007 89.8711 50.2839 89.7572C49.2588 89.9804 48.2349 90.0409 47.1904 89.9002V90.2362C47.7532 90.1374 48.3057 90.0862 48.8788 90.0955C48.8466 89.9874 48.8144 89.8793 48.7809 89.7711C48.0623 90.056 47.3527 90.1618 46.5799 90.2525C46.6121 90.3606 46.6443 90.4688 46.6778 90.5769C47.399 90.1583 48.2104 89.9025 48.8981 89.4351C49.0334 89.3433 49.0179 89.1712 48.8518 89.1177C48.1743 88.8956 47.4505 89.0165 46.7538 89.0909C46.3429 89.1351 45.9359 89.1677 45.5225 89.1165C44.7871 89.0247 46.5104 88.2596 46.6907 88.191C46.9186 88.1038 46.7216 87.8038 46.4962 87.891C45.8445 88.1398 45.292 88.434 44.8219 88.9142C44.7549 88.9828 44.7408 89.0944 44.8219 89.1607C45.8664 90.0095 47.533 89.0549 48.7487 89.4537C48.7333 89.3479 48.7178 89.2421 48.7024 89.1363C48.0146 89.6037 47.2033 89.8595 46.482 90.2781C46.3365 90.363 46.3751 90.6257 46.5799 90.6025C47.4119 90.506 48.204 90.3804 48.9754 90.0746C49.1609 90.0014 49.0553 89.7537 48.8775 89.7502C48.2658 89.7398 47.6849 89.7979 47.0873 89.9037C46.907 89.9351 46.898 90.2141 47.0873 90.2397C48.2027 90.3885 49.291 90.3339 50.3857 90.0967C50.5995 90.0502 50.5492 89.7549 50.3342 89.7549C49.6735 89.7549 49.0372 89.8944 48.3778 89.9049C48.3946 90.0188 48.4126 90.1327 48.4293 90.2467C49.4764 89.9758 50.5647 89.8746 51.5796 89.5026C51.7818 89.4281 51.7522 89.1793 51.5281 89.1607C50.3831 89.0677 49.3244 89.4584 48.222 89.6723C48.2568 89.7839 48.2902 89.8956 48.325 90.0083C49.2794 89.8107 50.2247 89.6618 51.0567 89.1735C51.2125 89.0816 51.1584 88.8468 50.9588 88.8491C49.7121 88.8619 48.5556 89.2723 47.3269 89.413C47.3436 89.527 47.3617 89.6409 47.3784 89.7549C48.6393 89.3119 49.9864 89.1223 51.1855 88.5363C51.349 88.4561 51.2808 88.1991 51.0876 88.2119C49.667 88.305 48.3868 88.8328 47.0397 89.2049C47.0886 89.3107 47.1389 89.4165 47.1878 89.5223C48.3611 89.0735 49.5125 88.5782 50.6999 88.1585C50.9279 88.0782 50.8326 87.7445 50.5969 87.8224C49.2742 88.2666 47.9219 88.6305 46.5915 89.0549C46.6404 89.1607 46.6907 89.2665 46.7396 89.3723C48.1769 88.5945 49.8641 88.3259 51.2615 87.4783C51.4508 87.3631 51.3259 87.1306 51.1133 87.1608C49.7816 87.3445 48.5337 87.8073 47.2213 88.0654C47.2561 88.1771 47.2895 88.2887 47.3243 88.4015C48.9123 87.8154 50.6239 87.5655 52.1244 86.7899C52.3214 86.6876 52.1836 86.4341 51.9763 86.4725C50.1487 86.8016 48.3534 87.2608 46.531 87.6096C46.5799 87.7155 46.6301 87.8213 46.6791 87.9271C48.4165 87.2632 50.387 87.1074 51.926 86.0586C52.0754 85.9563 52.0316 85.7435 51.8281 85.7342C50.0959 85.6551 48.5221 86.3702 46.813 86.4748C46.8581 86.5737 46.9045 86.6725 46.9495 86.7713C48.0662 85.976 49.9156 85.6353 51.304 85.8563V85.5202C49.9246 85.8667 48.3959 85.883 47.2084 86.6783C47.0474 86.7864 47.1118 86.9795 47.3063 87.0027C49.2253 87.2294 51.1752 86.562 52.9576 85.9993C53.1521 85.9377 53.1354 85.6412 52.9061 85.6574C51.5332 85.7563 50.2183 86.0888 48.8891 86.3958C48.9239 86.5074 48.9574 86.619 48.9922 86.7318C50.4539 86.3748 51.926 86.0528 53.3801 85.6656C53.581 85.6121 53.5514 85.3005 53.3286 85.3237C51.7985 85.4854 50.311 85.9458 48.759 85.8725C48.7758 85.9865 48.7938 86.1004 48.8106 86.2144C50.0315 85.8481 51.3155 85.726 52.5494 85.3993C52.7567 85.3447 52.7194 85.054 52.4979 85.0575C50.924 85.0796 49.3979 85.4156 47.8356 85.5447C47.8524 85.6586 47.8704 85.7725 47.8871 85.8865C49.4854 85.4109 51.1082 85.0493 52.8031 85.0784C52.7863 84.9645 52.7683 84.8505 52.7516 84.7366C51.2679 85.0121 49.7456 85.1598 48.2297 85.1238C47.9812 85.1179 47.9812 85.4656 48.2297 85.4714V85.4726Z" fill="white"/>
<path d="M51.5692 90.2967C52.2956 90.3095 52.9022 90.2653 53.5655 90.0014C53.7226 89.9386 53.6698 89.7177 53.5191 89.684C52.5996 89.4747 51.7096 89.5293 50.772 89.6154C50.5299 89.6374 50.5183 89.9653 50.772 89.963C51.6787 89.9549 52.5764 89.9444 53.4792 90.0316V89.684C52.6395 89.6561 51.823 89.5572 51.0051 89.7735C50.8351 89.8188 50.8068 90.0804 51.0051 90.1095C51.953 90.2455 52.8031 89.9979 53.675 89.6677C53.8373 89.6061 53.8785 89.3782 53.675 89.3317C53.0091 89.1805 52.4051 89.2875 51.8049 89.5758C51.662 89.6444 51.689 89.863 51.8513 89.8932C52.615 90.0397 53.371 90.0653 54.0704 89.72C54.1889 89.6619 54.203 89.4735 54.0704 89.42C53.3234 89.1142 52.5493 89.1328 51.7418 89.1479V89.4956C52.3909 89.4479 54.5083 89.2468 54.6499 88.4584C54.8444 87.3736 52.8365 87.4853 52.199 87.8352C52.0651 87.9085 52.0741 88.1224 52.2454 88.1527C52.91 88.2701 53.5462 88.2294 54.1644 87.9724C54.2751 87.9271 54.2906 87.769 54.203 87.6992C53.5552 87.1736 50.7334 86.8446 50.6381 88.0503C50.5569 89.07 53.362 88.4898 53.9287 88.348C54.0961 88.3061 54.1103 88.112 53.9751 88.0306C53.0928 87.5027 51.8358 87.8166 51.0103 88.3026C50.906 88.3643 50.8815 88.4922 50.9717 88.5759C51.5564 89.1247 52.5249 88.9561 53.2525 88.7549C53.3607 88.7247 53.4457 88.5922 53.3672 88.4991C52.8636 87.898 51.8268 88.1108 51.2383 88.5166C51.1494 88.577 51.0927 88.7119 51.1996 88.7898C51.6259 89.1014 53.4882 89.384 53.0645 88.4422C52.7567 87.7585 51.4933 88.1561 51.613 88.8794C51.7122 89.4816 53.6325 89.184 53.7832 88.6887C54.0652 87.762 52.2042 87.8771 51.7444 88.2619C51.6349 88.3538 51.6967 88.5154 51.8294 88.5526C52.5687 88.7608 54.3009 88.8933 54.5868 87.9585C54.8714 87.0283 53.3105 87.0609 52.6653 87.0841C52.1823 87.1016 51.0399 87.2143 51.4456 87.8724C51.9311 88.6584 53.5758 87.9678 54.0201 87.4969C54.091 87.4213 54.0948 87.326 54.0201 87.2504C53.4097 86.6307 52.2737 86.6179 51.5757 87.1225C51.4971 87.1795 51.5036 87.3108 51.5757 87.369C52.3858 88.0166 53.8488 87.3178 54.5778 86.8516C54.7002 86.7737 54.7027 86.6283 54.5778 86.5516C53.7548 86.0377 52.2943 86.0807 51.7766 86.9399C51.7186 87.0364 51.7676 87.1678 51.8912 87.1957C52.5468 87.3446 54.8496 87.1074 54.619 86.1109C54.4001 85.1645 52.4231 85.7563 51.9736 86.2423C51.8925 86.3307 51.9028 86.4504 52.0123 86.5155C53.0169 87.1097 54.3795 86.5888 55.0827 85.8179C55.1342 85.7621 55.1664 85.6737 55.1123 85.6075C54.5598 84.9308 53.353 84.7912 52.8198 85.5551C52.7683 85.6296 52.7953 85.754 52.8894 85.7935C53.3594 85.9888 55.925 86.2865 55.7678 85.3772C55.5811 84.2924 53.2783 84.8389 52.7889 85.4296C52.7155 85.5179 52.7915 85.6633 52.9035 85.6854C53.7201 85.8412 55.4265 85.8412 55.7434 84.9482C55.7756 84.8587 55.7073 84.7575 55.6094 84.7343C55.0041 84.5878 54.5585 84.811 54.2198 85.2784C54.1386 85.39 54.2455 85.54 54.3859 85.54C54.9745 85.54 55.3081 85.411 55.0633 86.0749C54.8998 86.5202 54.6061 86.9365 54.3176 87.3236C54.4348 87.3678 54.552 87.4132 54.6692 87.4573C54.9075 86.7853 55.2656 86.1656 55.5953 85.5284C55.4781 85.4842 55.3609 85.4389 55.2437 85.3947C55.0247 86.433 54.5649 87.4062 53.8553 88.248C53.9751 88.2771 54.0948 88.3061 54.2146 88.3364C54.1528 87.5259 54.3292 86.6144 54.9217 85.976C54.8212 85.9644 54.7195 85.9528 54.619 85.9412C55.1329 86.7307 54.7787 88.5003 54.0021 89.0805L54.3305 89.2038C54.2288 88.191 54.6306 87.2678 55.2076 86.4144C55.9559 85.3075 55.5837 86.6748 55.4433 87.1085C55.1496 88.0224 53.9622 90.3572 52.5532 89.5747C52.3407 89.4561 52.1475 89.7572 52.3587 89.8746C53.5784 90.5537 54.6139 89.384 55.1818 88.5177C55.5888 87.8969 56.5573 86.1807 55.7653 85.5319C55.6906 85.4703 55.5656 85.4598 55.4922 85.5319C54.5031 86.5155 53.8089 87.8538 53.9442 89.2038C53.9596 89.3607 54.1386 89.427 54.2726 89.327C55.1896 88.6422 55.5489 86.6853 54.95 85.7668C54.8908 85.6761 54.7285 85.6435 54.6474 85.7319C53.9879 86.4446 53.7574 87.426 53.8282 88.3387C53.8424 88.5212 54.0717 88.5631 54.1876 88.4271C54.9152 87.5632 55.3892 86.5551 55.6146 85.49C55.6532 85.3086 55.3609 85.1668 55.263 85.3563C54.9178 86.0226 54.5469 86.6655 54.297 87.3678C54.2275 87.5643 54.5327 87.6585 54.6486 87.5015C55.1496 86.8306 55.5489 86.1179 55.6468 85.3063C55.6571 85.2168 55.5502 85.1261 55.4536 85.1319C55.093 85.154 54.7452 85.1947 54.3833 85.1947C54.4387 85.2819 54.4941 85.3691 54.5495 85.4563C54.9204 85.2412 54.941 85.1901 54.6113 85.3028C54.3872 85.3505 54.1592 85.3807 53.9287 85.3924C53.6235 85.4168 53.3041 85.4098 53.004 85.3528C53.0426 85.4377 53.0813 85.5238 53.1186 85.6086C53.4238 85.2412 54.1464 85.1691 54.61 85.1424C54.8959 85.1249 55.4471 85.4854 54.9771 85.5912C54.7195 85.6493 54.431 85.64 54.1682 85.64C53.9107 85.64 53.6518 85.6133 53.3981 85.5772C52.3343 85.4261 55.0814 85.2772 54.6577 85.7412C54.1154 86.3353 52.9344 86.6527 52.2042 86.2202C52.2171 86.3109 52.2299 86.4028 52.2428 86.4935C52.6215 86.083 53.456 85.9388 54.0163 86.0109C54.1335 86.3353 54.0485 86.54 53.7613 86.626C53.5539 86.7132 53.3388 86.7795 53.116 86.8248C52.758 86.9109 52.3549 86.9492 51.9904 86.8667C52.029 86.9516 52.0677 87.0376 52.105 87.1225C52.5313 86.4144 53.7368 86.4586 54.3782 86.8586V86.5586C53.854 86.8934 53.2628 87.1155 52.6395 87.2492C51.9711 87.319 51.8783 87.2864 52.36 87.1527C52.7348 87.0876 53.098 87.126 53.4509 87.2713C53.9596 87.4678 52.794 87.7631 52.5854 87.8155C52.3677 87.7236 52.1514 87.6318 51.9337 87.5399C52.1089 87.4946 52.2866 87.4655 52.4682 87.4527C52.7168 87.426 52.9666 87.4329 53.2165 87.4399C53.4496 87.4469 53.6801 87.4736 53.9068 87.5213C53.9377 88.1189 53.6737 88.3957 53.1147 88.3526C52.7181 88.3933 52.3034 88.3306 51.926 88.2247C51.9543 88.3213 51.9827 88.4189 52.011 88.5154C52.5017 88.1038 53.7883 88.5515 52.9769 88.7701C52.843 88.7898 52.709 88.8096 52.5764 88.8305C52.3008 88.9073 52.2171 88.791 52.3278 88.4805C52.3021 88.5829 52.275 88.6863 52.2493 88.7887C51.9633 88.7782 51.7019 88.6991 51.4662 88.5515C51.4533 88.6422 51.4405 88.734 51.4276 88.8247C51.7805 88.5817 52.6588 88.241 53.0284 88.6829C53.0671 88.598 53.1057 88.5119 53.1431 88.4271C52.5867 88.5805 51.7174 88.7887 51.237 88.3375C51.2241 88.4282 51.2112 88.5201 51.1983 88.6108C51.9054 88.1933 53.0066 87.8794 53.7729 88.3387C53.7883 88.2329 53.8038 88.1271 53.8192 88.0213C53.1353 88.1922 52.4051 88.2561 51.698 88.2619C51.6324 88.2596 51.5667 88.2573 51.501 88.255C51.0592 88.2829 51.0605 88.1073 51.5061 87.7283C51.7676 87.6318 52.0638 87.6201 52.3433 87.6062C52.8481 87.5806 53.5307 87.6341 53.9235 87.9527L53.9622 87.6794C53.4406 87.8969 52.8984 87.9236 52.3407 87.8248C52.3562 87.9306 52.3716 88.0364 52.3871 88.1422C52.7889 87.9213 53.2719 87.9108 53.7252 87.9678C54.1901 88.3026 54.2468 88.5294 53.8965 88.648C53.7162 88.7294 53.5294 88.7968 53.3363 88.8514C52.8288 89.0096 52.2699 89.1154 51.7341 89.1549C51.4894 89.1724 51.483 89.5072 51.7341 89.5026C52.4579 89.4898 53.1907 89.4503 53.8682 89.7281V89.4282C53.2564 89.7293 52.6021 89.6921 51.9453 89.5654C51.9608 89.6712 51.9762 89.777 51.9917 89.8828C52.5043 89.6363 52.995 89.5444 53.5642 89.6747V89.3386C52.776 89.6386 51.9724 89.906 51.0992 89.7805V90.1165C51.8796 89.9095 52.6717 90.013 53.4702 90.0397C53.7226 90.0479 53.711 89.7154 53.4702 89.6921C52.5674 89.6049 51.6697 89.6154 50.763 89.6235V89.9711C51.6607 89.8886 52.521 89.8258 53.4071 90.027C53.3916 89.9212 53.3762 89.8153 53.3607 89.7095C52.7181 89.9642 52.2093 89.9677 51.5589 89.9572C51.3104 89.9525 51.3104 90.3014 51.5589 90.3048L51.5692 90.2967Z" fill="white"/>
<path d="M38.0514 0.335997C38.0385 2.22541 37.5877 4.43574 38.2884 6.25772C38.4506 6.67863 39.1951 6.49841 39.0315 6.07285C38.3592 4.3218 38.81 2.15565 38.8228 0.335997C38.8254 -0.112813 38.0553 -0.112813 38.0527 0.335997H38.0514Z" fill="white"/>
<path d="M63.6446 18.4721C65.3022 17.1559 66.8206 15.7025 68.5426 14.4526C68.9302 14.1712 68.3816 13.6829 67.9978 13.9608C66.2758 15.2107 64.7574 16.6641 63.0998 17.9803C62.7264 18.2768 63.2737 18.7674 63.6446 18.4721Z" fill="white"/>
<path d="M74.2829 43.4973C76.7544 43.4996 79.1576 43.5985 81.5274 44.2891C82.0013 44.4275 82.2035 43.7554 81.7322 43.6182C79.2967 42.909 76.8239 42.8032 74.2829 42.802C73.7858 42.802 73.7858 43.4973 74.2829 43.4973Z" fill="white"/>
<path d="M9.60395 12.2213C9.54213 12.1062 9.53311 12.112 9.5769 12.2388L9.19182 12.5864C8.9059 12.5632 9.19439 12.6888 9.31932 12.805C9.49447 12.9678 9.6619 13.1364 9.83191 13.3038C10.2183 13.6864 10.5969 14.0759 10.9781 14.4619C12.0729 15.5688 13.0993 16.9048 14.6435 17.521C15.093 17.7012 15.4858 17.1013 15.0325 16.9199C13.4316 16.2804 12.3408 14.8003 11.201 13.6422C10.7579 13.1922 9.92464 11.9493 9.19182 11.8911C8.98961 11.8748 8.79643 12.062 8.80673 12.2388C8.81446 12.3667 8.86984 12.4643 8.93939 12.5725C9.18924 12.9597 9.85509 12.6097 9.60524 12.2213H9.60395Z" fill="white"/>
<path d="M0.55902 39.4302C3.08461 37.821 5.95537 36.6083 8.92787 35.8467C9.40568 35.7246 9.20219 35.0537 8.72309 35.1758C5.69135 35.9513 2.74589 37.1885 0.170071 38.8291C-0.233045 39.086 0.15204 39.6895 0.55902 39.4302Z" fill="white"/>
<path d="M5.48522 29.6284C6.4563 29.6168 7.41451 29.7482 8.37915 29.8295C8.87371 29.8714 8.86985 29.1749 8.37915 29.1342C7.41451 29.054 6.4563 28.9215 5.48522 28.9331C4.98808 28.9389 4.98808 29.6342 5.48522 29.6284Z" fill="white"/>
<path d="M7.16463 24.5915C8.41132 24.7508 9.33862 25.624 10.5042 25.9984C10.9743 26.1496 11.1739 25.4763 10.709 25.3275C9.53567 24.9508 8.638 24.0822 7.3694 23.9206C6.88386 23.859 6.67393 24.5287 7.16463 24.5915Z" fill="white"/>
<path d="M20.0309 10.8807C20.3413 11.8271 21.0574 12.555 21.6279 13.3759C21.8906 13.7549 22.5578 13.4061 22.2938 13.0247C21.7631 12.2608 21.0625 11.5748 20.774 10.6958C20.6336 10.2668 19.8892 10.4493 20.0309 10.8807Z" fill="white"/>
<path d="M26.4885 8.48555C26.2695 9.49712 26.4885 10.4447 26.9727 11.3668C27.1865 11.7714 27.8498 11.4191 27.6386 11.0156C27.2483 10.2738 27.0551 9.48665 27.2316 8.67042C27.3269 8.23208 26.5838 8.04488 26.4885 8.48555Z" fill="white"/>
<path d="M49.4068 5.96471C49.4416 6.81815 49.4609 7.65647 49.1982 8.48549C49.0617 8.91802 49.8048 9.10056 49.9413 8.67036C50.2221 7.7832 50.2143 6.87977 50.1783 5.96471C50.1603 5.51706 49.3901 5.5159 49.4081 5.96471H49.4068Z" fill="white"/>
<path d="M55.2476 7.79957C54.8097 8.32396 54.5972 8.93555 54.5276 9.58318C54.4787 10.0297 55.2501 10.025 55.2978 9.58318C55.3545 9.05531 55.5592 8.57511 55.9134 8.15071C56.2122 7.79143 55.5425 7.44611 55.2476 7.79957Z" fill="white"/>
<path d="M72.7245 27.618C74.3678 27.4808 75.9455 27.0808 77.5026 26.6006C77.9701 26.4565 77.7692 25.7844 77.2978 25.9298C75.8103 26.389 74.297 26.7913 72.7245 26.9227C72.2338 26.9634 72.2299 27.6599 72.7245 27.618Z" fill="white"/>
<path d="M74.4773 32.1945C76.0267 31.5352 77.6559 30.9097 79.4036 31.0364C79.8994 31.0725 79.8956 30.376 79.4036 30.3411C77.522 30.2051 75.7562 30.8841 74.0884 31.5945C73.6389 31.7864 74.0304 32.3852 74.4773 32.1957V32.1945Z" fill="white"/>
</g>
<defs>
<clipPath id="clip0_630_1995">
<rect width="82" height="94" fill="white"/>
</clipPath>
</defs>
</svg>
