<svg width="180" height="180" viewBox="0 0 180 180" fill="none" xmlns="http://www.w3.org/2000/svg">
<g clip-path="url(#clip0_630_2271)">
<path d="M26.5301 50.4851C27.0118 50.8999 27.4077 51.3797 27.7176 51.9245C28.0345 52.4578 28.2427 53.0425 28.3421 53.6783C28.4484 54.3028 28.4324 54.9625 28.2939 55.6573C28.1554 56.3522 27.8729 57.0537 27.4463 57.7618C26.9508 58.5841 26.37 59.2381 25.7037 59.724C25.0442 60.1984 24.3519 60.5207 23.6268 60.6909C22.8902 60.8542 22.1413 60.8699 21.38 60.7382C20.6257 60.595 19.9116 60.3205 19.2378 59.9145C18.5868 59.5223 18.0275 59.0296 17.5598 58.4365C17.0876 57.8251 16.7538 57.1648 16.5585 56.4556C16.3586 55.7281 16.3108 54.9677 16.4152 54.1744C16.5081 53.3742 16.7954 52.5744 17.2771 51.775C17.7381 51.0098 18.2526 50.4014 18.8205 49.9497C19.3953 49.4865 19.9984 49.1572 20.6299 48.9617C21.2499 48.7593 21.8835 48.6896 22.5305 48.7525C23.1844 48.804 23.8118 48.9641 24.4127 49.2327L22.7819 51.9394C22.2243 51.728 21.6664 51.711 21.1081 51.8884C20.5453 52.0474 20.0713 52.4467 19.6859 53.0862C19.4313 53.5088 19.282 53.9247 19.2378 54.3339C19.1936 54.7432 19.2317 55.132 19.3522 55.5003C19.4728 55.8687 19.6585 56.2063 19.9095 56.5132C20.1673 56.8086 20.4733 57.063 20.8273 57.2763C21.2042 57.5034 21.5926 57.6596 21.9926 57.7449C22.3995 57.8189 22.794 57.823 23.176 57.7574C23.5534 57.6735 23.9161 57.5107 24.2642 57.2689C24.6007 57.0203 24.8929 56.6904 25.1406 56.2793C25.4709 55.7311 25.6011 55.1791 25.5312 54.6233C25.4614 54.0675 25.2438 53.6018 24.8787 53.2261L26.5301 50.4851ZM38.9562 42.3881C38.2624 43.0322 37.533 43.4909 36.768 43.7644C36.0038 44.019 35.2452 44.1229 34.4921 44.076C33.7489 44.02 33.0343 43.8284 32.3483 43.5009C31.6721 43.1644 31.0709 42.7128 30.5448 42.146C30.0187 41.5793 29.6129 40.9462 29.3276 40.2469C29.052 39.5385 28.914 38.8116 28.9134 38.0662C28.9226 37.3118 29.087 36.5679 29.4068 35.8344C29.7272 35.0821 30.2344 34.384 30.9282 33.7399C31.622 33.0959 32.3559 32.642 33.1299 32.3783C33.8948 32.1048 34.6489 31.9961 35.3922 32.052C36.1452 32.0989 36.8598 32.2906 37.5361 32.6271C38.222 32.9545 38.8281 33.4016 39.3542 33.9684C39.8803 34.5351 40.2812 35.1727 40.5568 35.8812C40.8421 36.5805 40.9802 37.3074 40.971 38.0618C40.9716 38.8072 40.8116 39.556 40.4912 40.3083C40.1616 41.0508 39.65 41.7441 38.9562 42.3881ZM37.0784 40.3653C37.4107 40.0569 37.6498 39.7167 37.7957 39.3447C37.9514 38.9637 38.0268 38.5844 38.022 38.2069C38.0081 37.8195 37.923 37.4437 37.7667 37.0794C37.6014 36.7053 37.3781 36.3667 37.0969 36.0638C36.8157 35.7609 36.4992 35.518 36.1475 35.3351C35.7958 35.1522 35.4273 35.0394 35.0421 34.9968C34.6569 34.9541 34.2685 34.9963 33.8769 35.1232C33.4952 35.2411 33.1382 35.4543 32.8059 35.7627C32.4639 36.0802 32.2199 36.4249 32.074 36.7969C31.9281 37.1688 31.8621 37.5485 31.876 37.9358C31.8899 38.3232 31.975 38.699 32.1312 39.0633C32.2875 39.4276 32.5062 39.7613 32.7874 40.0642C33.0687 40.3671 33.3897 40.6149 33.7504 40.8076C34.1021 40.9905 34.4706 41.1033 34.8559 41.1459C35.232 41.1788 35.611 41.1363 35.9927 41.0184C36.3745 40.9005 36.7364 40.6828 37.0784 40.3653ZM44.2803 22.8466L48.779 20.487C49.3458 20.1897 49.9061 20.0237 50.4601 19.9891C51.0197 19.9365 51.5487 19.9978 52.0471 20.173C52.5393 20.3364 52.9827 20.5932 53.3771 20.9434C53.7834 21.2873 54.1166 21.7073 54.3767 22.2032C54.6368 22.6991 54.7929 23.212 54.8449 23.7418C54.9088 24.2654 54.8711 24.782 54.7319 25.2916C54.5865 25.7895 54.3362 26.2595 53.981 26.7018C53.6314 27.126 53.1732 27.4868 52.6064 27.7841L50.7822 28.741L52.1571 31.3623L49.4826 32.765L44.2803 22.8466ZM51.0404 25.918C51.4773 25.6888 51.7392 25.3557 51.8262 24.9187C51.9249 24.4754 51.8659 24.0471 51.6491 23.6339C51.4324 23.2206 51.1136 22.9286 50.6928 22.7578C50.2838 22.5809 49.8668 22.6039 49.4417 22.8269L48.0602 23.5515L49.6767 26.6333L51.0404 25.918ZM70.354 24.2278C69.4294 24.431 68.5682 24.4565 67.7702 24.3042C66.9824 24.1361 66.2759 23.8409 65.6507 23.4186C65.0384 22.9934 64.5198 22.4658 64.0946 21.8357C63.6824 21.2028 63.3933 20.5087 63.2273 19.7534C63.0613 18.9981 63.0327 18.2467 63.1414 17.4993C63.2632 16.749 63.5128 16.0525 63.8903 15.4098C64.2808 14.7642 64.7999 14.2065 65.4474 13.7365C66.1051 13.2506 66.8963 12.9061 67.8209 12.7029C68.7455 12.4997 69.6082 12.4807 70.409 12.6459C71.2069 12.7982 71.912 13.0869 72.5242 13.512C73.1495 13.9343 73.6681 14.462 74.0803 15.0949C74.5055 15.725 74.8011 16.4177 74.9671 17.173C75.1331 17.9283 75.1552 18.6811 75.0335 19.4314C74.9247 20.1788 74.6751 20.8753 74.2846 21.5209C73.9071 22.1636 73.3895 22.7278 72.7318 23.2137C72.0712 23.6865 71.2786 24.0245 70.354 24.2278ZM69.7615 21.5321C70.2043 21.4348 70.5829 21.2628 70.8973 21.0163C71.2247 20.7668 71.482 20.4782 71.6694 20.1503C71.8538 19.8095 71.9711 19.4424 72.0212 19.0491C72.0684 18.6429 72.0476 18.2379 71.9589 17.8342C71.8702 17.4305 71.7206 17.0606 71.5102 16.7246C71.2999 16.3886 71.0395 16.1046 70.7291 15.8724C70.4187 15.6403 70.0626 15.4797 69.6607 15.3906C69.2719 15.2986 68.8561 15.3012 68.4134 15.3985C67.9576 15.4987 67.5725 15.6721 67.2581 15.9187C66.9437 16.1652 66.6943 16.459 66.5098 16.7998C66.3254 17.1407 66.2081 17.5078 66.158 17.901C66.1079 18.2943 66.1273 18.6928 66.216 19.0965C66.3047 19.5002 66.4557 19.8765 66.6689 20.2256C66.8793 20.5616 67.1397 20.8456 67.4501 21.0777C67.7576 21.2968 68.1058 21.4524 68.4946 21.5444C68.8834 21.6364 69.3057 21.6323 69.7615 21.5321ZM90.4186 18.813L90.3449 21.4119L84.3073 21.2407L84.6249 10.0452L87.6437 10.1308L87.3999 18.7273L90.4186 18.813ZM100.939 10.9832L103.911 11.6244L101.548 22.5724L98.5769 21.9312L100.939 10.9832ZM115.058 17.4741L112.85 16.5321L113.871 14.1407L121.063 17.2103L120.043 19.6017L117.835 18.6596L114.459 26.5693L111.682 25.3839L115.058 17.4741ZM127.912 29.7562L129.94 31.2529L131.508 27.041L127.912 29.7562ZM131.369 36.7583L128.682 34.7745L129.144 33.475L126.039 31.1824L124.933 32.0067L122.311 30.0704L132.245 23.4833L134.675 25.2771L131.369 36.7583ZM145.104 44.5011L150.52 40.1936L152.4 42.5572L143.634 49.5289L141.705 47.1027L144.602 39.9175L139.327 44.113L137.447 41.7494L146.212 34.7777L148.142 37.2039L145.104 44.5011ZM161.396 57.4669L162.727 60.4864L156.264 59.7078L152.479 65.0049L151.148 61.9853L153.512 59.0194L149.728 58.7645L148.389 55.7267L154.852 56.5053L158.637 51.2082L159.976 54.2461L157.593 57.2201L161.396 57.4669ZM157.003 71.3624C157.277 71.3048 157.542 71.3036 157.799 71.3586C158.056 71.4137 158.287 71.5082 158.492 71.6422C158.713 71.7865 158.9 71.9651 159.054 72.1781C159.211 72.4041 159.318 72.6541 159.375 72.9281C159.433 73.2021 159.434 73.4675 159.379 73.7243C159.327 73.9942 159.227 74.2331 159.08 74.4411C158.949 74.6594 158.777 74.8455 158.564 74.9992C158.351 75.1529 158.107 75.2586 157.833 75.3161C157.559 75.3737 157.294 75.3749 157.037 75.3199C156.78 75.2648 156.541 75.1652 156.32 75.0209C156.115 74.8869 155.934 74.7069 155.778 74.4809C155.624 74.2679 155.518 74.0244 155.461 73.7504C155.403 73.4764 155.4 73.2045 155.453 72.9346C155.508 72.6778 155.601 72.4403 155.732 72.2219C155.879 72.0139 156.059 71.8331 156.272 71.6793C156.485 71.5256 156.729 71.42 157.003 71.3624ZM161.495 95.2263C160.87 95.1103 160.287 94.895 159.745 94.5803C159.202 94.2789 158.728 93.8785 158.322 93.3791C157.916 92.893 157.598 92.3149 157.368 91.6448C157.138 90.9746 157.029 90.2263 157.041 89.3997C157.055 88.4398 157.228 87.5823 157.559 86.8271C157.89 86.0852 158.326 85.4583 158.867 84.9462C159.421 84.4344 160.061 84.0438 160.785 83.7745C161.509 83.5185 162.264 83.3963 163.05 83.408C163.81 83.4192 164.542 83.5634 165.244 83.8405C165.96 84.1311 166.581 84.5337 167.107 85.0482C167.645 85.5762 168.069 86.2092 168.379 86.9472C168.701 87.6854 168.855 88.5211 168.842 89.4543C168.828 90.3475 168.69 91.1323 168.427 91.8084C168.163 92.4979 167.808 93.0861 167.36 93.5728C166.927 94.0598 166.414 94.4389 165.823 94.7102C165.232 94.9949 164.61 95.1723 163.955 95.2427L164.002 92.083C164.59 91.985 165.081 91.7189 165.474 91.2847C165.88 90.864 166.089 90.2803 166.1 89.5338C166.107 89.0405 166.027 88.6059 165.859 88.2301C165.692 87.8542 165.463 87.5374 165.173 87.2798C164.884 87.0222 164.553 86.8239 164.182 86.6851C163.81 86.5596 163.418 86.4937 163.005 86.4876C162.565 86.4811 162.151 86.5417 161.762 86.6693C161.373 86.8102 161.03 87.0051 160.733 87.2541C160.449 87.5166 160.218 87.8399 160.039 88.2239C159.873 88.6082 159.787 89.0403 159.78 89.5202C159.77 90.1602 159.935 90.7027 160.276 91.1478C160.616 91.5928 161.038 91.8858 161.543 92.0266L161.495 95.2263ZM154.818 108.472C155.095 107.566 155.496 106.804 156.021 106.184C156.555 105.58 157.159 105.11 157.834 104.773C158.506 104.449 159.22 104.257 159.978 104.196C160.732 104.149 161.478 104.238 162.217 104.465C162.957 104.691 163.625 105.036 164.223 105.498C164.816 105.973 165.3 106.532 165.674 107.177C166.044 107.835 166.275 108.561 166.366 109.356C166.466 110.167 166.377 111.026 166.099 111.931C165.822 112.836 165.414 113.596 164.877 114.212C164.352 114.833 163.754 115.305 163.083 115.629C162.408 115.966 161.693 116.158 160.939 116.206C160.182 116.266 159.433 116.183 158.694 115.957C157.955 115.73 157.288 115.379 156.695 114.904C156.097 114.442 155.613 113.882 155.243 113.225C154.869 112.58 154.632 111.852 154.532 111.041C154.445 110.233 154.54 109.377 154.818 108.472ZM157.457 109.281C157.324 109.714 157.287 110.128 157.347 110.523C157.404 110.931 157.529 111.297 157.722 111.621C157.928 111.949 158.19 112.232 158.508 112.469C158.839 112.71 159.202 112.891 159.597 113.012C159.992 113.133 160.388 113.185 160.784 113.167C161.18 113.149 161.555 113.061 161.91 112.905C162.264 112.749 162.579 112.518 162.854 112.212C163.126 111.918 163.328 111.555 163.461 111.122C163.597 110.675 163.636 110.255 163.576 109.86C163.515 109.465 163.382 109.103 163.176 108.775C162.97 108.447 162.708 108.164 162.39 107.927C162.072 107.69 161.716 107.511 161.32 107.39C160.925 107.269 160.523 107.216 160.115 107.23C159.719 107.248 159.343 107.335 158.988 107.491C158.646 107.651 158.34 107.878 158.069 108.171C157.797 108.465 157.593 108.834 157.457 109.281ZM160.001 128.056L157.287 132.351C156.946 132.892 156.544 133.316 156.081 133.623C155.623 133.949 155.135 134.161 154.615 134.259C154.107 134.363 153.595 134.363 153.078 134.257C152.554 134.163 152.056 133.966 151.582 133.667C151.109 133.368 150.717 133.002 150.407 132.57C150.09 132.148 149.864 131.682 149.729 131.171C149.606 130.668 149.587 130.135 149.673 129.575C149.763 129.032 149.979 128.491 150.321 127.95L151.421 126.208L148.919 124.627L150.532 122.074L160.001 128.056ZM152.611 128.781C152.348 129.198 152.288 129.618 152.431 130.04C152.567 130.473 152.833 130.814 153.227 131.063C153.622 131.313 154.044 131.406 154.494 131.343C154.937 131.291 155.286 131.063 155.542 130.657L156.376 129.338L153.434 127.479L152.611 128.781ZM136.742 139.92C137.44 139.28 138.172 138.826 138.939 138.558C139.705 138.308 140.464 138.209 141.217 138.261C141.959 138.322 142.673 138.518 143.357 138.85C144.031 139.191 144.629 139.646 145.151 140.216C145.674 140.787 146.075 141.422 146.356 142.123C146.627 142.834 146.761 143.561 146.756 144.307C146.742 145.061 146.573 145.804 146.249 146.535C145.923 147.286 145.412 147.98 144.714 148.62C144.016 149.26 143.279 149.709 142.503 149.967C141.736 150.236 140.982 150.34 140.239 150.279C139.486 150.227 138.773 150.031 138.099 149.69C137.415 149.358 136.812 148.907 136.289 148.337C135.767 147.767 135.37 147.127 135.099 146.417C134.818 145.715 134.685 144.988 134.699 144.233C134.703 143.488 134.868 142.74 135.193 141.99C135.528 141.25 136.044 140.56 136.742 139.92ZM138.606 141.955C138.272 142.261 138.031 142.6 137.883 142.971C137.724 143.351 137.646 143.73 137.649 144.107C137.66 144.495 137.743 144.871 137.897 145.236C138.06 145.612 138.281 145.951 138.56 146.256C138.839 146.561 139.154 146.806 139.505 146.991C139.855 147.176 140.223 147.291 140.608 147.337C140.993 147.382 141.382 147.342 141.774 147.218C142.156 147.102 142.515 146.891 142.849 146.585C143.193 146.27 143.439 145.927 143.588 145.556C143.736 145.185 143.804 144.805 143.793 144.418C143.782 144.031 143.699 143.654 143.545 143.289C143.391 142.924 143.175 142.589 142.895 142.284C142.616 141.979 142.297 141.729 141.937 141.534C141.587 141.349 141.219 141.234 140.834 141.189C140.458 141.153 140.079 141.193 139.696 141.309C139.314 141.424 138.95 141.64 138.606 141.955ZM122.109 154.68L120.865 152.397L126.168 149.507L131.527 159.342L128.875 160.787L124.761 153.235L122.109 154.68ZM116.889 166.752L113.993 167.675L110.59 157.005L113.487 156.081L116.889 166.752ZM101.448 168.161L103.831 167.869L104.146 170.45L96.3842 171.399L96.0685 168.819L98.4508 168.527L97.4067 159.991L100.404 159.624L101.448 168.161ZM84.1783 163.99L81.6731 163.717L82.4383 168.146L84.1783 163.99ZM77.6665 159.68L80.9869 160.041L81.2417 161.397L85.079 161.814L85.6195 160.545L88.8604 160.898L83.5922 171.591L80.5899 171.264L77.6665 159.68ZM61.8991 159.871L59.3657 166.311L56.5553 165.205L60.6556 154.783L63.5404 155.917L64.6277 163.588L67.0952 157.316L69.9056 158.422L65.8052 168.844L62.9205 167.709L61.8991 159.871ZM41.3058 156.797L38.6424 154.849L44.6283 152.289L45.255 145.809L47.9184 147.758L47.3552 151.509L50.7594 149.836L53.439 151.796L47.4531 154.356L46.8264 160.836L44.1468 158.876L44.7219 155.108L41.3058 156.797ZM38.1598 142.576C37.9521 142.763 37.7234 142.898 37.4738 142.98C37.2242 143.062 36.977 143.096 36.7322 143.084C36.4686 143.07 36.2167 143.01 35.9767 142.904C35.7277 142.787 35.5093 142.625 35.3216 142.418C35.1339 142.21 34.9992 141.981 34.9174 141.732C34.8267 141.472 34.7925 141.215 34.8148 140.962C34.8183 140.707 34.8733 140.46 34.9799 140.22C35.0864 139.98 35.2436 139.766 35.4513 139.578C35.6591 139.39 35.8878 139.256 36.1373 139.174C36.3869 139.092 36.6436 139.058 36.9072 139.071C37.152 139.084 37.3989 139.148 37.6479 139.264C37.8879 139.371 38.1018 139.528 38.2895 139.736C38.4773 139.944 38.6165 140.177 38.7072 140.437C38.7889 140.686 38.8281 140.939 38.8246 141.193C38.8023 141.447 38.7379 141.694 38.6313 141.934C38.5247 142.174 38.3676 142.388 38.1598 142.576ZM22.2902 124.188C22.8892 123.975 23.5022 123.87 24.129 123.871C24.7493 123.86 25.3602 123.969 25.9617 124.198C26.5567 124.415 27.1216 124.756 27.6563 125.221C28.1911 125.686 28.6602 126.279 29.0635 127.001C29.532 127.839 29.8119 128.667 29.9034 129.487C29.9884 130.295 29.925 131.056 29.7132 131.77C29.4897 132.491 29.1321 133.149 28.6402 133.744C28.1419 134.329 27.5494 134.813 26.8627 135.196C26.1993 135.567 25.4941 135.809 24.7472 135.921C23.9821 136.028 23.2432 135.99 22.5304 135.808C21.7995 135.621 21.1155 135.285 20.4783 134.801C19.8296 134.324 19.2775 133.678 18.8221 132.863C18.3862 132.083 18.1129 131.335 18.0023 130.618C17.8851 129.889 17.8982 129.202 18.0415 128.556C18.1733 127.918 18.4269 127.333 18.8023 126.802C19.1713 126.26 19.6214 125.794 20.1526 125.406L21.6945 128.164C21.2345 128.544 20.943 129.02 20.8202 129.592C20.6792 130.16 20.7909 130.77 21.1552 131.421C21.3959 131.852 21.683 132.188 22.0165 132.429C22.3499 132.671 22.7065 132.83 23.0862 132.908C23.4658 132.986 23.8511 132.992 24.242 132.927C24.6265 132.849 24.9991 132.71 25.3599 132.508C25.7439 132.293 26.0722 132.033 26.3447 131.728C26.6106 131.412 26.8098 131.071 26.9422 130.707C27.0565 130.337 27.095 129.942 27.0576 129.52C27.0086 129.104 26.867 128.687 26.6328 128.268C26.3205 127.709 25.9058 127.322 25.3885 127.107C24.8712 126.893 24.3589 126.85 23.8516 126.981L22.2902 124.188ZM21.4379 109.381C21.651 110.304 21.6857 111.165 21.5419 111.964C21.3822 112.754 21.0945 113.463 20.6789 114.093C20.2603 114.71 19.7383 115.234 19.1128 115.666C18.4843 116.085 17.7933 116.381 17.0398 116.555C16.2863 116.729 15.5353 116.766 14.7867 116.665C14.0351 116.552 13.336 116.309 12.6893 115.939C12.0397 115.555 11.4764 115.042 10.9996 114.4C10.5067 113.747 10.1538 112.96 9.94069 112.037C9.72762 111.115 9.69944 110.252 9.85616 109.45C9.9999 108.65 10.2811 107.942 10.6997 107.326C11.1153 106.696 11.6373 106.172 12.2658 105.753C12.8913 105.321 13.5808 105.018 14.3343 104.844C15.0878 104.67 15.8403 104.64 16.5919 104.753C17.3405 104.854 18.0396 105.096 18.6893 105.48C19.3359 105.851 19.9057 106.362 20.3985 107.015C20.8784 107.67 21.2248 108.459 21.4379 109.381ZM18.7487 110.003C18.6467 109.561 18.4707 109.184 18.2208 108.872C17.9679 108.548 17.6765 108.293 17.3467 108.11C17.0039 107.929 16.6356 107.815 16.2418 107.77C15.835 107.727 15.4303 107.752 15.0276 107.845C14.6248 107.938 14.2566 108.091 13.9229 108.305C13.5891 108.519 13.3079 108.783 13.0791 109.095C12.8503 109.408 12.6935 109.766 12.6086 110.169C12.5207 110.559 12.5278 110.974 12.6299 111.416C12.7349 111.871 12.9124 112.254 13.1623 112.566C13.4122 112.878 13.7086 113.124 14.0514 113.305C14.3942 113.485 14.7625 113.599 15.1563 113.645C15.5501 113.691 15.9483 113.667 16.351 113.574C16.7538 113.481 17.1285 113.326 17.4752 113.109C17.809 112.895 18.0902 112.632 18.319 112.319C18.5348 112.009 18.6866 111.659 18.7745 111.269C18.8624 110.88 18.8538 110.457 18.7487 110.003ZM7.14108 95.0476L7.33016 89.9711C7.35398 89.3316 7.48857 88.7629 7.73394 88.265C7.96648 87.7533 8.28265 87.3248 8.68244 86.9794C9.06892 86.6335 9.51213 86.3765 10.0121 86.2084C10.5125 86.0269 11.0425 85.9465 11.6021 85.9674C12.1617 85.9882 12.6843 86.1077 13.1699 86.326C13.6559 86.5309 14.0854 86.8204 14.4584 87.1945C14.8181 87.5682 15.1015 88.019 15.3087 88.5471C15.503 89.0614 15.5883 89.6383 15.5644 90.2778L15.4878 92.3364L18.4457 92.4466L18.3333 95.4645L7.14108 95.0476ZM13.1667 90.7089C13.1851 90.2159 13.0263 89.8231 12.6903 89.5303C12.3548 89.2243 11.9538 89.0626 11.4875 89.0452C11.0212 89.0279 10.6093 89.1593 10.252 89.4395C9.89512 89.7064 9.70776 90.0797 9.6899 90.5594L9.63183 92.1183L13.1094 92.2478L13.1667 90.7089ZM21.0222 73.0153C20.7771 73.9297 20.4034 74.7061 19.9011 75.3445C19.3893 75.9666 18.8021 76.458 18.1394 76.8188C17.4803 77.1667 16.7731 77.3844 16.0181 77.4719C15.2665 77.5466 14.5172 77.4839 13.7702 77.2837C13.0232 77.0835 12.3429 76.7632 11.7294 76.3227C11.1193 75.8693 10.6158 75.3272 10.2189 74.6963C9.82545 74.0525 9.56909 73.335 9.44981 72.5439C9.3211 71.7364 9.37926 70.8754 9.6243 69.961C9.86933 69.0466 10.2495 68.2719 10.7647 67.637C11.2671 66.9986 11.8478 66.5055 12.507 66.1576C13.1697 65.7968 13.8768 65.5791 14.6284 65.5044C15.3834 65.4168 16.1345 65.4732 16.8814 65.6733C17.6284 65.8735 18.307 66.2003 18.9171 66.6536C19.5306 67.0941 20.0341 67.6363 20.4276 68.28C20.8245 68.9109 21.0873 69.6301 21.216 70.4376C21.3318 71.2417 21.2672 72.1009 21.0222 73.0153ZM18.3562 72.3009C18.4736 71.863 18.4951 71.4478 18.4209 71.0552C18.3501 70.6497 18.2122 70.2884 18.0073 69.9712C17.7896 69.6506 17.5177 69.3776 17.1916 69.1522C16.8526 68.9233 16.4835 68.7554 16.0842 68.6484C15.685 68.5414 15.2878 68.504 14.8927 68.5361C14.4975 68.5683 14.1255 68.6687 13.7766 68.8375C13.4277 69.0063 13.1212 69.2485 12.8572 69.5643C12.5966 69.8672 12.4076 70.2375 12.2902 70.6754C12.1694 71.1262 12.1462 71.5479 12.2204 71.9405C12.2947 72.3331 12.4407 72.6897 12.6584 73.0103C12.8762 73.3309 13.1481 73.6039 13.4742 73.8294C13.8003 74.0548 14.163 74.221 14.5622 74.328C14.9615 74.435 15.3651 74.4741 15.7731 74.4454C16.1682 74.4132 16.5403 74.3128 16.8892 74.144C17.2252 73.9718 17.5235 73.7342 17.7841 73.4314C18.0447 73.1285 18.2354 72.7517 18.3562 72.3009Z" fill="white"/>
<path d="M109.024 72H93.0063L87.8271 78.2945L87.5081 78.4139L87.189 78.2945L82.0347 72H66V84.9596L72.0493 90.439L66 95.9185V108.878H82.0389L87.218 103.069L87.5163 102.966L87.8105 103.065L93.0063 108.874H109.024V95.9143L102.996 90.4349L109.024 84.9555V72Z" fill="white"/>
</g>
<defs>
<clipPath id="clip0_630_2271">
<rect width="180" height="180" fill="white"/>
</clipPath>
</defs>
</svg>
