<svg width="36" height="36" viewBox="0 0 36 36" fill="none" xmlns="http://www.w3.org/2000/svg">
<path d="M18 36C27.9411 36 36 27.9411 36 18C36 8.05887 27.9411 0 18 0C8.05887 0 0 8.05887 0 18C0 27.9411 8.05887 36 18 36Z" fill="#242424"/>
<path d="M20.5379 10.2158C20.3465 10.3617 20.1728 10.5184 20.002 10.6873C19.9741 10.7146 19.9462 10.742 19.9174 10.7702C19.8246 10.8613 19.732 10.9526 19.6394 11.0439C19.5726 11.1095 19.5058 11.1751 19.4389 11.2407C19.258 11.4184 19.0773 11.5964 18.8966 11.7745C18.7836 11.8858 18.6706 11.9971 18.5576 12.1083C18.2442 12.4169 17.9309 12.7255 17.6178 13.0343C17.5978 13.0541 17.5778 13.0738 17.5572 13.0941C17.5271 13.1238 17.5271 13.1238 17.4964 13.154C17.4558 13.1941 17.4152 13.2341 17.3746 13.2742C17.3545 13.294 17.3344 13.3139 17.3136 13.3343C16.9872 13.6563 16.6603 13.9778 16.3332 14.2991C15.9967 14.6297 15.6607 14.9606 15.325 15.2919C15.1368 15.4776 14.9484 15.6632 14.7596 15.8484C14.5988 16.006 14.4385 16.164 14.2785 16.3224C14.1971 16.4031 14.1154 16.4835 14.0333 16.5637C13.9441 16.6509 13.8556 16.7387 13.7672 16.8266C13.7415 16.8514 13.7158 16.8763 13.6894 16.9018C13.3861 17.2068 13.2172 17.5796 13.2 18.0057C13.2136 18.5137 13.4466 18.8773 13.8031 19.2259C13.831 19.2538 13.8589 19.2816 13.8877 19.3103C13.9807 19.4029 14.0741 19.495 14.1676 19.5871C14.2347 19.6536 14.3017 19.7202 14.3687 19.7868C14.5314 19.9484 14.6946 20.1097 14.8578 20.2708C14.9907 20.4019 15.1234 20.5331 15.256 20.6644C15.6737 21.0779 16.0918 21.4909 16.5102 21.9036C16.8396 22.2286 17.1683 22.5541 17.4968 22.88C17.8347 23.2152 18.1731 23.55 18.5119 23.8843C18.7019 24.0718 18.8917 24.2594 19.081 24.4475C19.2422 24.6076 19.4038 24.7673 19.5659 24.9265C19.6485 25.0076 19.7308 25.0889 19.8127 25.1707C20.2558 25.6125 20.6369 25.9919 21.3004 26C21.7247 25.9993 22.0759 25.861 22.3882 25.5734C22.5107 25.4439 22.5942 25.3026 22.6698 25.1426C22.6808 25.1209 22.6919 25.0991 22.7032 25.0767C22.8473 24.7386 22.8214 24.2774 22.6856 23.9424C22.5505 23.7003 22.3917 23.4949 22.1926 23.3012C22.1697 23.2785 22.1468 23.2557 22.1232 23.2323C22.047 23.157 21.9706 23.0821 21.8941 23.0071C21.8391 22.9529 21.7842 22.8987 21.7293 22.8444C21.5807 22.6977 21.4318 22.5513 21.2829 22.405C21.1271 22.2519 20.9716 22.0984 20.816 21.945C20.5551 21.6877 20.294 21.4305 20.0327 21.1735C19.7637 20.909 19.4949 20.6443 19.2262 20.3794C19.2096 20.3631 19.193 20.3467 19.1759 20.3299C19.0926 20.2478 19.0094 20.1658 18.9262 20.0838C18.2367 19.4042 17.5469 18.725 16.8568 18.0461C16.9006 17.9514 16.9456 17.8821 17.0204 17.8089C17.0398 17.7898 17.0592 17.7707 17.0792 17.7509C17.1005 17.7303 17.1218 17.7096 17.1438 17.6883C17.1777 17.6549 17.1777 17.6549 17.2124 17.6209C17.2885 17.5462 17.3648 17.4718 17.4411 17.3974C17.4956 17.344 17.5501 17.2905 17.6046 17.2371C17.7221 17.1219 17.8398 17.0068 17.9574 16.8917C18.1437 16.7095 18.3297 16.527 18.5155 16.3444C18.7764 16.0882 19.0372 15.832 19.2982 15.576C19.3148 15.5597 19.3314 15.5435 19.3484 15.5267C19.6163 15.264 19.8844 15.0016 20.1527 14.7392C20.4285 14.4695 20.7039 14.1992 20.9788 13.9286C21.1331 13.7769 21.2875 13.6253 21.4425 13.4744C21.5885 13.3321 21.7339 13.1893 21.8789 13.0461C21.932 12.9939 21.9853 12.9418 22.0389 12.89C22.4224 12.5184 22.7692 12.1492 22.783 11.5898C22.7868 11.1467 22.7115 10.8054 22.3946 10.4741C21.932 10.0128 21.1144 9.81552 20.5379 10.2158Z" fill="#4D4D4D"/>
</svg>
