<svg width="174" height="174" viewBox="0 0 174 174" fill="none" xmlns="http://www.w3.org/2000/svg">
<path d="M21.5454 58.2422C21.3457 58.1407 21.1797 58.0084 21.0472 57.8453C20.9147 57.6823 20.8181 57.5075 20.7573 57.321C20.6918 57.1202 20.6646 56.9149 20.6755 56.7051C20.6913 56.4858 20.7499 56.2763 20.8515 56.0766C20.953 55.8769 21.0853 55.7108 21.2483 55.5784C21.4162 55.4364 21.5982 55.3374 21.7941 55.2815C21.9854 55.2112 22.186 55.1815 22.3958 55.1924C22.6056 55.2034 22.8104 55.2596 23.0101 55.3611C23.2097 55.4626 23.3758 55.5949 23.5083 55.758C23.6408 55.9211 23.7397 56.103 23.8052 56.3038C23.866 56.4902 23.8885 56.6931 23.8727 56.9125C23.8618 57.1223 23.8055 57.327 23.704 57.5267C23.6025 57.7264 23.4678 57.8972 23.2999 58.0392C23.1368 58.1717 22.9596 58.2731 22.7683 58.3434C22.5724 58.3993 22.3695 58.4218 22.1597 58.4109C21.9499 58.3999 21.7451 58.3437 21.5454 58.2422ZM30.2689 40.9461C30.6169 41.3169 30.8911 41.7322 31.0915 42.1919C31.2983 42.643 31.4143 43.1258 31.4395 43.64C31.4711 44.1458 31.4023 44.6692 31.2332 45.2102C31.0641 45.7512 30.7798 46.2853 30.3804 46.8124C29.9165 47.4245 29.399 47.8955 28.8277 48.2254C28.2629 48.5469 27.6848 48.7445 27.0935 48.8184C26.4937 48.8858 25.8966 48.8348 25.3023 48.6654C24.7143 48.4875 24.1696 48.2085 23.668 47.8284C23.1835 47.4612 22.7803 47.0218 22.4586 46.5104C22.1348 45.9839 21.9253 45.4304 21.8301 44.8496C21.7328 44.2539 21.7593 43.645 21.9096 43.0228C22.0514 42.3941 22.3478 41.7823 22.7988 41.1872C23.2305 40.6176 23.6913 40.1772 24.1814 39.8661C24.678 39.5464 25.1857 39.3356 25.7046 39.2337C26.215 39.1253 26.7249 39.1236 27.2343 39.2285C27.75 39.325 28.2356 39.5056 28.6908 39.7702L27.1639 41.785C26.7383 41.5696 26.2959 41.5087 25.8368 41.6024C25.3756 41.6812 24.9646 41.9586 24.6038 42.4346C24.3654 42.7492 24.2113 43.0673 24.1414 43.3891C24.0715 43.7109 24.0689 44.0234 24.1335 44.3267C24.1982 44.63 24.3173 44.9143 24.4909 45.1797C24.6709 45.4366 24.8927 45.6649 25.1563 45.8646C25.4368 46.0772 25.7326 46.2345 26.0435 46.3363C26.3609 46.4296 26.6743 46.4664 26.9838 46.4466C27.2912 46.4119 27.5935 46.3131 27.8909 46.1503C28.1797 45.9811 28.4401 45.7435 28.672 45.4374C28.9813 45.0293 29.1317 44.6013 29.1233 44.1532C29.1148 43.7052 28.9813 43.3163 28.7227 42.9864L30.2689 40.9461ZM40.6698 35.2934C40.0893 35.7797 39.4879 36.1166 38.8656 36.3039C38.2446 36.4762 37.6343 36.5283 37.0345 36.4602C36.443 36.3853 35.8798 36.203 35.3451 35.9135C34.8185 35.6171 34.3566 35.2318 33.9593 34.7576C33.562 34.2833 33.2636 33.761 33.0641 33.1906C32.8728 32.6134 32.7921 32.0271 32.822 31.4315C32.86 30.8291 33.0217 30.2415 33.3071 29.6685C33.5937 29.0805 34.0273 28.5433 34.6079 28.057C35.1884 27.5707 35.7933 27.2379 36.4224 27.0587C37.0447 26.8714 37.6516 26.8152 38.2432 26.8902C38.8429 26.9583 39.406 27.1405 39.9326 27.4369C40.4674 27.7264 40.9334 28.1083 41.3307 28.5826C41.7279 29.0568 42.0222 29.5825 42.2136 30.1598C42.4131 30.7301 42.4938 31.3165 42.4557 31.9189C42.4259 32.5144 42.2676 33.1062 41.9809 33.6942C41.6874 34.274 41.2504 34.8071 40.6698 35.2934ZM39.252 33.6008C39.53 33.3679 39.7348 33.1059 39.8666 32.8146C40.0065 32.5165 40.0822 32.2166 40.0937 31.9147C40.0984 31.6047 40.0457 31.3009 39.9357 31.0035C39.8188 30.6979 39.6542 30.4183 39.4418 30.1648C39.2295 29.9114 38.9865 29.7044 38.713 29.5439C38.4394 29.3835 38.1496 29.2784 37.8436 29.2286C37.5375 29.1789 37.2255 29.1968 36.9075 29.2823C36.5977 29.3609 36.3038 29.5167 36.0257 29.7496C35.7396 29.9893 35.5306 30.2548 35.3989 30.546C35.2672 30.8373 35.199 31.1379 35.1943 31.448C35.1896 31.758 35.2423 32.0617 35.3523 32.3592C35.4624 32.6566 35.6235 32.9321 35.8359 33.1856C36.0482 33.439 36.2946 33.6501 36.575 33.8187C36.8486 33.9792 37.1384 34.0843 37.4444 34.134C37.7436 34.1756 38.0481 34.157 38.358 34.0784C38.6678 33.9998 38.9658 33.8406 39.252 33.6008ZM45.2779 20.036L48.8726 18.1402C49.3255 17.9013 49.7735 17.7676 50.2166 17.7389C50.6642 17.6958 51.0875 17.7439 51.4865 17.8831C51.8806 18.013 52.2357 18.2176 52.5519 18.497C52.8776 18.7715 53.1449 19.1069 53.3539 19.5031C53.5628 19.8994 53.6886 20.3094 53.7312 20.7331C53.7832 21.1519 53.754 21.5652 53.6436 21.9732C53.5281 22.3717 53.3287 22.7482 53.0454 23.1027C52.7665 23.4427 52.4006 23.7322 51.9477 23.971L50.49 24.7398L51.5946 26.8343L49.4576 27.9614L45.2779 20.036ZM50.6915 22.4809C51.0406 22.2968 51.2496 22.0299 51.3183 21.68C51.3965 21.3253 51.3485 20.9828 51.1744 20.6525C51.0002 20.3223 50.7447 20.0893 50.4077 19.9534C50.0802 19.8126 49.7466 19.8318 49.407 20.0109L48.3031 20.5931L49.6018 23.0556L50.6915 22.4809ZM66.0915 20.7961C65.362 20.9993 64.6752 21.0578 64.031 20.9715C63.3943 20.8721 62.8169 20.6676 62.2988 20.3579C61.791 20.0454 61.3533 19.647 60.9858 19.1625C60.6285 18.6751 60.3669 18.1335 60.2009 17.5375C60.0348 16.9416 59.9787 16.3426 60.0325 15.7408C60.0965 15.1361 60.2651 14.5687 60.5382 14.0386C60.8215 13.5057 61.2114 13.0372 61.7079 12.6331C62.2117 12.2159 62.8284 11.9057 63.558 11.7024C64.2875 11.4992 64.9758 11.4458 65.6228 11.5424C66.2669 11.6287 66.8429 11.8281 67.3507 12.1406C67.8688 12.4502 68.3065 12.8487 68.6637 13.336C69.0312 13.8205 69.298 14.3607 69.464 14.9567C69.6301 15.5527 69.6811 16.153 69.617 16.7577C69.5633 17.3596 69.3947 17.927 69.1113 18.4599C68.8382 18.99 68.4498 19.4636 67.9459 19.8808C67.4392 20.2877 66.8211 20.5928 66.0915 20.7961ZM65.4989 18.6691C65.8483 18.5718 66.1431 18.4177 66.3833 18.2068C66.6338 17.993 66.8266 17.7511 66.9617 17.4809C67.094 17.2005 67.1714 16.9021 67.194 16.5857C67.2137 16.2591 67.1792 15.9365 67.0905 15.618C67.0017 15.2995 66.8659 15.0107 66.683 14.7516C66.5001 14.4925 66.2795 14.2771 66.0213 14.1055C65.7631 13.9338 65.4715 13.8213 65.1466 13.7678C64.8319 13.7116 64.4999 13.7321 64.1506 13.8294C63.7909 13.9296 63.491 14.0852 63.2508 14.296C63.0106 14.5069 62.8243 14.7526 62.6921 15.033C62.5598 15.3135 62.4824 15.6119 62.4598 15.9282C62.4372 16.2445 62.4703 16.562 62.559 16.8805C62.6478 17.199 62.785 17.493 62.9708 17.7623C63.1537 18.0214 63.3743 18.2368 63.6325 18.4085C63.8879 18.5698 64.1729 18.6787 64.4875 18.735C64.8022 18.7913 65.1393 18.7693 65.4989 18.6691ZM81.7803 15.2861L81.938 17.3602L77.1199 17.7264L76.4407 8.79221L78.8498 8.60908L79.3713 15.4693L81.7803 15.2861ZM89.1972 8.10799L91.6227 8.28581L90.9675 17.2218L88.542 17.044L89.1972 8.10799ZM100.85 11.505L98.977 11.0834L99.4338 9.05415L105.537 10.428L105.08 12.4573L103.207 12.0356L101.696 18.7477L99.3392 18.2171L100.85 11.505ZM112.707 19.1012L114.556 19.9057L115.025 16.341L112.707 19.1012ZM116.655 23.9429L114.205 22.8766L114.333 21.7806L111.502 20.5483L110.787 21.3889L108.395 20.3482L114.964 13.435L117.179 14.3991L116.655 23.9429ZM128.834 27.1413L132.057 22.6404L134.022 24.047L128.805 31.3317L126.789 29.8878L127.443 23.7247L124.304 28.1085L122.34 26.7019L127.556 19.4172L129.573 20.8611L128.834 27.1413ZM144.147 32.9995L145.938 34.9398L140.844 36.0256L139.352 41.0156L137.562 39.0752L138.583 36.2177L135.652 37.0056L133.851 35.0535L138.945 33.9677L140.437 28.9777L142.238 30.9298L141.205 33.7982L144.147 32.9995ZM144.428 44.5934C144.615 44.4707 144.813 44.3924 145.02 44.3586C145.228 44.3248 145.427 44.3279 145.619 44.3679C145.826 44.411 146.018 44.4895 146.194 44.6033C146.377 44.7261 146.529 44.8812 146.652 45.0686C146.775 45.256 146.853 45.4533 146.887 45.6607C146.926 45.877 146.922 46.0841 146.873 46.2819C146.839 46.4828 146.765 46.6715 146.651 46.8481C146.537 47.0247 146.386 47.1743 146.199 47.2971C146.012 47.4198 145.814 47.4981 145.607 47.5319C145.399 47.5657 145.192 47.5611 144.986 47.518C144.794 47.4779 144.606 47.3965 144.424 47.2738C144.247 47.1599 144.098 47.0093 143.975 46.8219C143.852 46.6345 143.771 46.4327 143.731 46.2164C143.698 46.009 143.698 45.8049 143.732 45.604C143.781 45.4061 143.862 45.2189 143.976 45.0424C144.09 44.8658 144.241 44.7161 144.428 44.5934ZM155.085 60.7711C154.59 60.8881 154.093 60.9189 153.595 60.8636C153.101 60.8181 152.624 60.6781 152.166 60.4436C151.712 60.219 151.292 59.8986 150.907 59.4824C150.522 59.0662 150.201 58.5536 149.943 57.9446C149.644 57.2375 149.493 56.554 149.492 55.8943C149.494 55.2445 149.611 54.6448 149.842 54.0953C150.082 53.5417 150.424 53.0494 150.867 52.6185C151.314 52.1974 151.827 51.8641 152.407 51.6187C152.967 51.3816 153.549 51.251 154.152 51.2269C154.77 51.2085 155.354 51.3027 155.905 51.5096C156.47 51.722 156.985 52.0485 157.45 52.4888C157.924 52.925 158.307 53.4869 158.598 54.1744C158.877 54.8325 159.029 55.4515 159.054 56.0315C159.084 56.6213 159.014 57.1665 158.844 57.6672C158.683 58.1637 158.431 58.6067 158.086 58.996C157.745 59.3951 157.347 59.7261 156.891 59.9888L155.905 57.661C156.303 57.3994 156.577 57.0462 156.724 56.6015C156.886 56.1623 156.85 55.6678 156.617 55.1177C156.463 54.7543 156.264 54.4622 156.02 54.2412C155.776 54.0203 155.506 53.8623 155.211 53.7672C154.916 53.6721 154.61 53.6337 154.293 53.652C153.981 53.6801 153.672 53.7586 153.368 53.8876C153.044 54.0248 152.76 54.2029 152.517 54.4218C152.278 54.6505 152.09 54.9039 151.953 55.182C151.83 55.4658 151.765 55.7772 151.758 56.1161C151.76 56.4509 151.837 56.795 151.986 57.1486C152.186 57.6201 152.482 57.9638 152.875 58.1797C153.268 58.3957 153.671 58.4738 154.086 58.4139L155.085 60.7711ZM154.793 72.6041C154.662 71.8582 154.671 71.169 154.819 70.5363C154.98 69.9123 155.24 69.3576 155.599 68.8721C155.959 68.3972 156.398 68.0004 156.916 67.6819C157.436 67.3738 158.001 67.1662 158.61 67.0591C159.219 66.9519 159.821 66.9544 160.415 67.0666C161.01 67.1893 161.559 67.4123 162.06 67.7358C162.562 68.0698 162.991 68.5035 163.344 69.0369C163.71 69.579 163.959 70.223 164.09 70.9689C164.221 71.7148 164.207 72.405 164.048 73.0395C163.9 73.6721 163.645 74.2259 163.285 74.7009C162.926 75.1864 162.487 75.5831 161.967 75.8911C161.449 76.2097 160.885 76.4225 160.276 76.5297C159.667 76.6369 159.064 76.6291 158.468 76.5064C157.875 76.3943 157.326 76.1712 156.824 75.8372C156.323 75.5138 155.889 75.081 155.523 74.5389C155.168 73.9949 154.924 73.35 154.793 72.6041ZM156.968 72.2217C157.03 72.5788 157.155 72.8872 157.341 73.1469C157.53 73.417 157.752 73.6325 158.008 73.7933C158.274 73.9522 158.563 74.0584 158.876 74.1117C159.199 74.1631 159.523 74.1602 159.849 74.103C160.175 74.0457 160.475 73.9386 160.751 73.7819C161.027 73.6251 161.263 73.4265 161.459 73.1863C161.655 72.946 161.795 72.6668 161.88 72.3487C161.967 72.041 161.978 71.7086 161.916 71.3514C161.851 70.9837 161.725 70.67 161.539 70.4104C161.352 70.1508 161.126 69.9415 160.86 69.7825C160.594 69.6236 160.304 69.5174 159.992 69.4641C159.679 69.4108 159.36 69.4128 159.034 69.4701C158.709 69.5274 158.403 69.6353 158.116 69.7939C157.841 69.9507 157.605 70.1493 157.409 70.3895C157.223 70.6279 157.087 70.901 157.001 71.2086C156.914 71.5163 156.903 71.854 156.968 72.2217ZM165.707 84.2148L165.554 88.276C165.535 88.7876 165.427 89.2425 165.231 89.6408C165.045 90.0501 164.792 90.3928 164.472 90.669C164.162 90.9455 163.808 91.151 163.408 91.2854C163.007 91.4305 162.583 91.4946 162.136 91.4778C161.688 91.461 161.27 91.3652 160.882 91.1905C160.493 91.0264 160.149 90.7947 159.851 90.4953C159.563 90.1962 159.337 89.8355 159.171 89.413C159.016 89.0015 158.948 88.5399 158.967 88.0283L159.029 86.3815L156.663 86.2925L156.753 83.8782L165.707 84.2148ZM160.885 87.6841C160.87 88.0785 160.997 88.3928 161.266 88.6271C161.534 88.872 161.855 89.0015 162.228 89.0155C162.601 89.0295 162.931 88.9245 163.217 88.7004C163.502 88.487 163.652 88.1884 163.667 87.8047L163.714 86.5576L160.932 86.453L160.885 87.6841ZM154.664 101.87C154.851 101.136 155.142 100.512 155.538 99.9959C155.941 99.4932 156.406 99.0943 156.932 98.7991C157.456 98.5143 158.019 98.3331 158.623 98.2556C159.223 98.1884 159.823 98.2311 160.423 98.3838C161.022 98.5365 161.569 98.786 162.065 99.1323C162.557 99.4889 162.965 99.9176 163.289 100.418C163.61 100.929 163.822 101.501 163.926 102.133C164.037 102.777 163.999 103.466 163.812 104.2C163.625 104.934 163.328 105.558 162.923 106.071C162.527 106.586 162.067 106.987 161.544 107.272C161.017 107.567 160.454 107.748 159.853 107.815C159.25 107.893 158.649 107.855 158.049 107.702C157.45 107.55 156.903 107.295 156.411 106.938C155.916 106.592 155.508 106.163 155.186 105.652C154.863 105.152 154.645 104.579 154.534 103.934C154.434 103.292 154.477 102.604 154.664 101.87ZM156.804 102.415C156.714 102.767 156.701 103.099 156.764 103.412C156.825 103.736 156.939 104.024 157.106 104.275C157.283 104.53 157.503 104.745 157.766 104.923C158.04 105.102 158.337 105.233 158.657 105.315C158.978 105.396 159.296 105.422 159.612 105.392C159.927 105.363 160.224 105.279 160.501 105.14C160.779 105.002 161.022 104.805 161.23 104.55C161.435 104.305 161.583 104.007 161.672 103.655C161.764 103.294 161.779 102.956 161.715 102.643C161.652 102.329 161.532 102.046 161.354 101.791C161.177 101.537 160.957 101.321 160.694 101.144C160.431 100.967 160.139 100.838 159.818 100.756C159.498 100.674 159.175 100.647 158.849 100.674C158.533 100.704 158.236 100.788 157.959 100.926C157.692 101.067 157.455 101.26 157.25 101.505C157.044 101.75 156.896 102.053 156.804 102.415ZM151.625 118.217L149.749 117.319L151.835 112.961L159.917 116.828L158.874 119.008L152.668 116.038L151.625 118.217ZM154.14 128.233L152.774 130.245L145.362 125.211L146.728 123.199L154.14 128.233ZM145.374 136.626L146.676 135.215L148.205 136.624L143.965 141.224L142.435 139.814L143.737 138.402L138.678 133.739L140.316 131.963L145.374 136.626ZM132.882 143.103L131.265 144.307L134.124 146.487L132.882 143.103ZM126.718 144.12L128.862 142.525L129.749 143.181L132.226 141.338L131.852 140.299L133.945 138.742L136.675 147.879L134.737 149.322L126.718 144.12ZM117.878 153.089L120.173 158.127L117.974 159.129L114.26 150.975L116.517 149.947L121.533 153.587L119.298 148.68L121.496 147.678L125.211 155.832L122.954 156.86L117.878 153.089ZM105.147 163.436L102.572 164.016L104.179 159.062L100.604 155.274L103.18 154.695L105.143 157.008L105.927 154.076L108.518 153.493L106.911 158.447L110.486 162.234L107.894 162.818L105.927 160.489L105.147 163.436ZM94.9718 157.881C94.9847 158.104 94.9541 158.315 94.88 158.511C94.8059 158.708 94.7036 158.879 94.5731 159.026C94.4327 159.183 94.269 159.31 94.0823 159.407C93.8849 159.503 93.6743 159.558 93.4507 159.571C93.2271 159.584 93.017 159.554 92.8204 159.479C92.6131 159.406 92.436 159.299 92.2889 159.157C92.1319 159.028 92.0052 158.869 91.9089 158.683C91.8127 158.496 91.7581 158.291 91.7452 158.067C91.7323 157.843 91.7629 157.633 91.8371 157.437C91.9112 157.24 92.0185 157.063 92.159 156.905C92.2894 156.759 92.4534 156.637 92.6508 156.54C92.8375 156.444 93.0427 156.389 93.2664 156.377C93.49 156.364 93.7054 156.394 93.9127 156.467C94.1093 156.542 94.2861 156.644 94.4432 156.773C94.5902 156.915 94.7119 157.078 94.8081 157.265C94.9044 157.452 94.9589 157.657 94.9718 157.881ZM75.6356 159.049C75.781 158.561 76.002 158.115 76.2985 157.711C76.5844 157.305 76.9433 156.962 77.3751 156.682C77.7964 156.4 78.2833 156.196 78.836 156.07C79.3886 155.944 79.9932 155.921 80.6497 156.002C81.412 156.095 82.0794 156.305 82.6519 156.633C83.2139 156.959 83.6754 157.36 84.0367 157.833C84.3966 158.318 84.6529 158.86 84.8054 159.459C84.9474 160.056 84.9803 160.667 84.904 161.292C84.8304 161.896 84.6534 162.465 84.3731 163C84.081 163.545 83.7079 164.004 83.2539 164.379C82.7879 164.763 82.2483 165.046 81.6349 165.229C81.0203 165.423 80.3424 165.474 79.6012 165.384C78.8918 165.297 78.2794 165.12 77.764 164.853C77.2379 164.585 76.8004 164.252 76.4513 163.855C76.1008 163.468 75.8429 163.028 75.6774 162.535C75.5013 162.041 75.4132 161.531 75.413 161.004L77.9224 161.31C77.9502 161.786 78.1201 162.199 78.432 162.549C78.7321 162.908 79.1786 163.124 79.7715 163.196C80.1633 163.244 80.5158 163.217 80.829 163.116C81.1423 163.014 81.4137 162.859 81.6434 162.651C81.873 162.443 82.0588 162.197 82.2009 161.913C82.3323 161.628 82.4181 161.322 82.4582 160.993C82.5008 160.644 82.4879 160.309 82.4195 159.989C82.3406 159.668 82.2147 159.379 82.0419 159.121C81.8573 158.873 81.6199 158.661 81.3296 158.486C81.0381 158.322 80.7017 158.216 80.3206 158.17C79.8123 158.108 79.3667 158.193 78.9837 158.426C78.6007 158.658 78.3317 158.969 78.1767 159.359L75.6356 159.049ZM65.5216 152.899C66.2338 153.156 66.8272 153.507 67.3018 153.951C67.7627 154.402 68.1144 154.903 68.3568 155.456C68.5892 156.005 68.7145 156.584 68.7328 157.191C68.7411 157.796 68.64 158.389 68.4296 158.97C68.2191 159.552 67.9174 160.072 67.5244 160.531C67.1215 160.987 66.655 161.351 66.1251 161.625C65.5851 161.894 64.9957 162.05 64.357 162.091C63.7045 162.138 63.0223 162.033 62.3101 161.776C61.5979 161.518 61.0064 161.162 60.5354 160.708C60.0608 160.264 59.7073 159.768 59.4749 159.219C59.2325 158.666 59.1072 158.087 59.0989 157.483C59.0806 156.875 59.1767 156.281 59.3871 155.699C59.5976 155.117 59.9043 154.599 60.3073 154.143C60.7002 153.684 61.1667 153.32 61.7067 153.05C62.2366 152.777 62.8278 152.616 63.4802 152.569C64.129 152.531 64.8095 152.641 65.5216 152.899ZM64.7705 154.975C64.4294 154.852 64.0999 154.806 63.7819 154.839C63.4539 154.867 63.1565 154.953 62.8897 155.094C62.6193 155.246 62.3831 155.444 62.1812 155.689C61.9757 155.943 61.8167 156.226 61.7042 156.537C61.5917 156.848 61.5348 157.162 61.5335 157.479C61.5322 157.796 61.5869 158.1 61.6976 158.389C61.8084 158.679 61.9806 158.94 62.2143 159.172C62.4379 159.4 62.7202 159.576 63.0613 159.699C63.4123 159.826 63.7469 159.874 64.0649 159.841C64.3829 159.809 64.6771 159.717 64.9475 159.565C65.2179 159.413 65.4541 159.215 65.656 158.971C65.8579 158.726 66.0151 158.448 66.1276 158.137C66.2401 157.827 66.2988 157.507 66.3037 157.18C66.305 156.863 66.2503 156.56 66.1396 156.27C66.0252 155.991 65.8562 155.737 65.6325 155.508C65.4089 155.28 65.1215 155.102 64.7705 154.975ZM50.0038 156.569L46.5629 154.407C46.1294 154.134 45.7893 153.814 45.5426 153.444C45.2812 153.078 45.1108 152.688 45.0316 152.273C44.9467 151.867 44.946 151.457 45.0295 151.043C45.1041 150.624 45.2605 150.225 45.4989 149.845C45.7373 149.466 46.0292 149.152 46.3747 148.903C46.7111 148.648 47.0836 148.466 47.492 148.358C47.8948 148.258 48.3205 148.242 48.7692 148.31C49.2032 148.381 49.637 148.553 50.0705 148.825L51.4658 149.702L52.7258 147.697L54.7714 148.983L50.0038 156.569ZM49.4096 150.659C49.0754 150.449 48.7397 150.402 48.4025 150.517C48.0562 150.627 47.7838 150.84 47.5851 151.156C47.3865 151.473 47.3127 151.81 47.3638 152.17C47.4059 152.524 47.5895 152.803 47.9147 153.008L48.9713 153.672L50.4527 151.314L49.4096 150.659ZM40.23 138.183C40.7727 138.711 41.1688 139.276 41.4183 139.876C41.6527 140.476 41.7664 141.078 41.7595 141.681C41.7449 142.278 41.6207 142.856 41.3869 143.418C41.1455 143.972 40.809 144.47 40.3775 144.913C39.946 145.357 39.4566 145.707 38.9094 145.963C38.3546 146.212 37.7794 146.352 37.1839 146.382C36.5808 146.405 35.9797 146.304 35.3808 146.078C34.7667 145.853 34.1884 145.476 33.6457 144.948C33.103 144.42 32.7106 143.852 32.4686 143.244C32.2191 142.644 32.1016 142.046 32.1162 141.45C32.1232 140.846 32.2473 140.267 32.4888 139.713C32.7226 139.152 33.0553 138.65 33.4868 138.206C33.9183 137.763 34.4115 137.417 34.9663 137.168C35.5135 136.912 36.0887 136.772 36.6918 136.749C37.2873 136.718 37.8921 136.816 38.5061 137.041C39.1127 137.274 39.6874 137.655 40.23 138.183ZM38.69 139.765C38.4301 139.512 38.1486 139.335 37.8455 139.234C37.5348 139.125 37.2287 139.08 36.9272 139.099C36.6183 139.126 36.3215 139.209 36.0367 139.349C35.7445 139.496 35.4831 139.688 35.2524 139.925C35.0218 140.162 34.8405 140.425 34.7087 140.713C34.5768 141.001 34.5016 141.3 34.4832 141.61C34.4647 141.919 34.5141 142.228 34.6314 142.536C34.7411 142.836 34.9259 143.113 35.1857 143.366C35.4533 143.626 35.7386 143.807 36.0417 143.908C36.3448 144.01 36.6508 144.047 36.9597 144.021C37.2686 143.994 37.5654 143.91 37.8502 143.771C38.1349 143.631 38.3926 143.443 38.6233 143.206C38.8539 142.969 39.0389 142.703 39.1782 142.406C39.3101 142.118 39.3853 141.819 39.4037 141.51C39.4147 141.208 39.3654 140.907 39.2557 140.606C39.1461 140.306 38.9575 140.026 38.69 139.765ZM27.5764 127.394L29.29 126.215L32.0289 130.196L24.6474 135.275L23.2779 133.284L28.9459 129.385L27.5764 127.394ZM17.6432 124.593L16.5771 122.408L24.6304 118.48L25.6965 120.666L17.6432 124.593ZM14.7212 112.792L15.2931 114.625L13.3075 115.244L11.4441 109.272L13.4297 108.653L14.0016 110.486L20.5693 108.436L21.2889 110.743L14.7212 112.792ZM15.3575 98.7355L15.1237 96.7331L11.806 98.1192L15.3575 98.7355ZM17.5583 92.8888L17.8682 95.5428L16.8564 95.9831L17.2145 99.0503L18.3005 99.2456L18.603 101.836L9.32488 99.6332L9.04469 97.2335L17.5583 92.8888ZM14.1892 80.7581L8.67714 80.2436L8.90172 77.838L17.8229 78.6709L17.5924 81.1401L11.9397 83.6817L17.3083 84.1829L17.0838 86.5885L8.16255 85.7556L8.39307 83.2863L14.1892 80.7581ZM11.2928 64.7795L11.9928 62.234L15.6082 65.9828L20.6321 64.6098L19.932 67.1553L16.9669 67.8001L19.1854 69.8705L18.4811 72.4314L14.8657 68.6826L9.84182 70.0556L10.5461 67.4947L13.5266 66.8541L11.2928 64.7795Z" fill="white"/>
</svg>
