<svg width="42" height="42" viewBox="0 0 42 42" fill="none" xmlns="http://www.w3.org/2000/svg">
<g filter="url(#filter0_d_865_10983)">
<rect x="4" width="34" height="34" rx="17" fill="white"/>
<rect x="4.5" y="0.5" width="33" height="33" rx="16.5" stroke="#7029CF" stroke-opacity="0.56"/>
<path d="M32.386 16.9745C31.984 16.8075 31.515 16.9185 31.235 17.2545C30.307 18.3595 28.729 18.8745 26.267 18.8745C22.453 18.8745 20.088 17.8445 20.088 12.7165C20.088 10.3195 20.62 8.69749 21.714 7.75949C22.044 7.47649 22.153 7.01049 21.983 6.61049C21.813 6.20949 21.412 5.95549 20.968 6.00649C15.285 6.54449 11 11.2485 11 16.9495C11 23.0115 15.944 27.9425 22.022 27.9425C27.742 27.9425 32.46 23.6645 32.995 17.9915C33.037 17.5555 32.79 17.1435 32.386 16.9745Z" fill="#7029CF"/>
</g>
<defs>
<filter id="filter0_d_865_10983" x="0" y="0" width="42" height="42" filterUnits="userSpaceOnUse" color-interpolation-filters="sRGB">
<feFlood flood-opacity="0" result="BackgroundImageFix"/>
<feColorMatrix in="SourceAlpha" type="matrix" values="0 0 0 0 0 0 0 0 0 0 0 0 0 0 0 0 0 0 127 0" result="hardAlpha"/>
<feOffset dy="4"/>
<feGaussianBlur stdDeviation="2"/>
<feComposite in2="hardAlpha" operator="out"/>
<feColorMatrix type="matrix" values="0 0 0 0 0 0 0 0 0 0 0 0 0 0 0 0 0 0 0.17 0"/>
<feBlend mode="normal" in2="BackgroundImageFix" result="effect1_dropShadow_865_10983"/>
<feBlend mode="normal" in="SourceGraphic" in2="effect1_dropShadow_865_10983" result="shape"/>
</filter>
</defs>
</svg>
