<svg width="301" height="19" viewBox="0 0 301 19" fill="none" xmlns="http://www.w3.org/2000/svg">
<g clip-path="url(#clip0_631_1476)">
<path d="M18.4641 11.1362L18.0026 11.8108C17.2632 12.8882 16.3455 13.6836 15.2548 14.2273C14.1588 14.766 12.8793 15.048 11.4109 15.053C9.32382 15.053 7.54086 14.4338 6.30853 13.442C5.07619 12.4401 4.35776 11.0859 4.35776 9.44966C4.35776 7.81346 5.07619 6.44913 6.31377 5.44224C7.55135 4.44038 9.32907 3.81611 11.4162 3.81611C12.7744 3.81611 14.0277 4.07287 15.0712 4.53604C16.1148 4.99921 16.9381 5.65872 17.4782 6.45919L17.9292 7.12878L21.6367 5.06969L21.0179 4.30949C19.9586 3.01563 18.5533 2.00371 16.9171 1.32406C15.281 0.639375 13.4141 0.281929 11.4214 0.281929C8.20685 0.281929 5.37509 1.20827 3.31945 2.82432C1.25332 4.44038 -0.00524293 6.7814 1.06487e-06 9.44966C-0.00524293 12.1129 1.25332 14.4489 3.30896 16.0548C5.36461 17.6659 8.19636 18.5821 11.4109 18.5821C13.5819 18.5821 15.5799 18.1794 17.3052 17.389C19.0305 16.6036 20.4726 15.4205 21.5056 13.9102L22.0038 13.1802L21.2277 12.7321L18.4693 11.1412L18.4641 11.1362Z" fill="white"/>
<path d="M49.8809 2.82936C47.8147 1.20827 44.9725 0.286963 41.7632 0.286963C38.5486 0.286963 35.7168 1.2133 33.6612 2.82936C31.6055 4.44542 30.347 6.78643 30.3522 9.44965C30.347 12.1129 31.6055 14.4489 33.6612 16.0548C35.7168 17.6659 38.5486 18.5821 41.7632 18.5821C44.9725 18.5821 47.8147 17.6659 49.8809 16.0548C51.947 14.4489 53.216 12.1129 53.2108 9.44965C53.2108 6.7814 51.947 4.44038 49.8861 2.82936H49.8809ZM46.8761 13.4319C45.6437 14.4287 43.866 15.053 41.7632 15.053C39.6603 15.053 37.8931 14.4338 36.6608 13.442C35.4284 12.4401 34.71 11.0858 34.7047 9.44965C34.7047 7.81346 35.4232 6.44912 36.6608 5.44224C37.8983 4.44038 39.6761 3.81611 41.7632 3.81611C43.8712 3.81611 45.6437 4.44038 46.8761 5.44224C48.1084 6.44912 48.8111 7.80843 48.8163 9.44965C48.8163 11.0707 48.1032 12.425 46.8761 13.4319Z" fill="white"/>
<path d="M82.6296 1.36937C81.4812 0.881028 80.0915 0.639375 78.4974 0.63434H63.3579V18.1643H67.6318V11.2218H78.8382C80.8991 11.2218 82.6191 10.6881 83.8462 9.71145C85.0733 8.7398 85.7603 7.31505 85.7498 5.76444C85.7498 4.9841 85.5715 4.24404 85.2149 3.58956C84.6853 2.60784 83.7728 1.85268 82.6244 1.36434L82.6296 1.36937ZM81.3606 5.94568C81.3606 6.26285 81.2976 6.49947 81.2033 6.69078C81.0564 6.97271 80.8204 7.19422 80.359 7.39057C79.9027 7.57684 79.2263 7.7027 78.34 7.69767H67.6266V4.13831H78.4554C79.5619 4.13831 80.3223 4.3699 80.7418 4.677C80.9568 4.83307 81.0984 4.99921 81.198 5.20058C81.2976 5.40196 81.3553 5.64361 81.3553 5.94568H81.3606Z" fill="white"/>
<path d="M113.648 2.82936C111.582 1.20827 108.739 0.286963 105.53 0.286963C102.316 0.286963 99.4838 1.2133 97.4282 2.82936C95.3725 4.44542 94.114 6.78643 94.1245 9.44965C94.1192 12.1129 95.3778 14.4489 97.4334 16.0548C99.4891 17.6659 102.321 18.5821 105.535 18.5821C108.745 18.5821 111.587 17.6659 113.653 16.0548C115.719 14.4489 116.988 12.1129 116.983 9.44965C116.983 6.7814 115.719 4.44038 113.658 2.82936H113.648ZM110.643 13.4319C109.411 14.4287 107.633 15.053 105.53 15.053C103.427 15.053 101.66 14.4338 100.428 13.442C99.1954 12.4401 98.477 11.0858 98.4717 9.44965C98.4717 7.81346 99.1901 6.44912 100.428 5.44224C101.665 4.44038 103.443 3.81611 105.53 3.81611C107.638 3.81611 109.416 4.44038 110.643 5.44224C111.875 6.44912 112.578 7.80843 112.583 9.44965C112.583 11.0707 111.87 12.425 110.643 13.4319Z" fill="white"/>
<path d="M131.509 0.639374H127.235V1.47509V18.1693H144.802V14.6704H131.509V0.639374Z" fill="white"/>
<path d="M153.701 1.38951V18.2297H158.012V0.548754H153.701V1.38951Z" fill="white"/>
<path d="M164.913 4.13831H173.487V18.1693H177.761V4.13831H186.33V0.639374H164.913V4.13831Z" fill="white"/>
<path d="M198.406 0.639374L198.155 1.04213L187.389 18.1693H192.145L194.825 13.9051H205.098L207.856 18.1693H212.654L201.506 0.639374H198.406ZM202.89 10.376H197.054L199.959 5.78961L202.89 10.376Z" fill="white"/>
<path d="M235.408 0.639374V11.403L223.41 0.639374H220.867V1.47509V18.1693H225.146V7.40064L237.181 18.1693H239.682V0.639374H235.408Z" fill="white"/>
<path d="M259.19 6.60519C257.559 6.60016 256.237 7.86381 256.237 9.42952C256.237 10.9952 257.559 12.2589 259.19 12.2589C260.815 12.2538 262.132 10.9902 262.132 9.42952C262.132 7.86884 260.815 6.60519 259.19 6.60519Z" fill="white"/>
<path d="M299.615 18.05H292.169L289.762 15.1313L289.613 15.0759L289.465 15.1313L287.069 18.05H279.615V12.0408L282.427 9.5L279.615 6.95924V0.949999H287.071L289.479 3.64347L289.617 3.69119L289.754 3.64538L292.169 0.951908H299.615V6.96115L296.813 9.50191L299.615 12.0427V18.05Z" fill="white"/>
</g>
<defs>
<clipPath id="clip0_631_1476">
<rect width="301" height="19" fill="white"/>
</clipPath>
</defs>
</svg>
