<svg width="21" height="21" viewBox="0 0 21 21" fill="none" xmlns="http://www.w3.org/2000/svg">
<path d="M15.6348 7.30635C15.8046 7.13559 15.9393 6.93285 16.0312 6.70971C16.1231 6.48658 16.1704 6.24742 16.1704 6.00589C16.1705 5.76435 16.1232 5.52519 16.0314 5.30203C15.9395 5.07887 15.8049 4.87609 15.6352 4.70528C15.4655 4.53447 15.264 4.39897 15.0422 4.30651C14.8204 4.21405 14.5827 4.16644 14.3427 4.16641C14.1026 4.16637 13.8649 4.21392 13.6431 4.30632C13.4213 4.39872 13.2198 4.53417 13.05 4.70494L12.5048 5.25347C11.4609 4.74583 10.2859 4.57746 9.14263 4.77169C7.99937 4.96592 6.94445 5.51313 6.12409 6.3375L3.44791 9.03148L0.933253 9.88856C0.711963 9.96395 0.513431 10.0949 0.356433 10.2689C0.199436 10.443 0.0891531 10.6545 0.0360112 10.8834C-0.0171306 11.1123 -0.0113733 11.3511 0.0527322 11.5771C0.116838 11.8032 0.237176 12.009 0.402374 12.1753L2.50679 14.2933C2.18582 14.7969 2.04561 15.3957 2.10944 15.9905C2.17326 16.5853 2.43727 17.1403 2.85768 17.5633C3.27808 17.9864 3.82961 18.2521 4.42076 18.3165C5.01191 18.3808 5.60715 18.2398 6.10773 17.917L8.21216 20.035C8.33881 20.1634 8.48946 20.2653 8.65543 20.3348C8.82139 20.4044 8.99939 20.4402 9.17917 20.4402C9.28541 20.4401 9.39127 20.4277 9.4947 20.4032C9.7228 20.3508 9.93365 20.2402 10.107 20.082C10.2803 19.9239 10.4102 19.7235 10.4842 19.5002L11.3354 16.9694L14.0116 14.2761C14.8312 13.4505 15.3753 12.3887 15.5682 11.238C15.7611 10.0873 15.5934 8.90469 15.0883 7.85419L15.6348 7.30635ZM13.8371 5.49757C13.9727 5.37092 14.1519 5.30211 14.3368 5.30561C14.5218 5.3091 14.6983 5.38463 14.8291 5.51632C14.9599 5.648 15.0348 5.82558 15.0382 6.01171C15.0415 6.19785 14.973 6.37805 14.8471 6.51441L14.4831 6.88055C14.1903 6.50024 13.851 6.15859 13.4732 5.86371L13.8371 5.49757ZM4.69843 17.2142C4.45169 17.214 4.20885 17.1523 3.9916 17.0346C3.77436 16.9169 3.58949 16.7469 3.45353 16.5397C3.31756 16.3326 3.23475 16.0947 3.21249 15.8475C3.19022 15.6002 3.22919 15.3513 3.32593 15.1229L5.28518 17.0942C5.09969 17.1738 4.90008 17.2146 4.69843 17.2142ZM13.2231 13.4876L10.8488 15.8772L7.74397 12.7526C7.63867 12.6521 7.49858 12.597 7.3535 12.599C7.20843 12.6009 7.06983 12.6598 6.96724 12.763C6.86464 12.8662 6.80616 13.0057 6.80422 13.1516C6.80228 13.2976 6.85704 13.4386 6.95686 13.5445L10.2103 16.8193L9.42792 19.1443C9.41375 19.1866 9.38912 19.2244 9.35634 19.2544C9.32357 19.2844 9.28374 19.3054 9.24062 19.3156C9.1975 19.3258 9.15251 19.3247 9.10992 19.3125C9.06733 19.3003 9.02854 19.2773 8.99722 19.2458L1.18745 11.3854C1.15596 11.3539 1.13299 11.3149 1.12071 11.272C1.10843 11.2291 1.10726 11.1837 1.1173 11.1403C1.12733 11.0968 1.14825 11.0566 1.17806 11.0235C1.20787 10.9905 1.24558 10.9656 1.28762 10.9513L3.59784 10.1635L5.12708 11.7021C5.17877 11.7542 5.24013 11.7955 5.30768 11.8237C5.37522 11.8518 5.44762 11.8664 5.52074 11.8664C5.59386 11.8664 5.66627 11.852 5.73384 11.8239C5.80141 11.7957 5.86281 11.7545 5.91454 11.7025C5.96626 11.6505 6.00731 11.5887 6.03532 11.5208C6.06333 11.4528 6.07776 11.38 6.0778 11.3064C6.07783 11.2328 6.06346 11.16 6.0355 11.092C6.00755 11.024 5.96656 10.9622 5.91488 10.9102L4.53487 9.52104L6.90984 7.13081C7.60426 6.43283 8.5078 5.98432 9.48087 5.85457C10.4539 5.72481 11.4424 5.92103 12.2935 6.41293C12.31 6.42389 12.3271 6.43396 12.3447 6.4431C12.9856 6.82911 13.5215 7.36879 13.9046 8.01396C13.9132 8.03041 13.9225 8.0464 13.9325 8.06195C14.4226 8.91921 14.6185 9.91503 14.4897 10.8955C14.361 11.8759 13.9149 12.7864 13.2204 13.4862L13.2231 13.4876Z" fill="black"/>
<path d="M5.68697 2.36111C5.24421 2.36166 4.81973 2.53892 4.50671 2.85398C4.19369 3.16905 4.01769 3.59619 4.01733 4.04168C4.01733 4.19025 4.07599 4.33273 4.1804 4.43778C4.28482 4.54284 4.42643 4.60186 4.57409 4.60186C4.72176 4.60186 4.86339 4.54284 4.96781 4.43778C5.07222 4.33273 5.13088 4.19025 5.13088 4.04168C5.13106 3.89328 5.18968 3.751 5.29391 3.646C5.39813 3.541 5.53948 3.48185 5.68697 3.48149C5.83464 3.48149 5.97625 3.42246 6.08066 3.31741C6.18508 3.21235 6.24373 3.06987 6.24373 2.9213C6.24373 2.77273 6.18508 2.63024 6.08066 2.52518C5.97625 2.42013 5.83464 2.36111 5.68697 2.36111Z" fill="black"/>
<path d="M5.68545 0C4.62074 0.00145199 3.60007 0.427743 2.84733 1.18536C2.09459 1.94298 1.67125 2.97006 1.67017 4.04131C1.67017 4.18988 1.72882 4.33236 1.83324 4.43742C1.93765 4.54247 2.07928 4.60149 2.22695 4.60149C2.37461 4.60149 2.51622 4.54247 2.62064 4.43742C2.72505 4.33236 2.78371 4.18988 2.78371 4.04131C2.78443 3.26709 3.09035 2.52476 3.63433 1.97718C4.17832 1.4296 4.91596 1.12147 5.68545 1.12038C5.83312 1.12038 5.97475 1.06136 6.07916 0.9563C6.18358 0.851245 6.24224 0.708759 6.24224 0.560188C6.24224 0.411617 6.18358 0.269132 6.07916 0.164077C5.97475 0.0590211 5.83312 0 5.68545 0Z" fill="black"/>
<path d="M15.864 15.9689C15.864 16.1174 15.9227 16.2599 16.0271 16.365C16.1315 16.47 16.2731 16.529 16.4208 16.529C16.8636 16.5285 17.288 16.3512 17.601 16.0362C17.9141 15.7211 18.0901 15.294 18.0904 14.8485C18.0904 14.6999 18.0318 14.5574 17.9273 14.4524C17.8229 14.3473 17.6813 14.2883 17.5337 14.2883C17.386 14.2883 17.2444 14.3473 17.14 14.4524C17.0355 14.5574 16.9769 14.6999 16.9769 14.8485C16.9767 14.9969 16.9181 15.1391 16.8138 15.2441C16.7096 15.3491 16.5683 15.4083 16.4208 15.4087C16.2731 15.4087 16.1315 15.4677 16.0271 15.5727C15.9227 15.6778 15.864 15.8203 15.864 15.9689Z" fill="black"/>
<path d="M19.8871 14.2883C19.814 14.2883 19.7416 14.3028 19.674 14.3309C19.6065 14.3591 19.5451 14.4003 19.4934 14.4524C19.4417 14.5044 19.4007 14.5661 19.3727 14.6341C19.3448 14.7021 19.3304 14.7749 19.3304 14.8485C19.3296 15.6227 19.0237 16.365 18.4797 16.9126C17.9357 17.4602 17.1981 17.7683 16.4286 17.7694C16.2809 17.7694 16.1393 17.8284 16.0349 17.9335C15.9305 18.0385 15.8718 18.181 15.8718 18.3296C15.8718 18.4782 15.9305 18.6206 16.0349 18.7257C16.1393 18.8308 16.2809 18.8898 16.4286 18.8898C17.4933 18.8883 18.514 18.462 19.2667 17.7044C20.0195 16.9468 20.4428 15.9197 20.4439 14.8485C20.4439 14.7749 20.4295 14.7021 20.4015 14.6341C20.3735 14.5661 20.3325 14.5044 20.2808 14.4524C20.2291 14.4003 20.1677 14.3591 20.1002 14.3309C20.0326 14.3028 19.9602 14.2883 19.8871 14.2883Z" fill="black"/>
</svg>
